M48
; DRILL file {KiCad 7.0.10} date Sun Feb 25 20:31:33 2024
; FORMAT={-:-/ absolute / metric / decimal}
; #@! TF.CreationDate,2024-02-25T20:31:33-06:00
; #@! TF.GenerationSoftware,Kicad,Pcbnew,7.0.10
; #@! TF.FileFunction,MixedPlating,1,2
FMAT,2
METRIC
; #@! TA.AperFunction,Plated,PTH,ViaDrill
T1C0.300
; #@! TA.AperFunction,Plated,PTH,ViaDrill
T2C0.400
; #@! TA.AperFunction,Plated,PTH,ComponentDrill
T3C1.000
%
G90
G05
T1
X102.0Y-106.0
X102.0Y-108.0
X102.0Y-110.0
X102.0Y-112.0
X102.2Y-126.2
X103.8Y-122.4
X104.0Y-106.0
X104.0Y-108.0
X104.0Y-110.0
X104.0Y-112.0
X105.4Y-126.2
X106.0Y-106.0
X106.0Y-108.0
X106.0Y-110.0
X106.0Y-112.0
X108.0Y-106.0
X108.0Y-108.0
X108.0Y-110.0
X108.66Y-124.53
X108.8Y-123.4
X109.0Y-114.0
X109.0Y-116.0
X110.0Y-106.0
X110.0Y-108.0
X111.0Y-112.0
X111.0Y-114.0
X111.0Y-116.0
X111.0Y-124.0
X112.0Y-106.0
X112.6Y-119.6
X113.0Y-110.0
X113.0Y-112.0
X113.0Y-114.0
X113.0Y-116.0
X113.0Y-124.0
X114.247Y-113.578
X115.0Y-124.0
X115.1Y-111.7
X115.8Y-113.5
X116.6Y-109.1
X116.6Y-109.9
X117.0Y-124.0
X117.5Y-109.1
X118.0Y-115.6
X119.0Y-124.0
X119.2Y-108.9
X121.0Y-120.0
X121.0Y-122.0
X121.0Y-124.0
X121.0Y-126.0
X123.8Y-113.4
X124.4Y-119.8
X124.4Y-125.8
X125.4Y-119.8
X125.4Y-120.8
X125.4Y-124.8
X125.4Y-125.8
X126.4Y-119.8
X126.4Y-120.8
X126.4Y-121.8
X126.4Y-122.8
X126.4Y-123.8
X126.4Y-124.8
X126.4Y-125.8
X127.4Y-119.8
X127.4Y-120.8
X127.4Y-124.8
X127.4Y-125.8
X128.4Y-119.8
X128.4Y-125.8
X132.0Y-122.0
X132.0Y-124.0
X132.0Y-126.0
X134.0Y-122.0
X134.0Y-124.0
X134.0Y-126.0
X136.0Y-122.0
X136.0Y-124.0
X136.0Y-126.0
X138.0Y-122.0
X138.0Y-124.0
X138.0Y-126.0
T2
X123.4Y-118.8
X123.4Y-119.8
X123.4Y-120.8
X123.4Y-124.8
X123.4Y-125.8
X123.4Y-126.8
X124.4Y-118.8
X124.4Y-120.8
X124.4Y-124.8
X124.4Y-126.8
X125.4Y-118.8
X125.4Y-121.8
X125.4Y-122.8
X125.4Y-123.8
X125.4Y-126.8
X126.4Y-118.8
X126.4Y-126.8
X127.4Y-118.8
X127.4Y-121.8
X127.4Y-122.8
X127.4Y-123.8
X127.4Y-126.8
X128.4Y-118.8
X128.4Y-120.8
X128.4Y-124.8
X128.4Y-126.8
X129.4Y-118.8
X129.4Y-119.8
X129.4Y-120.8
X129.4Y-124.8
X129.4Y-125.8
X129.4Y-126.8
T3
X137.6Y-105.325
X137.6Y-107.865
X137.6Y-110.405
X137.6Y-112.945
X137.6Y-115.485
M30
