%TF.GenerationSoftware,KiCad,Pcbnew,7.0.10*%
%TF.CreationDate,2024-02-25T20:26:58-06:00*%
%TF.ProjectId,Radar2_ExtFilter,52616461-7232-45f4-9578-7446696c7465,rev?*%
%TF.SameCoordinates,Original*%
%TF.FileFunction,Copper,L1,Top*%
%TF.FilePolarity,Positive*%
%FSLAX46Y46*%
G04 Gerber Fmt 4.6, Leading zero omitted, Abs format (unit mm)*
G04 Created by KiCad (PCBNEW 7.0.10) date 2024-02-25 20:26:58*
%MOMM*%
%LPD*%
G01*
G04 APERTURE LIST*
G04 Aperture macros list*
%AMRoundRect*
0 Rectangle with rounded corners*
0 $1 Rounding radius*
0 $2 $3 $4 $5 $6 $7 $8 $9 X,Y pos of 4 corners*
0 Add a 4 corners polygon primitive as box body*
4,1,4,$2,$3,$4,$5,$6,$7,$8,$9,$2,$3,0*
0 Add four circle primitives for the rounded corners*
1,1,$1+$1,$2,$3*
1,1,$1+$1,$4,$5*
1,1,$1+$1,$6,$7*
1,1,$1+$1,$8,$9*
0 Add four rect primitives between the rounded corners*
20,1,$1+$1,$2,$3,$4,$5,0*
20,1,$1+$1,$4,$5,$6,$7,0*
20,1,$1+$1,$6,$7,$8,$9,0*
20,1,$1+$1,$8,$9,$2,$3,0*%
G04 Aperture macros list end*
%TA.AperFunction,SMDPad,CuDef*%
%ADD10R,5.080000X2.290000*%
%TD*%
%TA.AperFunction,SMDPad,CuDef*%
%ADD11R,5.080000X2.420000*%
%TD*%
%TA.AperFunction,SMDPad,CuDef*%
%ADD12R,0.950000X0.460000*%
%TD*%
%TA.AperFunction,ComponentPad*%
%ADD13C,0.970000*%
%TD*%
%TA.AperFunction,SMDPad,CuDef*%
%ADD14R,0.560000X0.250000*%
%TD*%
%TA.AperFunction,SMDPad,CuDef*%
%ADD15RoundRect,0.147500X0.172500X-0.147500X0.172500X0.147500X-0.172500X0.147500X-0.172500X-0.147500X0*%
%TD*%
%TA.AperFunction,SMDPad,CuDef*%
%ADD16RoundRect,0.237500X0.008839X0.344715X-0.344715X-0.008839X-0.008839X-0.344715X0.344715X0.008839X0*%
%TD*%
%TA.AperFunction,SMDPad,CuDef*%
%ADD17R,0.400000X0.500000*%
%TD*%
%TA.AperFunction,SMDPad,CuDef*%
%ADD18R,1.000000X1.000000*%
%TD*%
%TA.AperFunction,SMDPad,CuDef*%
%ADD19RoundRect,0.140000X-0.140000X-0.170000X0.140000X-0.170000X0.140000X0.170000X-0.140000X0.170000X0*%
%TD*%
%TA.AperFunction,ComponentPad*%
%ADD20C,5.000000*%
%TD*%
%TA.AperFunction,SMDPad,CuDef*%
%ADD21RoundRect,0.135000X0.135000X0.185000X-0.135000X0.185000X-0.135000X-0.185000X0.135000X-0.185000X0*%
%TD*%
%TA.AperFunction,SMDPad,CuDef*%
%ADD22RoundRect,0.155000X0.155000X-0.212500X0.155000X0.212500X-0.155000X0.212500X-0.155000X-0.212500X0*%
%TD*%
%TA.AperFunction,SMDPad,CuDef*%
%ADD23RoundRect,0.135000X0.185000X-0.135000X0.185000X0.135000X-0.185000X0.135000X-0.185000X-0.135000X0*%
%TD*%
%TA.AperFunction,SMDPad,CuDef*%
%ADD24R,1.150000X0.600000*%
%TD*%
%TA.AperFunction,SMDPad,CuDef*%
%ADD25RoundRect,0.160000X-0.160000X0.197500X-0.160000X-0.197500X0.160000X-0.197500X0.160000X0.197500X0*%
%TD*%
%TA.AperFunction,SMDPad,CuDef*%
%ADD26RoundRect,0.225000X-0.225000X-0.250000X0.225000X-0.250000X0.225000X0.250000X-0.225000X0.250000X0*%
%TD*%
%TA.AperFunction,SMDPad,CuDef*%
%ADD27RoundRect,0.147500X-0.172500X0.147500X-0.172500X-0.147500X0.172500X-0.147500X0.172500X0.147500X0*%
%TD*%
%TA.AperFunction,SMDPad,CuDef*%
%ADD28RoundRect,0.160000X0.197500X0.160000X-0.197500X0.160000X-0.197500X-0.160000X0.197500X-0.160000X0*%
%TD*%
%TA.AperFunction,SMDPad,CuDef*%
%ADD29RoundRect,0.155000X-0.212500X-0.155000X0.212500X-0.155000X0.212500X0.155000X-0.212500X0.155000X0*%
%TD*%
%TA.AperFunction,SMDPad,CuDef*%
%ADD30R,2.290000X5.080000*%
%TD*%
%TA.AperFunction,SMDPad,CuDef*%
%ADD31R,2.420000X5.080000*%
%TD*%
%TA.AperFunction,SMDPad,CuDef*%
%ADD32R,0.460000X0.950000*%
%TD*%
%TA.AperFunction,SMDPad,CuDef*%
%ADD33RoundRect,0.249600X-0.270400X-0.650400X0.270400X-0.650400X0.270400X0.650400X-0.270400X0.650400X0*%
%TD*%
%TA.AperFunction,SMDPad,CuDef*%
%ADD34RoundRect,0.152500X-0.152500X-0.470000X0.152500X-0.470000X0.152500X0.470000X-0.152500X0.470000X0*%
%TD*%
%TA.AperFunction,ComponentPad*%
%ADD35C,0.610000*%
%TD*%
%TA.AperFunction,SMDPad,CuDef*%
%ADD36RoundRect,0.160000X0.160000X-0.197500X0.160000X0.197500X-0.160000X0.197500X-0.160000X-0.197500X0*%
%TD*%
%TA.AperFunction,SMDPad,CuDef*%
%ADD37RoundRect,0.250000X0.475000X-0.250000X0.475000X0.250000X-0.475000X0.250000X-0.475000X-0.250000X0*%
%TD*%
%TA.AperFunction,SMDPad,CuDef*%
%ADD38RoundRect,0.140000X0.140000X0.170000X-0.140000X0.170000X-0.140000X-0.170000X0.140000X-0.170000X0*%
%TD*%
%TA.AperFunction,SMDPad,CuDef*%
%ADD39RoundRect,0.140000X0.170000X-0.140000X0.170000X0.140000X-0.170000X0.140000X-0.170000X-0.140000X0*%
%TD*%
%TA.AperFunction,SMDPad,CuDef*%
%ADD40RoundRect,0.155000X0.212500X0.155000X-0.212500X0.155000X-0.212500X-0.155000X0.212500X-0.155000X0*%
%TD*%
%TA.AperFunction,SMDPad,CuDef*%
%ADD41R,0.700000X0.300000*%
%TD*%
%TA.AperFunction,SMDPad,CuDef*%
%ADD42R,1.000000X1.700000*%
%TD*%
%TA.AperFunction,SMDPad,CuDef*%
%ADD43R,1.050000X0.400000*%
%TD*%
%TA.AperFunction,SMDPad,CuDef*%
%ADD44R,0.500000X0.400000*%
%TD*%
%TA.AperFunction,SMDPad,CuDef*%
%ADD45RoundRect,0.250000X-0.250000X-0.475000X0.250000X-0.475000X0.250000X0.475000X-0.250000X0.475000X0*%
%TD*%
%TA.AperFunction,SMDPad,CuDef*%
%ADD46R,2.500000X1.500000*%
%TD*%
%TA.AperFunction,SMDPad,CuDef*%
%ADD47R,7.000000X7.000000*%
%TD*%
%TA.AperFunction,SMDPad,CuDef*%
%ADD48R,0.300000X0.700000*%
%TD*%
%TA.AperFunction,SMDPad,CuDef*%
%ADD49R,2.950000X2.950000*%
%TD*%
%TA.AperFunction,SMDPad,CuDef*%
%ADD50RoundRect,0.250000X0.250000X0.475000X-0.250000X0.475000X-0.250000X-0.475000X0.250000X-0.475000X0*%
%TD*%
%TA.AperFunction,SMDPad,CuDef*%
%ADD51R,0.600000X0.250000*%
%TD*%
%TA.AperFunction,SMDPad,CuDef*%
%ADD52R,0.650000X1.150000*%
%TD*%
%TA.AperFunction,SMDPad,CuDef*%
%ADD53RoundRect,0.237500X0.250000X0.237500X-0.250000X0.237500X-0.250000X-0.237500X0.250000X-0.237500X0*%
%TD*%
%TA.AperFunction,SMDPad,CuDef*%
%ADD54RoundRect,0.100000X-0.712500X-0.100000X0.712500X-0.100000X0.712500X0.100000X-0.712500X0.100000X0*%
%TD*%
%TA.AperFunction,ComponentPad*%
%ADD55R,1.700000X1.700000*%
%TD*%
%TA.AperFunction,ComponentPad*%
%ADD56O,1.700000X1.700000*%
%TD*%
%TA.AperFunction,SMDPad,CuDef*%
%ADD57R,1.270000X0.760000*%
%TD*%
%TA.AperFunction,SMDPad,CuDef*%
%ADD58RoundRect,0.250000X-0.337500X-0.475000X0.337500X-0.475000X0.337500X0.475000X-0.337500X0.475000X0*%
%TD*%
%TA.AperFunction,SMDPad,CuDef*%
%ADD59RoundRect,0.237500X0.300000X0.237500X-0.300000X0.237500X-0.300000X-0.237500X0.300000X-0.237500X0*%
%TD*%
%TA.AperFunction,SMDPad,CuDef*%
%ADD60RoundRect,0.135000X-0.185000X0.135000X-0.185000X-0.135000X0.185000X-0.135000X0.185000X0.135000X0*%
%TD*%
%TA.AperFunction,ViaPad*%
%ADD61C,0.600000*%
%TD*%
%TA.AperFunction,ViaPad*%
%ADD62C,0.800000*%
%TD*%
%TA.AperFunction,Conductor*%
%ADD63C,0.250000*%
%TD*%
%TA.AperFunction,Conductor*%
%ADD64C,0.197000*%
%TD*%
%TA.AperFunction,Conductor*%
%ADD65C,0.200000*%
%TD*%
%TA.AperFunction,Conductor*%
%ADD66C,0.300000*%
%TD*%
G04 APERTURE END LIST*
D10*
%TO.P,J2,1,In*%
%TO.N,Net-(J2-In)*%
X184930000Y-77750000D03*
D11*
%TO.P,J2,2,Ext*%
%TO.N,GND*%
X184930000Y-82130000D03*
X184930000Y-73370000D03*
D12*
X181940000Y-82130000D03*
X181940000Y-73370000D03*
D13*
X181490000Y-82130000D03*
X181490000Y-73370000D03*
%TD*%
D14*
%TO.P,IC4,1,INPUT*%
%TO.N,Net-(IC4-INPUT)*%
X126960000Y-60630000D03*
%TO.P,IC4,2,GROUND_1*%
%TO.N,GND*%
X126960000Y-61140000D03*
%TO.P,IC4,3,TERMINATION*%
%TO.N,Net-(IC4-TERMINATION)*%
X126960000Y-61650000D03*
%TO.P,IC4,4,OUTPUT*%
%TO.N,/RadarTx/PA_IN*%
X127750000Y-61650000D03*
%TO.P,IC4,5,GROUND_2*%
%TO.N,GND*%
X127750000Y-61140000D03*
%TO.P,IC4,6,COUPLED*%
%TO.N,Net-(IC4-COUPLED)*%
X127750000Y-60630000D03*
%TD*%
D15*
%TO.P,L5,1*%
%TO.N,Net-(IC6-RFOUT)*%
X145500000Y-60630000D03*
%TO.P,L5,2*%
%TO.N,Net-(C17-Pad2)*%
X145500000Y-59660000D03*
%TD*%
D16*
%TO.P,R10,1*%
%TO.N,Net-(IC4-TERMINATION)*%
X125445235Y-63234765D03*
%TO.P,R10,2*%
%TO.N,GND*%
X124154765Y-64525235D03*
%TD*%
D17*
%TO.P,FB3,1,1*%
%TO.N,+3V0*%
X169700000Y-53000000D03*
%TO.P,FB3,2,2*%
%TO.N,Net-(U2-DC)*%
X170500000Y-53000000D03*
%TD*%
D18*
%TO.P,TP4,1,1*%
%TO.N,+3V3*%
X160300000Y-86500000D03*
%TD*%
D19*
%TO.P,C9,1*%
%TO.N,Net-(IC4-COUPLED)*%
X130087500Y-60630000D03*
%TO.P,C9,2*%
%TO.N,Net-(C9-Pad2)*%
X131047500Y-60630000D03*
%TD*%
D20*
%TO.P,H4,1,1*%
%TO.N,GND*%
X175000000Y-84000000D03*
%TD*%
D21*
%TO.P,R18,1*%
%TO.N,Net-(C19-Pad2)*%
X158510000Y-60630000D03*
%TO.P,R18,2*%
%TO.N,Net-(U1-RF)*%
X157490000Y-60630000D03*
%TD*%
D22*
%TO.P,C5,1*%
%TO.N,+10V*%
X117450000Y-53167500D03*
%TO.P,C5,2*%
%TO.N,GND*%
X117450000Y-52032500D03*
%TD*%
D23*
%TO.P,R15,1*%
%TO.N,GND*%
X136567500Y-61650000D03*
%TO.P,R15,2*%
%TO.N,MIXER_IN*%
X136567500Y-60630000D03*
%TD*%
D24*
%TO.P,IC2,1,OUTPUT*%
%TO.N,/RadarTx/VCO_Scaled*%
X113350000Y-53150000D03*
%TO.P,IC2,2,VDD*%
%TO.N,GND*%
X113350000Y-54100000D03*
%TO.P,IC2,3,+*%
%TO.N,Net-(IC2-+)*%
X113350000Y-55050000D03*
%TO.P,IC2,4,-*%
%TO.N,Net-(IC2--)*%
X115950000Y-55050000D03*
%TO.P,IC2,5,VCC*%
%TO.N,+10V*%
X115950000Y-53150000D03*
%TD*%
D25*
%TO.P,R17,1*%
%TO.N,Net-(C15-Pad2)*%
X143300000Y-57202500D03*
%TO.P,R17,2*%
%TO.N,Net-(C17-Pad2)*%
X143300000Y-58397500D03*
%TD*%
D26*
%TO.P,C2,1*%
%TO.N,+3V0*%
X105625000Y-57000000D03*
%TO.P,C2,2*%
%TO.N,GND*%
X107175000Y-57000000D03*
%TD*%
D27*
%TO.P,L3,1*%
%TO.N,Net-(C11-Pad2)*%
X141970000Y-76780000D03*
%TO.P,L3,2*%
%TO.N,Net-(IC5-RFOUT{slash}VD)*%
X141970000Y-77750000D03*
%TD*%
D28*
%TO.P,R12,1*%
%TO.N,Net-(C11-Pad2)*%
X139567500Y-74250000D03*
%TO.P,R12,2*%
%TO.N,Net-(R11-Pad2)*%
X138372500Y-74250000D03*
%TD*%
D29*
%TO.P,C21,1*%
%TO.N,Net-(U2-DC)*%
X172432500Y-53130000D03*
%TO.P,C21,2*%
%TO.N,GND*%
X173567500Y-53130000D03*
%TD*%
D30*
%TO.P,J1,1,In*%
%TO.N,Net-(J1-In)*%
X122500000Y-44700000D03*
D31*
%TO.P,J1,2,Ext*%
%TO.N,GND*%
X126880000Y-44700000D03*
X118120000Y-44700000D03*
D32*
X126880000Y-47690000D03*
X118120000Y-47690000D03*
D13*
X126880000Y-48140000D03*
X118120000Y-48140000D03*
%TD*%
D20*
%TO.P,H3,1,1*%
%TO.N,GND*%
X105000000Y-84000000D03*
%TD*%
D21*
%TO.P,R14,1*%
%TO.N,MIXER_IN*%
X135077500Y-60630000D03*
%TO.P,R14,2*%
%TO.N,Net-(C9-Pad2)*%
X134057500Y-60630000D03*
%TD*%
D18*
%TO.P,TP7,1,1*%
%TO.N,Net-(U2-DC)*%
X164000000Y-53200000D03*
%TD*%
D33*
%TO.P,FL1,1,IN*%
%TO.N,Net-(FL1-IN)*%
X109125000Y-60630000D03*
D34*
%TO.P,FL1,2,GND*%
%TO.N,GND*%
X110750000Y-61557500D03*
D35*
X110750000Y-61735000D03*
D33*
%TO.P,FL1,3,OUT*%
%TO.N,Net-(FL1-OUT)*%
X112375000Y-60630000D03*
D35*
%TO.P,FL1,4,GND*%
%TO.N,GND*%
X110750000Y-59525000D03*
D34*
X110750000Y-59702500D03*
%TD*%
D10*
%TO.P,J5,1,In*%
%TO.N,Net-(J5-In)*%
X184930000Y-59330000D03*
D11*
%TO.P,J5,2,Ext*%
%TO.N,GND*%
X184930000Y-63710000D03*
X184930000Y-54950000D03*
D12*
X181940000Y-63710000D03*
X181940000Y-54950000D03*
D13*
X181490000Y-63710000D03*
X181490000Y-54950000D03*
%TD*%
D36*
%TO.P,R16,1*%
%TO.N,Net-(IC6-VCC)*%
X141300000Y-58397500D03*
%TO.P,R16,2*%
%TO.N,Net-(C15-Pad2)*%
X141300000Y-57202500D03*
%TD*%
D18*
%TO.P,TP1,1,1*%
%TO.N,+3V0*%
X106500000Y-70850000D03*
%TD*%
D23*
%TO.P,R7,1*%
%TO.N,GND*%
X118500000Y-61650000D03*
%TO.P,R7,2*%
%TO.N,Net-(C7-Pad1)*%
X118500000Y-60630000D03*
%TD*%
D19*
%TO.P,C8,1*%
%TO.N,/RadarTx/PA_IN*%
X133190000Y-77750000D03*
%TO.P,C8,2*%
%TO.N,Net-(IC5-RFIN)*%
X134150000Y-77750000D03*
%TD*%
D18*
%TO.P,TP6,1,1*%
%TO.N,Net-(C15-Pad2)*%
X143400000Y-55400000D03*
%TD*%
D36*
%TO.P,R2,1*%
%TO.N,GND*%
X115950000Y-57747500D03*
%TO.P,R2,2*%
%TO.N,Net-(IC2--)*%
X115950000Y-56552500D03*
%TD*%
D37*
%TO.P,C4,1*%
%TO.N,+10V*%
X107250000Y-75500000D03*
%TO.P,C4,2*%
%TO.N,GND*%
X107250000Y-73600000D03*
%TD*%
D38*
%TO.P,C23,1*%
%TO.N,Net-(J5-In)*%
X173480000Y-59330000D03*
%TO.P,C23,2*%
%TO.N,Net-(IC7-RF-IN)*%
X172520000Y-59330000D03*
%TD*%
D20*
%TO.P,H2,1,1*%
%TO.N,GND*%
X180700000Y-47000000D03*
%TD*%
D39*
%TO.P,C10,1*%
%TO.N,GND*%
X140470000Y-78710000D03*
%TO.P,C10,2*%
%TO.N,Net-(IC5-RFOUT{slash}VD)*%
X140470000Y-77750000D03*
%TD*%
D36*
%TO.P,R21,1*%
%TO.N,Net-(IC7-BIAS)*%
X171000000Y-55477500D03*
%TO.P,R21,2*%
%TO.N,Net-(U2-DC)*%
X171000000Y-54282500D03*
%TD*%
D40*
%TO.P,C11,1*%
%TO.N,GND*%
X143037500Y-73750000D03*
%TO.P,C11,2*%
%TO.N,Net-(C11-Pad2)*%
X141902500Y-73750000D03*
%TD*%
D36*
%TO.P,R11,1*%
%TO.N,Net-(IC5-VEN)*%
X136970000Y-75317500D03*
%TO.P,R11,2*%
%TO.N,Net-(R11-Pad2)*%
X136970000Y-74122500D03*
%TD*%
D21*
%TO.P,R9,1*%
%TO.N,Net-(IC4-INPUT)*%
X124810000Y-60630000D03*
%TO.P,R9,2*%
%TO.N,Net-(C7-Pad2)*%
X123790000Y-60630000D03*
%TD*%
D29*
%TO.P,C22,1*%
%TO.N,Net-(U2-DC)*%
X172432500Y-54380000D03*
%TO.P,C22,2*%
%TO.N,GND*%
X173567500Y-54380000D03*
%TD*%
D41*
%TO.P,IC6,1,VCC*%
%TO.N,Net-(IC6-VCC)*%
X141450000Y-60130000D03*
%TO.P,IC6,2,RFIN*%
%TO.N,Net-(IC6-RFIN)*%
X141450000Y-60630000D03*
%TO.P,IC6,3,NC_1*%
%TO.N,GND*%
X141450000Y-61130000D03*
%TO.P,IC6,4,NC_2*%
X141450000Y-61630000D03*
%TO.P,IC6,5,PWDN*%
X143550000Y-61630000D03*
%TO.P,IC6,6,NC_3*%
X143550000Y-61130000D03*
%TO.P,IC6,7,RFOUT*%
%TO.N,Net-(IC6-RFOUT)*%
X143550000Y-60630000D03*
%TO.P,IC6,8,NC_4*%
%TO.N,GND*%
X143550000Y-60130000D03*
D42*
%TO.P,IC6,9,EP*%
X142500000Y-60880000D03*
%TD*%
D19*
%TO.P,C13,1*%
%TO.N,Net-(IC5-RFOUT{slash}VD)*%
X143740000Y-77750000D03*
%TO.P,C13,2*%
%TO.N,Net-(J2-In)*%
X144700000Y-77750000D03*
%TD*%
D18*
%TO.P,TP3,1,1*%
%TO.N,Net-(J4-Pin_4)*%
X157600000Y-86500000D03*
%TD*%
D22*
%TO.P,C1,1*%
%TO.N,Net-(IC2-+)*%
X111550000Y-54367500D03*
%TO.P,C1,2*%
%TO.N,GND*%
X111550000Y-53232500D03*
%TD*%
D27*
%TO.P,L2,1*%
%TO.N,Net-(IC5-RFIN)*%
X135470000Y-77750000D03*
%TO.P,L2,2*%
%TO.N,GND*%
X135470000Y-78720000D03*
%TD*%
D43*
%TO.P,IC7,1,GND_1*%
%TO.N,GND*%
X169000000Y-60630000D03*
%TO.P,IC7,2,GND_2*%
X169000000Y-59980000D03*
%TO.P,IC7,3,RF-IN*%
%TO.N,Net-(IC7-RF-IN)*%
X169000000Y-59330000D03*
%TO.P,IC7,4,BIAS*%
%TO.N,Net-(IC7-BIAS)*%
X167000000Y-59330000D03*
%TO.P,IC7,5,GND_3*%
%TO.N,GND*%
X167000000Y-59980000D03*
%TO.P,IC7,6,RF-OUT*%
%TO.N,Net-(IC7-RF-OUT)*%
X167000000Y-60630000D03*
%TD*%
D44*
%TO.P,FB1,1,1*%
%TO.N,+5V*%
X140470000Y-71820000D03*
%TO.P,FB1,2,2*%
%TO.N,Net-(C11-Pad2)*%
X140470000Y-72620000D03*
%TD*%
D45*
%TO.P,C3,1*%
%TO.N,+3V0*%
X105590000Y-55020000D03*
%TO.P,C3,2*%
%TO.N,GND*%
X107490000Y-55020000D03*
%TD*%
D25*
%TO.P,R1,1*%
%TO.N,Net-(IC2-+)*%
X111550000Y-55652500D03*
%TO.P,R1,2*%
%TO.N,/RadarTx/VCO_Tune*%
X111550000Y-56847500D03*
%TD*%
D29*
%TO.P,C20,1*%
%TO.N,Net-(C20-Pad1)*%
X169865000Y-56880000D03*
%TO.P,C20,2*%
%TO.N,Net-(IC7-BIAS)*%
X171000000Y-56880000D03*
%TD*%
D46*
%TO.P,IC3,1,GND*%
%TO.N,GND*%
X111507000Y-71360000D03*
D47*
%TO.P,IC3,2,OUTPUT*%
%TO.N,+5V*%
X118407000Y-73660000D03*
D46*
%TO.P,IC3,3,INPUT*%
%TO.N,+10V*%
X111507000Y-75960000D03*
%TD*%
D19*
%TO.P,C16,1*%
%TO.N,Net-(IC6-RFOUT)*%
X147020000Y-60630000D03*
%TO.P,C16,2*%
%TO.N,Net-(U1-LO)*%
X147980000Y-60630000D03*
%TD*%
D41*
%TO.P,IC1,1,N/C_1*%
%TO.N,unconnected-(IC1-N{slash}C_1-Pad1)*%
X102400000Y-59630000D03*
%TO.P,IC1,2,N/C_2*%
%TO.N,unconnected-(IC1-N{slash}C_2-Pad2)*%
X102400000Y-60130000D03*
%TO.P,IC1,3,N/C_3*%
%TO.N,unconnected-(IC1-N{slash}C_3-Pad3)*%
X102400000Y-60630000D03*
%TO.P,IC1,4,N/C_4*%
%TO.N,unconnected-(IC1-N{slash}C_4-Pad4)*%
X102400000Y-61130000D03*
%TO.P,IC1,5,N/C_5*%
%TO.N,unconnected-(IC1-N{slash}C_5-Pad5)*%
X102400000Y-61630000D03*
%TO.P,IC1,6,N/C_6*%
%TO.N,unconnected-(IC1-N{slash}C_6-Pad6)*%
X102400000Y-62130000D03*
D48*
%TO.P,IC1,7,N/C_7*%
%TO.N,unconnected-(IC1-N{slash}C_7-Pad7)*%
X103200000Y-62930000D03*
%TO.P,IC1,8,N/C_8*%
%TO.N,unconnected-(IC1-N{slash}C_8-Pad8)*%
X103700000Y-62930000D03*
%TO.P,IC1,9,N/C_9*%
%TO.N,unconnected-(IC1-N{slash}C_9-Pad9)*%
X104200000Y-62930000D03*
%TO.P,IC1,10,N/C_10*%
%TO.N,unconnected-(IC1-N{slash}C_10-Pad10)*%
X104700000Y-62930000D03*
%TO.P,IC1,11,N/C_11*%
%TO.N,unconnected-(IC1-N{slash}C_11-Pad11)*%
X105200000Y-62930000D03*
%TO.P,IC1,12,N/C_12*%
%TO.N,unconnected-(IC1-N{slash}C_12-Pad12)*%
X105700000Y-62930000D03*
D41*
%TO.P,IC1,13,N/C_13*%
%TO.N,unconnected-(IC1-N{slash}C_13-Pad13)*%
X106500000Y-62130000D03*
%TO.P,IC1,14,N/C_14*%
%TO.N,unconnected-(IC1-N{slash}C_14-Pad14)*%
X106500000Y-61630000D03*
%TO.P,IC1,15,GND*%
%TO.N,GND*%
X106500000Y-61130000D03*
%TO.P,IC1,16,RFOUT*%
%TO.N,Net-(FL1-IN)*%
X106500000Y-60630000D03*
%TO.P,IC1,17,N/C_15*%
%TO.N,unconnected-(IC1-N{slash}C_15-Pad17)*%
X106500000Y-60130000D03*
%TO.P,IC1,18,N/C_16*%
%TO.N,unconnected-(IC1-N{slash}C_16-Pad18)*%
X106500000Y-59630000D03*
D48*
%TO.P,IC1,19,N/C_17*%
%TO.N,unconnected-(IC1-N{slash}C_17-Pad19)*%
X105700000Y-58830000D03*
%TO.P,IC1,20,VCC*%
%TO.N,+3V0*%
X105200000Y-58830000D03*
%TO.P,IC1,21,N/C_18*%
%TO.N,unconnected-(IC1-N{slash}C_18-Pad21)*%
X104700000Y-58830000D03*
%TO.P,IC1,22,VTUNE*%
%TO.N,/RadarTx/VCO_Scaled*%
X104200000Y-58830000D03*
%TO.P,IC1,23,N/C_19*%
%TO.N,unconnected-(IC1-N{slash}C_19-Pad23)*%
X103700000Y-58830000D03*
%TO.P,IC1,24,N/C_20*%
%TO.N,unconnected-(IC1-N{slash}C_20-Pad24)*%
X103200000Y-58830000D03*
D49*
%TO.P,IC1,25,EP*%
%TO.N,GND*%
X104450000Y-60880000D03*
%TD*%
D15*
%TO.P,L6,1*%
%TO.N,Net-(IC7-RF-IN)*%
X171000000Y-59330000D03*
%TO.P,L6,2*%
%TO.N,Net-(IC7-BIAS)*%
X171000000Y-58360000D03*
%TD*%
D18*
%TO.P,TP2,1,1*%
%TO.N,Net-(C11-Pad2)*%
X142895000Y-71600000D03*
%TD*%
D27*
%TO.P,L1,1*%
%TO.N,/RadarTx/PA_IN*%
X131645000Y-77750000D03*
%TO.P,L1,2*%
%TO.N,GND*%
X131645000Y-78720000D03*
%TD*%
D23*
%TO.P,R13,1*%
%TO.N,GND*%
X132567500Y-61650000D03*
%TO.P,R13,2*%
%TO.N,Net-(C9-Pad2)*%
X132567500Y-60630000D03*
%TD*%
D50*
%TO.P,C6,1*%
%TO.N,+5V*%
X118750000Y-79400000D03*
%TO.P,C6,2*%
%TO.N,GND*%
X116850000Y-79400000D03*
%TD*%
D51*
%TO.P,IC5,1,VEN*%
%TO.N,Net-(IC5-VEN)*%
X137120000Y-76750000D03*
%TO.P,IC5,2,NC_1*%
%TO.N,GND*%
X137120000Y-77250000D03*
%TO.P,IC5,3,RFIN*%
%TO.N,Net-(IC5-RFIN)*%
X137120000Y-77750000D03*
%TO.P,IC5,4,RFOUT/VD*%
%TO.N,Net-(IC5-RFOUT{slash}VD)*%
X138820000Y-77750000D03*
%TO.P,IC5,5,NC_2*%
%TO.N,GND*%
X138820000Y-77250000D03*
%TO.P,IC5,6,NC_3*%
X138820000Y-76750000D03*
D52*
%TO.P,IC5,7,EP*%
X137970000Y-77250000D03*
%TD*%
D53*
%TO.P,R20,1*%
%TO.N,Net-(C20-Pad1)*%
X168062500Y-56900000D03*
%TO.P,R20,2*%
%TO.N,GND*%
X166237500Y-56900000D03*
%TD*%
D54*
%TO.P,U1,1,GND*%
%TO.N,GND*%
X151000000Y-59980000D03*
%TO.P,U1,2,LO*%
%TO.N,Net-(U1-LO)*%
X151000000Y-60630000D03*
%TO.P,U1,3,GND*%
%TO.N,GND*%
X151000000Y-61280000D03*
%TO.P,U1,4,NC*%
%TO.N,unconnected-(U1-NC-Pad4)*%
X151000000Y-61930000D03*
%TO.P,U1,5,IF*%
%TO.N,/RadarRx/IF_OUT*%
X155225000Y-61930000D03*
%TO.P,U1,6,GND*%
%TO.N,GND*%
X155225000Y-61280000D03*
%TO.P,U1,7,RF*%
%TO.N,Net-(U1-RF)*%
X155225000Y-60630000D03*
%TO.P,U1,8,GND*%
%TO.N,GND*%
X155225000Y-59980000D03*
%TD*%
D36*
%TO.P,R4,1*%
%TO.N,Net-(IC2--)*%
X114650000Y-51545000D03*
%TO.P,R4,2*%
%TO.N,Net-(R3-Pad1)*%
X114650000Y-50350000D03*
%TD*%
D55*
%TO.P,J4,1,Pin_1*%
%TO.N,/RadarRx/IF_OUT*%
X165443464Y-83300000D03*
D56*
%TO.P,J4,2,Pin_2*%
%TO.N,GND*%
X162903464Y-83300000D03*
%TO.P,J4,3,Pin_3*%
%TO.N,+3V3*%
X160363464Y-83300000D03*
%TO.P,J4,4,Pin_4*%
%TO.N,Net-(J4-Pin_4)*%
X157823464Y-83300000D03*
%TO.P,J4,5,Pin_5*%
%TO.N,GND*%
X155283464Y-83300000D03*
%TD*%
D57*
%TO.P,U2,1,RF-IN_&_DC*%
%TO.N,Net-(U2-RF-IN_&_DC)*%
X161317500Y-58670000D03*
%TO.P,U2,2,NOT_USED_1*%
%TO.N,unconnected-(U2-NOT_USED_1-Pad2)*%
X161317500Y-56130000D03*
%TO.P,U2,3,DC*%
%TO.N,Net-(U2-DC)*%
X164107500Y-56130000D03*
%TO.P,U2,4,NOT_USED_2*%
%TO.N,unconnected-(U2-NOT_USED_2-Pad4)*%
X164107500Y-58670000D03*
%TD*%
D18*
%TO.P,TP5,1,1*%
%TO.N,GND*%
X162900000Y-86500000D03*
%TD*%
D58*
%TO.P,C15,1*%
%TO.N,GND*%
X139162500Y-55400000D03*
%TO.P,C15,2*%
%TO.N,Net-(C15-Pad2)*%
X141237500Y-55400000D03*
%TD*%
D59*
%TO.P,C17,1*%
%TO.N,GND*%
X147162500Y-56380000D03*
%TO.P,C17,2*%
%TO.N,Net-(C17-Pad2)*%
X145437500Y-56380000D03*
%TD*%
D19*
%TO.P,C14,1*%
%TO.N,MIXER_IN*%
X138270000Y-60630000D03*
%TO.P,C14,2*%
%TO.N,Net-(IC6-RFIN)*%
X139230000Y-60630000D03*
%TD*%
D38*
%TO.P,C19,1*%
%TO.N,Net-(U2-RF-IN_&_DC)*%
X161230000Y-60630000D03*
%TO.P,C19,2*%
%TO.N,Net-(C19-Pad2)*%
X160270000Y-60630000D03*
%TD*%
D21*
%TO.P,R6,1*%
%TO.N,Net-(C7-Pad1)*%
X117010000Y-60630000D03*
%TO.P,R6,2*%
%TO.N,Net-(FL1-OUT)*%
X115990000Y-60630000D03*
%TD*%
D44*
%TO.P,FB2,1,1*%
%TO.N,+3V3*%
X143300000Y-52700000D03*
%TO.P,FB2,2,2*%
%TO.N,Net-(C15-Pad2)*%
X143300000Y-53500000D03*
%TD*%
D21*
%TO.P,R19,1*%
%TO.N,Net-(IC7-RF-OUT)*%
X164010000Y-60630000D03*
%TO.P,R19,2*%
%TO.N,Net-(U2-RF-IN_&_DC)*%
X162990000Y-60630000D03*
%TD*%
D60*
%TO.P,R8,1*%
%TO.N,Net-(J1-In)*%
X122500000Y-59610000D03*
%TO.P,R8,2*%
%TO.N,Net-(C7-Pad2)*%
X122500000Y-60630000D03*
%TD*%
D27*
%TO.P,L4,1*%
%TO.N,Net-(J2-In)*%
X146220000Y-77750000D03*
%TO.P,L4,2*%
%TO.N,GND*%
X146220000Y-78720000D03*
%TD*%
D23*
%TO.P,R5,1*%
%TO.N,GND*%
X114500000Y-61650000D03*
%TO.P,R5,2*%
%TO.N,Net-(FL1-OUT)*%
X114500000Y-60630000D03*
%TD*%
D40*
%TO.P,C18,1*%
%TO.N,GND*%
X146567500Y-57880000D03*
%TO.P,C18,2*%
%TO.N,Net-(C17-Pad2)*%
X145432500Y-57880000D03*
%TD*%
D55*
%TO.P,J3,1,Pin_1*%
%TO.N,/RadarTx/VCO_Tune*%
X102570000Y-68340000D03*
D56*
%TO.P,J3,2,Pin_2*%
%TO.N,+3V0*%
X102570000Y-70880000D03*
%TO.P,J3,3,Pin_3*%
%TO.N,+3V3*%
X102570000Y-73420000D03*
%TO.P,J3,4,Pin_4*%
%TO.N,+10V*%
X102570000Y-75960000D03*
%TO.P,J3,5,Pin_5*%
%TO.N,GND*%
X102570000Y-78500000D03*
%TD*%
D20*
%TO.P,H1,1,1*%
%TO.N,GND*%
X105000000Y-47000000D03*
%TD*%
D40*
%TO.P,C12,1*%
%TO.N,GND*%
X143037500Y-74970000D03*
%TO.P,C12,2*%
%TO.N,Net-(C11-Pad2)*%
X141902500Y-74970000D03*
%TD*%
D19*
%TO.P,C7,1*%
%TO.N,Net-(C7-Pad1)*%
X120020000Y-60630000D03*
%TO.P,C7,2*%
%TO.N,Net-(C7-Pad2)*%
X120980000Y-60630000D03*
%TD*%
D25*
%TO.P,R3,1*%
%TO.N,Net-(R3-Pad1)*%
X113350000Y-50352500D03*
%TO.P,R3,2*%
%TO.N,/RadarTx/VCO_Scaled*%
X113350000Y-51547500D03*
%TD*%
D61*
%TO.N,+3V0*%
X106500000Y-70850000D03*
X104300000Y-57200000D03*
X168350000Y-52950000D03*
X168350000Y-54000000D03*
X169400000Y-54000000D03*
X104300000Y-55800000D03*
%TO.N,GND*%
X138900000Y-58900000D03*
X122250000Y-82000000D03*
X171200000Y-61800000D03*
X186563464Y-73350000D03*
X137763464Y-83950000D03*
X133763464Y-80350000D03*
X134000000Y-64000000D03*
X172000000Y-46000000D03*
X159100000Y-58700000D03*
X115000000Y-82000000D03*
X178763464Y-83950000D03*
X146000000Y-46000000D03*
X113600000Y-62800000D03*
X176000000Y-65000000D03*
X182000000Y-52000000D03*
X120700000Y-53000000D03*
X100000000Y-54000000D03*
X178400000Y-61800000D03*
X161000000Y-62900000D03*
X162000000Y-46000000D03*
X186000000Y-52000000D03*
X174000000Y-65000000D03*
X133763464Y-83950000D03*
X175050000Y-75350000D03*
X158000000Y-46000000D03*
X154000000Y-64000000D03*
X110000000Y-52000000D03*
X132500000Y-58900000D03*
X170963464Y-75350000D03*
X150000000Y-70000000D03*
X132920000Y-75550000D03*
X110000000Y-46000000D03*
X144600000Y-61400000D03*
X150000000Y-74000000D03*
X150000000Y-48000000D03*
X128163464Y-80350000D03*
X120700000Y-58600000D03*
X128963464Y-80350000D03*
X184963464Y-82150000D03*
X151763464Y-85950000D03*
X150000000Y-68000000D03*
X124300000Y-58600000D03*
X180000000Y-61800000D03*
X149763464Y-80350000D03*
X146200000Y-79600000D03*
X176000000Y-50000000D03*
X137763464Y-85950000D03*
X117000000Y-84000000D03*
X128500000Y-58900000D03*
X123400000Y-65300000D03*
X108900000Y-62400000D03*
X123200000Y-62800000D03*
X124300000Y-49800000D03*
X144000000Y-84000000D03*
X160000000Y-44000000D03*
X142000000Y-46000000D03*
X177600000Y-56900000D03*
X152000000Y-46000000D03*
X184000000Y-48000000D03*
X161800000Y-62900000D03*
X183000000Y-71000000D03*
X144000000Y-46000000D03*
X158630000Y-80350000D03*
X153000000Y-57000000D03*
X152700000Y-58700000D03*
X161000000Y-72000000D03*
X174000000Y-69000000D03*
X163763464Y-75350000D03*
X146000000Y-64000000D03*
X115900000Y-58900000D03*
X123763464Y-83950000D03*
X176000000Y-44000000D03*
X180000000Y-56900000D03*
X172800000Y-61800000D03*
X135700000Y-58900000D03*
X125000000Y-61600000D03*
X129763464Y-83950000D03*
X133970090Y-53985045D03*
X146000000Y-74000000D03*
X125800000Y-61600000D03*
X176000000Y-48000000D03*
X143900000Y-62500000D03*
X174400000Y-61800000D03*
X130900000Y-62400000D03*
X174000000Y-48000000D03*
X144000000Y-86000000D03*
X150000000Y-66000000D03*
X144000000Y-64000000D03*
X183000000Y-69000000D03*
X146000000Y-44000000D03*
X177000000Y-67000000D03*
X164000000Y-65000000D03*
X169363464Y-75350000D03*
X117000000Y-82000000D03*
X102000000Y-44000000D03*
X100000000Y-44000000D03*
X155000000Y-53000000D03*
X135000000Y-57500000D03*
X118000000Y-42800000D03*
X176563464Y-75350000D03*
X151000000Y-75350000D03*
X163430000Y-80350000D03*
X178163464Y-80350000D03*
X153800000Y-80350000D03*
X105000000Y-80000000D03*
X170963464Y-80350000D03*
X141750000Y-80350000D03*
X148000000Y-46000000D03*
X109000000Y-78000000D03*
X173000000Y-74000000D03*
X134000000Y-68000000D03*
X121000000Y-82000000D03*
X125525000Y-72000000D03*
X115000000Y-68000000D03*
X128000000Y-54000000D03*
X168650000Y-80350000D03*
X117000000Y-50000000D03*
X107000000Y-80000000D03*
X120700000Y-51400000D03*
X172000000Y-65000000D03*
X165800000Y-62900000D03*
X154000000Y-48000000D03*
X156000000Y-48000000D03*
X168000000Y-61800000D03*
X136000000Y-46000000D03*
X175000000Y-74000000D03*
X166630000Y-80350000D03*
X132963464Y-80350000D03*
X126000000Y-57500000D03*
X132163464Y-80350000D03*
X167400000Y-62900000D03*
X184000000Y-52000000D03*
X173000000Y-67000000D03*
X131763464Y-83950000D03*
X134000000Y-46000000D03*
X173450000Y-75350000D03*
X159900000Y-58700000D03*
X158930000Y-75350000D03*
X159750000Y-75350000D03*
X138000000Y-70000000D03*
X178963464Y-80350000D03*
X161000000Y-74000000D03*
X174400000Y-56900000D03*
X138100000Y-58900000D03*
X131763464Y-81950000D03*
X140000000Y-68000000D03*
X158000000Y-72000000D03*
X134500000Y-62400000D03*
X132000000Y-52000000D03*
X150000000Y-44000000D03*
X119200000Y-62800000D03*
X102000000Y-52000000D03*
X178763464Y-81950000D03*
X177000000Y-72000000D03*
X135363464Y-80350000D03*
X137300000Y-58900000D03*
X131346536Y-75550000D03*
X142000000Y-68000000D03*
X173600000Y-61800000D03*
X170000000Y-44000000D03*
X134100000Y-58900000D03*
X172000000Y-61800000D03*
X156000000Y-68000000D03*
X150200000Y-75350000D03*
X171763464Y-75350000D03*
X186800000Y-63800000D03*
X141763464Y-81950000D03*
X152000000Y-64000000D03*
X179000000Y-74000000D03*
X174000000Y-46000000D03*
X139000000Y-62400000D03*
X167763464Y-75350000D03*
X132000000Y-46000000D03*
X110000000Y-50000000D03*
X148000000Y-64000000D03*
X144000000Y-66000000D03*
X139763464Y-81950000D03*
X134000000Y-50000000D03*
X172800000Y-56900000D03*
X139600000Y-52125000D03*
X129000000Y-57500000D03*
X155000000Y-57000000D03*
X179000000Y-68000000D03*
X110700000Y-62800000D03*
X118400000Y-62800000D03*
X144000000Y-44000000D03*
X174163464Y-80350000D03*
X138000000Y-46000000D03*
X104000000Y-52000000D03*
X170400000Y-61800000D03*
X121000000Y-68000000D03*
X156700000Y-58700000D03*
X165363464Y-75350000D03*
X100000000Y-50000000D03*
X119900000Y-58900000D03*
X181000000Y-71000000D03*
X152000000Y-66000000D03*
X159000000Y-55000000D03*
X166963464Y-75350000D03*
X172650000Y-75350000D03*
X148000000Y-72000000D03*
X145763464Y-80350000D03*
X142500000Y-60880000D03*
X149500000Y-62500000D03*
X117000000Y-86000000D03*
X184000000Y-46000000D03*
X168000000Y-44000000D03*
X114000000Y-48000000D03*
X147800000Y-75350000D03*
X119000000Y-82000000D03*
X167000000Y-72000000D03*
X151900000Y-58700000D03*
X171763464Y-80350000D03*
X157000000Y-57000000D03*
X179763464Y-80350000D03*
X185000000Y-69000000D03*
X130000000Y-50000000D03*
X175000000Y-63000000D03*
X124300000Y-52200000D03*
X130000000Y-72000000D03*
X165830000Y-80350000D03*
X124300000Y-54600000D03*
X132000000Y-44000000D03*
X171000000Y-74000000D03*
X132120000Y-75550000D03*
X147763464Y-81950000D03*
X111000000Y-80000000D03*
X156000000Y-46000000D03*
X174000000Y-71000000D03*
X149763464Y-86000000D03*
X148000000Y-48000000D03*
X127000000Y-46000000D03*
X179000000Y-63000000D03*
X185000000Y-67000000D03*
X146000000Y-72000000D03*
X146000000Y-84000000D03*
X170763464Y-81950000D03*
X124300000Y-53000000D03*
X118300000Y-58900000D03*
X124300000Y-51400000D03*
X176800000Y-61800000D03*
X133300000Y-58900000D03*
X120700000Y-54600000D03*
X137763464Y-80350000D03*
X112000000Y-48000000D03*
X157500000Y-58700000D03*
X130000000Y-71000000D03*
X175200000Y-56900000D03*
X130500000Y-57500000D03*
X178963464Y-75350000D03*
X186000000Y-44000000D03*
X110000000Y-48000000D03*
X125525000Y-69000000D03*
X149763464Y-84000000D03*
X178000000Y-65000000D03*
X165800000Y-59900000D03*
X181000000Y-67000000D03*
X159400000Y-62900000D03*
X169450000Y-80350000D03*
X136000000Y-48000000D03*
X125525000Y-71000000D03*
X171000000Y-72000000D03*
X162600000Y-62900000D03*
X158000000Y-66000000D03*
X150300000Y-58700000D03*
X176563464Y-80350000D03*
X112700000Y-58900000D03*
X139800000Y-62400000D03*
X110500000Y-64000000D03*
X166600000Y-62900000D03*
X160000000Y-46000000D03*
X119000000Y-84000000D03*
X133706536Y-75550000D03*
X152200000Y-80350000D03*
X183600000Y-54800000D03*
X169000000Y-74000000D03*
X130000000Y-74000000D03*
X158300000Y-58700000D03*
X142563464Y-80350000D03*
X178763464Y-85950000D03*
X113000000Y-82000000D03*
X176800000Y-56900000D03*
X140000000Y-44000000D03*
X186000000Y-46000000D03*
X183363464Y-82150000D03*
X178000000Y-52000000D03*
X172000000Y-48000000D03*
X153500000Y-58700000D03*
X155100000Y-58700000D03*
X111000000Y-68000000D03*
X159000000Y-74000000D03*
X138563464Y-80350000D03*
X184000000Y-50000000D03*
X118000000Y-64000000D03*
X135300000Y-62400000D03*
X118000000Y-44400000D03*
X164000000Y-48000000D03*
X161350000Y-75350000D03*
X127763464Y-81950000D03*
X108400000Y-57900000D03*
X112000000Y-44000000D03*
X100000000Y-48000000D03*
X130000000Y-48000000D03*
X179763464Y-75350000D03*
X134510000Y-75550000D03*
X108025003Y-51981254D03*
X127000000Y-44400000D03*
X151100000Y-58700000D03*
X146000000Y-48000000D03*
X144563464Y-75350000D03*
X134000000Y-48000000D03*
X131650000Y-79600000D03*
X162000000Y-65000000D03*
X156000000Y-64000000D03*
X113000000Y-80000000D03*
X149000000Y-55000000D03*
X126100000Y-58900000D03*
X152000000Y-68000000D03*
X115100000Y-58900000D03*
X135763464Y-85950000D03*
X130000000Y-73000000D03*
X151000000Y-55000000D03*
X169600000Y-61800000D03*
X174500000Y-54400000D03*
X114000000Y-46000000D03*
X160200000Y-62900000D03*
X147000000Y-75350000D03*
X128000000Y-50000000D03*
X126000000Y-54000000D03*
X132000000Y-64000000D03*
X115200000Y-62800000D03*
X183600000Y-63800000D03*
X185200000Y-54800000D03*
X162000000Y-48000000D03*
X157000000Y-55000000D03*
X108000000Y-64000000D03*
X117000000Y-68000000D03*
X100000000Y-46000000D03*
X149600000Y-59700000D03*
X160230000Y-80350000D03*
X174000000Y-50000000D03*
X117600000Y-62800000D03*
X118000000Y-46000000D03*
X124200000Y-61600000D03*
X115000000Y-84000000D03*
X160000000Y-70000000D03*
X170163464Y-75350000D03*
X181000000Y-69000000D03*
X176000000Y-56900000D03*
X154000000Y-66000000D03*
X126000000Y-50000000D03*
X164000000Y-44000000D03*
X125300000Y-58900000D03*
X147900000Y-62500000D03*
X138000000Y-64000000D03*
X154000000Y-74000000D03*
X178163464Y-75350000D03*
X109000000Y-80000000D03*
X130300000Y-61900000D03*
X159000000Y-57000000D03*
X148163464Y-80350000D03*
X148000000Y-84000000D03*
X160000000Y-66000000D03*
X165000000Y-62900000D03*
X144163464Y-80350000D03*
X173363464Y-80350000D03*
X107300000Y-58900000D03*
X169000000Y-72000000D03*
X132000000Y-70000000D03*
X136000000Y-70000000D03*
X153000000Y-53000000D03*
X106000000Y-52000000D03*
X122400000Y-62800000D03*
X178400000Y-56900000D03*
X153400000Y-75350000D03*
X133700000Y-62400000D03*
X151800000Y-75350000D03*
X158000000Y-44000000D03*
X132000000Y-54000000D03*
X115000000Y-86000000D03*
X130000000Y-44000000D03*
X148700000Y-62500000D03*
X126000000Y-80000000D03*
X146200000Y-75350000D03*
X158000000Y-70000000D03*
X131763464Y-85950000D03*
X109700000Y-62400000D03*
X146000000Y-66000000D03*
X170763464Y-83950000D03*
X143363464Y-80350000D03*
X170763464Y-85950000D03*
X173600000Y-56900000D03*
X140000000Y-48000000D03*
X164200000Y-62900000D03*
X140600000Y-61400000D03*
X127500000Y-57500000D03*
X137800000Y-52125000D03*
X120550000Y-64000000D03*
X155050000Y-75350000D03*
X175200000Y-61800000D03*
X174000000Y-44000000D03*
X172000000Y-50000000D03*
X116000000Y-62800000D03*
X111000000Y-84000000D03*
X156000000Y-70000000D03*
X160000000Y-68000000D03*
X107000000Y-78000000D03*
X125763464Y-81950000D03*
X120700000Y-49000000D03*
X144000000Y-48000000D03*
X102000000Y-50000000D03*
X125525000Y-68000000D03*
X138960000Y-76120000D03*
X149763464Y-81950000D03*
X129300000Y-58900000D03*
X113000000Y-84000000D03*
X149400000Y-75350000D03*
X170000000Y-48000000D03*
X155000000Y-55000000D03*
X136000000Y-68000000D03*
X124300000Y-49000000D03*
X139363464Y-80350000D03*
X136150000Y-80350000D03*
X131350000Y-80350000D03*
X134000000Y-44000000D03*
X159430000Y-80350000D03*
X152000000Y-72000000D03*
X126900000Y-58900000D03*
X109700000Y-58900000D03*
X151400000Y-80350000D03*
X154600000Y-80350000D03*
X110000000Y-44000000D03*
X108100000Y-62400000D03*
X137763464Y-81950000D03*
X136500000Y-58900000D03*
X124000000Y-80000000D03*
X108100000Y-58900000D03*
X134000000Y-70000000D03*
X174963464Y-80350000D03*
X133500000Y-57500000D03*
X186000000Y-48000000D03*
X108000000Y-50000000D03*
X175800000Y-75350000D03*
X126000000Y-52000000D03*
X132600000Y-62425000D03*
X130000000Y-54000000D03*
X147000000Y-55000000D03*
X152000000Y-44000000D03*
X142000000Y-44000000D03*
X156700000Y-59600000D03*
X153000000Y-80350000D03*
X164000000Y-46000000D03*
X130100000Y-58900000D03*
X128000000Y-52000000D03*
X128800000Y-61600000D03*
X121000000Y-84000000D03*
X162000000Y-44000000D03*
X108000000Y-44000000D03*
X166000000Y-44000000D03*
X124300000Y-57075000D03*
X154000000Y-70000000D03*
X136500000Y-57500000D03*
X168763464Y-83950000D03*
X164563464Y-75350000D03*
X152000000Y-48000000D03*
X155850000Y-75350000D03*
X139763464Y-83950000D03*
X138000000Y-48000000D03*
X183000000Y-67000000D03*
X148963464Y-80350000D03*
X130000000Y-46000000D03*
X126000000Y-78000000D03*
X168000000Y-46000000D03*
X146000000Y-70000000D03*
X140000000Y-70000000D03*
X150000000Y-72000000D03*
X125763464Y-85950000D03*
X146300000Y-62500000D03*
X132000000Y-57500000D03*
X119000000Y-68000000D03*
X146000000Y-68000000D03*
X112000000Y-46000000D03*
X176000000Y-46000000D03*
X103450000Y-59900000D03*
X162630000Y-80350000D03*
X143763464Y-81950000D03*
X165000000Y-72000000D03*
X138050000Y-79480000D03*
X160550000Y-75350000D03*
X165000000Y-74000000D03*
X176000000Y-52000000D03*
X130563464Y-80350000D03*
X115500000Y-64000000D03*
X151763464Y-84000000D03*
X135450000Y-79550000D03*
X132000000Y-48000000D03*
X174500000Y-53100000D03*
X160000000Y-48000000D03*
X161030000Y-80350000D03*
X148000000Y-70000000D03*
X170200000Y-60500000D03*
X172000000Y-44000000D03*
X140163464Y-80350000D03*
X133763464Y-85950000D03*
X102000000Y-54000000D03*
X157000000Y-53000000D03*
X152000000Y-74000000D03*
X177363464Y-80350000D03*
X174250000Y-75350000D03*
X151000000Y-57000000D03*
X111000000Y-86000000D03*
X148000000Y-66000000D03*
X120700000Y-49800000D03*
X130000000Y-70000000D03*
X163000000Y-74000000D03*
X154000000Y-46000000D03*
X148000000Y-74000000D03*
X154000000Y-72000000D03*
X119100000Y-58900000D03*
X157030000Y-80350000D03*
X158000000Y-48000000D03*
X129763464Y-81950000D03*
X131700000Y-62400000D03*
X130000000Y-68000000D03*
X177000000Y-63000000D03*
X135310000Y-75550000D03*
X154000000Y-44000000D03*
X129763464Y-80350000D03*
X180000000Y-52000000D03*
X173000000Y-63000000D03*
X123000000Y-68000000D03*
X176000000Y-61800000D03*
X170000000Y-65000000D03*
X137960000Y-76130000D03*
X152600000Y-75350000D03*
X113000000Y-68000000D03*
X145763464Y-81950000D03*
X140400000Y-79550000D03*
X148000000Y-86000000D03*
X111800000Y-58900000D03*
X161830000Y-80350000D03*
X186563464Y-82150000D03*
X131700000Y-58900000D03*
X155430000Y-80350000D03*
X113000000Y-86000000D03*
X158000000Y-64000000D03*
X156230000Y-80350000D03*
X120700000Y-50600000D03*
X111000000Y-82000000D03*
X175763464Y-80350000D03*
X156000000Y-72000000D03*
X164230000Y-80350000D03*
X168000000Y-48000000D03*
X137400000Y-62400000D03*
X119000000Y-86000000D03*
X125525000Y-70000000D03*
X180800000Y-61800000D03*
X121000000Y-86000000D03*
X148700000Y-58700000D03*
X146600000Y-58700000D03*
X120700000Y-52200000D03*
X138000000Y-44000000D03*
X125763464Y-83950000D03*
X117500000Y-58900000D03*
X140963464Y-80350000D03*
X168000000Y-65000000D03*
X150000000Y-46000000D03*
X135763464Y-81950000D03*
X123763464Y-81950000D03*
X186000000Y-50000000D03*
X127700000Y-58900000D03*
X185200000Y-63800000D03*
X136180000Y-76630000D03*
X179000000Y-70000000D03*
X147900000Y-58700000D03*
X103450000Y-61900000D03*
X140000000Y-46000000D03*
X134563464Y-80350000D03*
X166000000Y-65000000D03*
X120800000Y-62800000D03*
X127250000Y-79250000D03*
X120700000Y-53800000D03*
X120700000Y-57800000D03*
X156000000Y-66000000D03*
X124300000Y-53800000D03*
X141763464Y-85950000D03*
X104450000Y-60900000D03*
X170200000Y-80350000D03*
X130560000Y-75550000D03*
X116800000Y-62800000D03*
X139763464Y-85950000D03*
X122500000Y-84000000D03*
X132000000Y-50000000D03*
X114400000Y-62800000D03*
X138000000Y-57500000D03*
X177000000Y-74000000D03*
X129763464Y-85950000D03*
X177600000Y-61800000D03*
X150000000Y-64000000D03*
X119000000Y-50000000D03*
X180800000Y-56900000D03*
X155900000Y-58700000D03*
X184963464Y-73350000D03*
X175000000Y-67000000D03*
X157830000Y-80350000D03*
X160000000Y-64000000D03*
X110700000Y-58500000D03*
X108900000Y-58900000D03*
X130000000Y-69000000D03*
X147100000Y-62500000D03*
X183363464Y-73350000D03*
X120000000Y-62800000D03*
X147363464Y-80350000D03*
X136963464Y-80350000D03*
X136000000Y-44000000D03*
X123763464Y-85950000D03*
X166163464Y-75350000D03*
X125525000Y-73000000D03*
X127763464Y-83950000D03*
X100000000Y-52000000D03*
X170000000Y-46000000D03*
X162163464Y-75350000D03*
X141763464Y-83950000D03*
X179200000Y-56900000D03*
X177363464Y-75350000D03*
X166000000Y-48000000D03*
X168763464Y-85950000D03*
X151000000Y-53000000D03*
X134000000Y-52000000D03*
X124300000Y-48200000D03*
X130000000Y-52000000D03*
X172563464Y-80350000D03*
X151763464Y-81950000D03*
X154250000Y-75350000D03*
X184000000Y-44000000D03*
X119000000Y-54000000D03*
X130900000Y-58900000D03*
X138000000Y-68000000D03*
X165030000Y-80350000D03*
X158000000Y-68000000D03*
X154000000Y-68000000D03*
X171000000Y-63000000D03*
X172000000Y-71000000D03*
X181600000Y-56900000D03*
X146000000Y-86000000D03*
X149500000Y-61600000D03*
X158600000Y-62900000D03*
X150563464Y-80350000D03*
X169000000Y-63000000D03*
X154300000Y-58700000D03*
X149000000Y-53000000D03*
X171000000Y-68000000D03*
X111800000Y-62400000D03*
X116700000Y-58900000D03*
X148000000Y-44000000D03*
X114300000Y-58900000D03*
X124300000Y-50600000D03*
X179000000Y-72000000D03*
X136550000Y-62425000D03*
X156000000Y-44000000D03*
X136000000Y-64000000D03*
X167000000Y-74000000D03*
X179200000Y-61800000D03*
X144963464Y-80350000D03*
X181600000Y-61800000D03*
X121600000Y-62800000D03*
X113500000Y-58900000D03*
X127000000Y-42800000D03*
X166000000Y-46000000D03*
X168563464Y-75350000D03*
X165990000Y-58080000D03*
X152000000Y-70000000D03*
X120700000Y-57100000D03*
X125525000Y-74000000D03*
X162963464Y-75350000D03*
X105000000Y-78000000D03*
X148600000Y-75350000D03*
X122250000Y-86000000D03*
X147000000Y-53000000D03*
X173000000Y-72000000D03*
X120700000Y-48200000D03*
X148000000Y-68000000D03*
X159000000Y-53000000D03*
X144700000Y-62500000D03*
X124300000Y-57800000D03*
X114000000Y-44000000D03*
X138200000Y-62400000D03*
X178000000Y-44000000D03*
X156700000Y-61600000D03*
X175000000Y-72000000D03*
X134900000Y-58900000D03*
X132000000Y-68000000D03*
X127763464Y-85950000D03*
X149500000Y-58700000D03*
X168800000Y-61800000D03*
X144000000Y-68000000D03*
X133763464Y-81950000D03*
X137800000Y-55375000D03*
X145363464Y-75350000D03*
X163400000Y-62900000D03*
X145500000Y-62500000D03*
X186800000Y-54800000D03*
X142000000Y-48000000D03*
X135763464Y-83950000D03*
X112800000Y-62800000D03*
X146563464Y-80350000D03*
X153000000Y-55000000D03*
%TO.N,+5V*%
X139358464Y-72150000D03*
X138158464Y-71450000D03*
D62*
X123500000Y-74750000D03*
X122507002Y-76000000D03*
X122507002Y-74250000D03*
D61*
X138150000Y-72530000D03*
%TO.N,/RadarTx/VCO_Tune*%
X110300000Y-57550000D03*
%TO.N,+3V3*%
X141200000Y-52800000D03*
X142200000Y-52800000D03*
D62*
%TO.N,/RadarRx/IF_OUT*%
X156950000Y-73950000D03*
D61*
%TO.N,+10V*%
X116200000Y-54100000D03*
%TD*%
D63*
%TO.N,GND*%
X162903464Y-83300000D02*
X162903464Y-86496536D01*
X162903464Y-86496536D02*
X162900000Y-86500000D01*
D64*
%TO.N,/RadarTx/PA_IN*%
X130420000Y-77750000D02*
X131645000Y-77750000D01*
X128457106Y-76787106D02*
X128712893Y-77042893D01*
X133190000Y-77750000D02*
X131645000Y-77750000D01*
X127750000Y-75080000D02*
X127750000Y-61650000D01*
X128712895Y-77042890D02*
G75*
G03*
X130420000Y-77750000I1707105J1707090D01*
G01*
X127749997Y-75080000D02*
G75*
G03*
X128457107Y-76787105I2414203J0D01*
G01*
D63*
%TO.N,Net-(IC2-+)*%
X113350000Y-55050000D02*
X112152500Y-55050000D01*
X112152500Y-55050000D02*
X111550000Y-55652500D01*
X111550000Y-54367500D02*
X111550000Y-55652500D01*
D64*
%TO.N,Net-(C7-Pad1)*%
X117010000Y-60630000D02*
X118500000Y-60630000D01*
X118500000Y-60630000D02*
X120020000Y-60630000D01*
%TO.N,Net-(C7-Pad2)*%
X122500000Y-60630000D02*
X123790000Y-60630000D01*
X120980000Y-60630000D02*
X122500000Y-60630000D01*
%TO.N,Net-(FL1-IN)*%
X106500000Y-60630000D02*
X109125000Y-60630000D01*
%TO.N,Net-(FL1-OUT)*%
X112375000Y-60630000D02*
X115990000Y-60630000D01*
D65*
%TO.N,/RadarTx/VCO_Tune*%
X111550000Y-56847500D02*
X111002500Y-56847500D01*
X111002500Y-56847500D02*
X110300000Y-57550000D01*
D64*
%TO.N,Net-(C9-Pad2)*%
X132567500Y-60630000D02*
X134057500Y-60630000D01*
X131047500Y-60630000D02*
X132567500Y-60630000D01*
%TO.N,Net-(U1-LO)*%
X147980000Y-60630000D02*
X151000000Y-60630000D01*
%TO.N,Net-(J2-In)*%
X184930000Y-77750000D02*
X144700000Y-77750000D01*
%TO.N,Net-(IC5-RFOUT{slash}VD)*%
X143740000Y-77750000D02*
X138820000Y-77750000D01*
%TO.N,MIXER_IN*%
X135077500Y-60630000D02*
X138270000Y-60630000D01*
%TO.N,Net-(J5-In)*%
X173480000Y-59330000D02*
X184930000Y-59330000D01*
%TO.N,Net-(IC5-RFIN)*%
X137120000Y-77750000D02*
X134150000Y-77750000D01*
%TO.N,Net-(U2-RF-IN_&_DC)*%
X161230000Y-60630000D02*
X161230000Y-58757500D01*
X161230000Y-58757500D02*
X161317500Y-58670000D01*
X161230000Y-60630000D02*
X162990000Y-60630000D01*
%TO.N,Net-(U1-RF)*%
X155225000Y-60630000D02*
X157490000Y-60630000D01*
D63*
%TO.N,+3V3*%
X160363464Y-83300000D02*
X160363464Y-86436536D01*
X160363464Y-86436536D02*
X160300000Y-86500000D01*
D64*
%TO.N,/RadarRx/IF_OUT*%
X156950000Y-73950000D02*
X156950000Y-63655000D01*
X156950000Y-63655000D02*
X155225000Y-61930000D01*
%TO.N,Net-(IC6-RFIN)*%
X139230000Y-60630000D02*
X141450000Y-60630000D01*
%TO.N,Net-(IC6-RFOUT)*%
X143550000Y-60630000D02*
X147020000Y-60630000D01*
D66*
%TO.N,Net-(C17-Pad2)*%
X145437500Y-57875000D02*
X145432500Y-57880000D01*
X143300000Y-58397500D02*
X144915000Y-58397500D01*
X144915000Y-58397500D02*
X145432500Y-57880000D01*
X145432500Y-57880000D02*
X145432500Y-59417500D01*
X145437500Y-56380000D02*
X145437500Y-57875000D01*
X145432500Y-59417500D02*
X145500000Y-59485000D01*
D64*
%TO.N,Net-(C19-Pad2)*%
X158510000Y-60630000D02*
X160270000Y-60630000D01*
D66*
%TO.N,Net-(C20-Pad1)*%
X169865000Y-56880000D02*
X168097500Y-56880000D01*
%TO.N,Net-(IC7-BIAS)*%
X171000000Y-56880000D02*
X171000000Y-55477500D01*
X171000000Y-58360000D02*
X171000000Y-56880000D01*
X167970000Y-58360000D02*
X171000000Y-58360000D01*
X167000000Y-59330000D02*
X167970000Y-58360000D01*
D64*
%TO.N,Net-(IC7-RF-IN)*%
X169000000Y-59330000D02*
X172520000Y-59330000D01*
D66*
%TO.N,Net-(C11-Pad2)*%
X141128464Y-72620000D02*
X140470000Y-72620000D01*
X141902500Y-73750000D02*
X141902500Y-73394036D01*
X139567500Y-74250000D02*
X139567500Y-73522500D01*
X139567500Y-73522500D02*
X140470000Y-72620000D01*
D63*
X142895000Y-71600000D02*
X141875000Y-72620000D01*
X141875000Y-72620000D02*
X141128464Y-72620000D01*
D66*
X141902500Y-73394036D02*
X141128464Y-72620000D01*
X141970000Y-73817500D02*
X141902500Y-73750000D01*
X141970000Y-76780000D02*
X141970000Y-73817500D01*
D64*
%TO.N,Net-(IC4-COUPLED)*%
X127750000Y-60630000D02*
X130087500Y-60630000D01*
D63*
%TO.N,Net-(IC2--)*%
X114650000Y-51545000D02*
X114650000Y-53750000D01*
X115950000Y-56552500D02*
X115950000Y-55050000D01*
X114650000Y-53750000D02*
X115950000Y-55050000D01*
D66*
%TO.N,Net-(IC5-VEN)*%
X136970000Y-75317500D02*
X136970000Y-76600000D01*
X136970000Y-76600000D02*
X137120000Y-76750000D01*
%TO.N,Net-(IC6-VCC)*%
X141300000Y-58397500D02*
X141300000Y-59980000D01*
X141300000Y-59980000D02*
X141450000Y-60130000D01*
D64*
%TO.N,Net-(IC7-RF-OUT)*%
X164010000Y-60630000D02*
X167000000Y-60630000D01*
%TO.N,Net-(J1-In)*%
X122500000Y-59610000D02*
X122500000Y-44700000D01*
%TO.N,Net-(IC4-INPUT)*%
X124810000Y-60630000D02*
X126960000Y-60630000D01*
D66*
%TO.N,Net-(IC4-TERMINATION)*%
X125445235Y-63234765D02*
X125445235Y-63164765D01*
X125445235Y-63164765D02*
X126960000Y-61650000D01*
D63*
%TO.N,Net-(R3-Pad1)*%
X114647500Y-50352500D02*
X114650000Y-50350000D01*
X113350000Y-50352500D02*
X114647500Y-50352500D01*
%TO.N,Net-(J4-Pin_4)*%
X157600000Y-86500000D02*
X157600000Y-83523464D01*
X157600000Y-83523464D02*
X157823464Y-83300000D01*
D66*
%TO.N,Net-(R11-Pad2)*%
X138245000Y-74122500D02*
X138372500Y-74250000D01*
X136970000Y-74122500D02*
X138245000Y-74122500D01*
D65*
%TO.N,/RadarTx/VCO_Scaled*%
X103250000Y-57280000D02*
X103250000Y-55450000D01*
X104200000Y-58830000D02*
X104200000Y-58230000D01*
X112765000Y-52565000D02*
X113350000Y-53150000D01*
X105510000Y-53190000D02*
X110577238Y-53190000D01*
D63*
X113350000Y-51547500D02*
X113350000Y-53150000D01*
D65*
X110577238Y-53190000D02*
X111202238Y-52565000D01*
X103250000Y-55450000D02*
X105510000Y-53190000D01*
X111202238Y-52565000D02*
X112765000Y-52565000D01*
X104200000Y-58230000D02*
X103250000Y-57280000D01*
D66*
%TO.N,Net-(U2-DC)*%
X169792500Y-55490000D02*
X164747500Y-55490000D01*
X171000000Y-54282500D02*
X169792500Y-55490000D01*
X164000000Y-53200000D02*
X164000000Y-56022500D01*
X164000000Y-56022500D02*
X164107500Y-56130000D01*
X164747500Y-55490000D02*
X164107500Y-56130000D01*
%TD*%
%TA.AperFunction,Conductor*%
%TO.N,+5V*%
G36*
X123968208Y-70220822D02*
G01*
X123998648Y-70273545D01*
X124000000Y-70289000D01*
X124000000Y-79412034D01*
X123979178Y-79469242D01*
X123933527Y-79495598D01*
X123934146Y-79497707D01*
X123789950Y-79540045D01*
X123668871Y-79617857D01*
X123574623Y-79726625D01*
X123574621Y-79726628D01*
X123514834Y-79857543D01*
X123494353Y-79999999D01*
X123494353Y-80000000D01*
X123514834Y-80142456D01*
X123574922Y-80274028D01*
X123579747Y-80334716D01*
X123544433Y-80384307D01*
X123493965Y-80400000D01*
X119200000Y-80400000D01*
X117689000Y-80400000D01*
X117631792Y-80379178D01*
X117601352Y-80326455D01*
X117600000Y-80311000D01*
X117600000Y-70289000D01*
X117620822Y-70231792D01*
X117673545Y-70201352D01*
X117689000Y-70200000D01*
X123911000Y-70200000D01*
X123968208Y-70220822D01*
G37*
%TD.AperFunction*%
%TD*%
%TA.AperFunction,Conductor*%
%TO.N,Net-(C15-Pad2)*%
G36*
X141125190Y-53300500D02*
G01*
X141128039Y-53300500D01*
X141274810Y-53300500D01*
X141281805Y-53300000D01*
X142118195Y-53300000D01*
X142125190Y-53300500D01*
X142128039Y-53300500D01*
X142274810Y-53300500D01*
X142281805Y-53300000D01*
X144011000Y-53300000D01*
X144068208Y-53320822D01*
X144098648Y-53373545D01*
X144100000Y-53389000D01*
X144100000Y-57711000D01*
X144079178Y-57768208D01*
X144026455Y-57798648D01*
X144011000Y-57800000D01*
X140689000Y-57800000D01*
X140631792Y-57779178D01*
X140601352Y-57726455D01*
X140600000Y-57711000D01*
X140600000Y-53389000D01*
X140620822Y-53331792D01*
X140673545Y-53301352D01*
X140689000Y-53300000D01*
X141118195Y-53300000D01*
X141125190Y-53300500D01*
G37*
%TD.AperFunction*%
%TD*%
%TA.AperFunction,Conductor*%
%TO.N,+10V*%
G36*
X118118208Y-52670822D02*
G01*
X118148648Y-52723545D01*
X118150000Y-52739000D01*
X118150000Y-54411000D01*
X118129178Y-54468208D01*
X118076455Y-54498648D01*
X118061000Y-54500000D01*
X115897192Y-54500000D01*
X115839984Y-54479178D01*
X115834259Y-54473933D01*
X115376067Y-54015741D01*
X115350339Y-53960565D01*
X115350000Y-53952808D01*
X115350000Y-52739000D01*
X115370822Y-52681792D01*
X115423545Y-52651352D01*
X115439000Y-52650000D01*
X118061000Y-52650000D01*
X118118208Y-52670822D01*
G37*
%TD.AperFunction*%
%TD*%
%TA.AperFunction,Conductor*%
%TO.N,+5V*%
G36*
X141463208Y-71020822D02*
G01*
X141493648Y-71073545D01*
X141495000Y-71089000D01*
X141495000Y-72205500D01*
X141474178Y-72262708D01*
X141421455Y-72293148D01*
X141406000Y-72294500D01*
X141276470Y-72294500D01*
X141251073Y-72290799D01*
X141237192Y-72286666D01*
X141233692Y-72285545D01*
X141186953Y-72269500D01*
X141179723Y-72268293D01*
X141172416Y-72267382D01*
X141123070Y-72269424D01*
X141119392Y-72269500D01*
X140882648Y-72269500D01*
X140833202Y-72254500D01*
X140798233Y-72231134D01*
X140798231Y-72231133D01*
X140798228Y-72231132D01*
X140798227Y-72231132D01*
X140739752Y-72219500D01*
X140739748Y-72219500D01*
X140200252Y-72219500D01*
X140200247Y-72219500D01*
X140141768Y-72231132D01*
X140075451Y-72275445D01*
X140075445Y-72275451D01*
X140031132Y-72341769D01*
X140029771Y-72345056D01*
X140026687Y-72348421D01*
X140026262Y-72349058D01*
X140026164Y-72348992D01*
X139988643Y-72389942D01*
X139947545Y-72400000D01*
X139895000Y-72400000D01*
X139895000Y-72400001D01*
X139895000Y-72662451D01*
X139874178Y-72719659D01*
X139868932Y-72725384D01*
X139351881Y-73242434D01*
X139337631Y-73254006D01*
X139326835Y-73261059D01*
X139326831Y-73261063D01*
X139323247Y-73265666D01*
X139271679Y-73298021D01*
X139253016Y-73300000D01*
X137384000Y-73300000D01*
X137326792Y-73279178D01*
X137296352Y-73226455D01*
X137295000Y-73211000D01*
X137295000Y-71089000D01*
X137315822Y-71031792D01*
X137368545Y-71001352D01*
X137384000Y-71000000D01*
X141406000Y-71000000D01*
X141463208Y-71020822D01*
G37*
%TD.AperFunction*%
%TD*%
%TA.AperFunction,Conductor*%
%TO.N,+10V*%
G36*
X113768208Y-74220822D02*
G01*
X113798648Y-74273545D01*
X113800000Y-74289000D01*
X113800000Y-78611000D01*
X113779178Y-78668208D01*
X113726455Y-78698648D01*
X113711000Y-78700000D01*
X109489000Y-78700000D01*
X109431792Y-78679178D01*
X109401352Y-78626455D01*
X109400000Y-78611000D01*
X109400000Y-78335855D01*
X109420822Y-78278647D01*
X109421741Y-78277570D01*
X109425375Y-78273375D01*
X109425378Y-78273372D01*
X109485165Y-78142456D01*
X109505647Y-78000000D01*
X109505647Y-77999999D01*
X109485165Y-77857543D01*
X109425378Y-77726628D01*
X109425375Y-77726625D01*
X109421738Y-77722427D01*
X109400011Y-77665556D01*
X109400000Y-77664145D01*
X109400000Y-77200001D01*
X109400000Y-77200000D01*
X109399999Y-77200000D01*
X101689000Y-77200000D01*
X101631792Y-77179178D01*
X101601352Y-77126455D01*
X101600000Y-77111000D01*
X101600000Y-75089000D01*
X101620822Y-75031792D01*
X101673545Y-75001352D01*
X101689000Y-75000000D01*
X109399999Y-75000000D01*
X109400000Y-75000000D01*
X109400000Y-74289000D01*
X109420822Y-74231792D01*
X109473545Y-74201352D01*
X109489000Y-74200000D01*
X113711000Y-74200000D01*
X113768208Y-74220822D01*
G37*
%TD.AperFunction*%
%TD*%
%TA.AperFunction,Conductor*%
%TO.N,Net-(U2-DC)*%
G36*
X172868208Y-52520822D02*
G01*
X172898648Y-52573545D01*
X172900000Y-52589000D01*
X172900000Y-54911000D01*
X172879178Y-54968208D01*
X172826455Y-54998648D01*
X172811000Y-55000000D01*
X171425326Y-55000000D01*
X171379267Y-54985245D01*
X171379001Y-54985790D01*
X171375260Y-54983961D01*
X171373611Y-54983433D01*
X171372375Y-54982551D01*
X171264285Y-54929708D01*
X171264281Y-54929707D01*
X171207276Y-54921402D01*
X171194215Y-54919500D01*
X171194213Y-54919500D01*
X170805786Y-54919500D01*
X170805774Y-54919501D01*
X170735715Y-54929708D01*
X170628089Y-54982324D01*
X170567549Y-54988743D01*
X170517046Y-54954746D01*
X170500000Y-54902367D01*
X170500000Y-53600001D01*
X170500000Y-53600000D01*
X170499999Y-53600000D01*
X170389000Y-53600000D01*
X170331792Y-53579178D01*
X170301352Y-53526455D01*
X170300000Y-53511000D01*
X170300000Y-52589000D01*
X170320822Y-52531792D01*
X170373545Y-52501352D01*
X170389000Y-52500000D01*
X172811000Y-52500000D01*
X172868208Y-52520822D01*
G37*
%TD.AperFunction*%
%TD*%
%TA.AperFunction,Conductor*%
%TO.N,+3V0*%
G36*
X169968208Y-52520822D02*
G01*
X169998648Y-52573545D01*
X170000000Y-52589000D01*
X170000000Y-54749952D01*
X169979178Y-54807160D01*
X169973933Y-54812885D01*
X169912885Y-54873933D01*
X169857709Y-54899661D01*
X169849952Y-54900000D01*
X164439500Y-54900000D01*
X164382292Y-54879178D01*
X164351852Y-54826455D01*
X164350500Y-54811000D01*
X164350500Y-53989500D01*
X164371322Y-53932292D01*
X164424045Y-53901852D01*
X164439500Y-53900500D01*
X164519744Y-53900500D01*
X164519748Y-53900500D01*
X164578231Y-53888867D01*
X164644552Y-53844552D01*
X164688867Y-53778231D01*
X164700500Y-53719748D01*
X164700500Y-52680252D01*
X164688867Y-52621769D01*
X164687157Y-52613171D01*
X164688954Y-52612813D01*
X164686746Y-52562238D01*
X164723807Y-52513938D01*
X164771627Y-52500000D01*
X169911000Y-52500000D01*
X169968208Y-52520822D01*
G37*
%TD.AperFunction*%
%TD*%
%TA.AperFunction,Conductor*%
%TO.N,+3V3*%
G36*
X144018208Y-52020822D02*
G01*
X144048648Y-52073545D01*
X144050000Y-52089000D01*
X144050000Y-53005500D01*
X144029178Y-53062708D01*
X143976455Y-53093148D01*
X143961000Y-53094500D01*
X142281798Y-53094500D01*
X142271063Y-53094883D01*
X142269392Y-53094943D01*
X142266218Y-53095000D01*
X142133782Y-53095000D01*
X142130607Y-53094943D01*
X142128936Y-53094883D01*
X142118202Y-53094500D01*
X142118195Y-53094500D01*
X141281805Y-53094500D01*
X141281798Y-53094500D01*
X141271063Y-53094883D01*
X141269392Y-53094943D01*
X141266218Y-53095000D01*
X141133782Y-53095000D01*
X141130607Y-53094943D01*
X141128936Y-53094883D01*
X141118202Y-53094500D01*
X141118195Y-53094500D01*
X140789000Y-53094500D01*
X140731792Y-53073678D01*
X140701352Y-53020955D01*
X140700000Y-53005500D01*
X140700000Y-52089000D01*
X140720822Y-52031792D01*
X140773545Y-52001352D01*
X140789000Y-52000000D01*
X143961000Y-52000000D01*
X144018208Y-52020822D01*
G37*
%TD.AperFunction*%
%TD*%
%TA.AperFunction,Conductor*%
%TO.N,+3V0*%
G36*
X106118208Y-54020822D02*
G01*
X106148648Y-54073545D01*
X106150000Y-54089000D01*
X106150000Y-57711000D01*
X106129178Y-57768208D01*
X106076455Y-57798648D01*
X106061000Y-57800000D01*
X105400000Y-57800000D01*
X105400000Y-57800001D01*
X105400000Y-58316602D01*
X105385001Y-58366048D01*
X105361133Y-58401768D01*
X105349500Y-58460247D01*
X105349500Y-59111000D01*
X105328678Y-59168208D01*
X105275955Y-59198648D01*
X105260500Y-59200000D01*
X105139500Y-59200000D01*
X105082292Y-59179178D01*
X105051852Y-59126455D01*
X105050500Y-59111000D01*
X105050500Y-58460255D01*
X105050499Y-58460247D01*
X105038867Y-58401768D01*
X104994554Y-58335451D01*
X104994552Y-58335448D01*
X104994548Y-58335445D01*
X104994547Y-58335444D01*
X104989550Y-58332105D01*
X104953554Y-58283007D01*
X104950000Y-58258107D01*
X104950000Y-57800001D01*
X104950000Y-57800000D01*
X104949999Y-57800000D01*
X104231837Y-57800000D01*
X104174629Y-57779178D01*
X104168904Y-57773933D01*
X104026067Y-57631096D01*
X104000339Y-57575920D01*
X104000000Y-57568163D01*
X104000000Y-55161836D01*
X104020822Y-55104628D01*
X104026068Y-55098903D01*
X105098905Y-54026067D01*
X105154080Y-54000339D01*
X105161837Y-54000000D01*
X106061000Y-54000000D01*
X106118208Y-54020822D01*
G37*
%TD.AperFunction*%
%TD*%
%TA.AperFunction,Conductor*%
%TO.N,GND*%
G36*
X103471767Y-59368865D02*
G01*
X103471769Y-59368867D01*
X103530252Y-59380500D01*
X103530256Y-59380500D01*
X103869744Y-59380500D01*
X103869748Y-59380500D01*
X103928231Y-59368867D01*
X103928232Y-59368865D01*
X103932636Y-59367990D01*
X103967364Y-59367990D01*
X103971767Y-59368865D01*
X103971769Y-59368867D01*
X104030252Y-59380500D01*
X104030256Y-59380500D01*
X104369744Y-59380500D01*
X104369748Y-59380500D01*
X104428231Y-59368867D01*
X104428232Y-59368865D01*
X104432636Y-59367990D01*
X104467364Y-59367990D01*
X104471767Y-59368865D01*
X104471769Y-59368867D01*
X104530252Y-59380500D01*
X104530256Y-59380500D01*
X104869744Y-59380500D01*
X104869748Y-59380500D01*
X104928231Y-59368867D01*
X104928232Y-59368865D01*
X104932636Y-59367990D01*
X104967363Y-59367990D01*
X104971767Y-59368866D01*
X104971769Y-59368867D01*
X105030252Y-59380500D01*
X105030254Y-59380500D01*
X105033110Y-59381068D01*
X105046187Y-59384725D01*
X105069215Y-59393107D01*
X105139500Y-59405500D01*
X105139502Y-59405500D01*
X105260508Y-59405500D01*
X105276419Y-59404804D01*
X105278409Y-59404718D01*
X105282909Y-59404324D01*
X105293855Y-59403367D01*
X105293855Y-59403366D01*
X105293864Y-59403366D01*
X105356043Y-59383761D01*
X105365581Y-59381966D01*
X105365459Y-59381353D01*
X105369747Y-59380500D01*
X105369748Y-59380500D01*
X105428231Y-59368867D01*
X105428232Y-59368865D01*
X105432636Y-59367990D01*
X105467364Y-59367990D01*
X105471767Y-59368865D01*
X105471769Y-59368867D01*
X105530252Y-59380500D01*
X105530256Y-59380500D01*
X105860500Y-59380500D01*
X105917708Y-59401322D01*
X105948148Y-59454045D01*
X105949500Y-59469500D01*
X105949500Y-59799752D01*
X105962009Y-59862637D01*
X105962009Y-59897363D01*
X105949500Y-59960247D01*
X105949500Y-60299752D01*
X105962009Y-60362637D01*
X105962009Y-60397363D01*
X105949500Y-60460247D01*
X105949500Y-60799752D01*
X105961132Y-60858231D01*
X105990890Y-60902765D01*
X106005448Y-60924552D01*
X106005451Y-60924554D01*
X106071768Y-60968867D01*
X106126240Y-60979702D01*
X106130252Y-60980500D01*
X106761000Y-60980500D01*
X106818208Y-61001322D01*
X106848648Y-61054045D01*
X106850000Y-61069500D01*
X106850000Y-61190500D01*
X106829178Y-61247708D01*
X106776455Y-61278148D01*
X106761000Y-61279500D01*
X106130247Y-61279500D01*
X106071768Y-61291132D01*
X106005451Y-61335445D01*
X106005445Y-61335451D01*
X105961132Y-61401768D01*
X105949500Y-61460247D01*
X105949500Y-61799752D01*
X105962009Y-61862637D01*
X105962009Y-61897363D01*
X105949500Y-61960247D01*
X105949500Y-62290500D01*
X105928678Y-62347708D01*
X105875955Y-62378148D01*
X105860500Y-62379500D01*
X105530247Y-62379500D01*
X105467363Y-62392009D01*
X105432637Y-62392009D01*
X105369752Y-62379500D01*
X105369748Y-62379500D01*
X105030252Y-62379500D01*
X105030247Y-62379500D01*
X104967363Y-62392009D01*
X104932637Y-62392009D01*
X104869752Y-62379500D01*
X104869748Y-62379500D01*
X104530252Y-62379500D01*
X104530247Y-62379500D01*
X104467363Y-62392009D01*
X104432637Y-62392009D01*
X104369752Y-62379500D01*
X104369748Y-62379500D01*
X104030252Y-62379500D01*
X104030247Y-62379500D01*
X103967363Y-62392009D01*
X103932637Y-62392009D01*
X103869752Y-62379500D01*
X103869748Y-62379500D01*
X103530252Y-62379500D01*
X103530247Y-62379500D01*
X103467363Y-62392009D01*
X103432637Y-62392009D01*
X103369752Y-62379500D01*
X103369748Y-62379500D01*
X103039500Y-62379500D01*
X102982292Y-62358678D01*
X102951852Y-62305955D01*
X102950500Y-62290500D01*
X102950500Y-61960255D01*
X102950500Y-61960252D01*
X102938867Y-61901769D01*
X102938865Y-61901767D01*
X102937990Y-61897364D01*
X102937990Y-61862636D01*
X102938865Y-61858232D01*
X102938867Y-61858231D01*
X102950500Y-61799748D01*
X102950500Y-61460252D01*
X102938867Y-61401769D01*
X102938865Y-61401767D01*
X102937990Y-61397364D01*
X102937990Y-61362636D01*
X102938865Y-61358232D01*
X102938867Y-61358231D01*
X102950500Y-61299748D01*
X102950500Y-60960252D01*
X102938867Y-60901769D01*
X102938865Y-60901767D01*
X102937990Y-60897364D01*
X102937990Y-60862636D01*
X102938865Y-60858232D01*
X102938867Y-60858231D01*
X102950500Y-60799748D01*
X102950500Y-60460252D01*
X102938867Y-60401769D01*
X102938865Y-60401767D01*
X102937990Y-60397364D01*
X102937990Y-60362636D01*
X102938865Y-60358232D01*
X102938867Y-60358231D01*
X102950500Y-60299748D01*
X102950500Y-59960252D01*
X102938867Y-59901769D01*
X102938865Y-59901767D01*
X102937990Y-59897364D01*
X102937990Y-59862636D01*
X102938865Y-59858232D01*
X102938867Y-59858231D01*
X102950500Y-59799748D01*
X102950500Y-59469500D01*
X102971322Y-59412292D01*
X103024045Y-59381852D01*
X103039500Y-59380500D01*
X103369744Y-59380500D01*
X103369748Y-59380500D01*
X103428231Y-59368867D01*
X103428232Y-59368865D01*
X103432636Y-59367990D01*
X103467364Y-59367990D01*
X103471767Y-59368865D01*
G37*
%TD.AperFunction*%
%TA.AperFunction,Conductor*%
G36*
X120968208Y-42021322D02*
G01*
X120998648Y-42074045D01*
X121000000Y-42089500D01*
X121000000Y-59111000D01*
X120979178Y-59168208D01*
X120926455Y-59198648D01*
X120911000Y-59200000D01*
X113100000Y-59200000D01*
X111425000Y-59200000D01*
X111425000Y-59200001D01*
X111425000Y-59511000D01*
X111404178Y-59568208D01*
X111351455Y-59598648D01*
X111351343Y-59598657D01*
X111350001Y-59600000D01*
X111350000Y-59600000D01*
X111350000Y-61650000D01*
X111350000Y-62050000D01*
X111350001Y-62050000D01*
X114049999Y-62050000D01*
X114050000Y-62050000D01*
X114050000Y-61151314D01*
X114070822Y-61094106D01*
X114123545Y-61063666D01*
X114176613Y-61070653D01*
X114226825Y-61094067D01*
X114226827Y-61094068D01*
X114275684Y-61100500D01*
X114275690Y-61100500D01*
X114724310Y-61100500D01*
X114724316Y-61100500D01*
X114773173Y-61094068D01*
X114873387Y-61047336D01*
X114934034Y-61042030D01*
X114983904Y-61076949D01*
X115000000Y-61127998D01*
X115000000Y-62000000D01*
X115000001Y-62000000D01*
X117999999Y-62000000D01*
X118000000Y-62000000D01*
X118000000Y-61489000D01*
X118020822Y-61431792D01*
X118073545Y-61401352D01*
X118089000Y-61400000D01*
X118911000Y-61400000D01*
X118968208Y-61420822D01*
X118998648Y-61473545D01*
X119000000Y-61489000D01*
X119000000Y-62000000D01*
X119000001Y-62000000D01*
X123699999Y-62000000D01*
X123700000Y-62000000D01*
X123700000Y-61389000D01*
X123720822Y-61331792D01*
X123773545Y-61301352D01*
X123789000Y-61300000D01*
X125599999Y-61300000D01*
X125600000Y-61300000D01*
X125600000Y-61089000D01*
X125620822Y-61031792D01*
X125673545Y-61001352D01*
X125689000Y-61000000D01*
X128763134Y-61000000D01*
X128820342Y-61020822D01*
X128826066Y-61026067D01*
X129047708Y-61247708D01*
X129200000Y-61400000D01*
X130711000Y-61400000D01*
X130768208Y-61420822D01*
X130798648Y-61473545D01*
X130800000Y-61489000D01*
X130800000Y-62000000D01*
X130800001Y-62000000D01*
X131999999Y-62000000D01*
X132000000Y-62000000D01*
X132000000Y-61489000D01*
X132020822Y-61431792D01*
X132073545Y-61401352D01*
X132089000Y-61400000D01*
X132911000Y-61400000D01*
X132968208Y-61420822D01*
X132998648Y-61473545D01*
X133000000Y-61489000D01*
X133000000Y-62000000D01*
X133000001Y-62000000D01*
X135999999Y-62000000D01*
X136000000Y-62000000D01*
X136000000Y-61489000D01*
X136020822Y-61431792D01*
X136073545Y-61401352D01*
X136089000Y-61400000D01*
X137111000Y-61400000D01*
X137168208Y-61420822D01*
X137198648Y-61473545D01*
X137200000Y-61489000D01*
X137200000Y-62000000D01*
X137200001Y-62000000D01*
X139999999Y-62000000D01*
X140000000Y-62000000D01*
X140000000Y-61018000D01*
X140020822Y-60960792D01*
X140073545Y-60930352D01*
X140089000Y-60929000D01*
X140935107Y-60929000D01*
X140984554Y-60944000D01*
X141021768Y-60968867D01*
X141076240Y-60979702D01*
X141080252Y-60980500D01*
X141080256Y-60980500D01*
X141819744Y-60980500D01*
X141819748Y-60980500D01*
X141878231Y-60968867D01*
X141944552Y-60924552D01*
X141988867Y-60858231D01*
X142000500Y-60799748D01*
X142000500Y-60460252D01*
X141988867Y-60401769D01*
X141988865Y-60401767D01*
X141987990Y-60397364D01*
X141987990Y-60362636D01*
X141988865Y-60358232D01*
X141988867Y-60358231D01*
X142000500Y-60299748D01*
X142000500Y-59960252D01*
X141988867Y-59901769D01*
X141988867Y-59901768D01*
X141944554Y-59835451D01*
X141944552Y-59835448D01*
X141944548Y-59835445D01*
X141878231Y-59791132D01*
X141819752Y-59779500D01*
X141819748Y-59779500D01*
X141739500Y-59779500D01*
X141682292Y-59758678D01*
X141651852Y-59705955D01*
X141650500Y-59690500D01*
X141650500Y-59689000D01*
X141671322Y-59631792D01*
X141724045Y-59601352D01*
X141739500Y-59600000D01*
X143911000Y-59600000D01*
X143968208Y-59620822D01*
X143998648Y-59673545D01*
X144000000Y-59689000D01*
X144000000Y-60190500D01*
X143979178Y-60247708D01*
X143926455Y-60278148D01*
X143911000Y-60279500D01*
X143180247Y-60279500D01*
X143121768Y-60291132D01*
X143055451Y-60335445D01*
X143055445Y-60335451D01*
X143011132Y-60401768D01*
X142999500Y-60460247D01*
X142999500Y-60799752D01*
X143011132Y-60858231D01*
X143040890Y-60902765D01*
X143055448Y-60924552D01*
X143055451Y-60924554D01*
X143121768Y-60968867D01*
X143176240Y-60979702D01*
X143180252Y-60980500D01*
X143180256Y-60980500D01*
X143919744Y-60980500D01*
X143919748Y-60980500D01*
X143923759Y-60979702D01*
X143983930Y-60988960D01*
X143998649Y-61000000D01*
X144000000Y-61000000D01*
X144711000Y-61000000D01*
X144768208Y-61020822D01*
X144798648Y-61073545D01*
X144800000Y-61089000D01*
X144800000Y-62200000D01*
X144800001Y-62200000D01*
X148799999Y-62200000D01*
X148800000Y-62200000D01*
X148800000Y-62074863D01*
X149987000Y-62074863D01*
X149987001Y-62074864D01*
X149989915Y-62099991D01*
X150035294Y-62202765D01*
X150114735Y-62282206D01*
X150217509Y-62327585D01*
X150242635Y-62330500D01*
X151757364Y-62330499D01*
X151782491Y-62327585D01*
X151885265Y-62282206D01*
X151964706Y-62202765D01*
X152010085Y-62099991D01*
X152013000Y-62074865D01*
X152013000Y-62074863D01*
X154212000Y-62074863D01*
X154212001Y-62074864D01*
X154214915Y-62099991D01*
X154260294Y-62202765D01*
X154339735Y-62282206D01*
X154442509Y-62327585D01*
X154467635Y-62330500D01*
X155165783Y-62330499D01*
X155222991Y-62351321D01*
X155228716Y-62356566D01*
X156624933Y-63752783D01*
X156650661Y-63807959D01*
X156651000Y-63815716D01*
X156651000Y-73378626D01*
X156630178Y-73435834D01*
X156616180Y-73449234D01*
X156521723Y-73521713D01*
X156521713Y-73521723D01*
X156425465Y-73647156D01*
X156425463Y-73647158D01*
X156364957Y-73793232D01*
X156364956Y-73793237D01*
X156364956Y-73793238D01*
X156344318Y-73950000D01*
X156362049Y-74084684D01*
X156364957Y-74106767D01*
X156425463Y-74252841D01*
X156425465Y-74252843D01*
X156478377Y-74321799D01*
X156521718Y-74378282D01*
X156521722Y-74378285D01*
X156521723Y-74378286D01*
X156647156Y-74474534D01*
X156647158Y-74474536D01*
X156793233Y-74535042D01*
X156793238Y-74535044D01*
X156950000Y-74555682D01*
X157106762Y-74535044D01*
X157113211Y-74532373D01*
X157252841Y-74474536D01*
X157378282Y-74378282D01*
X157474536Y-74252841D01*
X157535044Y-74106762D01*
X157555682Y-73950000D01*
X157535044Y-73793238D01*
X157534759Y-73792551D01*
X157474536Y-73647158D01*
X157474534Y-73647156D01*
X157378286Y-73521723D01*
X157378285Y-73521722D01*
X157378282Y-73521718D01*
X157378277Y-73521714D01*
X157378276Y-73521713D01*
X157283820Y-73449234D01*
X157251110Y-73397889D01*
X157249000Y-73378626D01*
X157249000Y-63718292D01*
X157251115Y-63705332D01*
X157250123Y-63705194D01*
X157251262Y-63697027D01*
X157249095Y-63650155D01*
X157249000Y-63646044D01*
X157249000Y-63627296D01*
X157248858Y-63626538D01*
X157247435Y-63614277D01*
X157246099Y-63585358D01*
X157241704Y-63575404D01*
X157235637Y-63555815D01*
X157233638Y-63545118D01*
X157218387Y-63520487D01*
X157212647Y-63509595D01*
X157200947Y-63483097D01*
X157198349Y-63480499D01*
X157193250Y-63475399D01*
X157180516Y-63459322D01*
X157177419Y-63454321D01*
X157174791Y-63450076D01*
X157151685Y-63432627D01*
X157142387Y-63424537D01*
X156118093Y-62400243D01*
X156092365Y-62345067D01*
X156108121Y-62286262D01*
X156118087Y-62274383D01*
X156189706Y-62202765D01*
X156235085Y-62099991D01*
X156238000Y-62074865D01*
X156237999Y-61785136D01*
X156235085Y-61760009D01*
X156189706Y-61657235D01*
X156110265Y-61577794D01*
X156007491Y-61532415D01*
X156007490Y-61532414D01*
X155985279Y-61529838D01*
X155982365Y-61529500D01*
X155982364Y-61529500D01*
X154467644Y-61529500D01*
X154442508Y-61532415D01*
X154339736Y-61577793D01*
X154260293Y-61657236D01*
X154214914Y-61760010D01*
X154212000Y-61785135D01*
X154212000Y-62074855D01*
X154212000Y-62074863D01*
X152013000Y-62074863D01*
X152012999Y-61785136D01*
X152010085Y-61760009D01*
X151964706Y-61657235D01*
X151885265Y-61577794D01*
X151782491Y-61532415D01*
X151782490Y-61532414D01*
X151760279Y-61529838D01*
X151757365Y-61529500D01*
X151757364Y-61529500D01*
X150242644Y-61529500D01*
X150217508Y-61532415D01*
X150114736Y-61577793D01*
X150035293Y-61657236D01*
X149989914Y-61760010D01*
X149987000Y-61785135D01*
X149987000Y-62074855D01*
X149987000Y-62074863D01*
X148800000Y-62074863D01*
X148800000Y-61089000D01*
X148820822Y-61031792D01*
X148873545Y-61001352D01*
X148889000Y-61000000D01*
X149999999Y-61000000D01*
X150000000Y-61000000D01*
X150000000Y-60999999D01*
X150004943Y-60995056D01*
X150060119Y-60969326D01*
X150106081Y-60981387D01*
X150107191Y-60978875D01*
X150114734Y-60982205D01*
X150114735Y-60982206D01*
X150217509Y-61027585D01*
X150242635Y-61030500D01*
X151757364Y-61030499D01*
X151782491Y-61027585D01*
X151885265Y-60982206D01*
X151964706Y-60902765D01*
X152010085Y-60799991D01*
X152013000Y-60774865D01*
X152013000Y-60774855D01*
X154212000Y-60774855D01*
X154214915Y-60799991D01*
X154236886Y-60849752D01*
X154260294Y-60902765D01*
X154339735Y-60982206D01*
X154442509Y-61027585D01*
X154467635Y-61030500D01*
X155982364Y-61030499D01*
X156007491Y-61027585D01*
X156110265Y-60982206D01*
X156123835Y-60968636D01*
X156137405Y-60955067D01*
X156192581Y-60929339D01*
X156200337Y-60929000D01*
X156211000Y-60929000D01*
X156268208Y-60949822D01*
X156293323Y-60993322D01*
X156300000Y-60999999D01*
X156300000Y-61000000D01*
X156911000Y-61000000D01*
X156968208Y-61020822D01*
X156998648Y-61073545D01*
X157000000Y-61089000D01*
X157000000Y-62600000D01*
X157000001Y-62600000D01*
X167599999Y-62600000D01*
X167600000Y-62600000D01*
X167600000Y-61068597D01*
X167620822Y-61011389D01*
X167639552Y-60994597D01*
X167669552Y-60974552D01*
X167713867Y-60908231D01*
X167725500Y-60849748D01*
X167725500Y-60410252D01*
X167722936Y-60397363D01*
X167713867Y-60351768D01*
X167669554Y-60285451D01*
X167669552Y-60285448D01*
X167668882Y-60285000D01*
X167603231Y-60241132D01*
X167544752Y-60229500D01*
X167544748Y-60229500D01*
X166455252Y-60229500D01*
X166455247Y-60229500D01*
X166396768Y-60241132D01*
X166348652Y-60273284D01*
X166331118Y-60285000D01*
X166281672Y-60300000D01*
X165289000Y-60300000D01*
X165231792Y-60279178D01*
X165201352Y-60226455D01*
X165200000Y-60211000D01*
X165200000Y-59100001D01*
X165200000Y-59100000D01*
X165199999Y-59100000D01*
X165032000Y-59100000D01*
X164974792Y-59079178D01*
X164944352Y-59026455D01*
X164943000Y-59011000D01*
X164943000Y-58270255D01*
X164942999Y-58270247D01*
X164931367Y-58211768D01*
X164887054Y-58145451D01*
X164887052Y-58145448D01*
X164879665Y-58140512D01*
X164820731Y-58101132D01*
X164762252Y-58089500D01*
X164762248Y-58089500D01*
X163452752Y-58089500D01*
X163452747Y-58089500D01*
X163394268Y-58101132D01*
X163327951Y-58145445D01*
X163327945Y-58145451D01*
X163283632Y-58211768D01*
X163272000Y-58270247D01*
X163272000Y-59011000D01*
X163251178Y-59068208D01*
X163198455Y-59098648D01*
X163183000Y-59100000D01*
X162489000Y-59100000D01*
X162431792Y-59079178D01*
X162401352Y-59026455D01*
X162400000Y-59011000D01*
X162400000Y-58000001D01*
X162400000Y-58000000D01*
X160300000Y-58000000D01*
X160300000Y-58000001D01*
X160300000Y-59011000D01*
X160279178Y-59068208D01*
X160226455Y-59098648D01*
X160211000Y-59100000D01*
X156300000Y-59100000D01*
X156300000Y-59100001D01*
X156300000Y-60242000D01*
X156279178Y-60299208D01*
X156226455Y-60329648D01*
X156211000Y-60331000D01*
X156200337Y-60331000D01*
X156143129Y-60310178D01*
X156137405Y-60304933D01*
X156110265Y-60277794D01*
X156042126Y-60247708D01*
X156007491Y-60232415D01*
X156007490Y-60232414D01*
X155985279Y-60229838D01*
X155982365Y-60229500D01*
X155982364Y-60229500D01*
X154467644Y-60229500D01*
X154442508Y-60232415D01*
X154339736Y-60277793D01*
X154260293Y-60357236D01*
X154214914Y-60460010D01*
X154212000Y-60485135D01*
X154212000Y-60774855D01*
X152013000Y-60774855D01*
X152012999Y-60485136D01*
X152010085Y-60460009D01*
X151964706Y-60357235D01*
X151885265Y-60277794D01*
X151782491Y-60232415D01*
X151782490Y-60232414D01*
X151760279Y-60229838D01*
X151757365Y-60229500D01*
X151757364Y-60229500D01*
X150242644Y-60229500D01*
X150240137Y-60229790D01*
X150217509Y-60232415D01*
X150217506Y-60232415D01*
X150217506Y-60232416D01*
X150124948Y-60273284D01*
X150064204Y-60277343D01*
X150015062Y-60241407D01*
X150003553Y-60203554D01*
X150000000Y-60200001D01*
X150000000Y-60200000D01*
X149999999Y-60200000D01*
X148689000Y-60200000D01*
X148631792Y-60179178D01*
X148601352Y-60126455D01*
X148600000Y-60111000D01*
X148600000Y-59200001D01*
X148600000Y-59200000D01*
X146000000Y-59200000D01*
X145999999Y-59200000D01*
X145987477Y-59212522D01*
X145932301Y-59238250D01*
X145885544Y-59225721D01*
X145884136Y-59228602D01*
X145832911Y-59203559D01*
X145790661Y-59159727D01*
X145783000Y-59123603D01*
X145783000Y-58418800D01*
X145803822Y-58361592D01*
X145832912Y-58338843D01*
X145854429Y-58328324D01*
X145938324Y-58244429D01*
X145990433Y-58137840D01*
X145991523Y-58130362D01*
X145997476Y-58089500D01*
X146000500Y-58068742D01*
X146000500Y-57691258D01*
X145990433Y-57622160D01*
X145938324Y-57515571D01*
X145854429Y-57431676D01*
X145854426Y-57431674D01*
X145854424Y-57431673D01*
X145837909Y-57423599D01*
X145795660Y-57379766D01*
X145788000Y-57343644D01*
X145788000Y-57127017D01*
X145808822Y-57069809D01*
X145847602Y-57043013D01*
X145944475Y-57009116D01*
X146050711Y-56930711D01*
X146129116Y-56824475D01*
X146172725Y-56699849D01*
X146172726Y-56699843D01*
X146175500Y-56670263D01*
X146175500Y-56089736D01*
X146172726Y-56060156D01*
X146172725Y-56060153D01*
X146172725Y-56060151D01*
X146129116Y-55935525D01*
X146050711Y-55829289D01*
X145944475Y-55750884D01*
X145944473Y-55750883D01*
X145850874Y-55718131D01*
X145819849Y-55707275D01*
X145819848Y-55707274D01*
X145819843Y-55707273D01*
X145790263Y-55704500D01*
X145790256Y-55704500D01*
X145084744Y-55704500D01*
X145084737Y-55704500D01*
X145055156Y-55707273D01*
X144930526Y-55750883D01*
X144824289Y-55829289D01*
X144745883Y-55935526D01*
X144702273Y-56060156D01*
X144699500Y-56089736D01*
X144699500Y-56670263D01*
X144702273Y-56699843D01*
X144731795Y-56784213D01*
X144745884Y-56824475D01*
X144824289Y-56930711D01*
X144930525Y-57009116D01*
X145027396Y-57043013D01*
X145074515Y-57081559D01*
X145087000Y-57127017D01*
X145087000Y-57338755D01*
X145066178Y-57395963D01*
X145037090Y-57418711D01*
X145010572Y-57431675D01*
X144926675Y-57515572D01*
X144874566Y-57622163D01*
X144874565Y-57622165D01*
X144864500Y-57691252D01*
X144864500Y-57915452D01*
X144843678Y-57972660D01*
X144838433Y-57978385D01*
X144795885Y-58020933D01*
X144740709Y-58046661D01*
X144732952Y-58047000D01*
X144301049Y-58047000D01*
X144243841Y-58026178D01*
X144213401Y-57973455D01*
X144223973Y-57913500D01*
X144226286Y-57909714D01*
X144252423Y-57869245D01*
X144272285Y-57838493D01*
X144293107Y-57781285D01*
X144305500Y-57711000D01*
X144305500Y-53389000D01*
X144304718Y-53371091D01*
X144303366Y-53355636D01*
X144276616Y-53270794D01*
X144276616Y-53270793D01*
X144246176Y-53218070D01*
X144238388Y-53207789D01*
X144220443Y-53149614D01*
X144225700Y-53123609D01*
X144243107Y-53075785D01*
X144255500Y-53005500D01*
X144255500Y-52089000D01*
X144254718Y-52071091D01*
X144254073Y-52063713D01*
X144253367Y-52055644D01*
X144253366Y-52055642D01*
X144253366Y-52055636D01*
X144226616Y-51970794D01*
X144226616Y-51970793D01*
X144196176Y-51918070D01*
X144165319Y-51877334D01*
X144165315Y-51877331D01*
X144088500Y-51827719D01*
X144088487Y-51827712D01*
X144031295Y-51806896D01*
X144031285Y-51806893D01*
X143961003Y-51794500D01*
X143961000Y-51794500D01*
X140789000Y-51794500D01*
X140788992Y-51794500D01*
X140771091Y-51795281D01*
X140755644Y-51796632D01*
X140755632Y-51796635D01*
X140670793Y-51823383D01*
X140618070Y-51853823D01*
X140577334Y-51884680D01*
X140577331Y-51884684D01*
X140527719Y-51961499D01*
X140527712Y-51961512D01*
X140506896Y-52018704D01*
X140506893Y-52018714D01*
X140494500Y-52088996D01*
X140494500Y-53005508D01*
X140495281Y-53023408D01*
X140496632Y-53038855D01*
X140496635Y-53038868D01*
X140511161Y-53084940D01*
X140508505Y-53145762D01*
X140480025Y-53182642D01*
X140477335Y-53184679D01*
X140477331Y-53184684D01*
X140427719Y-53261499D01*
X140427712Y-53261512D01*
X140406896Y-53318704D01*
X140406893Y-53318714D01*
X140394500Y-53388996D01*
X140394500Y-57711008D01*
X140395281Y-57728908D01*
X140396632Y-57744355D01*
X140396635Y-57744367D01*
X140423383Y-57829206D01*
X140453823Y-57881929D01*
X140481674Y-57918696D01*
X140484681Y-57922666D01*
X140561507Y-57972285D01*
X140561510Y-57972286D01*
X140561512Y-57972287D01*
X140592136Y-57983433D01*
X140618715Y-57993107D01*
X140689000Y-58005500D01*
X140699946Y-58005500D01*
X140757154Y-58026322D01*
X140787594Y-58079045D01*
X140788016Y-58107330D01*
X140779500Y-58165779D01*
X140779500Y-58629213D01*
X140779501Y-58629225D01*
X140789708Y-58699284D01*
X140815745Y-58752542D01*
X140842551Y-58807375D01*
X140923433Y-58888257D01*
X140949161Y-58943432D01*
X140949500Y-58951189D01*
X140949500Y-59111000D01*
X140928678Y-59168208D01*
X140875955Y-59198648D01*
X140860500Y-59200000D01*
X124089000Y-59200000D01*
X124031792Y-59179178D01*
X124001352Y-59126455D01*
X124000000Y-59111000D01*
X124000000Y-42089500D01*
X124020822Y-42032292D01*
X124073545Y-42001852D01*
X124089000Y-42000500D01*
X187610500Y-42000500D01*
X187667708Y-42021322D01*
X187698148Y-42074045D01*
X187699500Y-42089500D01*
X187699500Y-57211000D01*
X187678678Y-57268208D01*
X187625955Y-57298648D01*
X187610500Y-57300000D01*
X171621233Y-57300000D01*
X171564025Y-57279178D01*
X171533585Y-57226455D01*
X171541276Y-57171912D01*
X171549285Y-57155529D01*
X171557933Y-57137840D01*
X171568000Y-57068742D01*
X171568000Y-56691258D01*
X171557933Y-56622160D01*
X171505824Y-56515571D01*
X171421929Y-56431676D01*
X171421927Y-56431675D01*
X171421925Y-56431673D01*
X171400409Y-56421154D01*
X171358160Y-56377321D01*
X171350500Y-56341199D01*
X171350500Y-56031189D01*
X171371322Y-55973981D01*
X171376556Y-55968267D01*
X171457449Y-55887375D01*
X171510291Y-55779286D01*
X171511584Y-55770415D01*
X171517262Y-55731439D01*
X171520500Y-55709215D01*
X171520499Y-55294499D01*
X171541321Y-55237292D01*
X171594044Y-55206852D01*
X171609499Y-55205500D01*
X172811008Y-55205500D01*
X172826919Y-55204804D01*
X172828909Y-55204718D01*
X172833409Y-55204324D01*
X172844355Y-55203367D01*
X172844356Y-55203366D01*
X172844364Y-55203366D01*
X172929206Y-55176616D01*
X172981929Y-55146176D01*
X173022666Y-55115319D01*
X173072285Y-55038493D01*
X173093107Y-54981285D01*
X173105500Y-54911000D01*
X173105500Y-52589000D01*
X173104718Y-52571091D01*
X173103366Y-52555636D01*
X173079102Y-52478678D01*
X173076616Y-52470793D01*
X173046176Y-52418070D01*
X173015319Y-52377334D01*
X173015315Y-52377331D01*
X172938500Y-52327719D01*
X172938487Y-52327712D01*
X172881295Y-52306896D01*
X172881285Y-52306893D01*
X172811003Y-52294500D01*
X172811000Y-52294500D01*
X170389000Y-52294500D01*
X170388992Y-52294500D01*
X170371091Y-52295281D01*
X170355644Y-52296632D01*
X170355632Y-52296635D01*
X170270793Y-52323383D01*
X170218071Y-52353823D01*
X170203703Y-52364707D01*
X170145528Y-52382651D01*
X170101679Y-52368524D01*
X170038500Y-52327719D01*
X170038487Y-52327712D01*
X169981295Y-52306896D01*
X169981285Y-52306893D01*
X169911003Y-52294500D01*
X169911000Y-52294500D01*
X164771627Y-52294500D01*
X164771621Y-52294500D01*
X164714129Y-52302707D01*
X164714125Y-52302708D01*
X164666295Y-52316649D01*
X164631198Y-52330488D01*
X164631192Y-52330491D01*
X164560774Y-52388835D01*
X164560771Y-52388839D01*
X164523710Y-52437139D01*
X164512968Y-52455479D01*
X164466091Y-52494320D01*
X164436171Y-52499500D01*
X163561946Y-52499500D01*
X163504738Y-52478678D01*
X163484871Y-52455001D01*
X163463549Y-52418071D01*
X163432692Y-52377334D01*
X163432688Y-52377331D01*
X163355873Y-52327719D01*
X163355860Y-52327712D01*
X163298668Y-52306896D01*
X163298658Y-52306893D01*
X163228376Y-52294500D01*
X163228373Y-52294500D01*
X160489000Y-52294500D01*
X160488992Y-52294500D01*
X160471091Y-52295281D01*
X160455644Y-52296632D01*
X160455632Y-52296635D01*
X160370793Y-52323383D01*
X160318070Y-52353823D01*
X160277334Y-52384680D01*
X160277331Y-52384684D01*
X160227719Y-52461499D01*
X160227712Y-52461512D01*
X160206896Y-52518704D01*
X160206893Y-52518714D01*
X160194500Y-52588996D01*
X160194500Y-55531119D01*
X160194610Y-55537861D01*
X160194800Y-55543672D01*
X160204881Y-55587987D01*
X160212095Y-55619701D01*
X160236614Y-55675424D01*
X160262854Y-55719280D01*
X160333822Y-55776967D01*
X160388424Y-55803893D01*
X160388427Y-55803894D01*
X160388432Y-55803896D01*
X160422131Y-55815570D01*
X160469373Y-55853970D01*
X160482000Y-55899667D01*
X160482000Y-56529752D01*
X160493632Y-56588231D01*
X160534747Y-56649762D01*
X160537948Y-56654552D01*
X160537951Y-56654554D01*
X160604268Y-56698867D01*
X160661190Y-56710189D01*
X160662752Y-56710500D01*
X160662756Y-56710500D01*
X161972244Y-56710500D01*
X161972248Y-56710500D01*
X162030731Y-56698867D01*
X162097052Y-56654552D01*
X162141367Y-56588231D01*
X162153000Y-56529748D01*
X162153000Y-55730252D01*
X162142940Y-55679678D01*
X162152201Y-55619509D01*
X162155451Y-55614056D01*
X162172285Y-55587993D01*
X162193107Y-55530785D01*
X162205500Y-55460500D01*
X162205500Y-55194500D01*
X162226322Y-55137292D01*
X162279045Y-55106852D01*
X162294500Y-55105500D01*
X163560500Y-55105500D01*
X163617708Y-55126322D01*
X163648148Y-55179045D01*
X163649500Y-55194500D01*
X163649500Y-55460500D01*
X163628678Y-55517708D01*
X163575955Y-55548148D01*
X163560500Y-55549500D01*
X163452747Y-55549500D01*
X163394268Y-55561132D01*
X163327951Y-55605445D01*
X163327945Y-55605451D01*
X163283632Y-55671768D01*
X163272000Y-55730247D01*
X163272000Y-56529752D01*
X163283632Y-56588231D01*
X163324747Y-56649762D01*
X163327948Y-56654552D01*
X163327951Y-56654554D01*
X163394268Y-56698867D01*
X163451190Y-56710189D01*
X163452752Y-56710500D01*
X163452756Y-56710500D01*
X164762244Y-56710500D01*
X164762248Y-56710500D01*
X164820731Y-56698867D01*
X164887052Y-56654552D01*
X164931367Y-56588231D01*
X164943000Y-56529748D01*
X164943000Y-55929500D01*
X164963822Y-55872292D01*
X165016545Y-55841852D01*
X165032000Y-55840500D01*
X169746917Y-55840500D01*
X169765180Y-55842394D01*
X169769926Y-55843388D01*
X169777815Y-55845043D01*
X169777816Y-55845042D01*
X169777818Y-55845043D01*
X169803413Y-55841852D01*
X169808772Y-55841183D01*
X169819782Y-55840500D01*
X169821541Y-55840500D01*
X169821541Y-55840499D01*
X169841266Y-55837207D01*
X169844795Y-55836693D01*
X169893893Y-55830573D01*
X169893896Y-55830571D01*
X169893899Y-55830571D01*
X169900929Y-55828478D01*
X169907879Y-55826092D01*
X169907881Y-55826092D01*
X169951374Y-55802553D01*
X169954540Y-55800923D01*
X169998984Y-55779198D01*
X169998987Y-55779194D01*
X170004942Y-55774943D01*
X170010751Y-55770421D01*
X170010758Y-55770418D01*
X170044218Y-55734069D01*
X170046717Y-55731463D01*
X170327568Y-55450612D01*
X170382743Y-55424885D01*
X170441548Y-55440641D01*
X170476467Y-55490511D01*
X170479500Y-55513546D01*
X170479500Y-55709213D01*
X170479501Y-55709225D01*
X170489708Y-55779284D01*
X170489709Y-55779286D01*
X170542551Y-55887375D01*
X170623433Y-55968257D01*
X170649161Y-56023432D01*
X170649500Y-56031189D01*
X170649500Y-56341199D01*
X170628678Y-56398407D01*
X170599591Y-56421154D01*
X170578074Y-56431673D01*
X170578071Y-56431675D01*
X170578071Y-56431676D01*
X170495431Y-56514315D01*
X170440257Y-56540043D01*
X170381452Y-56524287D01*
X170369573Y-56514320D01*
X170286929Y-56431676D01*
X170180340Y-56379567D01*
X170180337Y-56379566D01*
X170180336Y-56379566D01*
X170180334Y-56379565D01*
X170111247Y-56369500D01*
X170111242Y-56369500D01*
X169618758Y-56369500D01*
X169618752Y-56369500D01*
X169549665Y-56379565D01*
X169549663Y-56379566D01*
X169549661Y-56379566D01*
X169549660Y-56379567D01*
X169514502Y-56396755D01*
X169443072Y-56431675D01*
X169443071Y-56431675D01*
X169443071Y-56431676D01*
X169371313Y-56503433D01*
X169316139Y-56529161D01*
X169308382Y-56529500D01*
X168793150Y-56529500D01*
X168735942Y-56508678D01*
X168709144Y-56469895D01*
X168704116Y-56455526D01*
X168704116Y-56455525D01*
X168625711Y-56349289D01*
X168519475Y-56270884D01*
X168519473Y-56270883D01*
X168394843Y-56227273D01*
X168365263Y-56224500D01*
X168365256Y-56224500D01*
X167759744Y-56224500D01*
X167759737Y-56224500D01*
X167730156Y-56227273D01*
X167605526Y-56270883D01*
X167499289Y-56349289D01*
X167420883Y-56455526D01*
X167377273Y-56580156D01*
X167374500Y-56609736D01*
X167374500Y-57190263D01*
X167377273Y-57219843D01*
X167420882Y-57344471D01*
X167420884Y-57344475D01*
X167499289Y-57450711D01*
X167605525Y-57529116D01*
X167730151Y-57572725D01*
X167730153Y-57572725D01*
X167730156Y-57572726D01*
X167759737Y-57575500D01*
X167759744Y-57575500D01*
X168365263Y-57575500D01*
X168394843Y-57572726D01*
X168394844Y-57572725D01*
X168394849Y-57572725D01*
X168519475Y-57529116D01*
X168625711Y-57450711D01*
X168704116Y-57344475D01*
X168712371Y-57320885D01*
X168723142Y-57290105D01*
X168761690Y-57242984D01*
X168807147Y-57230500D01*
X169308382Y-57230500D01*
X169365590Y-57251322D01*
X169371303Y-57256556D01*
X169443071Y-57328324D01*
X169549660Y-57380433D01*
X169549664Y-57380433D01*
X169549665Y-57380434D01*
X169596872Y-57387311D01*
X169618758Y-57390500D01*
X169618765Y-57390500D01*
X170111235Y-57390500D01*
X170111242Y-57390500D01*
X170158454Y-57383621D01*
X170180334Y-57380434D01*
X170180334Y-57380433D01*
X170180340Y-57380433D01*
X170286929Y-57328324D01*
X170369568Y-57245684D01*
X170424743Y-57219957D01*
X170483548Y-57235713D01*
X170495426Y-57245679D01*
X170578071Y-57328324D01*
X170578073Y-57328325D01*
X170578072Y-57328325D01*
X170599588Y-57338843D01*
X170641838Y-57382675D01*
X170649500Y-57418800D01*
X170649500Y-57861488D01*
X170628678Y-57918696D01*
X170623433Y-57924421D01*
X170622490Y-57925363D01*
X170622489Y-57925364D01*
X170564419Y-57983433D01*
X170509245Y-58009161D01*
X170501488Y-58009500D01*
X168015577Y-58009500D01*
X167997314Y-58007606D01*
X167993718Y-58006852D01*
X167984685Y-58004958D01*
X167984684Y-58004958D01*
X167953726Y-58008817D01*
X167942718Y-58009500D01*
X167940960Y-58009500D01*
X167933642Y-58010720D01*
X167921236Y-58012790D01*
X167917606Y-58013318D01*
X167868607Y-58019427D01*
X167861578Y-58021518D01*
X167854620Y-58023907D01*
X167829887Y-58037292D01*
X167811166Y-58047422D01*
X167807908Y-58049100D01*
X167763515Y-58070802D01*
X167757536Y-58075071D01*
X167751744Y-58079579D01*
X167718293Y-58115916D01*
X167715748Y-58118568D01*
X166930886Y-58903432D01*
X166875710Y-58929161D01*
X166867953Y-58929500D01*
X166455247Y-58929500D01*
X166396768Y-58941132D01*
X166330451Y-58985445D01*
X166330445Y-58985451D01*
X166286132Y-59051768D01*
X166274500Y-59110247D01*
X166274500Y-59549752D01*
X166286132Y-59608231D01*
X166329775Y-59673545D01*
X166330448Y-59674552D01*
X166330451Y-59674554D01*
X166396768Y-59718867D01*
X166453690Y-59730189D01*
X166455252Y-59730500D01*
X166455256Y-59730500D01*
X167544744Y-59730500D01*
X167544748Y-59730500D01*
X167603231Y-59718867D01*
X167669552Y-59674552D01*
X167713867Y-59608231D01*
X167725500Y-59549748D01*
X167725500Y-59137046D01*
X167746322Y-59079838D01*
X167751568Y-59074113D01*
X168089115Y-58736567D01*
X168144290Y-58710839D01*
X168152047Y-58710500D01*
X168411000Y-58710500D01*
X168468208Y-58731322D01*
X168498648Y-58784045D01*
X168500000Y-58799500D01*
X168500000Y-58847558D01*
X168479178Y-58904766D01*
X168428364Y-58934848D01*
X168396768Y-58941133D01*
X168330451Y-58985445D01*
X168330445Y-58985451D01*
X168286132Y-59051768D01*
X168274500Y-59110247D01*
X168274500Y-59549752D01*
X168286132Y-59608231D01*
X168329775Y-59673545D01*
X168330448Y-59674552D01*
X168330451Y-59674554D01*
X168396768Y-59718867D01*
X168410996Y-59721697D01*
X168428362Y-59725151D01*
X168480409Y-59756733D01*
X168493251Y-59793250D01*
X168500000Y-59799999D01*
X168500000Y-59800000D01*
X170500000Y-59800000D01*
X170511000Y-59800000D01*
X170568208Y-59820822D01*
X170598648Y-59873545D01*
X170600000Y-59889000D01*
X170600000Y-61300000D01*
X170600001Y-61300000D01*
X187610500Y-61300000D01*
X187667708Y-61320822D01*
X187698148Y-61373545D01*
X187699500Y-61389000D01*
X187699500Y-75561000D01*
X187678678Y-75618208D01*
X187625955Y-75648648D01*
X187610500Y-75650000D01*
X167708464Y-75650000D01*
X144158464Y-75650000D01*
X144158464Y-75650001D01*
X144158464Y-75811000D01*
X144137642Y-75868208D01*
X144084919Y-75898648D01*
X144069464Y-75900000D01*
X142409500Y-75900000D01*
X142352292Y-75879178D01*
X142321852Y-75826455D01*
X142320500Y-75811000D01*
X142320500Y-75459118D01*
X142341322Y-75401910D01*
X142346556Y-75396196D01*
X142408324Y-75334429D01*
X142460433Y-75227840D01*
X142470500Y-75158742D01*
X142470500Y-74781258D01*
X142460433Y-74712160D01*
X142408324Y-74605571D01*
X142346566Y-74543813D01*
X142320839Y-74488639D01*
X142320500Y-74480882D01*
X142320500Y-74239118D01*
X142341322Y-74181910D01*
X142346556Y-74176196D01*
X142408324Y-74114429D01*
X142460433Y-74007840D01*
X142462066Y-73996635D01*
X142470499Y-73938747D01*
X142470500Y-73938742D01*
X142470500Y-73561258D01*
X142464739Y-73521713D01*
X142460434Y-73492165D01*
X142460433Y-73492163D01*
X142460433Y-73492160D01*
X142408324Y-73385571D01*
X142324429Y-73301676D01*
X142250773Y-73265667D01*
X142209905Y-73224797D01*
X142191699Y-73187553D01*
X142187440Y-73181588D01*
X142182921Y-73175784D01*
X142182918Y-73175778D01*
X142146596Y-73142341D01*
X142143941Y-73139795D01*
X142036262Y-73032116D01*
X142010534Y-72976940D01*
X142026290Y-72918135D01*
X142054695Y-72892107D01*
X142087455Y-72873194D01*
X142112728Y-72843073D01*
X142117951Y-72837373D01*
X142628759Y-72326567D01*
X142683934Y-72300839D01*
X142691691Y-72300500D01*
X143414744Y-72300500D01*
X143414748Y-72300500D01*
X143473231Y-72288867D01*
X143539552Y-72244552D01*
X143583867Y-72178231D01*
X143595500Y-72119748D01*
X143595500Y-71080252D01*
X143583867Y-71021769D01*
X143583867Y-71021768D01*
X143539554Y-70955451D01*
X143539552Y-70955448D01*
X143539548Y-70955445D01*
X143473231Y-70911132D01*
X143414752Y-70899500D01*
X143414748Y-70899500D01*
X142375252Y-70899500D01*
X142375247Y-70899500D01*
X142316768Y-70911132D01*
X142250451Y-70955445D01*
X142250445Y-70955451D01*
X142206132Y-71021768D01*
X142194500Y-71080247D01*
X142194500Y-71803308D01*
X142173678Y-71860516D01*
X142168433Y-71866241D01*
X141852433Y-72182241D01*
X141797257Y-72207969D01*
X141738452Y-72192213D01*
X141703533Y-72142343D01*
X141700500Y-72119308D01*
X141700500Y-71088991D01*
X141699718Y-71071091D01*
X141698367Y-71055644D01*
X141698366Y-71055642D01*
X141698366Y-71055636D01*
X141671616Y-70970794D01*
X141671616Y-70970793D01*
X141641176Y-70918070D01*
X141610319Y-70877334D01*
X141610315Y-70877331D01*
X141533500Y-70827719D01*
X141533487Y-70827712D01*
X141476295Y-70806896D01*
X141476285Y-70806893D01*
X141406003Y-70794500D01*
X141406000Y-70794500D01*
X137384000Y-70794500D01*
X137383992Y-70794500D01*
X137366091Y-70795281D01*
X137350644Y-70796632D01*
X137350632Y-70796635D01*
X137265793Y-70823383D01*
X137213070Y-70853823D01*
X137172334Y-70884680D01*
X137172331Y-70884684D01*
X137122719Y-70961499D01*
X137122712Y-70961512D01*
X137101896Y-71018704D01*
X137101893Y-71018714D01*
X137089500Y-71088996D01*
X137089500Y-73211008D01*
X137090281Y-73228908D01*
X137091632Y-73244355D01*
X137091635Y-73244367D01*
X137118383Y-73329206D01*
X137148823Y-73381928D01*
X137178996Y-73421762D01*
X137196940Y-73479936D01*
X137173293Y-73536035D01*
X137119117Y-73563809D01*
X137108051Y-73564500D01*
X136775786Y-73564500D01*
X136775774Y-73564501D01*
X136705715Y-73574708D01*
X136597626Y-73627550D01*
X136512549Y-73712627D01*
X136459708Y-73820714D01*
X136459707Y-73820718D01*
X136449500Y-73890781D01*
X136449500Y-74354213D01*
X136449501Y-74354225D01*
X136459708Y-74424284D01*
X136459709Y-74424286D01*
X136512551Y-74532375D01*
X136597625Y-74617449D01*
X136597627Y-74617450D01*
X136597626Y-74617450D01*
X136607701Y-74622375D01*
X136643840Y-74640042D01*
X136686091Y-74683874D01*
X136690282Y-74744609D01*
X136654453Y-74793829D01*
X136643842Y-74799955D01*
X136597628Y-74822549D01*
X136597627Y-74822549D01*
X136512549Y-74907627D01*
X136459708Y-75015714D01*
X136459707Y-75015718D01*
X136449500Y-75085781D01*
X136449500Y-75549213D01*
X136449501Y-75549225D01*
X136459708Y-75619284D01*
X136459709Y-75619286D01*
X136512551Y-75727375D01*
X136593433Y-75808257D01*
X136619161Y-75863432D01*
X136619500Y-75871189D01*
X136619500Y-76554417D01*
X136617606Y-76572679D01*
X136614957Y-76585313D01*
X136614957Y-76585318D01*
X136618816Y-76616270D01*
X136619500Y-76627281D01*
X136619500Y-76894752D01*
X136631132Y-76953231D01*
X136675445Y-77019548D01*
X136675448Y-77019552D01*
X136675451Y-77019554D01*
X136741768Y-77063867D01*
X136798690Y-77075189D01*
X136800252Y-77075500D01*
X136971994Y-77075500D01*
X136997389Y-77079200D01*
X137076046Y-77102617D01*
X137192922Y-77097783D01*
X137234427Y-77081587D01*
X137266779Y-77075500D01*
X137439744Y-77075500D01*
X137439748Y-77075500D01*
X137498231Y-77063867D01*
X137564552Y-77019552D01*
X137608867Y-76953231D01*
X137620500Y-76894748D01*
X137620500Y-76605252D01*
X137608867Y-76546769D01*
X137608867Y-76546768D01*
X137564554Y-76480451D01*
X137564552Y-76480448D01*
X137564548Y-76480445D01*
X137498231Y-76436132D01*
X137439752Y-76424500D01*
X137439748Y-76424500D01*
X137409500Y-76424500D01*
X137352292Y-76403678D01*
X137321852Y-76350955D01*
X137320500Y-76335500D01*
X137320500Y-75871189D01*
X137341322Y-75813981D01*
X137346556Y-75808267D01*
X137427449Y-75727375D01*
X137480291Y-75619286D01*
X137490500Y-75549215D01*
X137490499Y-75085786D01*
X137490499Y-75085785D01*
X137490498Y-75085774D01*
X137480728Y-75018714D01*
X137480291Y-75015714D01*
X137427449Y-74907625D01*
X137342375Y-74822551D01*
X137296157Y-74799956D01*
X137253908Y-74756125D01*
X137249717Y-74695390D01*
X137285547Y-74646170D01*
X137296154Y-74640045D01*
X137342375Y-74617449D01*
X137427449Y-74532375D01*
X137432077Y-74522909D01*
X137475910Y-74480660D01*
X137512033Y-74473000D01*
X137748968Y-74473000D01*
X137806176Y-74493822D01*
X137828924Y-74522911D01*
X137877547Y-74622370D01*
X137877550Y-74622373D01*
X137877551Y-74622375D01*
X137962625Y-74707449D01*
X137962626Y-74707449D01*
X137962627Y-74707450D01*
X138070714Y-74760291D01*
X138070718Y-74760292D01*
X138087303Y-74762708D01*
X138140785Y-74770500D01*
X138604214Y-74770499D01*
X138604215Y-74770498D01*
X138604225Y-74770498D01*
X138651447Y-74763618D01*
X138674286Y-74760291D01*
X138782375Y-74707449D01*
X138867449Y-74622375D01*
X138890042Y-74576159D01*
X138933873Y-74533909D01*
X138994608Y-74529717D01*
X139043828Y-74565546D01*
X139049955Y-74576157D01*
X139072549Y-74622372D01*
X139072550Y-74622373D01*
X139072551Y-74622375D01*
X139157625Y-74707449D01*
X139157626Y-74707449D01*
X139157627Y-74707450D01*
X139265714Y-74760291D01*
X139265718Y-74760292D01*
X139282303Y-74762708D01*
X139335785Y-74770500D01*
X139799214Y-74770499D01*
X139799215Y-74770498D01*
X139799225Y-74770498D01*
X139846447Y-74763618D01*
X139869286Y-74760291D01*
X139977375Y-74707449D01*
X140062449Y-74622375D01*
X140115291Y-74514286D01*
X140125500Y-74444215D01*
X140125499Y-74055786D01*
X140125499Y-74055785D01*
X140125498Y-74055774D01*
X140115291Y-73985715D01*
X140105698Y-73966091D01*
X140062449Y-73877625D01*
X139977375Y-73792551D01*
X139977371Y-73792549D01*
X139967909Y-73787923D01*
X139925660Y-73744090D01*
X139918000Y-73707967D01*
X139918000Y-73704547D01*
X139938822Y-73647339D01*
X139944067Y-73641614D01*
X140539114Y-73046567D01*
X140594290Y-73020839D01*
X140602047Y-73020500D01*
X140739744Y-73020500D01*
X140739748Y-73020500D01*
X140798231Y-73008867D01*
X140820188Y-72994194D01*
X140833202Y-72985500D01*
X140882648Y-72970500D01*
X140946416Y-72970500D01*
X141003624Y-72991322D01*
X141009349Y-72996567D01*
X141352293Y-73339511D01*
X141378021Y-73394687D01*
X141369317Y-73441531D01*
X141344567Y-73492157D01*
X141344565Y-73492165D01*
X141334500Y-73561252D01*
X141334500Y-73938747D01*
X141344565Y-74007834D01*
X141344566Y-74007836D01*
X141344567Y-74007840D01*
X141396676Y-74114429D01*
X141480571Y-74198324D01*
X141569588Y-74241842D01*
X141611839Y-74285674D01*
X141619500Y-74321799D01*
X141619500Y-74398200D01*
X141598678Y-74455408D01*
X141569589Y-74478156D01*
X141480575Y-74521672D01*
X141396675Y-74605572D01*
X141388462Y-74622372D01*
X141346871Y-74707449D01*
X141344566Y-74712163D01*
X141344565Y-74712165D01*
X141334500Y-74781252D01*
X141334500Y-75158747D01*
X141344565Y-75227834D01*
X141344566Y-75227836D01*
X141344567Y-75227840D01*
X141396676Y-75334429D01*
X141480571Y-75418324D01*
X141569588Y-75461842D01*
X141611839Y-75505674D01*
X141619500Y-75541799D01*
X141619500Y-75811000D01*
X141598678Y-75868208D01*
X141545955Y-75898648D01*
X141530500Y-75900000D01*
X139658464Y-75900000D01*
X139658464Y-75900001D01*
X139658464Y-77361000D01*
X139637642Y-77418208D01*
X139584919Y-77448648D01*
X139569464Y-77450000D01*
X139245982Y-77450000D01*
X139206883Y-77438140D01*
X139206326Y-77439487D01*
X139198233Y-77436134D01*
X139198231Y-77436133D01*
X139198227Y-77436132D01*
X139139752Y-77424500D01*
X139139748Y-77424500D01*
X138500252Y-77424500D01*
X138500247Y-77424500D01*
X138441768Y-77436132D01*
X138375451Y-77480445D01*
X138375445Y-77480451D01*
X138331132Y-77546768D01*
X138319500Y-77605247D01*
X138319500Y-77894752D01*
X138331132Y-77953231D01*
X138370846Y-78012665D01*
X138375448Y-78019552D01*
X138375451Y-78019554D01*
X138441769Y-78063868D01*
X138449867Y-78067222D01*
X138448683Y-78070079D01*
X138488870Y-78094463D01*
X138508464Y-78150174D01*
X138508464Y-79850000D01*
X138508465Y-79850000D01*
X139958463Y-79850000D01*
X139958464Y-79850000D01*
X139958464Y-78639000D01*
X139979286Y-78581792D01*
X140032009Y-78551352D01*
X140047464Y-78550000D01*
X140869464Y-78550000D01*
X140926672Y-78570822D01*
X140957112Y-78623545D01*
X140958464Y-78639000D01*
X140958464Y-79850000D01*
X140958465Y-79850000D01*
X145658463Y-79850000D01*
X145658464Y-79850000D01*
X145658464Y-78539000D01*
X145679286Y-78481792D01*
X145732009Y-78451352D01*
X145747464Y-78450000D01*
X146669464Y-78450000D01*
X146726672Y-78470822D01*
X146757112Y-78523545D01*
X146758464Y-78539000D01*
X146758464Y-79850000D01*
X187610500Y-79850000D01*
X187667708Y-79870822D01*
X187698148Y-79923545D01*
X187699500Y-79939000D01*
X187699500Y-88910500D01*
X187678678Y-88967708D01*
X187625955Y-88998148D01*
X187610500Y-88999500D01*
X98089500Y-88999500D01*
X98032292Y-88978678D01*
X98001852Y-88925955D01*
X98000500Y-88910500D01*
X98000500Y-83300003D01*
X156767881Y-83300003D01*
X156788162Y-83505926D01*
X156788164Y-83505934D01*
X156848230Y-83703950D01*
X156848231Y-83703953D01*
X156848232Y-83703954D01*
X156945779Y-83886450D01*
X157077054Y-84046410D01*
X157077058Y-84046413D01*
X157240394Y-84180459D01*
X157239119Y-84182012D01*
X157270933Y-84225359D01*
X157274500Y-84250303D01*
X157274500Y-85710500D01*
X157253678Y-85767708D01*
X157200955Y-85798148D01*
X157185500Y-85799500D01*
X157080247Y-85799500D01*
X157021768Y-85811132D01*
X156955451Y-85855445D01*
X156955445Y-85855451D01*
X156911132Y-85921768D01*
X156899500Y-85980247D01*
X156899500Y-87019752D01*
X156911132Y-87078231D01*
X156955445Y-87144548D01*
X156955448Y-87144552D01*
X156955451Y-87144554D01*
X157021768Y-87188867D01*
X157078690Y-87200189D01*
X157080252Y-87200500D01*
X157080256Y-87200500D01*
X158119744Y-87200500D01*
X158119748Y-87200500D01*
X158178231Y-87188867D01*
X158244552Y-87144552D01*
X158288867Y-87078231D01*
X158300500Y-87019748D01*
X158300500Y-85980252D01*
X158288867Y-85921769D01*
X158288867Y-85921768D01*
X158244554Y-85855451D01*
X158244552Y-85855448D01*
X158244548Y-85855445D01*
X158178231Y-85811132D01*
X158119752Y-85799500D01*
X158119748Y-85799500D01*
X158014500Y-85799500D01*
X157957292Y-85778678D01*
X157926852Y-85725955D01*
X157925500Y-85710500D01*
X157925500Y-84426197D01*
X157946322Y-84368989D01*
X157999045Y-84338549D01*
X158005750Y-84337629D01*
X158029398Y-84335300D01*
X158227418Y-84275232D01*
X158409914Y-84177685D01*
X158569874Y-84046410D01*
X158701149Y-83886450D01*
X158798696Y-83703954D01*
X158858764Y-83505934D01*
X158879047Y-83300003D01*
X159307881Y-83300003D01*
X159328162Y-83505926D01*
X159328164Y-83505934D01*
X159388230Y-83703950D01*
X159388231Y-83703953D01*
X159388232Y-83703954D01*
X159485779Y-83886450D01*
X159617054Y-84046410D01*
X159777014Y-84177685D01*
X159959510Y-84275232D01*
X159974796Y-84279868D01*
X160023497Y-84316398D01*
X160037964Y-84365037D01*
X160037964Y-85710500D01*
X160017142Y-85767708D01*
X159964419Y-85798148D01*
X159948964Y-85799500D01*
X159780247Y-85799500D01*
X159721768Y-85811132D01*
X159655451Y-85855445D01*
X159655445Y-85855451D01*
X159611132Y-85921768D01*
X159599500Y-85980247D01*
X159599500Y-87019752D01*
X159611132Y-87078231D01*
X159655445Y-87144548D01*
X159655448Y-87144552D01*
X159655451Y-87144554D01*
X159721768Y-87188867D01*
X159778690Y-87200189D01*
X159780252Y-87200500D01*
X159780256Y-87200500D01*
X160819744Y-87200500D01*
X160819748Y-87200500D01*
X160878231Y-87188867D01*
X160944552Y-87144552D01*
X160988867Y-87078231D01*
X161000500Y-87019748D01*
X161000500Y-85980252D01*
X160988867Y-85921769D01*
X160988867Y-85921768D01*
X160944554Y-85855451D01*
X160944552Y-85855448D01*
X160944548Y-85855445D01*
X160878231Y-85811132D01*
X160819752Y-85799500D01*
X160819748Y-85799500D01*
X160777964Y-85799500D01*
X160720756Y-85778678D01*
X160690316Y-85725955D01*
X160688964Y-85710500D01*
X160688964Y-84365037D01*
X160709786Y-84307829D01*
X160752131Y-84279868D01*
X160767418Y-84275232D01*
X160949914Y-84177685D01*
X160959580Y-84169752D01*
X164392964Y-84169752D01*
X164404596Y-84228231D01*
X164436003Y-84275233D01*
X164448912Y-84294552D01*
X164448915Y-84294554D01*
X164515232Y-84338867D01*
X164548745Y-84345533D01*
X164573716Y-84350500D01*
X164573720Y-84350500D01*
X166313208Y-84350500D01*
X166313212Y-84350500D01*
X166371695Y-84338867D01*
X166438016Y-84294552D01*
X166482331Y-84228231D01*
X166493964Y-84169748D01*
X166493964Y-82430252D01*
X166482331Y-82371769D01*
X166482331Y-82371768D01*
X166438018Y-82305451D01*
X166438016Y-82305448D01*
X166438012Y-82305445D01*
X166371695Y-82261132D01*
X166313216Y-82249500D01*
X166313212Y-82249500D01*
X164573716Y-82249500D01*
X164573711Y-82249500D01*
X164515232Y-82261132D01*
X164448915Y-82305445D01*
X164448909Y-82305451D01*
X164404596Y-82371768D01*
X164392964Y-82430247D01*
X164392964Y-84169752D01*
X160959580Y-84169752D01*
X161109874Y-84046410D01*
X161241149Y-83886450D01*
X161338696Y-83703954D01*
X161398764Y-83505934D01*
X161419047Y-83300000D01*
X161398764Y-83094066D01*
X161338696Y-82896046D01*
X161241149Y-82713550D01*
X161109874Y-82553590D01*
X160949914Y-82422315D01*
X160767418Y-82324768D01*
X160767417Y-82324767D01*
X160767414Y-82324766D01*
X160569398Y-82264700D01*
X160569390Y-82264698D01*
X160363468Y-82244417D01*
X160363460Y-82244417D01*
X160157537Y-82264698D01*
X160157529Y-82264700D01*
X159959513Y-82324766D01*
X159777012Y-82422316D01*
X159617058Y-82553586D01*
X159617050Y-82553594D01*
X159485780Y-82713548D01*
X159388230Y-82896049D01*
X159328164Y-83094065D01*
X159328162Y-83094073D01*
X159307881Y-83299996D01*
X159307881Y-83300003D01*
X158879047Y-83300003D01*
X158879047Y-83300000D01*
X158858764Y-83094066D01*
X158798696Y-82896046D01*
X158701149Y-82713550D01*
X158569874Y-82553590D01*
X158409914Y-82422315D01*
X158227418Y-82324768D01*
X158227417Y-82324767D01*
X158227414Y-82324766D01*
X158029398Y-82264700D01*
X158029390Y-82264698D01*
X157823468Y-82244417D01*
X157823460Y-82244417D01*
X157617537Y-82264698D01*
X157617529Y-82264700D01*
X157419513Y-82324766D01*
X157237012Y-82422316D01*
X157077058Y-82553586D01*
X157077050Y-82553594D01*
X156945780Y-82713548D01*
X156848230Y-82896049D01*
X156788164Y-83094065D01*
X156788162Y-83094073D01*
X156767881Y-83299996D01*
X156767881Y-83300003D01*
X98000500Y-83300003D01*
X98000500Y-77111008D01*
X101394500Y-77111008D01*
X101395281Y-77128908D01*
X101396632Y-77144355D01*
X101396635Y-77144367D01*
X101423383Y-77229206D01*
X101453823Y-77281929D01*
X101484680Y-77322665D01*
X101484684Y-77322668D01*
X101545582Y-77362000D01*
X101561507Y-77372285D01*
X101561510Y-77372286D01*
X101561512Y-77372287D01*
X101618704Y-77393103D01*
X101618715Y-77393107D01*
X101689000Y-77405500D01*
X109105499Y-77405500D01*
X109162707Y-77426322D01*
X109193147Y-77479045D01*
X109194499Y-77494499D01*
X109194499Y-77664270D01*
X109194505Y-77665700D01*
X109194516Y-77667150D01*
X109194517Y-77667162D01*
X109208044Y-77738900D01*
X109229767Y-77795762D01*
X109232565Y-77800435D01*
X109237160Y-77809176D01*
X109238447Y-77811994D01*
X109238447Y-77811995D01*
X109280646Y-77904397D01*
X109287782Y-77928700D01*
X109296212Y-77987333D01*
X109296212Y-78012665D01*
X109287782Y-78071297D01*
X109280646Y-78095602D01*
X109236191Y-78192948D01*
X109232126Y-78200792D01*
X109227721Y-78208349D01*
X109227712Y-78208368D01*
X109206896Y-78265559D01*
X109206893Y-78265569D01*
X109194500Y-78335851D01*
X109194500Y-78611008D01*
X109195281Y-78628908D01*
X109196632Y-78644355D01*
X109196635Y-78644367D01*
X109223383Y-78729206D01*
X109253823Y-78781929D01*
X109284680Y-78822665D01*
X109284681Y-78822666D01*
X109361507Y-78872285D01*
X109418715Y-78893107D01*
X109489000Y-78905500D01*
X109489002Y-78905500D01*
X113711008Y-78905500D01*
X113726919Y-78904804D01*
X113728909Y-78904718D01*
X113733409Y-78904324D01*
X113744355Y-78903367D01*
X113744356Y-78903366D01*
X113744364Y-78903366D01*
X113829206Y-78876616D01*
X113881929Y-78846176D01*
X113922666Y-78815319D01*
X113972285Y-78738493D01*
X113993107Y-78681285D01*
X114005500Y-78611000D01*
X114005500Y-77179752D01*
X114706500Y-77179752D01*
X114718132Y-77238231D01*
X114757252Y-77296776D01*
X114762448Y-77304552D01*
X114762451Y-77304554D01*
X114828768Y-77348867D01*
X114885690Y-77360189D01*
X114887252Y-77360500D01*
X117305500Y-77360500D01*
X117362708Y-77381322D01*
X117393148Y-77434045D01*
X117394500Y-77449500D01*
X117394500Y-80311008D01*
X117395281Y-80328908D01*
X117396632Y-80344355D01*
X117396635Y-80344367D01*
X117423383Y-80429206D01*
X117453823Y-80481929D01*
X117484680Y-80522665D01*
X117484681Y-80522666D01*
X117561507Y-80572285D01*
X117561510Y-80572286D01*
X117561512Y-80572287D01*
X117618704Y-80593103D01*
X117618715Y-80593107D01*
X117689000Y-80605500D01*
X117689002Y-80605500D01*
X123493962Y-80605500D01*
X123493965Y-80605500D01*
X123554983Y-80596232D01*
X123605451Y-80580539D01*
X123643530Y-80564335D01*
X123690316Y-80522668D01*
X123711827Y-80503511D01*
X123711830Y-80503507D01*
X123747138Y-80453924D01*
X123747141Y-80453920D01*
X123760455Y-80429206D01*
X123771380Y-80408925D01*
X123780814Y-80344355D01*
X123784601Y-80318431D01*
X123779776Y-80257746D01*
X123779776Y-80257741D01*
X123761851Y-80188659D01*
X123719354Y-80095605D01*
X123712217Y-80071300D01*
X123703786Y-80012657D01*
X123703786Y-79987339D01*
X123712218Y-79928690D01*
X123719349Y-79904399D01*
X123743961Y-79850508D01*
X123757654Y-79829202D01*
X123796452Y-79784427D01*
X123815593Y-79767842D01*
X123865431Y-79735813D01*
X123888473Y-79725291D01*
X123992030Y-79694886D01*
X123992030Y-79694885D01*
X123992040Y-79694883D01*
X124034446Y-79677067D01*
X124034965Y-79676598D01*
X124050104Y-79665581D01*
X124081926Y-79647211D01*
X124122666Y-79616353D01*
X124172285Y-79539527D01*
X124193107Y-79482319D01*
X124205500Y-79412034D01*
X124205500Y-70289000D01*
X124204718Y-70271091D01*
X124203366Y-70255636D01*
X124176616Y-70170794D01*
X124176616Y-70170793D01*
X124146176Y-70118070D01*
X124115319Y-70077334D01*
X124115315Y-70077331D01*
X124038500Y-70027719D01*
X124038487Y-70027712D01*
X123981295Y-70006896D01*
X123981285Y-70006893D01*
X123911003Y-69994500D01*
X123911000Y-69994500D01*
X122047200Y-69994500D01*
X121997754Y-69979501D01*
X121985231Y-69971133D01*
X121985230Y-69971132D01*
X121926752Y-69959500D01*
X121926748Y-69959500D01*
X114887252Y-69959500D01*
X114887247Y-69959500D01*
X114828768Y-69971132D01*
X114762451Y-70015445D01*
X114762445Y-70015451D01*
X114718132Y-70081768D01*
X114706500Y-70140247D01*
X114706500Y-77179752D01*
X114005500Y-77179752D01*
X114005500Y-74289000D01*
X114004718Y-74271091D01*
X114003366Y-74255636D01*
X113976616Y-74170794D01*
X113976616Y-74170793D01*
X113946176Y-74118070D01*
X113915319Y-74077334D01*
X113915315Y-74077331D01*
X113838500Y-74027719D01*
X113838487Y-74027712D01*
X113781295Y-74006896D01*
X113781285Y-74006893D01*
X113711003Y-73994500D01*
X113711000Y-73994500D01*
X109489000Y-73994500D01*
X109488992Y-73994500D01*
X109471091Y-73995281D01*
X109455644Y-73996632D01*
X109455632Y-73996635D01*
X109370793Y-74023383D01*
X109318070Y-74053823D01*
X109277334Y-74084680D01*
X109277331Y-74084684D01*
X109227719Y-74161499D01*
X109227712Y-74161512D01*
X109206896Y-74218704D01*
X109206893Y-74218714D01*
X109194500Y-74288996D01*
X109194500Y-74705500D01*
X109173678Y-74762708D01*
X109120955Y-74793148D01*
X109105500Y-74794500D01*
X101688992Y-74794500D01*
X101671091Y-74795281D01*
X101655644Y-74796632D01*
X101655632Y-74796635D01*
X101570793Y-74823383D01*
X101518070Y-74853823D01*
X101477334Y-74884680D01*
X101477331Y-74884684D01*
X101427719Y-74961499D01*
X101427712Y-74961512D01*
X101406896Y-75018704D01*
X101406893Y-75018714D01*
X101394501Y-75088991D01*
X101394500Y-75089001D01*
X101394500Y-77111008D01*
X98000500Y-77111008D01*
X98000500Y-73420003D01*
X101514417Y-73420003D01*
X101534698Y-73625926D01*
X101534700Y-73625934D01*
X101594766Y-73823950D01*
X101594767Y-73823953D01*
X101594768Y-73823954D01*
X101692315Y-74006450D01*
X101823590Y-74166410D01*
X101983550Y-74297685D01*
X102166046Y-74395232D01*
X102364066Y-74455300D01*
X102364070Y-74455300D01*
X102364073Y-74455301D01*
X102569996Y-74475583D01*
X102570000Y-74475583D01*
X102570004Y-74475583D01*
X102775926Y-74455301D01*
X102775927Y-74455300D01*
X102775934Y-74455300D01*
X102973954Y-74395232D01*
X103156450Y-74297685D01*
X103316410Y-74166410D01*
X103447685Y-74006450D01*
X103545232Y-73823954D01*
X103605300Y-73625934D01*
X103609918Y-73579045D01*
X103625583Y-73420003D01*
X103625583Y-73419996D01*
X103605301Y-73214073D01*
X103605300Y-73214070D01*
X103605300Y-73214066D01*
X103545232Y-73016046D01*
X103447685Y-72833550D01*
X103316410Y-72673590D01*
X103156450Y-72542315D01*
X102973954Y-72444768D01*
X102973953Y-72444767D01*
X102973950Y-72444766D01*
X102775934Y-72384700D01*
X102775926Y-72384698D01*
X102570004Y-72364417D01*
X102569996Y-72364417D01*
X102364073Y-72384698D01*
X102364065Y-72384700D01*
X102166049Y-72444766D01*
X101983548Y-72542316D01*
X101823594Y-72673586D01*
X101823586Y-72673594D01*
X101692316Y-72833548D01*
X101594766Y-73016049D01*
X101534700Y-73214065D01*
X101534698Y-73214073D01*
X101514417Y-73419996D01*
X101514417Y-73420003D01*
X98000500Y-73420003D01*
X98000500Y-70880003D01*
X101514417Y-70880003D01*
X101534698Y-71085926D01*
X101534700Y-71085934D01*
X101594766Y-71283950D01*
X101594767Y-71283953D01*
X101594768Y-71283954D01*
X101692315Y-71466450D01*
X101823590Y-71626410D01*
X101983550Y-71757685D01*
X102166046Y-71855232D01*
X102364066Y-71915300D01*
X102364070Y-71915300D01*
X102364073Y-71915301D01*
X102569996Y-71935583D01*
X102570000Y-71935583D01*
X102570004Y-71935583D01*
X102775926Y-71915301D01*
X102775927Y-71915300D01*
X102775934Y-71915300D01*
X102973954Y-71855232D01*
X103156450Y-71757685D01*
X103316410Y-71626410D01*
X103447685Y-71466450D01*
X103499372Y-71369752D01*
X105799500Y-71369752D01*
X105811132Y-71428231D01*
X105836671Y-71466451D01*
X105855448Y-71494552D01*
X105855451Y-71494554D01*
X105921768Y-71538867D01*
X105978690Y-71550189D01*
X105980252Y-71550500D01*
X105980256Y-71550500D01*
X107019744Y-71550500D01*
X107019748Y-71550500D01*
X107078231Y-71538867D01*
X107144552Y-71494552D01*
X107188867Y-71428231D01*
X107200500Y-71369748D01*
X107200500Y-70330252D01*
X107193199Y-70293548D01*
X107188867Y-70271768D01*
X107144554Y-70205451D01*
X107144552Y-70205448D01*
X107144548Y-70205445D01*
X107078231Y-70161132D01*
X107019752Y-70149500D01*
X107019748Y-70149500D01*
X105980252Y-70149500D01*
X105980247Y-70149500D01*
X105921768Y-70161132D01*
X105855451Y-70205445D01*
X105855445Y-70205451D01*
X105811132Y-70271768D01*
X105799500Y-70330247D01*
X105799500Y-71369752D01*
X103499372Y-71369752D01*
X103545232Y-71283954D01*
X103605300Y-71085934D01*
X103605301Y-71085926D01*
X103625583Y-70880003D01*
X103625583Y-70879996D01*
X103605301Y-70674073D01*
X103605300Y-70674070D01*
X103605300Y-70674066D01*
X103545232Y-70476046D01*
X103447685Y-70293550D01*
X103316410Y-70133590D01*
X103156450Y-70002315D01*
X102973954Y-69904768D01*
X102973953Y-69904767D01*
X102973950Y-69904766D01*
X102775934Y-69844700D01*
X102775926Y-69844698D01*
X102570004Y-69824417D01*
X102569996Y-69824417D01*
X102364073Y-69844698D01*
X102364065Y-69844700D01*
X102166049Y-69904766D01*
X101983548Y-70002316D01*
X101823594Y-70133586D01*
X101823586Y-70133594D01*
X101692316Y-70293548D01*
X101594766Y-70476049D01*
X101534700Y-70674065D01*
X101534698Y-70674073D01*
X101514417Y-70879996D01*
X101514417Y-70880003D01*
X98000500Y-70880003D01*
X98000500Y-69209752D01*
X101519500Y-69209752D01*
X101531132Y-69268231D01*
X101575445Y-69334548D01*
X101575448Y-69334552D01*
X101575451Y-69334554D01*
X101641768Y-69378867D01*
X101698690Y-69390189D01*
X101700252Y-69390500D01*
X101700256Y-69390500D01*
X103439744Y-69390500D01*
X103439748Y-69390500D01*
X103498231Y-69378867D01*
X103564552Y-69334552D01*
X103608867Y-69268231D01*
X103620500Y-69209748D01*
X103620500Y-67470252D01*
X103608867Y-67411769D01*
X103608867Y-67411768D01*
X103564554Y-67345451D01*
X103564552Y-67345448D01*
X103564548Y-67345445D01*
X103498231Y-67301132D01*
X103439752Y-67289500D01*
X103439748Y-67289500D01*
X101700252Y-67289500D01*
X101700247Y-67289500D01*
X101641768Y-67301132D01*
X101575451Y-67345445D01*
X101575445Y-67345451D01*
X101531132Y-67411768D01*
X101519500Y-67470247D01*
X101519500Y-69209752D01*
X98000500Y-69209752D01*
X98000500Y-62299752D01*
X101849500Y-62299752D01*
X101861132Y-62358231D01*
X101905445Y-62424548D01*
X101905448Y-62424552D01*
X101905451Y-62424554D01*
X101971768Y-62468867D01*
X102028690Y-62480189D01*
X102030252Y-62480500D01*
X102030256Y-62480500D01*
X102760500Y-62480500D01*
X102817708Y-62501322D01*
X102848148Y-62554045D01*
X102849500Y-62569500D01*
X102849500Y-63299752D01*
X102861132Y-63358231D01*
X102905438Y-63424537D01*
X102905448Y-63424552D01*
X102905451Y-63424554D01*
X102971768Y-63468867D01*
X103028690Y-63480189D01*
X103030252Y-63480500D01*
X103030256Y-63480500D01*
X103369744Y-63480500D01*
X103369748Y-63480500D01*
X103428231Y-63468867D01*
X103428232Y-63468865D01*
X103432636Y-63467990D01*
X103467364Y-63467990D01*
X103471767Y-63468865D01*
X103471769Y-63468867D01*
X103530252Y-63480500D01*
X103530256Y-63480500D01*
X103869744Y-63480500D01*
X103869748Y-63480500D01*
X103928231Y-63468867D01*
X103928232Y-63468865D01*
X103932636Y-63467990D01*
X103967364Y-63467990D01*
X103971767Y-63468865D01*
X103971769Y-63468867D01*
X104030252Y-63480500D01*
X104030256Y-63480500D01*
X104369744Y-63480500D01*
X104369748Y-63480500D01*
X104428231Y-63468867D01*
X104428232Y-63468865D01*
X104432636Y-63467990D01*
X104467364Y-63467990D01*
X104471767Y-63468865D01*
X104471769Y-63468867D01*
X104530252Y-63480500D01*
X104530256Y-63480500D01*
X104869744Y-63480500D01*
X104869748Y-63480500D01*
X104928231Y-63468867D01*
X104928232Y-63468865D01*
X104932636Y-63467990D01*
X104967364Y-63467990D01*
X104971767Y-63468865D01*
X104971769Y-63468867D01*
X105030252Y-63480500D01*
X105030256Y-63480500D01*
X105369744Y-63480500D01*
X105369748Y-63480500D01*
X105428231Y-63468867D01*
X105428232Y-63468865D01*
X105432636Y-63467990D01*
X105467364Y-63467990D01*
X105471767Y-63468865D01*
X105471769Y-63468867D01*
X105530252Y-63480500D01*
X105530256Y-63480500D01*
X105869744Y-63480500D01*
X105869748Y-63480500D01*
X105928231Y-63468867D01*
X105994552Y-63424552D01*
X106038867Y-63358231D01*
X106050500Y-63299748D01*
X106050500Y-63243604D01*
X124657573Y-63243604D01*
X124677252Y-63374164D01*
X124677253Y-63374166D01*
X124722436Y-63467990D01*
X124734540Y-63493125D01*
X124753504Y-63516012D01*
X125163988Y-63926496D01*
X125186875Y-63945460D01*
X125305835Y-64002747D01*
X125436396Y-64022427D01*
X125547735Y-64005644D01*
X125607407Y-64017707D01*
X125645365Y-64065304D01*
X125650000Y-64093650D01*
X125650000Y-76650000D01*
X127760000Y-78450000D01*
X127760013Y-78450010D01*
X127760014Y-78450011D01*
X129544999Y-79850000D01*
X129545000Y-79850000D01*
X131039999Y-79850000D01*
X131040000Y-79850000D01*
X131040000Y-78589000D01*
X131060822Y-78531792D01*
X131113545Y-78501352D01*
X131129000Y-78500000D01*
X132181000Y-78500000D01*
X132238208Y-78520822D01*
X132268648Y-78573545D01*
X132270000Y-78589000D01*
X132270000Y-79850000D01*
X132270001Y-79850000D01*
X135008463Y-79850000D01*
X135008464Y-79850000D01*
X135008464Y-78639000D01*
X135029286Y-78581792D01*
X135082009Y-78551352D01*
X135097464Y-78550000D01*
X135919464Y-78550000D01*
X135976672Y-78570822D01*
X136007112Y-78623545D01*
X136008464Y-78639000D01*
X136008464Y-79850000D01*
X136008465Y-79850000D01*
X137458463Y-79850000D01*
X137458464Y-79850000D01*
X137458464Y-78138010D01*
X137479286Y-78080802D01*
X137498018Y-78064010D01*
X137564546Y-78019556D01*
X137564545Y-78019556D01*
X137564552Y-78019552D01*
X137608867Y-77953231D01*
X137620500Y-77894748D01*
X137620500Y-77605252D01*
X137608867Y-77546769D01*
X137608867Y-77546768D01*
X137564554Y-77480451D01*
X137564552Y-77480448D01*
X137564548Y-77480445D01*
X137498231Y-77436132D01*
X137439752Y-77424500D01*
X137439748Y-77424500D01*
X136800252Y-77424500D01*
X136800247Y-77424500D01*
X136741767Y-77436133D01*
X136733671Y-77439487D01*
X136733314Y-77438625D01*
X136692521Y-77451000D01*
X136247464Y-77451000D01*
X136190256Y-77430178D01*
X136159816Y-77377455D01*
X136158464Y-77362000D01*
X136158464Y-76350001D01*
X136158464Y-76350000D01*
X136158463Y-76350000D01*
X133617464Y-76350000D01*
X133560256Y-76329178D01*
X133529816Y-76276455D01*
X133528464Y-76261000D01*
X133528464Y-75950001D01*
X133528464Y-75950000D01*
X133528463Y-75950000D01*
X129959000Y-75950000D01*
X129901792Y-75929178D01*
X129871352Y-75876455D01*
X129870000Y-75861000D01*
X129870000Y-62670000D01*
X129672769Y-62569500D01*
X128300000Y-61870000D01*
X128299999Y-61870000D01*
X128299995Y-61869998D01*
X128298716Y-61869691D01*
X128296455Y-61868194D01*
X128290614Y-61865218D01*
X128290953Y-61864552D01*
X128247952Y-61836085D01*
X128230500Y-61783152D01*
X128230500Y-61505255D01*
X128230499Y-61505247D01*
X128218867Y-61446768D01*
X128174554Y-61380451D01*
X128174552Y-61380448D01*
X128173882Y-61380000D01*
X128108231Y-61336132D01*
X128049752Y-61324500D01*
X128049748Y-61324500D01*
X127450252Y-61324500D01*
X127450247Y-61324500D01*
X127391767Y-61336133D01*
X127389057Y-61337256D01*
X127385298Y-61337420D01*
X127383172Y-61337843D01*
X127383106Y-61337515D01*
X127328236Y-61339910D01*
X127320943Y-61337256D01*
X127318232Y-61336133D01*
X127259752Y-61324500D01*
X127259748Y-61324500D01*
X127120109Y-61324500D01*
X127096478Y-61320052D01*
X127096389Y-61320477D01*
X127089172Y-61318963D01*
X127089171Y-61318963D01*
X126974685Y-61294958D01*
X126974683Y-61294958D01*
X126974679Y-61294957D01*
X126858608Y-61309426D01*
X126858607Y-61309426D01*
X126849852Y-61313706D01*
X126846271Y-61315457D01*
X126807184Y-61324500D01*
X126660247Y-61324500D01*
X126601768Y-61336132D01*
X126535451Y-61380445D01*
X126535445Y-61380451D01*
X126491132Y-61446768D01*
X126479500Y-61505247D01*
X126479500Y-61597952D01*
X126458678Y-61655160D01*
X126453432Y-61660885D01*
X125670626Y-62443690D01*
X125615451Y-62469418D01*
X125591368Y-62466859D01*
X125591230Y-62467777D01*
X125454074Y-62447103D01*
X125323515Y-62466782D01*
X125204555Y-62524068D01*
X125181666Y-62543033D01*
X124753503Y-62971196D01*
X124734538Y-62994085D01*
X124677252Y-63113045D01*
X124657573Y-63243604D01*
X106050500Y-63243604D01*
X106050500Y-62569500D01*
X106071322Y-62512292D01*
X106124045Y-62481852D01*
X106139500Y-62480500D01*
X106869744Y-62480500D01*
X106869748Y-62480500D01*
X106928231Y-62468867D01*
X106994552Y-62424552D01*
X107038867Y-62358231D01*
X107050500Y-62299748D01*
X107050500Y-62139000D01*
X107071322Y-62081792D01*
X107124045Y-62051352D01*
X107139500Y-62050000D01*
X110099999Y-62050000D01*
X110100000Y-62050000D01*
X110100000Y-61650000D01*
X110100000Y-59600000D01*
X110100000Y-59200000D01*
X108350000Y-59200000D01*
X106850000Y-59200000D01*
X106844563Y-59205437D01*
X106829178Y-59247708D01*
X106776455Y-59278148D01*
X106761000Y-59279500D01*
X106139500Y-59279500D01*
X106082292Y-59258678D01*
X106051852Y-59205955D01*
X106050500Y-59190500D01*
X106050500Y-58460255D01*
X106050499Y-58460247D01*
X106038867Y-58401768D01*
X105994554Y-58335451D01*
X105994552Y-58335448D01*
X105994548Y-58335445D01*
X105928231Y-58291132D01*
X105869752Y-58279500D01*
X105869748Y-58279500D01*
X105694500Y-58279500D01*
X105637292Y-58258678D01*
X105606852Y-58205955D01*
X105605500Y-58190500D01*
X105605500Y-58094500D01*
X105626322Y-58037292D01*
X105679045Y-58006852D01*
X105694500Y-58005500D01*
X106061008Y-58005500D01*
X106076919Y-58004804D01*
X106078909Y-58004718D01*
X106083409Y-58004324D01*
X106094355Y-58003367D01*
X106094356Y-58003366D01*
X106094364Y-58003366D01*
X106179206Y-57976616D01*
X106231929Y-57946176D01*
X106272666Y-57915319D01*
X106322285Y-57838493D01*
X106343107Y-57781285D01*
X106355500Y-57711000D01*
X106355500Y-57550000D01*
X109794353Y-57550000D01*
X109814834Y-57692456D01*
X109874621Y-57823371D01*
X109874623Y-57823374D01*
X109954294Y-57915319D01*
X109968872Y-57932143D01*
X110089947Y-58009953D01*
X110228039Y-58050500D01*
X110228042Y-58050500D01*
X110371958Y-58050500D01*
X110371961Y-58050500D01*
X110510053Y-58009953D01*
X110631128Y-57932143D01*
X110725377Y-57823373D01*
X110785165Y-57692457D01*
X110805647Y-57550000D01*
X110801845Y-57523562D01*
X110814312Y-57463975D01*
X110827002Y-57447967D01*
X110992141Y-57282828D01*
X111047316Y-57257101D01*
X111106121Y-57272857D01*
X111117999Y-57282823D01*
X111177625Y-57342449D01*
X111177626Y-57342449D01*
X111177627Y-57342450D01*
X111285714Y-57395291D01*
X111285718Y-57395292D01*
X111304422Y-57398016D01*
X111355785Y-57405500D01*
X111744214Y-57405499D01*
X111744215Y-57405498D01*
X111744225Y-57405498D01*
X111791447Y-57398618D01*
X111814286Y-57395291D01*
X111922375Y-57342449D01*
X112007449Y-57257375D01*
X112060291Y-57149286D01*
X112070500Y-57079215D01*
X112070499Y-56615786D01*
X112070498Y-56615774D01*
X112060291Y-56545715D01*
X112057519Y-56540043D01*
X112007449Y-56437625D01*
X111922375Y-56352551D01*
X111876157Y-56329956D01*
X111833908Y-56286125D01*
X111829717Y-56225390D01*
X111865547Y-56176170D01*
X111876154Y-56170045D01*
X111922375Y-56147449D01*
X112007449Y-56062375D01*
X112060291Y-55954286D01*
X112070500Y-55884215D01*
X112070499Y-55629189D01*
X112091321Y-55571982D01*
X112096554Y-55566270D01*
X112261259Y-55401567D01*
X112316435Y-55375839D01*
X112324191Y-55375500D01*
X112504823Y-55375500D01*
X112562031Y-55396322D01*
X112580470Y-55421471D01*
X112581262Y-55420942D01*
X112627748Y-55490511D01*
X112630448Y-55494552D01*
X112630451Y-55494554D01*
X112696768Y-55538867D01*
X112743428Y-55548148D01*
X112755252Y-55550500D01*
X112755256Y-55550500D01*
X113944744Y-55550500D01*
X113944748Y-55550500D01*
X114003231Y-55538867D01*
X114069552Y-55494552D01*
X114113867Y-55428231D01*
X114125500Y-55369748D01*
X114125500Y-54730252D01*
X114121225Y-54708759D01*
X114113867Y-54671768D01*
X114069554Y-54605451D01*
X114069552Y-54605448D01*
X114069548Y-54605445D01*
X114003231Y-54561132D01*
X113944752Y-54549500D01*
X113944748Y-54549500D01*
X112755252Y-54549500D01*
X112755247Y-54549500D01*
X112696768Y-54561132D01*
X112630451Y-54605445D01*
X112630445Y-54605451D01*
X112581262Y-54679058D01*
X112579451Y-54677848D01*
X112545922Y-54714442D01*
X112504823Y-54724500D01*
X112170597Y-54724500D01*
X112162841Y-54724161D01*
X112155120Y-54723485D01*
X112139802Y-54722145D01*
X112084628Y-54696415D01*
X112058900Y-54641238D01*
X112059492Y-54620655D01*
X112060500Y-54613742D01*
X112060500Y-54121258D01*
X112050941Y-54055644D01*
X112050434Y-54052165D01*
X112050433Y-54052163D01*
X112050433Y-54052160D01*
X111998324Y-53945571D01*
X111914429Y-53861676D01*
X111807840Y-53809567D01*
X111807837Y-53809566D01*
X111807836Y-53809566D01*
X111807834Y-53809565D01*
X111738747Y-53799500D01*
X111738742Y-53799500D01*
X111361258Y-53799500D01*
X111361252Y-53799500D01*
X111292165Y-53809565D01*
X111292163Y-53809566D01*
X111292161Y-53809566D01*
X111292160Y-53809567D01*
X111255030Y-53827719D01*
X111185572Y-53861675D01*
X111101675Y-53945572D01*
X111049566Y-54052163D01*
X111049565Y-54052165D01*
X111039500Y-54121252D01*
X111039500Y-54613747D01*
X111049565Y-54682834D01*
X111049566Y-54682836D01*
X111049567Y-54682840D01*
X111101676Y-54789429D01*
X111185571Y-54873324D01*
X111185572Y-54873324D01*
X111185573Y-54873325D01*
X111187217Y-54874499D01*
X111188246Y-54875998D01*
X111190786Y-54878538D01*
X111190314Y-54879009D01*
X111221676Y-54924688D01*
X111224500Y-54946931D01*
X111224500Y-55079078D01*
X111203678Y-55136286D01*
X111183032Y-55152434D01*
X111183626Y-55153266D01*
X111177629Y-55157547D01*
X111092549Y-55242627D01*
X111039708Y-55350714D01*
X111039707Y-55350718D01*
X111029500Y-55420781D01*
X111029500Y-55884213D01*
X111029501Y-55884225D01*
X111039708Y-55954284D01*
X111039709Y-55954286D01*
X111092551Y-56062375D01*
X111177625Y-56147449D01*
X111177627Y-56147450D01*
X111177626Y-56147450D01*
X111204932Y-56160799D01*
X111223840Y-56170042D01*
X111266091Y-56213874D01*
X111270282Y-56274609D01*
X111234453Y-56323829D01*
X111223842Y-56329955D01*
X111177628Y-56352549D01*
X111177627Y-56352549D01*
X111177625Y-56352551D01*
X111092551Y-56437625D01*
X111063479Y-56497090D01*
X111019648Y-56539339D01*
X110983524Y-56547000D01*
X110974656Y-56547000D01*
X110974653Y-56547000D01*
X110974644Y-56547001D01*
X110973850Y-56547150D01*
X110961616Y-56548569D01*
X110932510Y-56549914D01*
X110932507Y-56549915D01*
X110922448Y-56554356D01*
X110902868Y-56560418D01*
X110892071Y-56562436D01*
X110878146Y-56571057D01*
X110867289Y-56577779D01*
X110856397Y-56583520D01*
X110829738Y-56595292D01*
X110829731Y-56595296D01*
X110821963Y-56603064D01*
X110805893Y-56615793D01*
X110796550Y-56621578D01*
X110796548Y-56621580D01*
X110778987Y-56644833D01*
X110770899Y-56654127D01*
X110401595Y-57023432D01*
X110346419Y-57049161D01*
X110338662Y-57049500D01*
X110228037Y-57049500D01*
X110089950Y-57090045D01*
X109968871Y-57167857D01*
X109874623Y-57276625D01*
X109874621Y-57276628D01*
X109814834Y-57407543D01*
X109794353Y-57549999D01*
X109794353Y-57550000D01*
X106355500Y-57550000D01*
X106355500Y-54089000D01*
X106354718Y-54071091D01*
X106353366Y-54055636D01*
X106326616Y-53970794D01*
X106326616Y-53970793D01*
X106296176Y-53918070D01*
X106265319Y-53877334D01*
X106265315Y-53877331D01*
X106188500Y-53827719D01*
X106188487Y-53827712D01*
X106131295Y-53806896D01*
X106131285Y-53806893D01*
X106061003Y-53794500D01*
X106061000Y-53794500D01*
X105545338Y-53794500D01*
X105488130Y-53773678D01*
X105457690Y-53720955D01*
X105468262Y-53661000D01*
X105482405Y-53642567D01*
X105608405Y-53516567D01*
X105663581Y-53490839D01*
X105671338Y-53490500D01*
X110513704Y-53490500D01*
X110526700Y-53492618D01*
X110526838Y-53491634D01*
X110535003Y-53492773D01*
X110582118Y-53490595D01*
X110586228Y-53490500D01*
X110605080Y-53490500D01*
X110605082Y-53490500D01*
X110605866Y-53490353D01*
X110618126Y-53488929D01*
X110647230Y-53487585D01*
X110657278Y-53483147D01*
X110676872Y-53477079D01*
X110687671Y-53475061D01*
X110712452Y-53459716D01*
X110723328Y-53453983D01*
X110750003Y-53442206D01*
X110757770Y-53434438D01*
X110773849Y-53421702D01*
X110783190Y-53415919D01*
X110800749Y-53392665D01*
X110808834Y-53383373D01*
X111300642Y-52891567D01*
X111355817Y-52865839D01*
X111363574Y-52865500D01*
X112485500Y-52865500D01*
X112542708Y-52886322D01*
X112573148Y-52939045D01*
X112574500Y-52954500D01*
X112574500Y-53469752D01*
X112586132Y-53528231D01*
X112630445Y-53594548D01*
X112630448Y-53594552D01*
X112630451Y-53594554D01*
X112696768Y-53638867D01*
X112753690Y-53650189D01*
X112755252Y-53650500D01*
X112755256Y-53650500D01*
X113944744Y-53650500D01*
X113944748Y-53650500D01*
X114003231Y-53638867D01*
X114069552Y-53594552D01*
X114113867Y-53528231D01*
X114125500Y-53469748D01*
X114125500Y-52830252D01*
X114113867Y-52771769D01*
X114113867Y-52771768D01*
X114069554Y-52705451D01*
X114069552Y-52705448D01*
X114054853Y-52695626D01*
X114003231Y-52661132D01*
X113944752Y-52649500D01*
X113944748Y-52649500D01*
X113764500Y-52649500D01*
X113707292Y-52628678D01*
X113676852Y-52575955D01*
X113675500Y-52560500D01*
X113675500Y-52120921D01*
X113696322Y-52063713D01*
X113716967Y-52047569D01*
X113716372Y-52046735D01*
X113722369Y-52042451D01*
X113722375Y-52042449D01*
X113807449Y-51957375D01*
X113860291Y-51849286D01*
X113860656Y-51846785D01*
X113868273Y-51794500D01*
X113870500Y-51779215D01*
X113870499Y-51315786D01*
X113870499Y-51315785D01*
X113870498Y-51315774D01*
X113861954Y-51257133D01*
X113860291Y-51245714D01*
X113807449Y-51137625D01*
X113722375Y-51052551D01*
X113676157Y-51029956D01*
X113633908Y-50986125D01*
X113629717Y-50925390D01*
X113665547Y-50876170D01*
X113676154Y-50870045D01*
X113722375Y-50847449D01*
X113807449Y-50762375D01*
X113813408Y-50750185D01*
X113824299Y-50727910D01*
X113868131Y-50685661D01*
X113904255Y-50678000D01*
X114096968Y-50678000D01*
X114154176Y-50698822D01*
X114176925Y-50727912D01*
X114192549Y-50759872D01*
X114192550Y-50759873D01*
X114192551Y-50759875D01*
X114277625Y-50844949D01*
X114277627Y-50844950D01*
X114277626Y-50844950D01*
X114304932Y-50858299D01*
X114323840Y-50867542D01*
X114366091Y-50911374D01*
X114370282Y-50972109D01*
X114334453Y-51021329D01*
X114323842Y-51027455D01*
X114277628Y-51050049D01*
X114277627Y-51050049D01*
X114192549Y-51135127D01*
X114139708Y-51243214D01*
X114139707Y-51243218D01*
X114129500Y-51313281D01*
X114129500Y-51776713D01*
X114129501Y-51776725D01*
X114139708Y-51846784D01*
X114139709Y-51846786D01*
X114192551Y-51954875D01*
X114277625Y-52039949D01*
X114277626Y-52039949D01*
X114277627Y-52039950D01*
X114283628Y-52044235D01*
X114282147Y-52046308D01*
X114316834Y-52082286D01*
X114324500Y-52118421D01*
X114324500Y-53731903D01*
X114324161Y-53739661D01*
X114320735Y-53778806D01*
X114330908Y-53816773D01*
X114332588Y-53824350D01*
X114339411Y-53863043D01*
X114340824Y-53865490D01*
X114349714Y-53886952D01*
X114350446Y-53889685D01*
X114372982Y-53921869D01*
X114377154Y-53928418D01*
X114396804Y-53962454D01*
X114426905Y-53987711D01*
X114432630Y-53992956D01*
X115148433Y-54708759D01*
X115174161Y-54763935D01*
X115174500Y-54771692D01*
X115174500Y-55369752D01*
X115186132Y-55428231D01*
X115230445Y-55494548D01*
X115230448Y-55494552D01*
X115230451Y-55494554D01*
X115296768Y-55538867D01*
X115343428Y-55548148D01*
X115355252Y-55550500D01*
X115535500Y-55550500D01*
X115592708Y-55571322D01*
X115623148Y-55624045D01*
X115624500Y-55639500D01*
X115624500Y-55979078D01*
X115603678Y-56036286D01*
X115583032Y-56052434D01*
X115583626Y-56053266D01*
X115577629Y-56057547D01*
X115492549Y-56142627D01*
X115439708Y-56250714D01*
X115439707Y-56250718D01*
X115429500Y-56320781D01*
X115429500Y-56784213D01*
X115429501Y-56784225D01*
X115439708Y-56854284D01*
X115439709Y-56854286D01*
X115492551Y-56962375D01*
X115577625Y-57047449D01*
X115577626Y-57047449D01*
X115577627Y-57047450D01*
X115685714Y-57100291D01*
X115685718Y-57100292D01*
X115704422Y-57103016D01*
X115755785Y-57110500D01*
X116144214Y-57110499D01*
X116144215Y-57110498D01*
X116144225Y-57110498D01*
X116191447Y-57103618D01*
X116214286Y-57100291D01*
X116322375Y-57047449D01*
X116407449Y-56962375D01*
X116460291Y-56854286D01*
X116470500Y-56784215D01*
X116470499Y-56320786D01*
X116470499Y-56320785D01*
X116470498Y-56320774D01*
X116461954Y-56262133D01*
X116460291Y-56250714D01*
X116407449Y-56142625D01*
X116322375Y-56057551D01*
X116322373Y-56057550D01*
X116322370Y-56057547D01*
X116316374Y-56053266D01*
X116317851Y-56051197D01*
X116283153Y-56015185D01*
X116275500Y-55979078D01*
X116275500Y-55639500D01*
X116296322Y-55582292D01*
X116349045Y-55551852D01*
X116364500Y-55550500D01*
X116544744Y-55550500D01*
X116544748Y-55550500D01*
X116603231Y-55538867D01*
X116669552Y-55494552D01*
X116713867Y-55428231D01*
X116725500Y-55369748D01*
X116725500Y-54794500D01*
X116746322Y-54737292D01*
X116799045Y-54706852D01*
X116814500Y-54705500D01*
X118061008Y-54705500D01*
X118076919Y-54704804D01*
X118078909Y-54704718D01*
X118083409Y-54704324D01*
X118094355Y-54703367D01*
X118094356Y-54703366D01*
X118094364Y-54703366D01*
X118179206Y-54676616D01*
X118231929Y-54646176D01*
X118272666Y-54615319D01*
X118322285Y-54538493D01*
X118343107Y-54481285D01*
X118355500Y-54411000D01*
X118355500Y-52739000D01*
X118354718Y-52721091D01*
X118353366Y-52705636D01*
X118326616Y-52620794D01*
X118326616Y-52620793D01*
X118296176Y-52568070D01*
X118265319Y-52527334D01*
X118265315Y-52527331D01*
X118188500Y-52477719D01*
X118188487Y-52477712D01*
X118131295Y-52456896D01*
X118131285Y-52456893D01*
X118061003Y-52444500D01*
X118061000Y-52444500D01*
X115439000Y-52444500D01*
X115438992Y-52444500D01*
X115421091Y-52445281D01*
X115405644Y-52446632D01*
X115405632Y-52446635D01*
X115320793Y-52473383D01*
X115268070Y-52503823D01*
X115227334Y-52534680D01*
X115227331Y-52534684D01*
X115177719Y-52611499D01*
X115177712Y-52611512D01*
X115156896Y-52668704D01*
X115156893Y-52668714D01*
X115152148Y-52695626D01*
X115121708Y-52748349D01*
X115064499Y-52769171D01*
X115007291Y-52748349D01*
X114976852Y-52695625D01*
X114975500Y-52680171D01*
X114975500Y-52118421D01*
X114996322Y-52061213D01*
X115016967Y-52045069D01*
X115016372Y-52044235D01*
X115022369Y-52039951D01*
X115022375Y-52039949D01*
X115107449Y-51954875D01*
X115160291Y-51846786D01*
X115170500Y-51776715D01*
X115170499Y-51313286D01*
X115170499Y-51313285D01*
X115170498Y-51313274D01*
X115160655Y-51245714D01*
X115160291Y-51243214D01*
X115107449Y-51135125D01*
X115022375Y-51050051D01*
X114976157Y-51027456D01*
X114933908Y-50983625D01*
X114929717Y-50922890D01*
X114965547Y-50873670D01*
X114976154Y-50867545D01*
X115022375Y-50844949D01*
X115107449Y-50759875D01*
X115160291Y-50651786D01*
X115170500Y-50581715D01*
X115170499Y-50118286D01*
X115170498Y-50118274D01*
X115160291Y-50048215D01*
X115146175Y-50019339D01*
X115107449Y-49940125D01*
X115022375Y-49855051D01*
X115022373Y-49855050D01*
X115022372Y-49855049D01*
X114914285Y-49802208D01*
X114914281Y-49802207D01*
X114857276Y-49793902D01*
X114844215Y-49792000D01*
X114844213Y-49792000D01*
X114455786Y-49792000D01*
X114455774Y-49792001D01*
X114385715Y-49802208D01*
X114277626Y-49855050D01*
X114192547Y-49940129D01*
X114174479Y-49977089D01*
X114130647Y-50019339D01*
X114094523Y-50027000D01*
X113904255Y-50027000D01*
X113847047Y-50006178D01*
X113824299Y-49977090D01*
X113807450Y-49942627D01*
X113807449Y-49942626D01*
X113807449Y-49942625D01*
X113722375Y-49857551D01*
X113722373Y-49857550D01*
X113722372Y-49857549D01*
X113614285Y-49804708D01*
X113614281Y-49804707D01*
X113557276Y-49796402D01*
X113544215Y-49794500D01*
X113544213Y-49794500D01*
X113155786Y-49794500D01*
X113155774Y-49794501D01*
X113085715Y-49804708D01*
X112977626Y-49857550D01*
X112892549Y-49942627D01*
X112839708Y-50050714D01*
X112839707Y-50050718D01*
X112829500Y-50120781D01*
X112829500Y-50584213D01*
X112829501Y-50584225D01*
X112839708Y-50654284D01*
X112839709Y-50654286D01*
X112892551Y-50762375D01*
X112977625Y-50847449D01*
X112977627Y-50847450D01*
X112977626Y-50847450D01*
X113004932Y-50860799D01*
X113023840Y-50870042D01*
X113066091Y-50913874D01*
X113070282Y-50974609D01*
X113034453Y-51023829D01*
X113023842Y-51029955D01*
X112977628Y-51052549D01*
X112977627Y-51052549D01*
X112892549Y-51137627D01*
X112839708Y-51245714D01*
X112839707Y-51245718D01*
X112829500Y-51315781D01*
X112829500Y-51779213D01*
X112829501Y-51779225D01*
X112839708Y-51849284D01*
X112841928Y-51853824D01*
X112892551Y-51957375D01*
X112977625Y-52042449D01*
X112977626Y-52042449D01*
X112977627Y-52042450D01*
X112983628Y-52046735D01*
X112982147Y-52048808D01*
X113016834Y-52084786D01*
X113024500Y-52120921D01*
X113024500Y-52209673D01*
X113003678Y-52266881D01*
X112950955Y-52297321D01*
X112896447Y-52287709D01*
X112896022Y-52288674D01*
X112892103Y-52286943D01*
X112891000Y-52286749D01*
X112889444Y-52285769D01*
X112888480Y-52285343D01*
X112860116Y-52278672D01*
X112848344Y-52275026D01*
X112821173Y-52264500D01*
X112810189Y-52264500D01*
X112789813Y-52262136D01*
X112779120Y-52259621D01*
X112779116Y-52259620D01*
X112750266Y-52263646D01*
X112737969Y-52264500D01*
X111265772Y-52264500D01*
X111252775Y-52262381D01*
X111252638Y-52263366D01*
X111244472Y-52262226D01*
X111197358Y-52264405D01*
X111193248Y-52264500D01*
X111174394Y-52264500D01*
X111174391Y-52264500D01*
X111174382Y-52264501D01*
X111173588Y-52264650D01*
X111161354Y-52266069D01*
X111132245Y-52267415D01*
X111132242Y-52267415D01*
X111122184Y-52271856D01*
X111102605Y-52277919D01*
X111091805Y-52279938D01*
X111091802Y-52279939D01*
X111067033Y-52295275D01*
X111056136Y-52301019D01*
X111029475Y-52312792D01*
X111029468Y-52312796D01*
X111021697Y-52320567D01*
X111005625Y-52333297D01*
X110996288Y-52339078D01*
X110996284Y-52339081D01*
X110978727Y-52362331D01*
X110970638Y-52371627D01*
X110478835Y-52863432D01*
X110423659Y-52889161D01*
X110415902Y-52889500D01*
X105573535Y-52889500D01*
X105560538Y-52887381D01*
X105560401Y-52888366D01*
X105552235Y-52887226D01*
X105505121Y-52889405D01*
X105501011Y-52889500D01*
X105482156Y-52889500D01*
X105482153Y-52889500D01*
X105482144Y-52889501D01*
X105481350Y-52889650D01*
X105469116Y-52891069D01*
X105440009Y-52892415D01*
X105440008Y-52892415D01*
X105429951Y-52896855D01*
X105410368Y-52902919D01*
X105399567Y-52904938D01*
X105399563Y-52904940D01*
X105374785Y-52920280D01*
X105363890Y-52926023D01*
X105337237Y-52937792D01*
X105337235Y-52937793D01*
X105329464Y-52945564D01*
X105313392Y-52958294D01*
X105304050Y-52964078D01*
X105304048Y-52964080D01*
X105286487Y-52987333D01*
X105278399Y-52996628D01*
X103082437Y-55192590D01*
X103071756Y-55200279D01*
X103072354Y-55201071D01*
X103065768Y-55206044D01*
X103033987Y-55240906D01*
X103031151Y-55243877D01*
X103017826Y-55257202D01*
X103017817Y-55257212D01*
X103017355Y-55257888D01*
X103009720Y-55267525D01*
X102990085Y-55289065D01*
X102990081Y-55289071D01*
X102986112Y-55299317D01*
X102976552Y-55317455D01*
X102970342Y-55326520D01*
X102963670Y-55354886D01*
X102960026Y-55366654D01*
X102949500Y-55393827D01*
X102949500Y-55404811D01*
X102947136Y-55425187D01*
X102944621Y-55435881D01*
X102948055Y-55460500D01*
X102948646Y-55464732D01*
X102949500Y-55477030D01*
X102949500Y-57216466D01*
X102947381Y-57229462D01*
X102948366Y-57229600D01*
X102947226Y-57237764D01*
X102949405Y-57284879D01*
X102949500Y-57288989D01*
X102949500Y-57307848D01*
X102949650Y-57308648D01*
X102951069Y-57320885D01*
X102952415Y-57349993D01*
X102952415Y-57349994D01*
X102956853Y-57360046D01*
X102962919Y-57379632D01*
X102964938Y-57390432D01*
X102980274Y-57415201D01*
X102986020Y-57426101D01*
X102997794Y-57452765D01*
X102997795Y-57452766D01*
X103005564Y-57460536D01*
X103018296Y-57476611D01*
X103024077Y-57485947D01*
X103024081Y-57485952D01*
X103047328Y-57503507D01*
X103056627Y-57511598D01*
X103672596Y-58127567D01*
X103698324Y-58182743D01*
X103682568Y-58241548D01*
X103632698Y-58276467D01*
X103609663Y-58279500D01*
X103530247Y-58279500D01*
X103467363Y-58292009D01*
X103432637Y-58292009D01*
X103369752Y-58279500D01*
X103369748Y-58279500D01*
X103030252Y-58279500D01*
X103030247Y-58279500D01*
X102971768Y-58291132D01*
X102905451Y-58335445D01*
X102905445Y-58335451D01*
X102861132Y-58401768D01*
X102849500Y-58460247D01*
X102849500Y-59190500D01*
X102828678Y-59247708D01*
X102775955Y-59278148D01*
X102760500Y-59279500D01*
X102030247Y-59279500D01*
X101971768Y-59291132D01*
X101905451Y-59335445D01*
X101905445Y-59335451D01*
X101861132Y-59401768D01*
X101849500Y-59460247D01*
X101849500Y-59799752D01*
X101862009Y-59862637D01*
X101862009Y-59897363D01*
X101849500Y-59960247D01*
X101849500Y-60299752D01*
X101862009Y-60362637D01*
X101862009Y-60397363D01*
X101849500Y-60460247D01*
X101849500Y-60799752D01*
X101862009Y-60862637D01*
X101862009Y-60897363D01*
X101849500Y-60960247D01*
X101849500Y-61299752D01*
X101862009Y-61362637D01*
X101862009Y-61397363D01*
X101849500Y-61460247D01*
X101849500Y-61799752D01*
X101862009Y-61862637D01*
X101862009Y-61897363D01*
X101849500Y-61960247D01*
X101849500Y-62299752D01*
X98000500Y-62299752D01*
X98000500Y-42089500D01*
X98021322Y-42032292D01*
X98074045Y-42001852D01*
X98089500Y-42000500D01*
X120911000Y-42000500D01*
X120968208Y-42021322D01*
G37*
%TD.AperFunction*%
%TD*%
M02*
