%TF.GenerationSoftware,KiCad,Pcbnew,7.0.10*%
%TF.CreationDate,2024-02-25T20:26:58-06:00*%
%TF.ProjectId,Radar2_ExtFilter,52616461-7232-45f4-9578-7446696c7465,rev?*%
%TF.SameCoordinates,Original*%
%TF.FileFunction,Copper,L3,Inr*%
%TF.FilePolarity,Positive*%
%FSLAX46Y46*%
G04 Gerber Fmt 4.6, Leading zero omitted, Abs format (unit mm)*
G04 Created by KiCad (PCBNEW 7.0.10) date 2024-02-25 20:26:58*
%MOMM*%
%LPD*%
G01*
G04 APERTURE LIST*
%TA.AperFunction,ComponentPad*%
%ADD10C,0.970000*%
%TD*%
%TA.AperFunction,ComponentPad*%
%ADD11C,5.000000*%
%TD*%
%TA.AperFunction,ComponentPad*%
%ADD12C,0.610000*%
%TD*%
%TA.AperFunction,ComponentPad*%
%ADD13R,1.700000X1.700000*%
%TD*%
%TA.AperFunction,ComponentPad*%
%ADD14O,1.700000X1.700000*%
%TD*%
%TA.AperFunction,ViaPad*%
%ADD15C,0.600000*%
%TD*%
%TA.AperFunction,ViaPad*%
%ADD16C,0.800000*%
%TD*%
G04 APERTURE END LIST*
D10*
%TO.N,GND*%
%TO.C,J2*%
X181490000Y-82130000D03*
X181490000Y-73370000D03*
%TD*%
D11*
%TO.N,GND*%
%TO.C,H4*%
X175000000Y-84000000D03*
%TD*%
D10*
%TO.N,GND*%
%TO.C,J1*%
X126880000Y-48140000D03*
X118120000Y-48140000D03*
%TD*%
D11*
%TO.N,GND*%
%TO.C,H3*%
X105000000Y-84000000D03*
%TD*%
D12*
%TO.N,GND*%
%TO.C,FL1*%
X110750000Y-61735000D03*
X110750000Y-59525000D03*
%TD*%
D10*
%TO.N,GND*%
%TO.C,J5*%
X181490000Y-63710000D03*
X181490000Y-54950000D03*
%TD*%
D11*
%TO.N,GND*%
%TO.C,H2*%
X180700000Y-47000000D03*
%TD*%
D13*
%TO.N,/RadarRx/IF_OUT*%
%TO.C,J4*%
X165443464Y-83300000D03*
D14*
%TO.N,GND*%
X162903464Y-83300000D03*
%TO.N,+3V3*%
X160363464Y-83300000D03*
%TO.N,Net-(J4-Pin_4)*%
X157823464Y-83300000D03*
%TO.N,GND*%
X155283464Y-83300000D03*
%TD*%
D13*
%TO.N,/RadarTx/VCO_Tune*%
%TO.C,J3*%
X102570000Y-68340000D03*
D14*
%TO.N,+3V0*%
X102570000Y-70880000D03*
%TO.N,+3V3*%
X102570000Y-73420000D03*
%TO.N,+10V*%
X102570000Y-75960000D03*
%TO.N,GND*%
X102570000Y-78500000D03*
%TD*%
D11*
%TO.N,GND*%
%TO.C,H1*%
X105000000Y-47000000D03*
%TD*%
D15*
%TO.N,+3V0*%
X106500000Y-70850000D03*
X104300000Y-57200000D03*
X168350000Y-52950000D03*
X168350000Y-54000000D03*
X169400000Y-54000000D03*
X104300000Y-55800000D03*
%TO.N,GND*%
X138900000Y-58900000D03*
X122250000Y-82000000D03*
X171200000Y-61800000D03*
X186563464Y-73350000D03*
X137763464Y-83950000D03*
X133763464Y-80350000D03*
X134000000Y-64000000D03*
X172000000Y-46000000D03*
X159100000Y-58700000D03*
X115000000Y-82000000D03*
X178763464Y-83950000D03*
X146000000Y-46000000D03*
X113600000Y-62800000D03*
X176000000Y-65000000D03*
X182000000Y-52000000D03*
X120700000Y-53000000D03*
X100000000Y-54000000D03*
X178400000Y-61800000D03*
X161000000Y-62900000D03*
X162000000Y-46000000D03*
X186000000Y-52000000D03*
X174000000Y-65000000D03*
X133763464Y-83950000D03*
X175050000Y-75350000D03*
X158000000Y-46000000D03*
X154000000Y-64000000D03*
X110000000Y-52000000D03*
X132500000Y-58900000D03*
X170963464Y-75350000D03*
X150000000Y-70000000D03*
X132920000Y-75550000D03*
X110000000Y-46000000D03*
X144600000Y-61400000D03*
X150000000Y-74000000D03*
X150000000Y-48000000D03*
X128163464Y-80350000D03*
X120700000Y-58600000D03*
X128963464Y-80350000D03*
X184963464Y-82150000D03*
X151763464Y-85950000D03*
X150000000Y-68000000D03*
X124300000Y-58600000D03*
X180000000Y-61800000D03*
X149763464Y-80350000D03*
X146200000Y-79600000D03*
X176000000Y-50000000D03*
X137763464Y-85950000D03*
X117000000Y-84000000D03*
X128500000Y-58900000D03*
X123400000Y-65300000D03*
X108900000Y-62400000D03*
X123200000Y-62800000D03*
X124300000Y-49800000D03*
X144000000Y-84000000D03*
X160000000Y-44000000D03*
X142000000Y-46000000D03*
X177600000Y-56900000D03*
X152000000Y-46000000D03*
X184000000Y-48000000D03*
X161800000Y-62900000D03*
X183000000Y-71000000D03*
X144000000Y-46000000D03*
X158630000Y-80350000D03*
X153000000Y-57000000D03*
X152700000Y-58700000D03*
X161000000Y-72000000D03*
X174000000Y-69000000D03*
X163763464Y-75350000D03*
X146000000Y-64000000D03*
X115900000Y-58900000D03*
X123763464Y-83950000D03*
X176000000Y-44000000D03*
X180000000Y-56900000D03*
X172800000Y-61800000D03*
X135700000Y-58900000D03*
X125000000Y-61600000D03*
X129763464Y-83950000D03*
X133970090Y-53985045D03*
X146000000Y-74000000D03*
X125800000Y-61600000D03*
X176000000Y-48000000D03*
X143900000Y-62500000D03*
X174400000Y-61800000D03*
X130900000Y-62400000D03*
X174000000Y-48000000D03*
X144000000Y-86000000D03*
X150000000Y-66000000D03*
X144000000Y-64000000D03*
X183000000Y-69000000D03*
X146000000Y-44000000D03*
X177000000Y-67000000D03*
X164000000Y-65000000D03*
X169363464Y-75350000D03*
X117000000Y-82000000D03*
X102000000Y-44000000D03*
X100000000Y-44000000D03*
X155000000Y-53000000D03*
X135000000Y-57500000D03*
X118000000Y-42800000D03*
X176563464Y-75350000D03*
X151000000Y-75350000D03*
X163430000Y-80350000D03*
X178163464Y-80350000D03*
X153800000Y-80350000D03*
X105000000Y-80000000D03*
X170963464Y-80350000D03*
X141750000Y-80350000D03*
X148000000Y-46000000D03*
X109000000Y-78000000D03*
X173000000Y-74000000D03*
X134000000Y-68000000D03*
X121000000Y-82000000D03*
X125525000Y-72000000D03*
X115000000Y-68000000D03*
X128000000Y-54000000D03*
X168650000Y-80350000D03*
X117000000Y-50000000D03*
X107000000Y-80000000D03*
X120700000Y-51400000D03*
X172000000Y-65000000D03*
X165800000Y-62900000D03*
X154000000Y-48000000D03*
X156000000Y-48000000D03*
X168000000Y-61800000D03*
X136000000Y-46000000D03*
X175000000Y-74000000D03*
X166630000Y-80350000D03*
X132963464Y-80350000D03*
X126000000Y-57500000D03*
X132163464Y-80350000D03*
X167400000Y-62900000D03*
X184000000Y-52000000D03*
X173000000Y-67000000D03*
X131763464Y-83950000D03*
X134000000Y-46000000D03*
X173450000Y-75350000D03*
X159900000Y-58700000D03*
X158930000Y-75350000D03*
X159750000Y-75350000D03*
X138000000Y-70000000D03*
X178963464Y-80350000D03*
X161000000Y-74000000D03*
X174400000Y-56900000D03*
X138100000Y-58900000D03*
X131763464Y-81950000D03*
X140000000Y-68000000D03*
X158000000Y-72000000D03*
X134500000Y-62400000D03*
X132000000Y-52000000D03*
X150000000Y-44000000D03*
X119200000Y-62800000D03*
X102000000Y-52000000D03*
X178763464Y-81950000D03*
X177000000Y-72000000D03*
X135363464Y-80350000D03*
X137300000Y-58900000D03*
X131346536Y-75550000D03*
X142000000Y-68000000D03*
X173600000Y-61800000D03*
X170000000Y-44000000D03*
X134100000Y-58900000D03*
X172000000Y-61800000D03*
X156000000Y-68000000D03*
X150200000Y-75350000D03*
X171763464Y-75350000D03*
X186800000Y-63800000D03*
X141763464Y-81950000D03*
X152000000Y-64000000D03*
X179000000Y-74000000D03*
X174000000Y-46000000D03*
X139000000Y-62400000D03*
X167763464Y-75350000D03*
X132000000Y-46000000D03*
X110000000Y-50000000D03*
X148000000Y-64000000D03*
X144000000Y-66000000D03*
X139763464Y-81950000D03*
X134000000Y-50000000D03*
X172800000Y-56900000D03*
X139600000Y-52125000D03*
X129000000Y-57500000D03*
X155000000Y-57000000D03*
X179000000Y-68000000D03*
X110700000Y-62800000D03*
X118400000Y-62800000D03*
X144000000Y-44000000D03*
X174163464Y-80350000D03*
X138000000Y-46000000D03*
X104000000Y-52000000D03*
X170400000Y-61800000D03*
X121000000Y-68000000D03*
X156700000Y-58700000D03*
X165363464Y-75350000D03*
X100000000Y-50000000D03*
X119900000Y-58900000D03*
X181000000Y-71000000D03*
X152000000Y-66000000D03*
X159000000Y-55000000D03*
X166963464Y-75350000D03*
X172650000Y-75350000D03*
X148000000Y-72000000D03*
X145763464Y-80350000D03*
X142500000Y-60880000D03*
X149500000Y-62500000D03*
X117000000Y-86000000D03*
X184000000Y-46000000D03*
X168000000Y-44000000D03*
X114000000Y-48000000D03*
X147800000Y-75350000D03*
X119000000Y-82000000D03*
X167000000Y-72000000D03*
X151900000Y-58700000D03*
X171763464Y-80350000D03*
X157000000Y-57000000D03*
X179763464Y-80350000D03*
X185000000Y-69000000D03*
X130000000Y-50000000D03*
X175000000Y-63000000D03*
X124300000Y-52200000D03*
X130000000Y-72000000D03*
X165830000Y-80350000D03*
X124300000Y-54600000D03*
X132000000Y-44000000D03*
X171000000Y-74000000D03*
X132120000Y-75550000D03*
X147763464Y-81950000D03*
X111000000Y-80000000D03*
X156000000Y-46000000D03*
X174000000Y-71000000D03*
X149763464Y-86000000D03*
X148000000Y-48000000D03*
X127000000Y-46000000D03*
X179000000Y-63000000D03*
X185000000Y-67000000D03*
X146000000Y-72000000D03*
X146000000Y-84000000D03*
X170763464Y-81950000D03*
X124300000Y-53000000D03*
X118300000Y-58900000D03*
X124300000Y-51400000D03*
X176800000Y-61800000D03*
X133300000Y-58900000D03*
X120700000Y-54600000D03*
X137763464Y-80350000D03*
X112000000Y-48000000D03*
X157500000Y-58700000D03*
X130000000Y-71000000D03*
X175200000Y-56900000D03*
X130500000Y-57500000D03*
X178963464Y-75350000D03*
X186000000Y-44000000D03*
X110000000Y-48000000D03*
X125525000Y-69000000D03*
X149763464Y-84000000D03*
X178000000Y-65000000D03*
X165800000Y-59900000D03*
X181000000Y-67000000D03*
X159400000Y-62900000D03*
X169450000Y-80350000D03*
X136000000Y-48000000D03*
X125525000Y-71000000D03*
X171000000Y-72000000D03*
X162600000Y-62900000D03*
X158000000Y-66000000D03*
X150300000Y-58700000D03*
X176563464Y-80350000D03*
X112700000Y-58900000D03*
X139800000Y-62400000D03*
X110500000Y-64000000D03*
X166600000Y-62900000D03*
X160000000Y-46000000D03*
X119000000Y-84000000D03*
X133706536Y-75550000D03*
X152200000Y-80350000D03*
X183600000Y-54800000D03*
X169000000Y-74000000D03*
X130000000Y-74000000D03*
X158300000Y-58700000D03*
X142563464Y-80350000D03*
X178763464Y-85950000D03*
X113000000Y-82000000D03*
X176800000Y-56900000D03*
X140000000Y-44000000D03*
X186000000Y-46000000D03*
X183363464Y-82150000D03*
X178000000Y-52000000D03*
X172000000Y-48000000D03*
X153500000Y-58700000D03*
X155100000Y-58700000D03*
X111000000Y-68000000D03*
X159000000Y-74000000D03*
X138563464Y-80350000D03*
X184000000Y-50000000D03*
X118000000Y-64000000D03*
X135300000Y-62400000D03*
X118000000Y-44400000D03*
X164000000Y-48000000D03*
X161350000Y-75350000D03*
X127763464Y-81950000D03*
X108400000Y-57900000D03*
X112000000Y-44000000D03*
X100000000Y-48000000D03*
X130000000Y-48000000D03*
X179763464Y-75350000D03*
X134510000Y-75550000D03*
X108025003Y-51981254D03*
X127000000Y-44400000D03*
X151100000Y-58700000D03*
X146000000Y-48000000D03*
X144563464Y-75350000D03*
X134000000Y-48000000D03*
X131650000Y-79600000D03*
X162000000Y-65000000D03*
X156000000Y-64000000D03*
X113000000Y-80000000D03*
X149000000Y-55000000D03*
X126100000Y-58900000D03*
X152000000Y-68000000D03*
X115100000Y-58900000D03*
X135763464Y-85950000D03*
X130000000Y-73000000D03*
X151000000Y-55000000D03*
X169600000Y-61800000D03*
X174500000Y-54400000D03*
X114000000Y-46000000D03*
X160200000Y-62900000D03*
X147000000Y-75350000D03*
X128000000Y-50000000D03*
X126000000Y-54000000D03*
X132000000Y-64000000D03*
X115200000Y-62800000D03*
X183600000Y-63800000D03*
X185200000Y-54800000D03*
X162000000Y-48000000D03*
X157000000Y-55000000D03*
X108000000Y-64000000D03*
X117000000Y-68000000D03*
X100000000Y-46000000D03*
X149600000Y-59700000D03*
X160230000Y-80350000D03*
X174000000Y-50000000D03*
X117600000Y-62800000D03*
X118000000Y-46000000D03*
X124200000Y-61600000D03*
X115000000Y-84000000D03*
X160000000Y-70000000D03*
X170163464Y-75350000D03*
X181000000Y-69000000D03*
X176000000Y-56900000D03*
X154000000Y-66000000D03*
X126000000Y-50000000D03*
X164000000Y-44000000D03*
X125300000Y-58900000D03*
X147900000Y-62500000D03*
X138000000Y-64000000D03*
X154000000Y-74000000D03*
X178163464Y-75350000D03*
X109000000Y-80000000D03*
X130300000Y-61900000D03*
X159000000Y-57000000D03*
X148163464Y-80350000D03*
X148000000Y-84000000D03*
X160000000Y-66000000D03*
X165000000Y-62900000D03*
X144163464Y-80350000D03*
X173363464Y-80350000D03*
X107300000Y-58900000D03*
X169000000Y-72000000D03*
X132000000Y-70000000D03*
X136000000Y-70000000D03*
X153000000Y-53000000D03*
X106000000Y-52000000D03*
X122400000Y-62800000D03*
X178400000Y-56900000D03*
X153400000Y-75350000D03*
X133700000Y-62400000D03*
X151800000Y-75350000D03*
X158000000Y-44000000D03*
X132000000Y-54000000D03*
X115000000Y-86000000D03*
X130000000Y-44000000D03*
X148700000Y-62500000D03*
X126000000Y-80000000D03*
X146200000Y-75350000D03*
X158000000Y-70000000D03*
X131763464Y-85950000D03*
X109700000Y-62400000D03*
X146000000Y-66000000D03*
X170763464Y-83950000D03*
X143363464Y-80350000D03*
X170763464Y-85950000D03*
X173600000Y-56900000D03*
X140000000Y-48000000D03*
X164200000Y-62900000D03*
X140600000Y-61400000D03*
X127500000Y-57500000D03*
X137800000Y-52125000D03*
X120550000Y-64000000D03*
X155050000Y-75350000D03*
X175200000Y-61800000D03*
X174000000Y-44000000D03*
X172000000Y-50000000D03*
X116000000Y-62800000D03*
X111000000Y-84000000D03*
X156000000Y-70000000D03*
X160000000Y-68000000D03*
X107000000Y-78000000D03*
X125763464Y-81950000D03*
X120700000Y-49000000D03*
X144000000Y-48000000D03*
X102000000Y-50000000D03*
X125525000Y-68000000D03*
X138960000Y-76120000D03*
X149763464Y-81950000D03*
X129300000Y-58900000D03*
X113000000Y-84000000D03*
X149400000Y-75350000D03*
X170000000Y-48000000D03*
X155000000Y-55000000D03*
X136000000Y-68000000D03*
X124300000Y-49000000D03*
X139363464Y-80350000D03*
X136150000Y-80350000D03*
X131350000Y-80350000D03*
X134000000Y-44000000D03*
X159430000Y-80350000D03*
X152000000Y-72000000D03*
X126900000Y-58900000D03*
X109700000Y-58900000D03*
X151400000Y-80350000D03*
X154600000Y-80350000D03*
X110000000Y-44000000D03*
X108100000Y-62400000D03*
X137763464Y-81950000D03*
X136500000Y-58900000D03*
X124000000Y-80000000D03*
X108100000Y-58900000D03*
X134000000Y-70000000D03*
X174963464Y-80350000D03*
X133500000Y-57500000D03*
X186000000Y-48000000D03*
X108000000Y-50000000D03*
X175800000Y-75350000D03*
X126000000Y-52000000D03*
X132600000Y-62425000D03*
X130000000Y-54000000D03*
X147000000Y-55000000D03*
X152000000Y-44000000D03*
X142000000Y-44000000D03*
X156700000Y-59600000D03*
X153000000Y-80350000D03*
X164000000Y-46000000D03*
X130100000Y-58900000D03*
X128000000Y-52000000D03*
X128800000Y-61600000D03*
X121000000Y-84000000D03*
X162000000Y-44000000D03*
X108000000Y-44000000D03*
X166000000Y-44000000D03*
X124300000Y-57075000D03*
X154000000Y-70000000D03*
X136500000Y-57500000D03*
X168763464Y-83950000D03*
X164563464Y-75350000D03*
X152000000Y-48000000D03*
X155850000Y-75350000D03*
X139763464Y-83950000D03*
X138000000Y-48000000D03*
X183000000Y-67000000D03*
X148963464Y-80350000D03*
X130000000Y-46000000D03*
X126000000Y-78000000D03*
X168000000Y-46000000D03*
X146000000Y-70000000D03*
X140000000Y-70000000D03*
X150000000Y-72000000D03*
X125763464Y-85950000D03*
X146300000Y-62500000D03*
X132000000Y-57500000D03*
X119000000Y-68000000D03*
X146000000Y-68000000D03*
X112000000Y-46000000D03*
X176000000Y-46000000D03*
X103450000Y-59900000D03*
X162630000Y-80350000D03*
X143763464Y-81950000D03*
X165000000Y-72000000D03*
X138050000Y-79480000D03*
X160550000Y-75350000D03*
X165000000Y-74000000D03*
X176000000Y-52000000D03*
X130563464Y-80350000D03*
X115500000Y-64000000D03*
X151763464Y-84000000D03*
X135450000Y-79550000D03*
X132000000Y-48000000D03*
X174500000Y-53100000D03*
X160000000Y-48000000D03*
X161030000Y-80350000D03*
X148000000Y-70000000D03*
X170200000Y-60500000D03*
X172000000Y-44000000D03*
X140163464Y-80350000D03*
X133763464Y-85950000D03*
X102000000Y-54000000D03*
X157000000Y-53000000D03*
X152000000Y-74000000D03*
X177363464Y-80350000D03*
X174250000Y-75350000D03*
X151000000Y-57000000D03*
X111000000Y-86000000D03*
X148000000Y-66000000D03*
X120700000Y-49800000D03*
X130000000Y-70000000D03*
X163000000Y-74000000D03*
X154000000Y-46000000D03*
X148000000Y-74000000D03*
X154000000Y-72000000D03*
X119100000Y-58900000D03*
X157030000Y-80350000D03*
X158000000Y-48000000D03*
X129763464Y-81950000D03*
X131700000Y-62400000D03*
X130000000Y-68000000D03*
X177000000Y-63000000D03*
X135310000Y-75550000D03*
X154000000Y-44000000D03*
X129763464Y-80350000D03*
X180000000Y-52000000D03*
X173000000Y-63000000D03*
X123000000Y-68000000D03*
X176000000Y-61800000D03*
X170000000Y-65000000D03*
X137960000Y-76130000D03*
X152600000Y-75350000D03*
X113000000Y-68000000D03*
X145763464Y-81950000D03*
X140400000Y-79550000D03*
X148000000Y-86000000D03*
X111800000Y-58900000D03*
X161830000Y-80350000D03*
X186563464Y-82150000D03*
X131700000Y-58900000D03*
X155430000Y-80350000D03*
X113000000Y-86000000D03*
X158000000Y-64000000D03*
X156230000Y-80350000D03*
X120700000Y-50600000D03*
X111000000Y-82000000D03*
X175763464Y-80350000D03*
X156000000Y-72000000D03*
X164230000Y-80350000D03*
X168000000Y-48000000D03*
X137400000Y-62400000D03*
X119000000Y-86000000D03*
X125525000Y-70000000D03*
X180800000Y-61800000D03*
X121000000Y-86000000D03*
X148700000Y-58700000D03*
X146600000Y-58700000D03*
X120700000Y-52200000D03*
X138000000Y-44000000D03*
X125763464Y-83950000D03*
X117500000Y-58900000D03*
X140963464Y-80350000D03*
X168000000Y-65000000D03*
X150000000Y-46000000D03*
X135763464Y-81950000D03*
X123763464Y-81950000D03*
X186000000Y-50000000D03*
X127700000Y-58900000D03*
X185200000Y-63800000D03*
X136180000Y-76630000D03*
X179000000Y-70000000D03*
X147900000Y-58700000D03*
X103450000Y-61900000D03*
X140000000Y-46000000D03*
X134563464Y-80350000D03*
X166000000Y-65000000D03*
X120800000Y-62800000D03*
X127250000Y-79250000D03*
X120700000Y-53800000D03*
X120700000Y-57800000D03*
X156000000Y-66000000D03*
X124300000Y-53800000D03*
X141763464Y-85950000D03*
X104450000Y-60900000D03*
X170200000Y-80350000D03*
X130560000Y-75550000D03*
X116800000Y-62800000D03*
X139763464Y-85950000D03*
X122500000Y-84000000D03*
X132000000Y-50000000D03*
X114400000Y-62800000D03*
X138000000Y-57500000D03*
X177000000Y-74000000D03*
X129763464Y-85950000D03*
X177600000Y-61800000D03*
X150000000Y-64000000D03*
X119000000Y-50000000D03*
X180800000Y-56900000D03*
X155900000Y-58700000D03*
X184963464Y-73350000D03*
X175000000Y-67000000D03*
X157830000Y-80350000D03*
X160000000Y-64000000D03*
X110700000Y-58500000D03*
X108900000Y-58900000D03*
X130000000Y-69000000D03*
X147100000Y-62500000D03*
X183363464Y-73350000D03*
X120000000Y-62800000D03*
X147363464Y-80350000D03*
X136963464Y-80350000D03*
X136000000Y-44000000D03*
X123763464Y-85950000D03*
X166163464Y-75350000D03*
X125525000Y-73000000D03*
X127763464Y-83950000D03*
X100000000Y-52000000D03*
X170000000Y-46000000D03*
X162163464Y-75350000D03*
X141763464Y-83950000D03*
X179200000Y-56900000D03*
X177363464Y-75350000D03*
X166000000Y-48000000D03*
X168763464Y-85950000D03*
X151000000Y-53000000D03*
X134000000Y-52000000D03*
X124300000Y-48200000D03*
X130000000Y-52000000D03*
X172563464Y-80350000D03*
X151763464Y-81950000D03*
X154250000Y-75350000D03*
X184000000Y-44000000D03*
X119000000Y-54000000D03*
X130900000Y-58900000D03*
X138000000Y-68000000D03*
X165030000Y-80350000D03*
X158000000Y-68000000D03*
X154000000Y-68000000D03*
X171000000Y-63000000D03*
X172000000Y-71000000D03*
X181600000Y-56900000D03*
X146000000Y-86000000D03*
X149500000Y-61600000D03*
X158600000Y-62900000D03*
X150563464Y-80350000D03*
X169000000Y-63000000D03*
X154300000Y-58700000D03*
X149000000Y-53000000D03*
X171000000Y-68000000D03*
X111800000Y-62400000D03*
X116700000Y-58900000D03*
X148000000Y-44000000D03*
X114300000Y-58900000D03*
X124300000Y-50600000D03*
X179000000Y-72000000D03*
X136550000Y-62425000D03*
X156000000Y-44000000D03*
X136000000Y-64000000D03*
X167000000Y-74000000D03*
X179200000Y-61800000D03*
X144963464Y-80350000D03*
X181600000Y-61800000D03*
X121600000Y-62800000D03*
X113500000Y-58900000D03*
X127000000Y-42800000D03*
X166000000Y-46000000D03*
X168563464Y-75350000D03*
X165990000Y-58080000D03*
X152000000Y-70000000D03*
X120700000Y-57100000D03*
X125525000Y-74000000D03*
X162963464Y-75350000D03*
X105000000Y-78000000D03*
X148600000Y-75350000D03*
X122250000Y-86000000D03*
X147000000Y-53000000D03*
X173000000Y-72000000D03*
X120700000Y-48200000D03*
X148000000Y-68000000D03*
X159000000Y-53000000D03*
X144700000Y-62500000D03*
X124300000Y-57800000D03*
X114000000Y-44000000D03*
X138200000Y-62400000D03*
X178000000Y-44000000D03*
X156700000Y-61600000D03*
X175000000Y-72000000D03*
X134900000Y-58900000D03*
X132000000Y-68000000D03*
X127763464Y-85950000D03*
X149500000Y-58700000D03*
X168800000Y-61800000D03*
X144000000Y-68000000D03*
X133763464Y-81950000D03*
X137800000Y-55375000D03*
X145363464Y-75350000D03*
X163400000Y-62900000D03*
X145500000Y-62500000D03*
X186800000Y-54800000D03*
X142000000Y-48000000D03*
X135763464Y-83950000D03*
X112800000Y-62800000D03*
X146563464Y-80350000D03*
X153000000Y-55000000D03*
%TO.N,+5V*%
X139358464Y-72150000D03*
X138158464Y-71450000D03*
D16*
X123500000Y-74750000D03*
X122507002Y-76000000D03*
X122507002Y-74250000D03*
D15*
X138150000Y-72530000D03*
%TO.N,/RadarTx/VCO_Tune*%
X110300000Y-57550000D03*
%TO.N,+3V3*%
X141200000Y-52800000D03*
X142200000Y-52800000D03*
D16*
%TO.N,/RadarRx/IF_OUT*%
X156950000Y-73950000D03*
D15*
%TO.N,+10V*%
X116200000Y-54100000D03*
%TD*%
%TA.AperFunction,Conductor*%
%TO.N,GND*%
G36*
X142554695Y-60588605D02*
G01*
X142611518Y-60605289D01*
X142611522Y-60605290D01*
X142634566Y-60615813D01*
X142684403Y-60647841D01*
X142703548Y-60664431D01*
X142742342Y-60709202D01*
X142756036Y-60730510D01*
X142780645Y-60784393D01*
X142787783Y-60808702D01*
X142796212Y-60867334D01*
X142796212Y-60892664D01*
X142787783Y-60951296D01*
X142780646Y-60975602D01*
X142772994Y-60992360D01*
X142756036Y-61029491D01*
X142742340Y-61050801D01*
X142703552Y-61095564D01*
X142684408Y-61112152D01*
X142634569Y-61144182D01*
X142611527Y-61154706D01*
X142554692Y-61171395D01*
X142529617Y-61175000D01*
X142470381Y-61175000D01*
X142445309Y-61171395D01*
X142421446Y-61164388D01*
X142388470Y-61154706D01*
X142365427Y-61144182D01*
X142315594Y-61112156D01*
X142296450Y-61095568D01*
X142257657Y-61050799D01*
X142243962Y-61029491D01*
X142219352Y-60975601D01*
X142212217Y-60951300D01*
X142203786Y-60892657D01*
X142203786Y-60867339D01*
X142212218Y-60808690D01*
X142219349Y-60784399D01*
X142243961Y-60730508D01*
X142257654Y-60709203D01*
X142296449Y-60664431D01*
X142315590Y-60647844D01*
X142365433Y-60615811D01*
X142388467Y-60605292D01*
X142445308Y-60588603D01*
X142470377Y-60585000D01*
X142529622Y-60585000D01*
X142554695Y-60588605D01*
G37*
%TD.AperFunction*%
%TA.AperFunction,Conductor*%
G36*
X187667708Y-42021322D02*
G01*
X187698148Y-42074045D01*
X187699500Y-42089500D01*
X187699500Y-88910500D01*
X187678678Y-88967708D01*
X187625955Y-88998148D01*
X187610500Y-88999500D01*
X98089500Y-88999500D01*
X98032292Y-88978678D01*
X98001852Y-88925955D01*
X98000500Y-88910500D01*
X98000500Y-83300003D01*
X156767881Y-83300003D01*
X156788162Y-83505926D01*
X156788164Y-83505934D01*
X156848230Y-83703950D01*
X156848231Y-83703953D01*
X156848232Y-83703954D01*
X156945779Y-83886450D01*
X157077054Y-84046410D01*
X157237014Y-84177685D01*
X157419510Y-84275232D01*
X157617530Y-84335300D01*
X157617534Y-84335300D01*
X157617537Y-84335301D01*
X157823460Y-84355583D01*
X157823464Y-84355583D01*
X157823468Y-84355583D01*
X158029390Y-84335301D01*
X158029391Y-84335300D01*
X158029398Y-84335300D01*
X158227418Y-84275232D01*
X158409914Y-84177685D01*
X158569874Y-84046410D01*
X158701149Y-83886450D01*
X158798696Y-83703954D01*
X158858764Y-83505934D01*
X158879047Y-83300003D01*
X159307881Y-83300003D01*
X159328162Y-83505926D01*
X159328164Y-83505934D01*
X159388230Y-83703950D01*
X159388231Y-83703953D01*
X159388232Y-83703954D01*
X159485779Y-83886450D01*
X159617054Y-84046410D01*
X159777014Y-84177685D01*
X159959510Y-84275232D01*
X160157530Y-84335300D01*
X160157534Y-84335300D01*
X160157537Y-84335301D01*
X160363460Y-84355583D01*
X160363464Y-84355583D01*
X160363468Y-84355583D01*
X160569390Y-84335301D01*
X160569391Y-84335300D01*
X160569398Y-84335300D01*
X160767418Y-84275232D01*
X160949914Y-84177685D01*
X160959580Y-84169752D01*
X164392964Y-84169752D01*
X164404596Y-84228231D01*
X164436003Y-84275233D01*
X164448912Y-84294552D01*
X164448915Y-84294554D01*
X164515232Y-84338867D01*
X164572154Y-84350189D01*
X164573716Y-84350500D01*
X164573720Y-84350500D01*
X166313208Y-84350500D01*
X166313212Y-84350500D01*
X166371695Y-84338867D01*
X166438016Y-84294552D01*
X166482331Y-84228231D01*
X166493964Y-84169748D01*
X166493964Y-82430252D01*
X166482331Y-82371769D01*
X166482331Y-82371768D01*
X166438018Y-82305451D01*
X166438016Y-82305448D01*
X166438012Y-82305445D01*
X166371695Y-82261132D01*
X166313216Y-82249500D01*
X166313212Y-82249500D01*
X164573716Y-82249500D01*
X164573711Y-82249500D01*
X164515232Y-82261132D01*
X164448915Y-82305445D01*
X164448909Y-82305451D01*
X164404596Y-82371768D01*
X164392964Y-82430247D01*
X164392964Y-84169752D01*
X160959580Y-84169752D01*
X161109874Y-84046410D01*
X161241149Y-83886450D01*
X161338696Y-83703954D01*
X161398764Y-83505934D01*
X161419047Y-83300000D01*
X161398764Y-83094066D01*
X161338696Y-82896046D01*
X161241149Y-82713550D01*
X161109874Y-82553590D01*
X160949914Y-82422315D01*
X160767418Y-82324768D01*
X160767417Y-82324767D01*
X160767414Y-82324766D01*
X160569398Y-82264700D01*
X160569390Y-82264698D01*
X160363468Y-82244417D01*
X160363460Y-82244417D01*
X160157537Y-82264698D01*
X160157529Y-82264700D01*
X159959513Y-82324766D01*
X159777012Y-82422316D01*
X159617058Y-82553586D01*
X159617050Y-82553594D01*
X159485780Y-82713548D01*
X159388230Y-82896049D01*
X159328164Y-83094065D01*
X159328162Y-83094073D01*
X159307881Y-83299996D01*
X159307881Y-83300003D01*
X158879047Y-83300003D01*
X158879047Y-83300000D01*
X158858764Y-83094066D01*
X158798696Y-82896046D01*
X158701149Y-82713550D01*
X158569874Y-82553590D01*
X158409914Y-82422315D01*
X158227418Y-82324768D01*
X158227417Y-82324767D01*
X158227414Y-82324766D01*
X158029398Y-82264700D01*
X158029390Y-82264698D01*
X157823468Y-82244417D01*
X157823460Y-82244417D01*
X157617537Y-82264698D01*
X157617529Y-82264700D01*
X157419513Y-82324766D01*
X157237012Y-82422316D01*
X157077058Y-82553586D01*
X157077050Y-82553594D01*
X156945780Y-82713548D01*
X156848230Y-82896049D01*
X156788164Y-83094065D01*
X156788162Y-83094073D01*
X156767881Y-83299996D01*
X156767881Y-83300003D01*
X98000500Y-83300003D01*
X98000500Y-75960003D01*
X101514417Y-75960003D01*
X101534698Y-76165926D01*
X101534700Y-76165934D01*
X101594766Y-76363950D01*
X101594767Y-76363953D01*
X101594768Y-76363954D01*
X101692315Y-76546450D01*
X101823590Y-76706410D01*
X101983550Y-76837685D01*
X102166046Y-76935232D01*
X102364066Y-76995300D01*
X102364070Y-76995300D01*
X102364073Y-76995301D01*
X102569996Y-77015583D01*
X102570000Y-77015583D01*
X102570004Y-77015583D01*
X102775926Y-76995301D01*
X102775927Y-76995300D01*
X102775934Y-76995300D01*
X102973954Y-76935232D01*
X103156450Y-76837685D01*
X103316410Y-76706410D01*
X103447685Y-76546450D01*
X103545232Y-76363954D01*
X103605300Y-76165934D01*
X103625583Y-75960000D01*
X103609282Y-75794500D01*
X103605301Y-75754073D01*
X103605300Y-75754070D01*
X103605300Y-75754066D01*
X103545232Y-75556046D01*
X103447685Y-75373550D01*
X103316410Y-75213590D01*
X103313264Y-75211008D01*
X117394500Y-75211008D01*
X117395281Y-75228908D01*
X117396632Y-75244355D01*
X117396635Y-75244367D01*
X117423383Y-75329206D01*
X117453823Y-75381929D01*
X117484680Y-75422665D01*
X117484681Y-75422666D01*
X117561507Y-75472285D01*
X117561510Y-75472286D01*
X117561512Y-75472287D01*
X117609137Y-75489621D01*
X117618715Y-75493107D01*
X117689000Y-75505500D01*
X119205499Y-75505500D01*
X119262707Y-75526322D01*
X119293147Y-75579045D01*
X119294499Y-75594500D01*
X119294499Y-76211008D01*
X119295281Y-76228908D01*
X119296632Y-76244355D01*
X119296635Y-76244367D01*
X119323383Y-76329206D01*
X119353823Y-76381929D01*
X119384680Y-76422665D01*
X119384681Y-76422666D01*
X119461507Y-76472285D01*
X119518715Y-76493107D01*
X119589000Y-76505500D01*
X122149142Y-76505500D01*
X122198705Y-76522324D01*
X122199112Y-76521620D01*
X122202654Y-76523665D01*
X122203321Y-76523891D01*
X122204161Y-76524536D01*
X122204166Y-76524538D01*
X122350235Y-76585042D01*
X122350240Y-76585044D01*
X122507002Y-76605682D01*
X122663764Y-76585044D01*
X122809843Y-76524536D01*
X122810682Y-76523891D01*
X122811349Y-76523665D01*
X122814892Y-76521620D01*
X122815298Y-76522324D01*
X122864862Y-76505500D01*
X122911008Y-76505500D01*
X122926919Y-76504804D01*
X122928909Y-76504718D01*
X122933409Y-76504324D01*
X122944355Y-76503367D01*
X122944356Y-76503366D01*
X122944364Y-76503366D01*
X123029206Y-76476616D01*
X123081929Y-76446176D01*
X123122666Y-76415319D01*
X123172285Y-76338493D01*
X123193107Y-76281285D01*
X123205500Y-76211000D01*
X123205500Y-75794500D01*
X123226322Y-75737292D01*
X123279045Y-75706852D01*
X123294500Y-75705500D01*
X129984434Y-75705500D01*
X129985043Y-75705495D01*
X129987697Y-75705474D01*
X129990521Y-75705429D01*
X130063624Y-75690734D01*
X130120143Y-75668107D01*
X130164858Y-75643361D01*
X130224905Y-75574379D01*
X130253656Y-75520717D01*
X130263870Y-75489614D01*
X130267456Y-75480444D01*
X130303964Y-75400502D01*
X130317655Y-75379201D01*
X130322554Y-75373548D01*
X130342912Y-75350053D01*
X130356450Y-75334430D01*
X130375590Y-75317844D01*
X130425433Y-75285811D01*
X130448467Y-75275292D01*
X130505308Y-75258603D01*
X130530377Y-75255000D01*
X130589622Y-75255000D01*
X130614695Y-75258605D01*
X130671518Y-75275289D01*
X130671522Y-75275290D01*
X130694566Y-75285813D01*
X130780030Y-75340737D01*
X130780030Y-75340736D01*
X130801564Y-75354575D01*
X130809439Y-75355643D01*
X130811931Y-75357003D01*
X130829940Y-75367215D01*
X130829942Y-75367216D01*
X130887475Y-75387127D01*
X130937465Y-75397704D01*
X130937470Y-75397705D01*
X131028024Y-75384893D01*
X131084894Y-75363165D01*
X131085042Y-75363076D01*
X131093227Y-75358175D01*
X131102005Y-75356481D01*
X131126504Y-75340736D01*
X131126505Y-75340737D01*
X131211969Y-75285811D01*
X131235003Y-75275292D01*
X131291844Y-75258603D01*
X131316913Y-75255000D01*
X131376158Y-75255000D01*
X131401231Y-75258605D01*
X131458054Y-75275289D01*
X131458058Y-75275290D01*
X131481102Y-75285813D01*
X131571918Y-75344177D01*
X131613257Y-75364595D01*
X131613261Y-75364595D01*
X131614678Y-75365019D01*
X131630665Y-75368722D01*
X131667438Y-75381454D01*
X131717435Y-75392039D01*
X131807991Y-75379238D01*
X131855448Y-75361113D01*
X131855447Y-75361112D01*
X131881281Y-75351246D01*
X131883852Y-75348593D01*
X131892492Y-75344944D01*
X131894619Y-75344176D01*
X131985429Y-75285814D01*
X132008464Y-75275295D01*
X132065306Y-75258604D01*
X132090380Y-75255000D01*
X132149622Y-75255000D01*
X132174695Y-75258605D01*
X132231518Y-75275289D01*
X132231522Y-75275290D01*
X132254566Y-75285813D01*
X132321700Y-75328957D01*
X132330786Y-75335647D01*
X132342188Y-75345214D01*
X132342199Y-75345223D01*
X132342203Y-75345226D01*
X132351683Y-75352717D01*
X132351684Y-75352717D01*
X132351685Y-75352718D01*
X132435385Y-75389577D01*
X132495164Y-75401100D01*
X132546161Y-75404458D01*
X132633971Y-75378893D01*
X132672465Y-75357475D01*
X132674406Y-75357165D01*
X132680943Y-75352964D01*
X132685806Y-75350053D01*
X132688780Y-75348399D01*
X132688786Y-75348396D01*
X132690536Y-75347422D01*
X132690548Y-75347414D01*
X132707391Y-75338043D01*
X132710164Y-75334214D01*
X132711885Y-75333079D01*
X132785433Y-75285811D01*
X132808473Y-75275291D01*
X132808477Y-75275290D01*
X132821559Y-75271449D01*
X132865305Y-75258605D01*
X132890377Y-75255000D01*
X132949622Y-75255000D01*
X132974694Y-75258604D01*
X133031647Y-75275327D01*
X133053795Y-75285283D01*
X133055930Y-75286619D01*
X133059546Y-75288823D01*
X133130814Y-75315727D01*
X133190769Y-75326299D01*
X133241813Y-75328846D01*
X133329206Y-75301889D01*
X133381929Y-75271449D01*
X133422666Y-75240592D01*
X133472285Y-75163766D01*
X133493107Y-75106558D01*
X133505500Y-75036273D01*
X133505500Y-73950000D01*
X156344318Y-73950000D01*
X156362049Y-74084684D01*
X156364957Y-74106767D01*
X156425463Y-74252841D01*
X156425465Y-74252843D01*
X156495694Y-74344367D01*
X156521718Y-74378282D01*
X156521722Y-74378285D01*
X156521723Y-74378286D01*
X156647156Y-74474534D01*
X156647158Y-74474536D01*
X156793233Y-74535042D01*
X156793238Y-74535044D01*
X156950000Y-74555682D01*
X157106762Y-74535044D01*
X157252841Y-74474536D01*
X157378282Y-74378282D01*
X157474536Y-74252841D01*
X157513738Y-74158199D01*
X157535042Y-74106767D01*
X157535042Y-74106766D01*
X157535044Y-74106762D01*
X157555682Y-73950000D01*
X157535044Y-73793238D01*
X157506971Y-73725465D01*
X157474536Y-73647158D01*
X157474534Y-73647156D01*
X157378286Y-73521723D01*
X157378285Y-73521722D01*
X157378282Y-73521718D01*
X157378277Y-73521714D01*
X157378276Y-73521713D01*
X157252843Y-73425465D01*
X157252841Y-73425463D01*
X157106766Y-73364957D01*
X157106767Y-73364957D01*
X157106763Y-73364956D01*
X157106762Y-73364956D01*
X156950000Y-73344318D01*
X156793238Y-73364956D01*
X156793237Y-73364956D01*
X156793232Y-73364957D01*
X156647158Y-73425463D01*
X156647156Y-73425465D01*
X156521723Y-73521713D01*
X156521713Y-73521723D01*
X156425465Y-73647156D01*
X156425463Y-73647158D01*
X156364957Y-73793232D01*
X156364956Y-73793237D01*
X156364956Y-73793238D01*
X156344318Y-73950000D01*
X133505500Y-73950000D01*
X133505500Y-73294500D01*
X133526322Y-73237292D01*
X133579045Y-73206852D01*
X133594500Y-73205500D01*
X140091008Y-73205500D01*
X140106919Y-73204804D01*
X140108909Y-73204718D01*
X140113409Y-73204324D01*
X140124355Y-73203367D01*
X140124356Y-73203366D01*
X140124364Y-73203366D01*
X140209206Y-73176616D01*
X140261929Y-73146176D01*
X140302666Y-73115319D01*
X140352285Y-73038493D01*
X140373107Y-72981285D01*
X140385500Y-72911000D01*
X140385500Y-71089000D01*
X140384718Y-71071091D01*
X140383366Y-71055636D01*
X140356616Y-70970794D01*
X140356616Y-70970793D01*
X140326176Y-70918070D01*
X140295319Y-70877334D01*
X140295315Y-70877331D01*
X140218500Y-70827719D01*
X140218487Y-70827712D01*
X140161295Y-70806896D01*
X140161285Y-70806893D01*
X140091003Y-70794500D01*
X140091000Y-70794500D01*
X130689000Y-70794500D01*
X130688992Y-70794500D01*
X130671091Y-70795281D01*
X130655644Y-70796632D01*
X130655632Y-70796635D01*
X130570793Y-70823383D01*
X130518070Y-70853823D01*
X130477334Y-70884680D01*
X130477331Y-70884684D01*
X130427719Y-70961499D01*
X130427712Y-70961512D01*
X130406896Y-71018704D01*
X130406893Y-71018714D01*
X130394500Y-71088996D01*
X130394500Y-73975388D01*
X130373678Y-74032596D01*
X130353449Y-74050368D01*
X130348045Y-74053824D01*
X130331373Y-74064485D01*
X130331372Y-74064486D01*
X130331371Y-74064486D01*
X130288670Y-74107869D01*
X130288667Y-74107872D01*
X130259767Y-74149850D01*
X130253723Y-74157662D01*
X130203550Y-74215565D01*
X130184405Y-74232154D01*
X130134569Y-74264182D01*
X130111527Y-74274706D01*
X130054692Y-74291395D01*
X130029617Y-74295000D01*
X129970381Y-74295000D01*
X129945309Y-74291395D01*
X129921446Y-74284388D01*
X129888470Y-74274706D01*
X129865427Y-74264182D01*
X129815594Y-74232156D01*
X129796449Y-74215568D01*
X129751836Y-74164082D01*
X129742738Y-74151517D01*
X129728405Y-74127577D01*
X129713406Y-74107869D01*
X129704655Y-74096370D01*
X129688237Y-74077334D01*
X129611411Y-74027715D01*
X129611409Y-74027714D01*
X129611405Y-74027712D01*
X129554213Y-74006896D01*
X129554203Y-74006893D01*
X129483921Y-73994500D01*
X129483918Y-73994500D01*
X126041082Y-73994500D01*
X126041075Y-73994500D01*
X125995804Y-73999550D01*
X125995801Y-73999550D01*
X125957562Y-74008188D01*
X125957561Y-74008188D01*
X125933420Y-74015217D01*
X125856376Y-74064482D01*
X125856373Y-74064484D01*
X125813670Y-74107869D01*
X125813667Y-74107872D01*
X125784767Y-74149850D01*
X125778723Y-74157662D01*
X125728550Y-74215565D01*
X125709405Y-74232154D01*
X125659569Y-74264182D01*
X125636527Y-74274706D01*
X125579692Y-74291395D01*
X125554617Y-74295000D01*
X125495381Y-74295000D01*
X125470309Y-74291395D01*
X125446446Y-74284388D01*
X125413470Y-74274706D01*
X125390427Y-74264182D01*
X125340594Y-74232156D01*
X125321449Y-74215568D01*
X125276836Y-74164082D01*
X125267738Y-74151517D01*
X125253405Y-74127577D01*
X125238406Y-74107869D01*
X125229655Y-74096370D01*
X125213237Y-74077334D01*
X125136411Y-74027715D01*
X125136409Y-74027714D01*
X125136405Y-74027712D01*
X125079213Y-74006896D01*
X125079203Y-74006893D01*
X125008921Y-73994500D01*
X125008918Y-73994500D01*
X123110255Y-73994500D01*
X123053047Y-73973678D01*
X123033179Y-73950000D01*
X123031538Y-73947158D01*
X122935288Y-73821723D01*
X122935287Y-73821722D01*
X122935284Y-73821718D01*
X122935279Y-73821714D01*
X122935278Y-73821713D01*
X122809845Y-73725465D01*
X122809843Y-73725463D01*
X122663768Y-73664957D01*
X122663769Y-73664957D01*
X122663765Y-73664956D01*
X122663764Y-73664956D01*
X122507002Y-73644318D01*
X122350240Y-73664956D01*
X122350239Y-73664956D01*
X122350234Y-73664957D01*
X122204160Y-73725463D01*
X122204158Y-73725465D01*
X122078725Y-73821713D01*
X122078715Y-73821723D01*
X121982465Y-73947158D01*
X121980825Y-73950000D01*
X121979309Y-73951271D01*
X121978914Y-73951787D01*
X121978799Y-73951699D01*
X121934189Y-73989133D01*
X121903749Y-73994500D01*
X117688992Y-73994500D01*
X117671091Y-73995281D01*
X117655644Y-73996632D01*
X117655632Y-73996635D01*
X117570793Y-74023383D01*
X117518070Y-74053823D01*
X117477334Y-74084680D01*
X117477331Y-74084684D01*
X117427719Y-74161499D01*
X117427712Y-74161512D01*
X117406896Y-74218704D01*
X117406893Y-74218714D01*
X117394500Y-74288996D01*
X117394500Y-75211008D01*
X103313264Y-75211008D01*
X103156450Y-75082315D01*
X102973954Y-74984768D01*
X102973953Y-74984767D01*
X102973950Y-74984766D01*
X102775934Y-74924700D01*
X102775926Y-74924698D01*
X102570004Y-74904417D01*
X102569996Y-74904417D01*
X102364073Y-74924698D01*
X102364065Y-74924700D01*
X102166049Y-74984766D01*
X101983548Y-75082316D01*
X101823594Y-75213586D01*
X101823586Y-75213594D01*
X101692316Y-75373548D01*
X101594766Y-75556049D01*
X101534700Y-75754065D01*
X101534698Y-75754073D01*
X101514417Y-75959996D01*
X101514417Y-75960003D01*
X98000500Y-75960003D01*
X98000500Y-74311008D01*
X101294500Y-74311008D01*
X101295281Y-74328908D01*
X101296632Y-74344355D01*
X101296635Y-74344367D01*
X101323383Y-74429206D01*
X101353823Y-74481929D01*
X101384680Y-74522665D01*
X101384681Y-74522666D01*
X101461507Y-74572285D01*
X101518715Y-74593107D01*
X101589000Y-74605500D01*
X101589002Y-74605500D01*
X109811008Y-74605500D01*
X109826919Y-74604804D01*
X109828909Y-74604718D01*
X109833409Y-74604324D01*
X109844355Y-74603367D01*
X109844356Y-74603366D01*
X109844364Y-74603366D01*
X109929206Y-74576616D01*
X109981929Y-74546176D01*
X110022666Y-74515319D01*
X110072285Y-74438493D01*
X110093107Y-74381285D01*
X110105500Y-74311000D01*
X110105500Y-67394500D01*
X110126322Y-67337292D01*
X110179045Y-67306852D01*
X110194500Y-67305500D01*
X144011008Y-67305500D01*
X144026919Y-67304804D01*
X144028909Y-67304718D01*
X144033409Y-67304324D01*
X144044355Y-67303367D01*
X144044356Y-67303366D01*
X144044364Y-67303366D01*
X144129206Y-67276616D01*
X144181929Y-67246176D01*
X144222666Y-67215319D01*
X144272285Y-67138493D01*
X144293107Y-67081285D01*
X144305500Y-67011000D01*
X144305500Y-66589500D01*
X144304718Y-66571591D01*
X144303366Y-66556136D01*
X144276616Y-66471294D01*
X144276616Y-66471293D01*
X144246176Y-66418570D01*
X144215319Y-66377834D01*
X144215315Y-66377831D01*
X144138500Y-66328219D01*
X144138487Y-66328212D01*
X144081295Y-66307396D01*
X144081285Y-66307393D01*
X144011003Y-66295000D01*
X144011000Y-66295000D01*
X143970381Y-66295000D01*
X143945309Y-66291395D01*
X143921446Y-66284388D01*
X143888470Y-66274706D01*
X143865427Y-66264182D01*
X143815594Y-66232156D01*
X143796450Y-66215568D01*
X143757657Y-66170799D01*
X143743962Y-66149491D01*
X143719352Y-66095601D01*
X143712217Y-66071300D01*
X143703786Y-66012657D01*
X143703786Y-65987339D01*
X143712218Y-65928690D01*
X143719349Y-65904399D01*
X143743961Y-65850508D01*
X143757654Y-65829203D01*
X143796449Y-65784431D01*
X143815590Y-65767844D01*
X143865433Y-65735811D01*
X143888467Y-65725292D01*
X143945308Y-65708603D01*
X143970377Y-65705000D01*
X144011008Y-65705000D01*
X144026919Y-65704304D01*
X144028909Y-65704218D01*
X144033409Y-65703824D01*
X144044355Y-65702867D01*
X144044356Y-65702866D01*
X144044364Y-65702866D01*
X144129206Y-65676116D01*
X144181929Y-65645676D01*
X144222666Y-65614819D01*
X144272285Y-65537993D01*
X144293107Y-65480785D01*
X144305500Y-65410500D01*
X144305500Y-64589500D01*
X144304718Y-64571591D01*
X144303366Y-64556136D01*
X144276616Y-64471294D01*
X144276616Y-64471293D01*
X144246176Y-64418570D01*
X144215319Y-64377834D01*
X144215315Y-64377831D01*
X144138500Y-64328219D01*
X144138487Y-64328212D01*
X144081295Y-64307396D01*
X144081285Y-64307393D01*
X144011003Y-64295000D01*
X144011000Y-64295000D01*
X143970381Y-64295000D01*
X143945309Y-64291395D01*
X143921446Y-64284388D01*
X143888470Y-64274706D01*
X143865427Y-64264182D01*
X143815594Y-64232156D01*
X143796450Y-64215568D01*
X143757657Y-64170799D01*
X143743962Y-64149491D01*
X143719352Y-64095601D01*
X143712217Y-64071300D01*
X143703786Y-64012657D01*
X143703786Y-63987339D01*
X143712218Y-63928690D01*
X143719349Y-63904399D01*
X143743961Y-63850508D01*
X143757654Y-63829203D01*
X143796449Y-63784431D01*
X143815590Y-63767844D01*
X143865433Y-63735811D01*
X143888467Y-63725292D01*
X143945308Y-63708603D01*
X143970377Y-63705000D01*
X144011008Y-63705000D01*
X144026919Y-63704304D01*
X144028909Y-63704218D01*
X144033409Y-63703824D01*
X144044355Y-63702867D01*
X144044356Y-63702866D01*
X144044364Y-63702866D01*
X144129206Y-63676116D01*
X144181929Y-63645676D01*
X144222666Y-63614819D01*
X144272285Y-63537993D01*
X144293107Y-63480785D01*
X144305500Y-63410500D01*
X144305500Y-63081794D01*
X144300085Y-63034930D01*
X144290828Y-62995407D01*
X144283040Y-62969799D01*
X144232552Y-62893542D01*
X144188491Y-62851531D01*
X144188486Y-62851527D01*
X144188486Y-62851526D01*
X144147404Y-62821136D01*
X144147402Y-62821135D01*
X144059713Y-62795173D01*
X143998956Y-62791313D01*
X143998954Y-62791313D01*
X143970808Y-62794452D01*
X143960945Y-62795000D01*
X143870381Y-62795000D01*
X143845309Y-62791395D01*
X143821446Y-62784388D01*
X143788470Y-62774706D01*
X143765427Y-62764182D01*
X143715594Y-62732156D01*
X143696450Y-62715568D01*
X143657657Y-62670799D01*
X143643962Y-62649491D01*
X143619352Y-62595601D01*
X143612217Y-62571300D01*
X143603786Y-62512657D01*
X143603786Y-62487339D01*
X143612218Y-62428690D01*
X143619349Y-62404399D01*
X143643961Y-62350508D01*
X143657654Y-62329203D01*
X143696449Y-62284431D01*
X143715590Y-62267844D01*
X143765433Y-62235811D01*
X143788467Y-62225292D01*
X143845308Y-62208603D01*
X143870377Y-62205000D01*
X143944948Y-62205000D01*
X143960050Y-62206291D01*
X143962924Y-62206785D01*
X143974528Y-62208784D01*
X144015053Y-62211036D01*
X144041813Y-62210778D01*
X144129206Y-62183821D01*
X144181929Y-62153381D01*
X144222666Y-62122524D01*
X144272285Y-62045698D01*
X144293107Y-61988490D01*
X144305500Y-61918205D01*
X144305500Y-61445640D01*
X144304976Y-61430978D01*
X144304729Y-61427525D01*
X144304072Y-61418332D01*
X144304070Y-61418312D01*
X144303124Y-61409513D01*
X144303124Y-61390488D01*
X144303463Y-61387334D01*
X144304070Y-61381686D01*
X144304976Y-61369020D01*
X144305500Y-61354358D01*
X144305500Y-52189000D01*
X144304718Y-52171091D01*
X144303366Y-52155636D01*
X144276616Y-52070794D01*
X144276616Y-52070793D01*
X144246176Y-52018070D01*
X144215319Y-51977334D01*
X144215315Y-51977331D01*
X144138500Y-51927719D01*
X144138487Y-51927712D01*
X144081295Y-51906896D01*
X144081285Y-51906893D01*
X144011003Y-51894500D01*
X144011000Y-51894500D01*
X140689000Y-51894500D01*
X140688992Y-51894500D01*
X140671091Y-51895281D01*
X140655644Y-51896632D01*
X140655632Y-51896635D01*
X140570793Y-51923383D01*
X140518070Y-51953823D01*
X140477334Y-51984680D01*
X140477331Y-51984684D01*
X140427719Y-52061499D01*
X140427712Y-52061512D01*
X140406896Y-52118704D01*
X140406893Y-52118714D01*
X140394500Y-52188996D01*
X140394500Y-60812079D01*
X140394524Y-60815221D01*
X140394567Y-60817988D01*
X140394567Y-60817990D01*
X140403882Y-60864446D01*
X140407001Y-60879999D01*
X140409227Y-60891101D01*
X140431827Y-60947631D01*
X140456554Y-60992360D01*
X140525508Y-61052439D01*
X140525509Y-61052439D01*
X140525512Y-61052442D01*
X140586111Y-61084946D01*
X140586115Y-61084948D01*
X140594143Y-61089254D01*
X140597189Y-61089424D01*
X140605594Y-61093559D01*
X140607960Y-61094883D01*
X140607962Y-61094884D01*
X140711522Y-61125290D01*
X140734566Y-61135813D01*
X140784403Y-61167841D01*
X140803548Y-61184431D01*
X140842342Y-61229202D01*
X140856036Y-61250510D01*
X140880645Y-61304393D01*
X140887783Y-61328702D01*
X140896212Y-61387334D01*
X140896212Y-61412664D01*
X140887783Y-61471296D01*
X140880646Y-61495604D01*
X140856036Y-61549491D01*
X140842340Y-61570801D01*
X140803552Y-61615564D01*
X140784408Y-61632152D01*
X140734569Y-61664182D01*
X140711527Y-61674706D01*
X140607954Y-61705118D01*
X140565587Y-61722913D01*
X140565581Y-61722917D01*
X140565042Y-61723404D01*
X140549941Y-61734386D01*
X140518069Y-61752790D01*
X140477333Y-61783647D01*
X140477331Y-61783648D01*
X140427719Y-61860464D01*
X140427712Y-61860477D01*
X140406896Y-61917669D01*
X140406893Y-61917679D01*
X140394500Y-61987961D01*
X140394500Y-65005500D01*
X140373678Y-65062708D01*
X140320955Y-65093148D01*
X140305500Y-65094500D01*
X123982755Y-65094500D01*
X123979538Y-65094525D01*
X123976668Y-65094571D01*
X123903562Y-65109266D01*
X123847055Y-65131888D01*
X123847051Y-65131890D01*
X123847049Y-65131891D01*
X123807418Y-65153823D01*
X123802333Y-65156637D01*
X123802330Y-65156639D01*
X123742284Y-65225619D01*
X123742282Y-65225621D01*
X123713535Y-65279276D01*
X123713532Y-65279281D01*
X123691266Y-65347078D01*
X123691263Y-65347091D01*
X123687783Y-65371298D01*
X123680646Y-65395604D01*
X123656036Y-65449491D01*
X123642340Y-65470801D01*
X123603552Y-65515564D01*
X123584408Y-65532152D01*
X123534569Y-65564182D01*
X123511527Y-65574706D01*
X123454692Y-65591395D01*
X123429617Y-65595000D01*
X123370381Y-65595000D01*
X123345309Y-65591395D01*
X123321446Y-65584388D01*
X123288470Y-65574706D01*
X123265427Y-65564182D01*
X123215594Y-65532156D01*
X123196450Y-65515568D01*
X123157657Y-65470799D01*
X123143963Y-65449493D01*
X123119350Y-65395598D01*
X123112217Y-65371303D01*
X123108737Y-65347091D01*
X123108250Y-65343884D01*
X123107804Y-65341095D01*
X123082850Y-65270794D01*
X123077491Y-65261512D01*
X123052410Y-65218070D01*
X123021553Y-65177334D01*
X123021549Y-65177331D01*
X122944734Y-65127719D01*
X122944721Y-65127712D01*
X122887529Y-65106896D01*
X122887519Y-65106893D01*
X122817237Y-65094500D01*
X122817234Y-65094500D01*
X107689000Y-65094500D01*
X107688992Y-65094500D01*
X107671091Y-65095281D01*
X107655644Y-65096632D01*
X107655632Y-65096635D01*
X107570793Y-65123383D01*
X107518070Y-65153823D01*
X107477334Y-65184680D01*
X107477331Y-65184684D01*
X107427719Y-65261499D01*
X107427712Y-65261512D01*
X107406896Y-65318704D01*
X107406893Y-65318714D01*
X107394500Y-65388996D01*
X107394500Y-72105500D01*
X107373678Y-72162708D01*
X107320955Y-72193148D01*
X107305500Y-72194500D01*
X107034956Y-72194500D01*
X106977748Y-72173678D01*
X106947308Y-72120955D01*
X106957880Y-72061000D01*
X106960194Y-72057213D01*
X106972285Y-72038493D01*
X106993107Y-71981285D01*
X107005500Y-71911000D01*
X107005500Y-70857392D01*
X107005647Y-70855338D01*
X107005647Y-70844675D01*
X107005500Y-70842617D01*
X107005500Y-58945637D01*
X107005421Y-58943434D01*
X107004976Y-58930978D01*
X107004729Y-58927525D01*
X107004072Y-58918332D01*
X107003124Y-58909517D01*
X107003124Y-58890488D01*
X107004070Y-58881686D01*
X107004976Y-58869020D01*
X107005500Y-58854358D01*
X107005500Y-57550000D01*
X109794353Y-57550000D01*
X109814834Y-57692456D01*
X109874621Y-57823371D01*
X109874623Y-57823374D01*
X109960659Y-57922665D01*
X109968872Y-57932143D01*
X110089947Y-58009953D01*
X110228039Y-58050500D01*
X110228042Y-58050500D01*
X110371958Y-58050500D01*
X110371961Y-58050500D01*
X110510053Y-58009953D01*
X110631128Y-57932143D01*
X110725377Y-57823373D01*
X110785165Y-57692457D01*
X110805647Y-57550000D01*
X110785165Y-57407543D01*
X110725378Y-57276628D01*
X110725376Y-57276625D01*
X110631128Y-57167857D01*
X110510053Y-57090047D01*
X110510051Y-57090046D01*
X110510049Y-57090045D01*
X110371962Y-57049500D01*
X110371961Y-57049500D01*
X110228039Y-57049500D01*
X110228037Y-57049500D01*
X110089950Y-57090045D01*
X109968871Y-57167857D01*
X109874623Y-57276625D01*
X109874621Y-57276628D01*
X109814834Y-57407543D01*
X109794353Y-57549999D01*
X109794353Y-57550000D01*
X107005500Y-57550000D01*
X107005500Y-56894500D01*
X107026322Y-56837292D01*
X107079045Y-56806852D01*
X107094500Y-56805500D01*
X120618202Y-56805500D01*
X120628936Y-56805116D01*
X120630607Y-56805056D01*
X120633782Y-56805000D01*
X120766218Y-56805000D01*
X120769392Y-56805056D01*
X120771063Y-56805116D01*
X120781798Y-56805500D01*
X120781805Y-56805500D01*
X124128395Y-56805500D01*
X124128397Y-56805500D01*
X124128403Y-56805499D01*
X124128413Y-56805499D01*
X124135752Y-56804973D01*
X124157642Y-56803408D01*
X124182716Y-56799803D01*
X124211367Y-56793571D01*
X124234995Y-56786633D01*
X124245309Y-56783605D01*
X124270383Y-56780000D01*
X124329617Y-56780000D01*
X124354691Y-56783605D01*
X124375122Y-56789603D01*
X124388633Y-56793571D01*
X124417284Y-56799803D01*
X124442358Y-56803408D01*
X124460613Y-56804713D01*
X124471586Y-56805499D01*
X124471597Y-56805499D01*
X124471603Y-56805500D01*
X124471605Y-56805500D01*
X136511008Y-56805500D01*
X136526919Y-56804804D01*
X136528909Y-56804718D01*
X136533409Y-56804324D01*
X136544355Y-56803367D01*
X136544356Y-56803366D01*
X136544364Y-56803366D01*
X136629206Y-56776616D01*
X136681929Y-56746176D01*
X136722666Y-56715319D01*
X136772285Y-56638493D01*
X136793107Y-56581285D01*
X136805500Y-56511000D01*
X136805500Y-51294500D01*
X136826322Y-51237292D01*
X136879045Y-51206852D01*
X136894500Y-51205500D01*
X167005499Y-51205500D01*
X167062707Y-51226322D01*
X167093147Y-51279045D01*
X167094499Y-51294500D01*
X167094499Y-54411008D01*
X167095281Y-54428908D01*
X167096632Y-54444355D01*
X167096635Y-54444367D01*
X167123383Y-54529206D01*
X167153823Y-54581929D01*
X167184680Y-54622665D01*
X167184681Y-54622666D01*
X167261507Y-54672285D01*
X167318715Y-54693107D01*
X167389000Y-54705500D01*
X167389002Y-54705500D01*
X169911008Y-54705500D01*
X169926919Y-54704804D01*
X169928909Y-54704718D01*
X169933409Y-54704324D01*
X169944355Y-54703367D01*
X169944356Y-54703366D01*
X169944364Y-54703366D01*
X170029206Y-54676616D01*
X170081929Y-54646176D01*
X170122666Y-54615319D01*
X170172285Y-54538493D01*
X170193107Y-54481285D01*
X170205500Y-54411000D01*
X170205500Y-49089000D01*
X170204718Y-49071091D01*
X170203366Y-49055636D01*
X170176616Y-48970794D01*
X170176616Y-48970793D01*
X170146176Y-48918070D01*
X170115319Y-48877334D01*
X170115315Y-48877331D01*
X170038500Y-48827719D01*
X170038487Y-48827712D01*
X169981295Y-48806896D01*
X169981285Y-48806893D01*
X169911003Y-48794500D01*
X169911000Y-48794500D01*
X134789000Y-48794500D01*
X134788992Y-48794500D01*
X134771091Y-48795281D01*
X134755644Y-48796632D01*
X134755632Y-48796635D01*
X134670793Y-48823383D01*
X134618070Y-48853823D01*
X134577334Y-48884680D01*
X134577331Y-48884684D01*
X134527719Y-48961499D01*
X134527712Y-48961512D01*
X134506896Y-49018704D01*
X134506893Y-49018714D01*
X134494500Y-49088996D01*
X134494500Y-54905500D01*
X134473678Y-54962708D01*
X134420955Y-54993148D01*
X134405500Y-54994500D01*
X104088992Y-54994500D01*
X104071091Y-54995281D01*
X104055644Y-54996632D01*
X104055632Y-54996635D01*
X103970793Y-55023383D01*
X103918070Y-55053823D01*
X103877334Y-55084680D01*
X103877331Y-55084684D01*
X103827719Y-55161499D01*
X103827712Y-55161512D01*
X103806896Y-55218704D01*
X103806893Y-55218714D01*
X103794500Y-55288996D01*
X103794500Y-55792617D01*
X103794353Y-55794675D01*
X103794353Y-55805338D01*
X103794500Y-55807392D01*
X103794500Y-57192617D01*
X103794353Y-57194675D01*
X103794353Y-57205338D01*
X103794500Y-57207392D01*
X103794500Y-57711008D01*
X103795281Y-57728908D01*
X103796632Y-57744355D01*
X103796635Y-57744367D01*
X103823383Y-57829206D01*
X103853823Y-57881929D01*
X103884680Y-57922665D01*
X103884681Y-57922666D01*
X103961507Y-57972285D01*
X104018715Y-57993107D01*
X104089000Y-58005500D01*
X104705499Y-58005500D01*
X104762707Y-58026322D01*
X104793147Y-58079045D01*
X104794499Y-58094500D01*
X104794500Y-69605500D01*
X104773678Y-69662708D01*
X104720955Y-69693148D01*
X104705500Y-69694500D01*
X101588992Y-69694500D01*
X101571091Y-69695281D01*
X101555644Y-69696632D01*
X101555632Y-69696635D01*
X101470793Y-69723383D01*
X101418070Y-69753823D01*
X101377334Y-69784680D01*
X101377331Y-69784684D01*
X101327719Y-69861499D01*
X101327712Y-69861512D01*
X101306896Y-69918704D01*
X101306893Y-69918714D01*
X101294500Y-69988996D01*
X101294500Y-71911008D01*
X101295281Y-71928908D01*
X101296632Y-71944355D01*
X101296635Y-71944367D01*
X101323383Y-72029206D01*
X101353823Y-72081929D01*
X101383385Y-72120955D01*
X101384681Y-72122666D01*
X101389390Y-72125707D01*
X101426151Y-72174233D01*
X101423120Y-72235037D01*
X101394848Y-72271414D01*
X101377334Y-72284681D01*
X101377331Y-72284684D01*
X101327719Y-72361499D01*
X101327712Y-72361512D01*
X101306896Y-72418704D01*
X101306893Y-72418714D01*
X101294500Y-72488996D01*
X101294500Y-74311008D01*
X98000500Y-74311008D01*
X98000500Y-69209752D01*
X101519500Y-69209752D01*
X101531132Y-69268231D01*
X101575445Y-69334548D01*
X101575448Y-69334552D01*
X101575451Y-69334554D01*
X101641768Y-69378867D01*
X101698690Y-69390189D01*
X101700252Y-69390500D01*
X101700256Y-69390500D01*
X103439744Y-69390500D01*
X103439748Y-69390500D01*
X103498231Y-69378867D01*
X103564552Y-69334552D01*
X103608867Y-69268231D01*
X103620500Y-69209748D01*
X103620500Y-67470252D01*
X103608867Y-67411769D01*
X103608867Y-67411768D01*
X103564554Y-67345451D01*
X103564552Y-67345448D01*
X103564548Y-67345445D01*
X103498231Y-67301132D01*
X103439752Y-67289500D01*
X103439748Y-67289500D01*
X101700252Y-67289500D01*
X101700247Y-67289500D01*
X101641768Y-67301132D01*
X101575451Y-67345445D01*
X101575445Y-67345451D01*
X101531132Y-67411768D01*
X101519500Y-67470247D01*
X101519500Y-69209752D01*
X98000500Y-69209752D01*
X98000500Y-54100000D01*
X115694353Y-54100000D01*
X115714834Y-54242456D01*
X115774621Y-54373371D01*
X115774623Y-54373374D01*
X115868137Y-54481295D01*
X115868872Y-54482143D01*
X115989947Y-54559953D01*
X116128039Y-54600500D01*
X116128042Y-54600500D01*
X116271958Y-54600500D01*
X116271961Y-54600500D01*
X116410053Y-54559953D01*
X116531128Y-54482143D01*
X116625377Y-54373373D01*
X116685165Y-54242457D01*
X116705647Y-54100000D01*
X116685165Y-53957543D01*
X116625378Y-53826628D01*
X116625376Y-53826625D01*
X116531128Y-53717857D01*
X116410053Y-53640047D01*
X116410051Y-53640046D01*
X116410049Y-53640045D01*
X116271962Y-53599500D01*
X116271961Y-53599500D01*
X116128039Y-53599500D01*
X116128037Y-53599500D01*
X115989950Y-53640045D01*
X115868871Y-53717857D01*
X115774623Y-53826625D01*
X115774621Y-53826628D01*
X115714834Y-53957543D01*
X115694353Y-54099999D01*
X115694353Y-54100000D01*
X98000500Y-54100000D01*
X98000500Y-42089500D01*
X98021322Y-42032292D01*
X98074045Y-42001852D01*
X98089500Y-42000500D01*
X187610500Y-42000500D01*
X187667708Y-42021322D01*
G37*
%TD.AperFunction*%
%TD*%
%TA.AperFunction,Conductor*%
%TO.N,+3V0*%
G36*
X169968208Y-49020822D02*
G01*
X169998648Y-49073545D01*
X170000000Y-49089000D01*
X170000000Y-54411000D01*
X169979178Y-54468208D01*
X169926455Y-54498648D01*
X169911000Y-54500000D01*
X167389000Y-54500000D01*
X167331792Y-54479178D01*
X167301352Y-54426455D01*
X167300000Y-54411000D01*
X167300000Y-51000001D01*
X167300000Y-51000000D01*
X167299999Y-51000000D01*
X136600001Y-51000000D01*
X136600000Y-51000000D01*
X136600000Y-51000001D01*
X136600000Y-56511000D01*
X136579178Y-56568208D01*
X136526455Y-56598648D01*
X136511000Y-56600000D01*
X124471603Y-56600000D01*
X124446529Y-56596395D01*
X124371961Y-56574500D01*
X124228039Y-56574500D01*
X124153471Y-56596395D01*
X124128397Y-56600000D01*
X120781805Y-56600000D01*
X120774810Y-56599500D01*
X120771961Y-56599500D01*
X120628039Y-56599500D01*
X120625190Y-56599500D01*
X120618195Y-56600000D01*
X106800000Y-56600000D01*
X106800000Y-56600001D01*
X106800000Y-58854358D01*
X106799094Y-58867024D01*
X106794353Y-58899999D01*
X106794353Y-58900000D01*
X106799094Y-58932974D01*
X106800000Y-58945640D01*
X106800000Y-71911000D01*
X106779178Y-71968208D01*
X106726455Y-71998648D01*
X106711000Y-72000000D01*
X101589000Y-72000000D01*
X101531792Y-71979178D01*
X101501352Y-71926455D01*
X101500000Y-71911000D01*
X101500000Y-69989000D01*
X101520822Y-69931792D01*
X101573545Y-69901352D01*
X101589000Y-69900000D01*
X104999999Y-69900000D01*
X105000000Y-69900000D01*
X105000000Y-57800000D01*
X104999999Y-57800000D01*
X104089000Y-57800000D01*
X104031792Y-57779178D01*
X104001352Y-57726455D01*
X104000000Y-57711000D01*
X104000000Y-55289000D01*
X104020822Y-55231792D01*
X104073545Y-55201352D01*
X104089000Y-55200000D01*
X134699999Y-55200000D01*
X134700000Y-55200000D01*
X134700000Y-49089000D01*
X134720822Y-49031792D01*
X134773545Y-49001352D01*
X134789000Y-49000000D01*
X169911000Y-49000000D01*
X169968208Y-49020822D01*
G37*
%TD.AperFunction*%
%TD*%
%TA.AperFunction,Conductor*%
%TO.N,+3V3*%
G36*
X144068208Y-52120822D02*
G01*
X144098648Y-52173545D01*
X144100000Y-52189000D01*
X144100000Y-61354358D01*
X144099094Y-61367024D01*
X144094353Y-61399999D01*
X144094353Y-61400000D01*
X144099094Y-61432974D01*
X144100000Y-61445640D01*
X144100000Y-61918205D01*
X144079178Y-61975413D01*
X144026455Y-62005853D01*
X143985930Y-62003601D01*
X143971963Y-61999500D01*
X143971961Y-61999500D01*
X143828039Y-61999500D01*
X143828037Y-61999500D01*
X143689950Y-62040045D01*
X143568871Y-62117857D01*
X143474623Y-62226625D01*
X143474621Y-62226628D01*
X143414834Y-62357543D01*
X143394353Y-62499999D01*
X143394353Y-62500000D01*
X143414834Y-62642456D01*
X143474621Y-62773371D01*
X143474623Y-62773374D01*
X143549644Y-62859953D01*
X143568872Y-62882143D01*
X143689947Y-62959953D01*
X143828039Y-63000500D01*
X143828042Y-63000500D01*
X143971960Y-63000500D01*
X143971961Y-63000500D01*
X143978078Y-62998703D01*
X143985925Y-62996400D01*
X144046682Y-63000260D01*
X144090743Y-63042271D01*
X144100000Y-63081794D01*
X144100000Y-63410500D01*
X144079178Y-63467708D01*
X144026455Y-63498148D01*
X144011000Y-63499500D01*
X143928037Y-63499500D01*
X143789950Y-63540045D01*
X143668871Y-63617857D01*
X143574623Y-63726625D01*
X143574621Y-63726628D01*
X143514834Y-63857543D01*
X143494353Y-63999999D01*
X143494353Y-64000000D01*
X143514834Y-64142456D01*
X143574621Y-64273371D01*
X143574623Y-64273374D01*
X143668871Y-64382142D01*
X143668872Y-64382143D01*
X143789947Y-64459953D01*
X143928039Y-64500500D01*
X143928042Y-64500500D01*
X144011000Y-64500500D01*
X144068208Y-64521322D01*
X144098648Y-64574045D01*
X144100000Y-64589500D01*
X144100000Y-65410500D01*
X144079178Y-65467708D01*
X144026455Y-65498148D01*
X144011000Y-65499500D01*
X143928037Y-65499500D01*
X143789950Y-65540045D01*
X143668871Y-65617857D01*
X143574623Y-65726625D01*
X143574621Y-65726628D01*
X143514834Y-65857543D01*
X143494353Y-65999999D01*
X143494353Y-66000000D01*
X143514834Y-66142456D01*
X143574621Y-66273371D01*
X143574623Y-66273374D01*
X143668871Y-66382142D01*
X143668872Y-66382143D01*
X143789947Y-66459953D01*
X143928039Y-66500500D01*
X143928042Y-66500500D01*
X144011000Y-66500500D01*
X144068208Y-66521322D01*
X144098648Y-66574045D01*
X144100000Y-66589500D01*
X144100000Y-67011000D01*
X144079178Y-67068208D01*
X144026455Y-67098648D01*
X144011000Y-67100000D01*
X109900000Y-67100000D01*
X109900000Y-67100001D01*
X109900000Y-74311000D01*
X109879178Y-74368208D01*
X109826455Y-74398648D01*
X109811000Y-74400000D01*
X101589000Y-74400000D01*
X101531792Y-74379178D01*
X101501352Y-74326455D01*
X101500000Y-74311000D01*
X101500000Y-72489000D01*
X101520822Y-72431792D01*
X101573545Y-72401352D01*
X101589000Y-72400000D01*
X107599999Y-72400000D01*
X107600000Y-72400000D01*
X107600000Y-65389000D01*
X107620822Y-65331792D01*
X107673545Y-65301352D01*
X107689000Y-65300000D01*
X122817234Y-65300000D01*
X122874442Y-65320822D01*
X122904882Y-65373545D01*
X122905328Y-65376334D01*
X122914834Y-65442456D01*
X122974621Y-65573371D01*
X122974623Y-65573374D01*
X123013168Y-65617857D01*
X123068872Y-65682143D01*
X123189947Y-65759953D01*
X123328039Y-65800500D01*
X123328042Y-65800500D01*
X123471958Y-65800500D01*
X123471961Y-65800500D01*
X123610053Y-65759953D01*
X123731128Y-65682143D01*
X123825377Y-65573373D01*
X123885165Y-65442457D01*
X123894672Y-65376334D01*
X123923424Y-65322671D01*
X123979942Y-65300045D01*
X123982766Y-65300000D01*
X140599999Y-65300000D01*
X140600000Y-65300000D01*
X140600000Y-61987965D01*
X140620822Y-61930757D01*
X140666472Y-61904400D01*
X140665854Y-61902293D01*
X140671960Y-61900500D01*
X140671961Y-61900500D01*
X140810053Y-61859953D01*
X140931128Y-61782143D01*
X141025377Y-61673373D01*
X141085165Y-61542457D01*
X141105647Y-61400000D01*
X141085165Y-61257543D01*
X141067041Y-61217857D01*
X141025378Y-61126628D01*
X141025376Y-61126625D01*
X140931128Y-61017857D01*
X140810053Y-60940047D01*
X140810051Y-60940046D01*
X140810049Y-60940045D01*
X140665854Y-60897707D01*
X140666661Y-60894956D01*
X140638779Y-60880000D01*
X141994353Y-60880000D01*
X142014834Y-61022456D01*
X142074621Y-61153371D01*
X142074623Y-61153374D01*
X142130498Y-61217857D01*
X142168872Y-61262143D01*
X142289947Y-61339953D01*
X142428039Y-61380500D01*
X142428042Y-61380500D01*
X142571958Y-61380500D01*
X142571961Y-61380500D01*
X142710053Y-61339953D01*
X142831128Y-61262143D01*
X142925377Y-61153373D01*
X142985165Y-61022457D01*
X143005647Y-60880000D01*
X142985165Y-60737543D01*
X142934511Y-60626627D01*
X142925378Y-60606628D01*
X142925376Y-60606625D01*
X142831128Y-60497857D01*
X142710053Y-60420047D01*
X142710051Y-60420046D01*
X142710049Y-60420045D01*
X142571962Y-60379500D01*
X142571961Y-60379500D01*
X142428039Y-60379500D01*
X142428037Y-60379500D01*
X142289950Y-60420045D01*
X142168871Y-60497857D01*
X142074623Y-60606625D01*
X142074621Y-60606628D01*
X142014834Y-60737543D01*
X141994353Y-60879999D01*
X141994353Y-60880000D01*
X140638779Y-60880000D01*
X140622643Y-60871345D01*
X140600043Y-60814815D01*
X140600000Y-60812034D01*
X140600000Y-52189000D01*
X140620822Y-52131792D01*
X140673545Y-52101352D01*
X140689000Y-52100000D01*
X144011000Y-52100000D01*
X144068208Y-52120822D01*
G37*
%TD.AperFunction*%
%TD*%
%TA.AperFunction,Conductor*%
%TO.N,+5V*%
G36*
X140148208Y-71020822D02*
G01*
X140178648Y-71073545D01*
X140180000Y-71089000D01*
X140180000Y-72911000D01*
X140159178Y-72968208D01*
X140106455Y-72998648D01*
X140091000Y-73000000D01*
X133300000Y-73000000D01*
X133300000Y-73000001D01*
X133300000Y-75036273D01*
X133279178Y-75093481D01*
X133226455Y-75123921D01*
X133166500Y-75113349D01*
X133162884Y-75111145D01*
X133130054Y-75090047D01*
X133130049Y-75090045D01*
X132991962Y-75049500D01*
X132991961Y-75049500D01*
X132848039Y-75049500D01*
X132848037Y-75049500D01*
X132709950Y-75090045D01*
X132588870Y-75167858D01*
X132587260Y-75169717D01*
X132585766Y-75170548D01*
X132584063Y-75172024D01*
X132583754Y-75171667D01*
X132534060Y-75199315D01*
X132474281Y-75187792D01*
X132452740Y-75169717D01*
X132451129Y-75167858D01*
X132451128Y-75167857D01*
X132330053Y-75090047D01*
X132330051Y-75090046D01*
X132330049Y-75090045D01*
X132191962Y-75049500D01*
X132191961Y-75049500D01*
X132048039Y-75049500D01*
X132048037Y-75049500D01*
X131909950Y-75090045D01*
X131909947Y-75090047D01*
X131788872Y-75167857D01*
X131788870Y-75167858D01*
X131783517Y-75171299D01*
X131782128Y-75169138D01*
X131734671Y-75187263D01*
X131684027Y-75169729D01*
X131683019Y-75171299D01*
X131677665Y-75167858D01*
X131677664Y-75167857D01*
X131556589Y-75090047D01*
X131556587Y-75090046D01*
X131556585Y-75090045D01*
X131418498Y-75049500D01*
X131418497Y-75049500D01*
X131274575Y-75049500D01*
X131274573Y-75049500D01*
X131136486Y-75090045D01*
X131015404Y-75167859D01*
X131011551Y-75171199D01*
X130954681Y-75192927D01*
X130897149Y-75173016D01*
X130894985Y-75171199D01*
X130891131Y-75167859D01*
X130822762Y-75123921D01*
X130770053Y-75090047D01*
X130770051Y-75090046D01*
X130770049Y-75090045D01*
X130631962Y-75049500D01*
X130631961Y-75049500D01*
X130488039Y-75049500D01*
X130488037Y-75049500D01*
X130349950Y-75090045D01*
X130228871Y-75167857D01*
X130134623Y-75276625D01*
X130134621Y-75276628D01*
X130074835Y-75407543D01*
X130072517Y-75423666D01*
X130043766Y-75477328D01*
X129987247Y-75499955D01*
X129984423Y-75500000D01*
X123000000Y-75500000D01*
X123000000Y-75500001D01*
X123000000Y-76211000D01*
X122979178Y-76268208D01*
X122926455Y-76298648D01*
X122911000Y-76300000D01*
X119589000Y-76300000D01*
X119531792Y-76279178D01*
X119501352Y-76226455D01*
X119500000Y-76211000D01*
X119500000Y-75300001D01*
X119500000Y-75300000D01*
X119499999Y-75300000D01*
X117689000Y-75300000D01*
X117631792Y-75279178D01*
X117601352Y-75226455D01*
X117600000Y-75211000D01*
X117600000Y-74289000D01*
X117620822Y-74231792D01*
X117673545Y-74201352D01*
X117689000Y-74200000D01*
X125008918Y-74200000D01*
X125066126Y-74220822D01*
X125089875Y-74252028D01*
X125099622Y-74273371D01*
X125099623Y-74273374D01*
X125193871Y-74382142D01*
X125193872Y-74382143D01*
X125314947Y-74459953D01*
X125453039Y-74500500D01*
X125453042Y-74500500D01*
X125596958Y-74500500D01*
X125596961Y-74500500D01*
X125735053Y-74459953D01*
X125856128Y-74382143D01*
X125950377Y-74273373D01*
X125960125Y-74252027D01*
X126002830Y-74208640D01*
X126041082Y-74200000D01*
X129483918Y-74200000D01*
X129541126Y-74220822D01*
X129564875Y-74252028D01*
X129574622Y-74273371D01*
X129574623Y-74273374D01*
X129668871Y-74382142D01*
X129668872Y-74382143D01*
X129789947Y-74459953D01*
X129928039Y-74500500D01*
X129928042Y-74500500D01*
X130071958Y-74500500D01*
X130071961Y-74500500D01*
X130210053Y-74459953D01*
X130331128Y-74382143D01*
X130425377Y-74273373D01*
X130435125Y-74252027D01*
X130477830Y-74208640D01*
X130516082Y-74200000D01*
X130599999Y-74200000D01*
X130600000Y-74200000D01*
X130600000Y-71089000D01*
X130620822Y-71031792D01*
X130673545Y-71001352D01*
X130689000Y-71000000D01*
X140091000Y-71000000D01*
X140148208Y-71020822D01*
G37*
%TD.AperFunction*%
%TD*%
M02*
