%TF.GenerationSoftware,KiCad,Pcbnew,7.0.10*%
%TF.CreationDate,2024-02-25T20:26:58-06:00*%
%TF.ProjectId,Radar2_ExtFilter,52616461-7232-45f4-9578-7446696c7465,rev?*%
%TF.SameCoordinates,Original*%
%TF.FileFunction,Soldermask,Top*%
%TF.FilePolarity,Negative*%
%FSLAX46Y46*%
G04 Gerber Fmt 4.6, Leading zero omitted, Abs format (unit mm)*
G04 Created by KiCad (PCBNEW 7.0.10) date 2024-02-25 20:26:58*
%MOMM*%
%LPD*%
G01*
G04 APERTURE LIST*
G04 Aperture macros list*
%AMRoundRect*
0 Rectangle with rounded corners*
0 $1 Rounding radius*
0 $2 $3 $4 $5 $6 $7 $8 $9 X,Y pos of 4 corners*
0 Add a 4 corners polygon primitive as box body*
4,1,4,$2,$3,$4,$5,$6,$7,$8,$9,$2,$3,0*
0 Add four circle primitives for the rounded corners*
1,1,$1+$1,$2,$3*
1,1,$1+$1,$4,$5*
1,1,$1+$1,$6,$7*
1,1,$1+$1,$8,$9*
0 Add four rect primitives between the rounded corners*
20,1,$1+$1,$2,$3,$4,$5,0*
20,1,$1+$1,$4,$5,$6,$7,0*
20,1,$1+$1,$6,$7,$8,$9,0*
20,1,$1+$1,$8,$9,$2,$3,0*%
G04 Aperture macros list end*
%ADD10C,0.597000*%
%ADD11R,5.080000X2.290000*%
%ADD12R,5.080000X2.420000*%
%ADD13R,0.560000X0.250000*%
%ADD14RoundRect,0.147500X0.172500X-0.147500X0.172500X0.147500X-0.172500X0.147500X-0.172500X-0.147500X0*%
%ADD15RoundRect,0.237500X0.008839X0.344715X-0.344715X-0.008839X-0.008839X-0.344715X0.344715X0.008839X0*%
%ADD16R,0.400000X0.500000*%
%ADD17R,1.000000X1.000000*%
%ADD18RoundRect,0.140000X-0.140000X-0.170000X0.140000X-0.170000X0.140000X0.170000X-0.140000X0.170000X0*%
%ADD19C,5.000000*%
%ADD20RoundRect,0.135000X0.135000X0.185000X-0.135000X0.185000X-0.135000X-0.185000X0.135000X-0.185000X0*%
%ADD21RoundRect,0.155000X0.155000X-0.212500X0.155000X0.212500X-0.155000X0.212500X-0.155000X-0.212500X0*%
%ADD22RoundRect,0.135000X0.185000X-0.135000X0.185000X0.135000X-0.185000X0.135000X-0.185000X-0.135000X0*%
%ADD23R,1.150000X0.600000*%
%ADD24RoundRect,0.160000X-0.160000X0.197500X-0.160000X-0.197500X0.160000X-0.197500X0.160000X0.197500X0*%
%ADD25RoundRect,0.225000X-0.225000X-0.250000X0.225000X-0.250000X0.225000X0.250000X-0.225000X0.250000X0*%
%ADD26RoundRect,0.147500X-0.172500X0.147500X-0.172500X-0.147500X0.172500X-0.147500X0.172500X0.147500X0*%
%ADD27RoundRect,0.160000X0.197500X0.160000X-0.197500X0.160000X-0.197500X-0.160000X0.197500X-0.160000X0*%
%ADD28RoundRect,0.155000X-0.212500X-0.155000X0.212500X-0.155000X0.212500X0.155000X-0.212500X0.155000X0*%
%ADD29R,2.290000X5.080000*%
%ADD30R,2.420000X5.080000*%
%ADD31RoundRect,0.249600X-0.270400X-0.650400X0.270400X-0.650400X0.270400X0.650400X-0.270400X0.650400X0*%
%ADD32RoundRect,0.152500X-0.152500X-0.470000X0.152500X-0.470000X0.152500X0.470000X-0.152500X0.470000X0*%
%ADD33C,0.610000*%
%ADD34RoundRect,0.160000X0.160000X-0.197500X0.160000X0.197500X-0.160000X0.197500X-0.160000X-0.197500X0*%
%ADD35RoundRect,0.250000X0.475000X-0.250000X0.475000X0.250000X-0.475000X0.250000X-0.475000X-0.250000X0*%
%ADD36RoundRect,0.140000X0.140000X0.170000X-0.140000X0.170000X-0.140000X-0.170000X0.140000X-0.170000X0*%
%ADD37RoundRect,0.140000X0.170000X-0.140000X0.170000X0.140000X-0.170000X0.140000X-0.170000X-0.140000X0*%
%ADD38RoundRect,0.155000X0.212500X0.155000X-0.212500X0.155000X-0.212500X-0.155000X0.212500X-0.155000X0*%
%ADD39R,0.700000X0.300000*%
%ADD40R,1.000000X1.700000*%
%ADD41R,1.050000X0.400000*%
%ADD42R,0.500000X0.400000*%
%ADD43RoundRect,0.250000X-0.250000X-0.475000X0.250000X-0.475000X0.250000X0.475000X-0.250000X0.475000X0*%
%ADD44R,2.500000X1.500000*%
%ADD45R,7.000000X7.000000*%
%ADD46R,0.300000X0.700000*%
%ADD47R,2.950000X2.950000*%
%ADD48RoundRect,0.250000X0.250000X0.475000X-0.250000X0.475000X-0.250000X-0.475000X0.250000X-0.475000X0*%
%ADD49R,0.600000X0.250000*%
%ADD50R,0.650000X1.150000*%
%ADD51RoundRect,0.237500X0.250000X0.237500X-0.250000X0.237500X-0.250000X-0.237500X0.250000X-0.237500X0*%
%ADD52RoundRect,0.100000X-0.712500X-0.100000X0.712500X-0.100000X0.712500X0.100000X-0.712500X0.100000X0*%
%ADD53R,1.700000X1.700000*%
%ADD54O,1.700000X1.700000*%
%ADD55R,1.270000X0.760000*%
%ADD56RoundRect,0.250000X-0.337500X-0.475000X0.337500X-0.475000X0.337500X0.475000X-0.337500X0.475000X0*%
%ADD57RoundRect,0.237500X0.300000X0.237500X-0.300000X0.237500X-0.300000X-0.237500X0.300000X-0.237500X0*%
%ADD58RoundRect,0.135000X-0.185000X0.135000X-0.185000X-0.135000X0.185000X-0.135000X0.185000X0.135000X0*%
G04 APERTURE END LIST*
D10*
X130420000Y-77750000D02*
X131645000Y-77750000D01*
X147980000Y-60630000D02*
X151000000Y-60630000D01*
X139230000Y-60630000D02*
X141450000Y-60630000D01*
X118500000Y-60630000D02*
X120020000Y-60630000D01*
X169000000Y-59330000D02*
X172520000Y-59330000D01*
X143740000Y-77750000D02*
X138820000Y-77750000D01*
X122500000Y-59610000D02*
X122500000Y-44700000D01*
X143550000Y-60630000D02*
X147020000Y-60630000D01*
X127750000Y-75080000D02*
X127750000Y-61650000D01*
X122500000Y-59610000D02*
X122500000Y-44700000D01*
X127749997Y-75080000D02*
G75*
G03*
X128457107Y-76787105I2414203J0D01*
G01*
X127750000Y-60630000D02*
X130087500Y-60630000D01*
X128712895Y-77042890D02*
G75*
G03*
X130420000Y-77750000I1707105J1707090D01*
G01*
X158510000Y-60630000D02*
X160270000Y-60630000D01*
X117010000Y-60630000D02*
X118500000Y-60630000D01*
X128457106Y-76787106D02*
X128712893Y-77042893D01*
X128457106Y-76787106D02*
X128712893Y-77042893D01*
X106500000Y-60630000D02*
X109125000Y-60630000D01*
X135077500Y-60630000D02*
X138270000Y-60630000D01*
X143740000Y-77750000D02*
X138820000Y-77750000D01*
X128712895Y-77042890D02*
G75*
G03*
X130420000Y-77750000I1707105J1707090D01*
G01*
X133190000Y-77750000D02*
X131645000Y-77750000D01*
X173480000Y-59330000D02*
X184930000Y-59330000D01*
X161230000Y-60630000D02*
X162990000Y-60630000D01*
X130420000Y-77750000D02*
X131645000Y-77750000D01*
X122500000Y-60630000D02*
X123790000Y-60630000D01*
X120980000Y-60630000D02*
X122500000Y-60630000D01*
X155225000Y-60630000D02*
X157490000Y-60630000D01*
X131047500Y-60630000D02*
X132567500Y-60630000D01*
X133190000Y-77750000D02*
X131645000Y-77750000D01*
X124810000Y-60630000D02*
X126960000Y-60630000D01*
X112375000Y-60630000D02*
X115990000Y-60630000D01*
X184930000Y-77750000D02*
X144700000Y-77750000D01*
X127750000Y-75080000D02*
X127750000Y-61650000D01*
X184930000Y-77750000D02*
X144700000Y-77750000D01*
X132567500Y-60630000D02*
X134057500Y-60630000D01*
X137120000Y-77750000D02*
X134150000Y-77750000D01*
X137120000Y-77750000D02*
X134150000Y-77750000D01*
X164010000Y-60630000D02*
X167000000Y-60630000D01*
X127749997Y-75080000D02*
G75*
G03*
X128457107Y-76787105I2414203J0D01*
G01*
D11*
%TO.C,J2*%
X184930000Y-77750000D03*
D12*
X184930000Y-82130000D03*
X184930000Y-73370000D03*
%TD*%
D13*
%TO.C,IC4*%
X126960000Y-60630000D03*
X126960000Y-61140000D03*
X126960000Y-61650000D03*
X127750000Y-61650000D03*
X127750000Y-61140000D03*
X127750000Y-60630000D03*
%TD*%
D14*
%TO.C,L5*%
X145500000Y-60630000D03*
X145500000Y-59660000D03*
%TD*%
D15*
%TO.C,R10*%
X125445235Y-63234765D03*
X124154765Y-64525235D03*
%TD*%
D16*
%TO.C,FB3*%
X169700000Y-53000000D03*
X170500000Y-53000000D03*
%TD*%
D17*
%TO.C,TP4*%
X160300000Y-86500000D03*
%TD*%
D18*
%TO.C,C9*%
X130087500Y-60630000D03*
X131047500Y-60630000D03*
%TD*%
D19*
%TO.C,H4*%
X175000000Y-84000000D03*
%TD*%
D20*
%TO.C,R18*%
X158510000Y-60630000D03*
X157490000Y-60630000D03*
%TD*%
D21*
%TO.C,C5*%
X117450000Y-53167500D03*
X117450000Y-52032500D03*
%TD*%
D22*
%TO.C,R15*%
X136567500Y-61650000D03*
X136567500Y-60630000D03*
%TD*%
D23*
%TO.C,IC2*%
X113350000Y-53150000D03*
X113350000Y-54100000D03*
X113350000Y-55050000D03*
X115950000Y-55050000D03*
X115950000Y-53150000D03*
%TD*%
D24*
%TO.C,R17*%
X143300000Y-57202500D03*
X143300000Y-58397500D03*
%TD*%
D25*
%TO.C,C2*%
X105625000Y-57000000D03*
X107175000Y-57000000D03*
%TD*%
D26*
%TO.C,L3*%
X141970000Y-76780000D03*
X141970000Y-77750000D03*
%TD*%
D27*
%TO.C,R12*%
X139567500Y-74250000D03*
X138372500Y-74250000D03*
%TD*%
D28*
%TO.C,C21*%
X172432500Y-53130000D03*
X173567500Y-53130000D03*
%TD*%
D29*
%TO.C,J1*%
X122500000Y-44700000D03*
D30*
X126880000Y-44700000D03*
X118120000Y-44700000D03*
%TD*%
D19*
%TO.C,H3*%
X105000000Y-84000000D03*
%TD*%
D20*
%TO.C,R14*%
X135077500Y-60630000D03*
X134057500Y-60630000D03*
%TD*%
D17*
%TO.C,TP7*%
X164000000Y-53200000D03*
%TD*%
D31*
%TO.C,FL1*%
X109125000Y-60630000D03*
D32*
X110750000Y-61557500D03*
D33*
X110750000Y-61735000D03*
D31*
X112375000Y-60630000D03*
D33*
X110750000Y-59525000D03*
D32*
X110750000Y-59702500D03*
%TD*%
D11*
%TO.C,J5*%
X184930000Y-59330000D03*
D12*
X184930000Y-63710000D03*
X184930000Y-54950000D03*
%TD*%
D34*
%TO.C,R16*%
X141300000Y-58397500D03*
X141300000Y-57202500D03*
%TD*%
D17*
%TO.C,TP1*%
X106500000Y-70850000D03*
%TD*%
D22*
%TO.C,R7*%
X118500000Y-61650000D03*
X118500000Y-60630000D03*
%TD*%
D18*
%TO.C,C8*%
X133190000Y-77750000D03*
X134150000Y-77750000D03*
%TD*%
D17*
%TO.C,TP6*%
X143400000Y-55400000D03*
%TD*%
D34*
%TO.C,R2*%
X115950000Y-57747500D03*
X115950000Y-56552500D03*
%TD*%
D35*
%TO.C,C4*%
X107250000Y-75500000D03*
X107250000Y-73600000D03*
%TD*%
D36*
%TO.C,C23*%
X173480000Y-59330000D03*
X172520000Y-59330000D03*
%TD*%
D19*
%TO.C,H2*%
X180700000Y-47000000D03*
%TD*%
D37*
%TO.C,C10*%
X140470000Y-78710000D03*
X140470000Y-77750000D03*
%TD*%
D34*
%TO.C,R21*%
X171000000Y-55477500D03*
X171000000Y-54282500D03*
%TD*%
D38*
%TO.C,C11*%
X143037500Y-73750000D03*
X141902500Y-73750000D03*
%TD*%
D34*
%TO.C,R11*%
X136970000Y-75317500D03*
X136970000Y-74122500D03*
%TD*%
D20*
%TO.C,R9*%
X124810000Y-60630000D03*
X123790000Y-60630000D03*
%TD*%
D28*
%TO.C,C22*%
X172432500Y-54380000D03*
X173567500Y-54380000D03*
%TD*%
D39*
%TO.C,IC6*%
X141450000Y-60130000D03*
X141450000Y-60630000D03*
X141450000Y-61130000D03*
X141450000Y-61630000D03*
X143550000Y-61630000D03*
X143550000Y-61130000D03*
X143550000Y-60630000D03*
X143550000Y-60130000D03*
D40*
X142500000Y-60880000D03*
%TD*%
D18*
%TO.C,C13*%
X143740000Y-77750000D03*
X144700000Y-77750000D03*
%TD*%
D17*
%TO.C,TP3*%
X157600000Y-86500000D03*
%TD*%
D21*
%TO.C,C1*%
X111550000Y-54367500D03*
X111550000Y-53232500D03*
%TD*%
D26*
%TO.C,L2*%
X135470000Y-77750000D03*
X135470000Y-78720000D03*
%TD*%
D41*
%TO.C,IC7*%
X169000000Y-60630000D03*
X169000000Y-59980000D03*
X169000000Y-59330000D03*
X167000000Y-59330000D03*
X167000000Y-59980000D03*
X167000000Y-60630000D03*
%TD*%
D42*
%TO.C,FB1*%
X140470000Y-71820000D03*
X140470000Y-72620000D03*
%TD*%
D43*
%TO.C,C3*%
X105590000Y-55020000D03*
X107490000Y-55020000D03*
%TD*%
D24*
%TO.C,R1*%
X111550000Y-55652500D03*
X111550000Y-56847500D03*
%TD*%
D28*
%TO.C,C20*%
X169865000Y-56880000D03*
X171000000Y-56880000D03*
%TD*%
D44*
%TO.C,IC3*%
X111507000Y-71360000D03*
D45*
X118407000Y-73660000D03*
D44*
X111507000Y-75960000D03*
%TD*%
D18*
%TO.C,C16*%
X147020000Y-60630000D03*
X147980000Y-60630000D03*
%TD*%
D39*
%TO.C,IC1*%
X102400000Y-59630000D03*
X102400000Y-60130000D03*
X102400000Y-60630000D03*
X102400000Y-61130000D03*
X102400000Y-61630000D03*
X102400000Y-62130000D03*
D46*
X103200000Y-62930000D03*
X103700000Y-62930000D03*
X104200000Y-62930000D03*
X104700000Y-62930000D03*
X105200000Y-62930000D03*
X105700000Y-62930000D03*
D39*
X106500000Y-62130000D03*
X106500000Y-61630000D03*
X106500000Y-61130000D03*
X106500000Y-60630000D03*
X106500000Y-60130000D03*
X106500000Y-59630000D03*
D46*
X105700000Y-58830000D03*
X105200000Y-58830000D03*
X104700000Y-58830000D03*
X104200000Y-58830000D03*
X103700000Y-58830000D03*
X103200000Y-58830000D03*
D47*
X104450000Y-60880000D03*
%TD*%
D14*
%TO.C,L6*%
X171000000Y-59330000D03*
X171000000Y-58360000D03*
%TD*%
D17*
%TO.C,TP2*%
X142895000Y-71600000D03*
%TD*%
D26*
%TO.C,L1*%
X131645000Y-77750000D03*
X131645000Y-78720000D03*
%TD*%
D22*
%TO.C,R13*%
X132567500Y-61650000D03*
X132567500Y-60630000D03*
%TD*%
D48*
%TO.C,C6*%
X118750000Y-79400000D03*
X116850000Y-79400000D03*
%TD*%
D49*
%TO.C,IC5*%
X137120000Y-76750000D03*
X137120000Y-77250000D03*
X137120000Y-77750000D03*
X138820000Y-77750000D03*
X138820000Y-77250000D03*
X138820000Y-76750000D03*
D50*
X137970000Y-77250000D03*
%TD*%
D51*
%TO.C,R20*%
X168062500Y-56900000D03*
X166237500Y-56900000D03*
%TD*%
D52*
%TO.C,U1*%
X151000000Y-59980000D03*
X151000000Y-60630000D03*
X151000000Y-61280000D03*
X151000000Y-61930000D03*
X155225000Y-61930000D03*
X155225000Y-61280000D03*
X155225000Y-60630000D03*
X155225000Y-59980000D03*
%TD*%
D34*
%TO.C,R4*%
X114650000Y-51545000D03*
X114650000Y-50350000D03*
%TD*%
D53*
%TO.C,J4*%
X165443464Y-83300000D03*
D54*
X162903464Y-83300000D03*
X160363464Y-83300000D03*
X157823464Y-83300000D03*
X155283464Y-83300000D03*
%TD*%
D55*
%TO.C,U2*%
X161317500Y-58670000D03*
X161317500Y-56130000D03*
X164107500Y-56130000D03*
X164107500Y-58670000D03*
%TD*%
D17*
%TO.C,TP5*%
X162900000Y-86500000D03*
%TD*%
D56*
%TO.C,C15*%
X139162500Y-55400000D03*
X141237500Y-55400000D03*
%TD*%
D57*
%TO.C,C17*%
X147162500Y-56380000D03*
X145437500Y-56380000D03*
%TD*%
D18*
%TO.C,C14*%
X138270000Y-60630000D03*
X139230000Y-60630000D03*
%TD*%
D36*
%TO.C,C19*%
X161230000Y-60630000D03*
X160270000Y-60630000D03*
%TD*%
D20*
%TO.C,R6*%
X117010000Y-60630000D03*
X115990000Y-60630000D03*
%TD*%
D42*
%TO.C,FB2*%
X143300000Y-52700000D03*
X143300000Y-53500000D03*
%TD*%
D20*
%TO.C,R19*%
X164010000Y-60630000D03*
X162990000Y-60630000D03*
%TD*%
D58*
%TO.C,R8*%
X122500000Y-59610000D03*
X122500000Y-60630000D03*
%TD*%
D26*
%TO.C,L4*%
X146220000Y-77750000D03*
X146220000Y-78720000D03*
%TD*%
D22*
%TO.C,R5*%
X114500000Y-61650000D03*
X114500000Y-60630000D03*
%TD*%
D38*
%TO.C,C18*%
X146567500Y-57880000D03*
X145432500Y-57880000D03*
%TD*%
D53*
%TO.C,J3*%
X102570000Y-68340000D03*
D54*
X102570000Y-70880000D03*
X102570000Y-73420000D03*
X102570000Y-75960000D03*
X102570000Y-78500000D03*
%TD*%
D19*
%TO.C,H1*%
X105000000Y-47000000D03*
%TD*%
D38*
%TO.C,C12*%
X143037500Y-74970000D03*
X141902500Y-74970000D03*
%TD*%
D18*
%TO.C,C7*%
X120020000Y-60630000D03*
X120980000Y-60630000D03*
%TD*%
D24*
%TO.C,R3*%
X113350000Y-50352500D03*
X113350000Y-51547500D03*
%TD*%
M02*
