%TF.GenerationSoftware,KiCad,Pcbnew,7.0.10*%
%TF.CreationDate,2024-04-01T00:34:45-05:00*%
%TF.ProjectId,Radar2_ExtFilter,52616461-7232-45f4-9578-7446696c7465,rev?*%
%TF.SameCoordinates,Original*%
%TF.FileFunction,Soldermask,Bot*%
%TF.FilePolarity,Negative*%
%FSLAX46Y46*%
G04 Gerber Fmt 4.6, Leading zero omitted, Abs format (unit mm)*
G04 Created by KiCad (PCBNEW 7.0.10) date 2024-04-01 00:34:45*
%MOMM*%
%LPD*%
G01*
G04 APERTURE LIST*
G04 APERTURE END LIST*
G36*
X124580000Y-88740000D02*
G01*
X122160000Y-88740000D01*
X122160000Y-83660000D01*
X124580000Y-83660000D01*
X124580000Y-88740000D01*
G37*
G36*
X133340000Y-88740000D02*
G01*
X130920000Y-88740000D01*
X130920000Y-83660000D01*
X133340000Y-83660000D01*
X133340000Y-88740000D01*
G37*
G36*
X105468453Y-81544282D02*
G01*
X105772542Y-81622359D01*
X106064448Y-81737932D01*
X106339567Y-81889180D01*
X106593560Y-82073717D01*
X106822422Y-82288632D01*
X107022542Y-82530537D01*
X107190767Y-82795616D01*
X107324441Y-83079689D01*
X107421458Y-83378275D01*
X107480287Y-83686667D01*
X107500000Y-84000000D01*
X107480287Y-84313333D01*
X107421458Y-84621725D01*
X107324441Y-84920311D01*
X107190767Y-85204384D01*
X107022542Y-85469463D01*
X106822422Y-85711368D01*
X106593560Y-85926283D01*
X106339567Y-86110820D01*
X106064448Y-86262068D01*
X105772542Y-86377641D01*
X105468453Y-86455718D01*
X105156976Y-86495067D01*
X104843024Y-86495067D01*
X104531547Y-86455718D01*
X104227458Y-86377641D01*
X103935552Y-86262068D01*
X103660433Y-86110820D01*
X103406440Y-85926283D01*
X103177578Y-85711368D01*
X102977458Y-85469463D01*
X102809233Y-85204384D01*
X102675559Y-84920311D01*
X102578542Y-84621725D01*
X102519713Y-84313333D01*
X102500000Y-84000000D01*
X102519713Y-83686667D01*
X102578542Y-83378275D01*
X102675559Y-83079689D01*
X102809233Y-82795616D01*
X102977458Y-82530537D01*
X103177578Y-82288632D01*
X103406440Y-82073717D01*
X103660433Y-81889180D01*
X103935552Y-81737932D01*
X104227458Y-81622359D01*
X104531547Y-81544282D01*
X104843024Y-81504933D01*
X105156976Y-81504933D01*
X105468453Y-81544282D01*
G37*
G36*
X173268453Y-81544282D02*
G01*
X173572542Y-81622359D01*
X173864448Y-81737932D01*
X174139567Y-81889180D01*
X174393560Y-82073717D01*
X174622422Y-82288632D01*
X174822542Y-82530537D01*
X174990767Y-82795616D01*
X175124441Y-83079689D01*
X175221458Y-83378275D01*
X175280287Y-83686667D01*
X175300000Y-84000000D01*
X175280287Y-84313333D01*
X175221458Y-84621725D01*
X175124441Y-84920311D01*
X174990767Y-85204384D01*
X174822542Y-85469463D01*
X174622422Y-85711368D01*
X174393560Y-85926283D01*
X174139567Y-86110820D01*
X173864448Y-86262068D01*
X173572542Y-86377641D01*
X173268453Y-86455718D01*
X172956976Y-86495067D01*
X172643024Y-86495067D01*
X172331547Y-86455718D01*
X172027458Y-86377641D01*
X171735552Y-86262068D01*
X171460433Y-86110820D01*
X171206440Y-85926283D01*
X170977578Y-85711368D01*
X170777458Y-85469463D01*
X170609233Y-85204384D01*
X170475559Y-84920311D01*
X170378542Y-84621725D01*
X170319713Y-84313333D01*
X170300000Y-84000000D01*
X170319713Y-83686667D01*
X170378542Y-83378275D01*
X170475559Y-83079689D01*
X170609233Y-82795616D01*
X170777458Y-82530537D01*
X170977578Y-82288632D01*
X171206440Y-82073717D01*
X171460433Y-81889180D01*
X171735552Y-81737932D01*
X172027458Y-81622359D01*
X172331547Y-81544282D01*
X172643024Y-81504933D01*
X172956976Y-81504933D01*
X173268453Y-81544282D01*
G37*
G36*
X166293464Y-84150000D02*
G01*
X164593464Y-84150000D01*
X164593464Y-82450000D01*
X166293464Y-82450000D01*
X166293464Y-84150000D01*
G37*
G36*
X155546128Y-82491602D02*
G01*
X155708464Y-82563878D01*
X155852225Y-82668327D01*
X155971128Y-82800383D01*
X156059978Y-82954274D01*
X156114889Y-83123275D01*
X156133464Y-83300000D01*
X156114889Y-83476725D01*
X156059978Y-83645726D01*
X155971128Y-83799617D01*
X155852225Y-83931673D01*
X155708464Y-84036122D01*
X155546128Y-84108398D01*
X155372313Y-84145344D01*
X155194615Y-84145344D01*
X155020800Y-84108398D01*
X154858464Y-84036122D01*
X154714703Y-83931673D01*
X154595800Y-83799617D01*
X154506950Y-83645726D01*
X154452039Y-83476725D01*
X154433464Y-83300000D01*
X154452039Y-83123275D01*
X154506950Y-82954274D01*
X154595800Y-82800383D01*
X154714703Y-82668327D01*
X154858464Y-82563878D01*
X155020800Y-82491602D01*
X155194615Y-82454656D01*
X155372313Y-82454656D01*
X155546128Y-82491602D01*
G37*
G36*
X158086128Y-82491602D02*
G01*
X158248464Y-82563878D01*
X158392225Y-82668327D01*
X158511128Y-82800383D01*
X158599978Y-82954274D01*
X158654889Y-83123275D01*
X158673464Y-83300000D01*
X158654889Y-83476725D01*
X158599978Y-83645726D01*
X158511128Y-83799617D01*
X158392225Y-83931673D01*
X158248464Y-84036122D01*
X158086128Y-84108398D01*
X157912313Y-84145344D01*
X157734615Y-84145344D01*
X157560800Y-84108398D01*
X157398464Y-84036122D01*
X157254703Y-83931673D01*
X157135800Y-83799617D01*
X157046950Y-83645726D01*
X156992039Y-83476725D01*
X156973464Y-83300000D01*
X156992039Y-83123275D01*
X157046950Y-82954274D01*
X157135800Y-82800383D01*
X157254703Y-82668327D01*
X157398464Y-82563878D01*
X157560800Y-82491602D01*
X157734615Y-82454656D01*
X157912313Y-82454656D01*
X158086128Y-82491602D01*
G37*
G36*
X160626128Y-82491602D02*
G01*
X160788464Y-82563878D01*
X160932225Y-82668327D01*
X161051128Y-82800383D01*
X161139978Y-82954274D01*
X161194889Y-83123275D01*
X161213464Y-83300000D01*
X161194889Y-83476725D01*
X161139978Y-83645726D01*
X161051128Y-83799617D01*
X160932225Y-83931673D01*
X160788464Y-84036122D01*
X160626128Y-84108398D01*
X160452313Y-84145344D01*
X160274615Y-84145344D01*
X160100800Y-84108398D01*
X159938464Y-84036122D01*
X159794703Y-83931673D01*
X159675800Y-83799617D01*
X159586950Y-83645726D01*
X159532039Y-83476725D01*
X159513464Y-83300000D01*
X159532039Y-83123275D01*
X159586950Y-82954274D01*
X159675800Y-82800383D01*
X159794703Y-82668327D01*
X159938464Y-82563878D01*
X160100800Y-82491602D01*
X160274615Y-82454656D01*
X160452313Y-82454656D01*
X160626128Y-82491602D01*
G37*
G36*
X163166128Y-82491602D02*
G01*
X163328464Y-82563878D01*
X163472225Y-82668327D01*
X163591128Y-82800383D01*
X163679978Y-82954274D01*
X163734889Y-83123275D01*
X163753464Y-83300000D01*
X163734889Y-83476725D01*
X163679978Y-83645726D01*
X163591128Y-83799617D01*
X163472225Y-83931673D01*
X163328464Y-84036122D01*
X163166128Y-84108398D01*
X162992313Y-84145344D01*
X162814615Y-84145344D01*
X162640800Y-84108398D01*
X162478464Y-84036122D01*
X162334703Y-83931673D01*
X162215800Y-83799617D01*
X162126950Y-83645726D01*
X162072039Y-83476725D01*
X162053464Y-83300000D01*
X162072039Y-83123275D01*
X162126950Y-82954274D01*
X162215800Y-82800383D01*
X162334703Y-82668327D01*
X162478464Y-82563878D01*
X162640800Y-82491602D01*
X162814615Y-82454656D01*
X162992313Y-82454656D01*
X163166128Y-82491602D01*
G37*
G36*
X102832664Y-77691602D02*
G01*
X102995000Y-77763878D01*
X103138761Y-77868327D01*
X103257664Y-78000383D01*
X103346514Y-78154274D01*
X103401425Y-78323275D01*
X103420000Y-78500000D01*
X103401425Y-78676725D01*
X103346514Y-78845726D01*
X103257664Y-78999617D01*
X103138761Y-79131673D01*
X102995000Y-79236122D01*
X102832664Y-79308398D01*
X102658849Y-79345344D01*
X102481151Y-79345344D01*
X102307336Y-79308398D01*
X102145000Y-79236122D01*
X102001239Y-79131673D01*
X101882336Y-78999617D01*
X101793486Y-78845726D01*
X101738575Y-78676725D01*
X101720000Y-78500000D01*
X101738575Y-78323275D01*
X101793486Y-78154274D01*
X101882336Y-78000383D01*
X102001239Y-77868327D01*
X102145000Y-77763878D01*
X102307336Y-77691602D01*
X102481151Y-77654656D01*
X102658849Y-77654656D01*
X102832664Y-77691602D01*
G37*
G36*
X102832664Y-75151602D02*
G01*
X102995000Y-75223878D01*
X103138761Y-75328327D01*
X103257664Y-75460383D01*
X103346514Y-75614274D01*
X103401425Y-75783275D01*
X103420000Y-75960000D01*
X103401425Y-76136725D01*
X103346514Y-76305726D01*
X103257664Y-76459617D01*
X103138761Y-76591673D01*
X102995000Y-76696122D01*
X102832664Y-76768398D01*
X102658849Y-76805344D01*
X102481151Y-76805344D01*
X102307336Y-76768398D01*
X102145000Y-76696122D01*
X102001239Y-76591673D01*
X101882336Y-76459617D01*
X101793486Y-76305726D01*
X101738575Y-76136725D01*
X101720000Y-75960000D01*
X101738575Y-75783275D01*
X101793486Y-75614274D01*
X101882336Y-75460383D01*
X102001239Y-75328327D01*
X102145000Y-75223878D01*
X102307336Y-75151602D01*
X102481151Y-75114656D01*
X102658849Y-75114656D01*
X102832664Y-75151602D01*
G37*
G36*
X102832664Y-72611602D02*
G01*
X102995000Y-72683878D01*
X103138761Y-72788327D01*
X103257664Y-72920383D01*
X103346514Y-73074274D01*
X103401425Y-73243275D01*
X103420000Y-73420000D01*
X103401425Y-73596725D01*
X103346514Y-73765726D01*
X103257664Y-73919617D01*
X103138761Y-74051673D01*
X102995000Y-74156122D01*
X102832664Y-74228398D01*
X102658849Y-74265344D01*
X102481151Y-74265344D01*
X102307336Y-74228398D01*
X102145000Y-74156122D01*
X102001239Y-74051673D01*
X101882336Y-73919617D01*
X101793486Y-73765726D01*
X101738575Y-73596725D01*
X101720000Y-73420000D01*
X101738575Y-73243275D01*
X101793486Y-73074274D01*
X101882336Y-72920383D01*
X102001239Y-72788327D01*
X102145000Y-72683878D01*
X102307336Y-72611602D01*
X102481151Y-72574656D01*
X102658849Y-72574656D01*
X102832664Y-72611602D01*
G37*
G36*
X102832664Y-70071602D02*
G01*
X102995000Y-70143878D01*
X103138761Y-70248327D01*
X103257664Y-70380383D01*
X103346514Y-70534274D01*
X103401425Y-70703275D01*
X103420000Y-70880000D01*
X103401425Y-71056725D01*
X103346514Y-71225726D01*
X103257664Y-71379617D01*
X103138761Y-71511673D01*
X102995000Y-71616122D01*
X102832664Y-71688398D01*
X102658849Y-71725344D01*
X102481151Y-71725344D01*
X102307336Y-71688398D01*
X102145000Y-71616122D01*
X102001239Y-71511673D01*
X101882336Y-71379617D01*
X101793486Y-71225726D01*
X101738575Y-71056725D01*
X101720000Y-70880000D01*
X101738575Y-70703275D01*
X101793486Y-70534274D01*
X101882336Y-70380383D01*
X102001239Y-70248327D01*
X102145000Y-70143878D01*
X102307336Y-70071602D01*
X102481151Y-70034656D01*
X102658849Y-70034656D01*
X102832664Y-70071602D01*
G37*
G36*
X103420000Y-69190000D02*
G01*
X101720000Y-69190000D01*
X101720000Y-67490000D01*
X103420000Y-67490000D01*
X103420000Y-69190000D01*
G37*
G36*
X176900000Y-66220000D02*
G01*
X171820000Y-66220000D01*
X171820000Y-63800000D01*
X176900000Y-63800000D01*
X176900000Y-66220000D01*
G37*
G36*
X116750288Y-61434634D02*
G01*
X116777963Y-61434634D01*
X116799282Y-61442393D01*
X116819054Y-61445525D01*
X116846977Y-61459753D01*
X116877500Y-61470862D01*
X116890980Y-61482173D01*
X116903905Y-61488759D01*
X116930377Y-61515231D01*
X116958644Y-61538950D01*
X116964856Y-61549710D01*
X116971240Y-61556094D01*
X116991511Y-61595879D01*
X117011606Y-61630684D01*
X117012855Y-61637767D01*
X117014474Y-61640945D01*
X117023812Y-61699910D01*
X117030000Y-61735000D01*
X117023812Y-61770092D01*
X117014474Y-61829054D01*
X117012855Y-61832230D01*
X117011606Y-61839316D01*
X116991507Y-61874128D01*
X116971240Y-61913905D01*
X116964857Y-61920287D01*
X116958644Y-61931050D01*
X116930371Y-61954773D01*
X116903905Y-61981240D01*
X116890983Y-61987823D01*
X116877500Y-61999138D01*
X116846971Y-62010249D01*
X116819054Y-62024474D01*
X116799287Y-62027604D01*
X116777963Y-62035366D01*
X116750281Y-62035366D01*
X116725000Y-62039370D01*
X116699718Y-62035366D01*
X116672037Y-62035366D01*
X116650712Y-62027604D01*
X116630945Y-62024474D01*
X116603025Y-62010248D01*
X116572500Y-61999138D01*
X116559017Y-61987824D01*
X116546094Y-61981240D01*
X116519622Y-61954768D01*
X116491356Y-61931050D01*
X116485143Y-61920289D01*
X116478759Y-61913905D01*
X116458484Y-61874113D01*
X116438394Y-61839316D01*
X116437145Y-61832233D01*
X116435525Y-61829054D01*
X116426178Y-61770036D01*
X116420000Y-61735000D01*
X116426177Y-61699966D01*
X116435525Y-61640945D01*
X116437145Y-61637764D01*
X116438394Y-61630684D01*
X116458479Y-61595894D01*
X116478759Y-61556094D01*
X116485144Y-61549708D01*
X116491356Y-61538950D01*
X116519615Y-61515237D01*
X116546094Y-61488759D01*
X116559020Y-61482172D01*
X116572500Y-61470862D01*
X116603018Y-61459754D01*
X116630945Y-61445525D01*
X116650717Y-61442393D01*
X116672037Y-61434634D01*
X116699712Y-61434634D01*
X116725000Y-61430629D01*
X116750288Y-61434634D01*
G37*
G36*
X116750288Y-59224634D02*
G01*
X116777963Y-59224634D01*
X116799282Y-59232393D01*
X116819054Y-59235525D01*
X116846977Y-59249753D01*
X116877500Y-59260862D01*
X116890980Y-59272173D01*
X116903905Y-59278759D01*
X116930377Y-59305231D01*
X116958644Y-59328950D01*
X116964856Y-59339710D01*
X116971240Y-59346094D01*
X116991511Y-59385879D01*
X117011606Y-59420684D01*
X117012855Y-59427767D01*
X117014474Y-59430945D01*
X117023812Y-59489910D01*
X117030000Y-59525000D01*
X117023812Y-59560092D01*
X117014474Y-59619054D01*
X117012855Y-59622230D01*
X117011606Y-59629316D01*
X116991507Y-59664128D01*
X116971240Y-59703905D01*
X116964857Y-59710287D01*
X116958644Y-59721050D01*
X116930371Y-59744773D01*
X116903905Y-59771240D01*
X116890983Y-59777823D01*
X116877500Y-59789138D01*
X116846971Y-59800249D01*
X116819054Y-59814474D01*
X116799287Y-59817604D01*
X116777963Y-59825366D01*
X116750281Y-59825366D01*
X116725000Y-59829370D01*
X116699718Y-59825366D01*
X116672037Y-59825366D01*
X116650712Y-59817604D01*
X116630945Y-59814474D01*
X116603025Y-59800248D01*
X116572500Y-59789138D01*
X116559017Y-59777824D01*
X116546094Y-59771240D01*
X116519622Y-59744768D01*
X116491356Y-59721050D01*
X116485143Y-59710289D01*
X116478759Y-59703905D01*
X116458484Y-59664113D01*
X116438394Y-59629316D01*
X116437145Y-59622233D01*
X116435525Y-59619054D01*
X116426178Y-59560036D01*
X116420000Y-59525000D01*
X116426177Y-59489966D01*
X116435525Y-59430945D01*
X116437145Y-59427764D01*
X116438394Y-59420684D01*
X116458479Y-59385894D01*
X116478759Y-59346094D01*
X116485144Y-59339708D01*
X116491356Y-59328950D01*
X116519615Y-59305237D01*
X116546094Y-59278759D01*
X116559020Y-59272172D01*
X116572500Y-59260862D01*
X116603018Y-59249754D01*
X116630945Y-59235525D01*
X116650717Y-59232393D01*
X116672037Y-59224634D01*
X116699712Y-59224634D01*
X116725000Y-59220629D01*
X116750288Y-59224634D01*
G37*
G36*
X176900000Y-57460000D02*
G01*
X171820000Y-57460000D01*
X171820000Y-55040000D01*
X176900000Y-55040000D01*
X176900000Y-57460000D01*
G37*
G36*
X105468453Y-44544282D02*
G01*
X105772542Y-44622359D01*
X106064448Y-44737932D01*
X106339567Y-44889180D01*
X106593560Y-45073717D01*
X106822422Y-45288632D01*
X107022542Y-45530537D01*
X107190767Y-45795616D01*
X107324441Y-46079689D01*
X107421458Y-46378275D01*
X107480287Y-46686667D01*
X107500000Y-47000000D01*
X107480287Y-47313333D01*
X107421458Y-47621725D01*
X107324441Y-47920311D01*
X107190767Y-48204384D01*
X107022542Y-48469463D01*
X106822422Y-48711368D01*
X106593560Y-48926283D01*
X106339567Y-49110820D01*
X106064448Y-49262068D01*
X105772542Y-49377641D01*
X105468453Y-49455718D01*
X105156976Y-49495067D01*
X104843024Y-49495067D01*
X104531547Y-49455718D01*
X104227458Y-49377641D01*
X103935552Y-49262068D01*
X103660433Y-49110820D01*
X103406440Y-48926283D01*
X103177578Y-48711368D01*
X102977458Y-48469463D01*
X102809233Y-48204384D01*
X102675559Y-47920311D01*
X102578542Y-47621725D01*
X102519713Y-47313333D01*
X102500000Y-47000000D01*
X102519713Y-46686667D01*
X102578542Y-46378275D01*
X102675559Y-46079689D01*
X102809233Y-45795616D01*
X102977458Y-45530537D01*
X103177578Y-45288632D01*
X103406440Y-45073717D01*
X103660433Y-44889180D01*
X103935552Y-44737932D01*
X104227458Y-44622359D01*
X104531547Y-44544282D01*
X104843024Y-44504933D01*
X105156976Y-44504933D01*
X105468453Y-44544282D01*
G37*
G36*
X173268453Y-44544282D02*
G01*
X173572542Y-44622359D01*
X173864448Y-44737932D01*
X174139567Y-44889180D01*
X174393560Y-45073717D01*
X174622422Y-45288632D01*
X174822542Y-45530537D01*
X174990767Y-45795616D01*
X175124441Y-46079689D01*
X175221458Y-46378275D01*
X175280287Y-46686667D01*
X175300000Y-47000000D01*
X175280287Y-47313333D01*
X175221458Y-47621725D01*
X175124441Y-47920311D01*
X174990767Y-48204384D01*
X174822542Y-48469463D01*
X174622422Y-48711368D01*
X174393560Y-48926283D01*
X174139567Y-49110820D01*
X173864448Y-49262068D01*
X173572542Y-49377641D01*
X173268453Y-49455718D01*
X172956976Y-49495067D01*
X172643024Y-49495067D01*
X172331547Y-49455718D01*
X172027458Y-49377641D01*
X171735552Y-49262068D01*
X171460433Y-49110820D01*
X171206440Y-48926283D01*
X170977578Y-48711368D01*
X170777458Y-48469463D01*
X170609233Y-48204384D01*
X170475559Y-47920311D01*
X170378542Y-47621725D01*
X170319713Y-47313333D01*
X170300000Y-47000000D01*
X170319713Y-46686667D01*
X170378542Y-46378275D01*
X170475559Y-46079689D01*
X170609233Y-45795616D01*
X170777458Y-45530537D01*
X170977578Y-45288632D01*
X171206440Y-45073717D01*
X171460433Y-44889180D01*
X171735552Y-44737932D01*
X172027458Y-44622359D01*
X172331547Y-44544282D01*
X172643024Y-44504933D01*
X172956976Y-44504933D01*
X173268453Y-44544282D01*
G37*
G36*
X119330000Y-47240000D02*
G01*
X116910000Y-47240000D01*
X116910000Y-42160000D01*
X119330000Y-42160000D01*
X119330000Y-47240000D01*
G37*
G36*
X128090000Y-47240000D02*
G01*
X125670000Y-47240000D01*
X125670000Y-42160000D01*
X128090000Y-42160000D01*
X128090000Y-47240000D01*
G37*
M02*
