%TF.GenerationSoftware,KiCad,Pcbnew,7.0.10*%
%TF.CreationDate,2024-04-01T00:34:45-05:00*%
%TF.ProjectId,Radar2_ExtFilter,52616461-7232-45f4-9578-7446696c7465,rev?*%
%TF.SameCoordinates,Original*%
%TF.FileFunction,Copper,L2,Inr*%
%TF.FilePolarity,Positive*%
%FSLAX46Y46*%
G04 Gerber Fmt 4.6, Leading zero omitted, Abs format (unit mm)*
G04 Created by KiCad (PCBNEW 7.0.10) date 2024-04-01 00:34:45*
%MOMM*%
%LPD*%
G01*
G04 APERTURE LIST*
%TA.AperFunction,ComponentPad*%
%ADD10C,0.970000*%
%TD*%
%TA.AperFunction,ComponentPad*%
%ADD11C,5.000000*%
%TD*%
%TA.AperFunction,ComponentPad*%
%ADD12C,0.610000*%
%TD*%
%TA.AperFunction,ComponentPad*%
%ADD13R,1.700000X1.700000*%
%TD*%
%TA.AperFunction,ComponentPad*%
%ADD14O,1.700000X1.700000*%
%TD*%
%TA.AperFunction,ViaPad*%
%ADD15C,0.600000*%
%TD*%
%TA.AperFunction,ViaPad*%
%ADD16C,0.800000*%
%TD*%
%TA.AperFunction,Conductor*%
%ADD17C,0.200000*%
%TD*%
%TA.AperFunction,Conductor*%
%ADD18C,0.250000*%
%TD*%
G04 APERTURE END LIST*
D10*
%TO.N,GND*%
%TO.C,J2*%
X123370000Y-82760000D03*
X132130000Y-82760000D03*
%TD*%
D11*
%TO.N,GND*%
%TO.C,H4*%
X172800000Y-84000000D03*
%TD*%
D10*
%TO.N,GND*%
%TO.C,J1*%
X126880000Y-48140000D03*
X118120000Y-48140000D03*
%TD*%
D11*
%TO.N,GND*%
%TO.C,H3*%
X105000000Y-84000000D03*
%TD*%
D12*
%TO.N,GND*%
%TO.C,FL1*%
X116725000Y-61735000D03*
X116725000Y-59525000D03*
%TD*%
D10*
%TO.N,GND*%
%TO.C,J5*%
X170920000Y-65010000D03*
X170920000Y-56250000D03*
%TD*%
D11*
%TO.N,GND*%
%TO.C,H2*%
X172800000Y-47000000D03*
%TD*%
D13*
%TO.N,/RadarRx/IF_OUT*%
%TO.C,J4*%
X165443464Y-83300000D03*
D14*
%TO.N,GND*%
X162903464Y-83300000D03*
%TO.N,+3V3*%
X160363464Y-83300000D03*
%TO.N,Net-(J4-Pin_4)*%
X157823464Y-83300000D03*
%TO.N,GND*%
X155283464Y-83300000D03*
%TD*%
D13*
%TO.N,/RadarTx/VCO_Tune*%
%TO.C,J3*%
X102570000Y-68340000D03*
D14*
%TO.N,+3V0*%
X102570000Y-70880000D03*
%TO.N,+3V3*%
X102570000Y-73420000D03*
%TO.N,+10V*%
X102570000Y-75960000D03*
%TO.N,GND*%
X102570000Y-78500000D03*
%TD*%
D11*
%TO.N,GND*%
%TO.C,H1*%
X105000000Y-47000000D03*
%TD*%
D15*
%TO.N,+3V0*%
X106500000Y-70850000D03*
X106200000Y-55800000D03*
X106200000Y-57200000D03*
%TO.N,GND*%
X158000000Y-50000000D03*
X138900000Y-58900000D03*
X134025000Y-64000000D03*
X164000000Y-46000000D03*
X159100000Y-58200000D03*
X115000000Y-82000000D03*
X146000000Y-46000000D03*
X154000000Y-80000000D03*
X120700000Y-53000000D03*
X100000000Y-54000000D03*
X152000000Y-78000000D03*
X152000000Y-76000000D03*
X144000000Y-50000000D03*
X158000000Y-46000000D03*
X156000000Y-57400000D03*
X154000000Y-64000000D03*
X110000000Y-52000000D03*
X132500000Y-58900000D03*
X140000000Y-88000000D03*
X110000000Y-46000000D03*
X144600000Y-61400000D03*
X150000000Y-48000000D03*
X120700000Y-58600000D03*
X142000000Y-80000000D03*
X124300000Y-58600000D03*
X144000000Y-80000000D03*
X166000000Y-54000000D03*
X134000000Y-82000000D03*
X125800000Y-73400000D03*
X117000000Y-84000000D03*
X128500000Y-58900000D03*
X144000000Y-72000000D03*
X122300000Y-63500000D03*
X129600000Y-68400000D03*
X169000000Y-80000000D03*
X134000000Y-78000000D03*
X163200000Y-69400000D03*
X124300000Y-49800000D03*
X140000000Y-50000000D03*
X125000000Y-76600000D03*
X160000000Y-44000000D03*
X142000000Y-46000000D03*
X152000000Y-46000000D03*
X142000000Y-50000000D03*
X136000000Y-54000000D03*
X100800000Y-57800000D03*
X144000000Y-46000000D03*
X154000000Y-55800000D03*
X152700000Y-58700000D03*
X146000000Y-64000000D03*
X135700000Y-58900000D03*
X125000000Y-61600000D03*
X169800000Y-66200000D03*
X133970090Y-53985045D03*
X125800000Y-61600000D03*
X125000000Y-80600000D03*
X143900000Y-62500000D03*
X130900000Y-62400000D03*
X150000000Y-66000000D03*
X144000000Y-64000000D03*
X146000000Y-74000000D03*
X146000000Y-44000000D03*
X142000000Y-82000000D03*
X117000000Y-82000000D03*
X102000000Y-44000000D03*
X125000000Y-75800000D03*
X100000000Y-44000000D03*
X156000000Y-52000000D03*
X134200000Y-68000000D03*
X134000000Y-55800000D03*
X168000000Y-55800000D03*
X135000000Y-57500000D03*
X118000000Y-42800000D03*
X100800000Y-63400000D03*
X138000000Y-72000000D03*
X130000000Y-63000000D03*
X166000000Y-44000000D03*
X146000000Y-82000000D03*
X105000000Y-80000000D03*
X167200000Y-69400000D03*
X148000000Y-46000000D03*
X109000000Y-78000000D03*
X115600000Y-58800000D03*
X161200000Y-69400000D03*
X120700000Y-55500000D03*
X115000000Y-68000000D03*
X128000000Y-54000000D03*
X117000000Y-50000000D03*
X154000000Y-76000000D03*
X107000000Y-80000000D03*
X120700000Y-51400000D03*
X154000000Y-48000000D03*
X156000000Y-48000000D03*
X136000000Y-46000000D03*
X142000000Y-74000000D03*
X126000000Y-57500000D03*
X168000000Y-44000000D03*
X150000000Y-80000000D03*
X138000000Y-74000000D03*
X134000000Y-46000000D03*
X125000000Y-77400000D03*
X159900000Y-58200000D03*
X146000000Y-78000000D03*
X164000000Y-76800000D03*
X138100000Y-58900000D03*
X130400000Y-81400000D03*
X134500000Y-62400000D03*
X132000000Y-52000000D03*
X150000000Y-44000000D03*
X102000000Y-52000000D03*
X156000000Y-78000000D03*
X137300000Y-58900000D03*
X166000000Y-50000000D03*
X134100000Y-58900000D03*
X136000000Y-55800000D03*
X156000000Y-68000000D03*
X152000000Y-64000000D03*
X114000000Y-62400000D03*
X139000000Y-62400000D03*
X132000000Y-46000000D03*
X110000000Y-50000000D03*
X148000000Y-64000000D03*
X158000000Y-78000000D03*
X134000000Y-50000000D03*
X139600000Y-52000000D03*
X129000000Y-57500000D03*
X156000000Y-55800000D03*
X144000000Y-44000000D03*
X138000000Y-46000000D03*
X104000000Y-52000000D03*
X121000000Y-68000000D03*
X156700000Y-58700000D03*
X100000000Y-50000000D03*
X148000000Y-50000000D03*
X152000000Y-66000000D03*
X162000000Y-48000000D03*
X160000000Y-54000000D03*
X168200000Y-68000000D03*
X142500000Y-60880000D03*
X149500000Y-62500000D03*
X117000000Y-86000000D03*
X114000000Y-48000000D03*
X125000000Y-75000000D03*
X168200000Y-66200000D03*
X168200000Y-64200000D03*
X119000000Y-82000000D03*
X151900000Y-58700000D03*
X158000000Y-55800000D03*
X164000000Y-44000000D03*
X130000000Y-50000000D03*
X140000000Y-68000000D03*
X124300000Y-52200000D03*
X124300000Y-54600000D03*
X132000000Y-44000000D03*
X163000000Y-78000000D03*
X125000000Y-74200000D03*
X111000000Y-80000000D03*
X156000000Y-46000000D03*
X127500000Y-55800000D03*
X148000000Y-82000000D03*
X148000000Y-48000000D03*
X127000000Y-46000000D03*
X150000000Y-72000000D03*
X144000000Y-86000000D03*
X140000000Y-86000000D03*
X164000000Y-52000000D03*
X132000000Y-80000000D03*
X124300000Y-53000000D03*
X124300000Y-51400000D03*
X133300000Y-58900000D03*
X120700000Y-54600000D03*
X123000000Y-62400000D03*
X175000000Y-69400000D03*
X112000000Y-48000000D03*
X157500000Y-58200000D03*
X130500000Y-57500000D03*
X165600000Y-58200000D03*
X110000000Y-48000000D03*
X132400000Y-86400000D03*
X152000000Y-74000000D03*
X165000000Y-78000000D03*
X150000000Y-50000000D03*
X136000000Y-48000000D03*
X154000000Y-74000000D03*
X150300000Y-58700000D03*
X139800000Y-62400000D03*
X130400000Y-77400000D03*
X160000000Y-46000000D03*
X119000000Y-84000000D03*
X158000000Y-80000000D03*
X129600000Y-64800000D03*
X125000000Y-79800000D03*
X136000000Y-86000000D03*
X158300000Y-58200000D03*
X164000000Y-50000000D03*
X134000000Y-80000000D03*
X121000000Y-80000000D03*
X170000000Y-63000000D03*
X162000000Y-50000000D03*
X113000000Y-82000000D03*
X140000000Y-44000000D03*
X153500000Y-58700000D03*
X168400000Y-63000000D03*
X155100000Y-58700000D03*
X136000000Y-80000000D03*
X111000000Y-68000000D03*
X144000000Y-82000000D03*
X114800000Y-58800000D03*
X135300000Y-62400000D03*
X118000000Y-44400000D03*
X148000000Y-88000000D03*
X172600000Y-56200000D03*
X112000000Y-44000000D03*
X100000000Y-48000000D03*
X130000000Y-48000000D03*
X136000000Y-82000000D03*
X164000000Y-55800000D03*
X108025003Y-51981254D03*
X127000000Y-44400000D03*
X151100000Y-58700000D03*
X146000000Y-48000000D03*
X140000000Y-74000000D03*
X132000000Y-55800000D03*
X134000000Y-48000000D03*
X156000000Y-64000000D03*
X113000000Y-80000000D03*
X150000000Y-54000000D03*
X150000000Y-86000000D03*
X126100000Y-58900000D03*
X165200000Y-69400000D03*
X152000000Y-54000000D03*
X164000000Y-48000000D03*
X146000000Y-86000000D03*
X114000000Y-46000000D03*
X171200000Y-69400000D03*
X173200000Y-69400000D03*
X128000000Y-50000000D03*
X169200000Y-63000000D03*
X126000000Y-54000000D03*
X132025000Y-64000000D03*
X144000000Y-68000000D03*
X158000000Y-54000000D03*
X117000000Y-68000000D03*
X100000000Y-46000000D03*
X149600000Y-59700000D03*
X130500000Y-55800000D03*
X125000000Y-79000000D03*
X146000000Y-68000000D03*
X130400000Y-80600000D03*
X150000000Y-74000000D03*
X118000000Y-46000000D03*
X123200000Y-88000000D03*
X124200000Y-61600000D03*
X169000000Y-78000000D03*
X115000000Y-84000000D03*
X122200000Y-62400000D03*
X154000000Y-66000000D03*
X126000000Y-50000000D03*
X121000000Y-82000000D03*
X125300000Y-58900000D03*
X147900000Y-62500000D03*
X138000000Y-64000000D03*
X146000000Y-76000000D03*
X109000000Y-80000000D03*
X142000000Y-72000000D03*
X130300000Y-61900000D03*
X160000000Y-55800000D03*
X148000000Y-76000000D03*
X162000000Y-54000000D03*
X154000000Y-52000000D03*
X106000000Y-52000000D03*
X114800000Y-62400000D03*
X133700000Y-62400000D03*
X158000000Y-44000000D03*
X140000000Y-78000000D03*
X132000000Y-54000000D03*
X115000000Y-86000000D03*
X130000000Y-44000000D03*
X148700000Y-62500000D03*
X138000000Y-68000000D03*
X118200000Y-62400000D03*
X142000000Y-68000000D03*
X146000000Y-66000000D03*
X162000000Y-76800000D03*
X170000000Y-76800000D03*
X160000000Y-50000000D03*
X140000000Y-48000000D03*
X140600000Y-61400000D03*
X168000000Y-54000000D03*
X168000000Y-58200000D03*
X162000000Y-55800000D03*
X127500000Y-57500000D03*
X137800000Y-52000000D03*
X158800000Y-63000000D03*
X168000000Y-48000000D03*
X168000000Y-52000000D03*
X142000000Y-78000000D03*
X162600000Y-58800000D03*
X111000000Y-84000000D03*
X162000000Y-44000000D03*
X144000000Y-78000000D03*
X107000000Y-78000000D03*
X113200000Y-58800000D03*
X120700000Y-49000000D03*
X121400000Y-62400000D03*
X144000000Y-48000000D03*
X102000000Y-50000000D03*
X150000000Y-88000000D03*
X146000000Y-52000000D03*
X129300000Y-58900000D03*
X113000000Y-84000000D03*
X156000000Y-54000000D03*
X124300000Y-49000000D03*
X168000000Y-76800000D03*
X134000000Y-44000000D03*
X126900000Y-58900000D03*
X156000000Y-80000000D03*
X110000000Y-44000000D03*
X136500000Y-58900000D03*
X163800000Y-62600000D03*
X119800000Y-58800000D03*
X133500000Y-57500000D03*
X148000000Y-80000000D03*
X108000000Y-50000000D03*
X166000000Y-52000000D03*
X150000000Y-68000000D03*
X126000000Y-52000000D03*
X132600000Y-62425000D03*
X130000000Y-54000000D03*
X148000000Y-54000000D03*
X152000000Y-44000000D03*
X174000000Y-68000000D03*
X154000000Y-78000000D03*
X142000000Y-44000000D03*
X125000000Y-70200000D03*
X129000000Y-55800000D03*
X156700000Y-59600000D03*
X170000000Y-88000000D03*
X130100000Y-58900000D03*
X138000000Y-80000000D03*
X130400000Y-79000000D03*
X140000000Y-82000000D03*
X128000000Y-52000000D03*
X162000000Y-52000000D03*
X128800000Y-61600000D03*
X119800000Y-62400000D03*
X129600000Y-79200000D03*
X168000000Y-88000000D03*
X170200000Y-68000000D03*
X108000000Y-44000000D03*
X124300000Y-57075000D03*
X136500000Y-57500000D03*
X168000000Y-84000000D03*
X152000000Y-50000000D03*
X152000000Y-48000000D03*
X138000000Y-48000000D03*
X119000000Y-58800000D03*
X120700000Y-56300000D03*
X130000000Y-46000000D03*
X125000000Y-78200000D03*
X168000000Y-50000000D03*
X117400000Y-58800000D03*
X142000000Y-88000000D03*
X146300000Y-62500000D03*
X132000000Y-57500000D03*
X119000000Y-68000000D03*
X125000000Y-69400000D03*
X112000000Y-46000000D03*
X109600000Y-59800000D03*
X130400000Y-78200000D03*
X152000000Y-86000000D03*
X124300000Y-56300000D03*
X138000000Y-78000000D03*
X132000000Y-48000000D03*
X138000000Y-76000000D03*
X160000000Y-48000000D03*
X140000000Y-76000000D03*
X102000000Y-54000000D03*
X158000000Y-52000000D03*
X152000000Y-55800000D03*
X111000000Y-86000000D03*
X148000000Y-66000000D03*
X120700000Y-49800000D03*
X136000000Y-78000000D03*
X168000000Y-46000000D03*
X160000000Y-80000000D03*
X154000000Y-46000000D03*
X100800000Y-61400000D03*
X154000000Y-72000000D03*
X158000000Y-48000000D03*
X131700000Y-62400000D03*
X136000000Y-50000000D03*
X154000000Y-44000000D03*
X167000000Y-78000000D03*
X166600000Y-61600000D03*
X123000000Y-68000000D03*
X113000000Y-68000000D03*
X148000000Y-72000000D03*
X125000000Y-68600000D03*
X131700000Y-58900000D03*
X152000000Y-68000000D03*
X113000000Y-86000000D03*
X156000000Y-76000000D03*
X120700000Y-50600000D03*
X111000000Y-82000000D03*
X156000000Y-72000000D03*
X123200000Y-86400000D03*
X137400000Y-62400000D03*
X158800000Y-64400000D03*
X119000000Y-86000000D03*
X125000000Y-67800000D03*
X148700000Y-58700000D03*
X146600000Y-58700000D03*
X120700000Y-52200000D03*
X174800000Y-65000000D03*
X138000000Y-44000000D03*
X148000000Y-68000000D03*
X166000000Y-48000000D03*
X115600000Y-62400000D03*
X150000000Y-46000000D03*
X166000000Y-76800000D03*
X127700000Y-58900000D03*
X100800000Y-55800000D03*
X172800000Y-65000000D03*
X147900000Y-58700000D03*
X109600000Y-61800000D03*
X140000000Y-46000000D03*
X174600000Y-56200000D03*
X167200000Y-58200000D03*
X120700000Y-53800000D03*
X120700000Y-57800000D03*
X123000000Y-80000000D03*
X156000000Y-66000000D03*
X146000000Y-50000000D03*
X124300000Y-53800000D03*
X124300000Y-55500000D03*
X110600000Y-60800000D03*
X140000000Y-80000000D03*
X132000000Y-50000000D03*
X138000000Y-57500000D03*
X138000000Y-50000000D03*
X150000000Y-64000000D03*
X167600000Y-63000000D03*
X119000000Y-50000000D03*
X152000000Y-57400000D03*
X120600000Y-62400000D03*
X155900000Y-58700000D03*
X140000000Y-72000000D03*
X136000000Y-88000000D03*
X132200000Y-68000000D03*
X144000000Y-74000000D03*
X152000000Y-88000000D03*
X148000000Y-74000000D03*
X142000000Y-76000000D03*
X147100000Y-62500000D03*
X129600000Y-67600000D03*
X118200000Y-58800000D03*
X154000000Y-50000000D03*
X132400000Y-88000000D03*
X164000000Y-54000000D03*
X166000000Y-46000000D03*
X136000000Y-44000000D03*
X146000000Y-88000000D03*
X130000000Y-64000000D03*
X144000000Y-88000000D03*
X100000000Y-52000000D03*
X172200000Y-68000000D03*
X126000000Y-55800000D03*
X150000000Y-78000000D03*
X136000000Y-52000000D03*
X168000000Y-85950000D03*
X125000000Y-81400000D03*
X169800000Y-64200000D03*
X152000000Y-52000000D03*
X134000000Y-52000000D03*
X150000000Y-76000000D03*
X124300000Y-48200000D03*
X130000000Y-52000000D03*
X146000000Y-72000000D03*
X152000000Y-80000000D03*
X119000000Y-62400000D03*
X119000000Y-54000000D03*
X130900000Y-58900000D03*
X154000000Y-68000000D03*
X117400000Y-62400000D03*
X156000000Y-50000000D03*
X138000000Y-82000000D03*
X149500000Y-61600000D03*
X154300000Y-58700000D03*
X150000000Y-52000000D03*
X136200000Y-68000000D03*
X148000000Y-44000000D03*
X124300000Y-50600000D03*
X136550000Y-62425000D03*
X156000000Y-44000000D03*
X152000000Y-82000000D03*
X152000000Y-72000000D03*
X100800000Y-59800000D03*
X136025000Y-64000000D03*
X127000000Y-42800000D03*
X138000000Y-86000000D03*
X169200000Y-69400000D03*
X120700000Y-57100000D03*
X154000000Y-57400000D03*
X148000000Y-86000000D03*
X166000000Y-55800000D03*
X105000000Y-78000000D03*
X148000000Y-52000000D03*
X142000000Y-86000000D03*
X120700000Y-48200000D03*
X160000000Y-52000000D03*
X144700000Y-62500000D03*
X124300000Y-57800000D03*
X114000000Y-44000000D03*
X166400000Y-58200000D03*
X138200000Y-62400000D03*
X138000000Y-88000000D03*
X156700000Y-61600000D03*
X134900000Y-58900000D03*
X146000000Y-80000000D03*
X149500000Y-58700000D03*
X113200000Y-62400000D03*
X130400000Y-79800000D03*
X150000000Y-82000000D03*
X137800000Y-55375000D03*
X162000000Y-46000000D03*
X145500000Y-62500000D03*
X148000000Y-78000000D03*
X144000000Y-76000000D03*
X142000000Y-48000000D03*
X114000000Y-58800000D03*
X154000000Y-54000000D03*
%TO.N,+5V*%
X133350000Y-72338464D03*
X134050000Y-71138464D03*
D16*
X123592998Y-71500000D03*
D15*
X160000000Y-68400000D03*
D16*
X122600000Y-72750000D03*
X122600000Y-71000000D03*
D15*
X160000000Y-67400000D03*
X132970000Y-71130000D03*
X159200000Y-67800000D03*
%TO.N,/RadarTx/VCO_Tune*%
X112600000Y-56800000D03*
%TO.N,+3V3*%
X141200000Y-52800000D03*
X142200000Y-52800000D03*
D16*
%TO.N,/RadarRx/IF_OUT*%
X156000000Y-74000000D03*
D15*
%TO.N,+10V*%
X116200000Y-54100000D03*
%TO.N,/RadarTx/VCO_Scaled*%
X114000000Y-57800000D03*
X109400000Y-57800000D03*
%TD*%
D17*
%TO.N,/RadarTx/VCO_Tune*%
X102000000Y-57950000D02*
X102000000Y-67150000D01*
X103350000Y-56600000D02*
X102000000Y-57950000D01*
X112400000Y-56600000D02*
X103350000Y-56600000D01*
X112600000Y-56800000D02*
X112400000Y-56600000D01*
X102000000Y-67150000D02*
X102570000Y-67720000D01*
X102570000Y-67720000D02*
X102570000Y-68340000D01*
D18*
%TO.N,+10V*%
X114725000Y-52625000D02*
X116200000Y-54100000D01*
X102570000Y-75960000D02*
X99700000Y-73090000D01*
X99700000Y-55300000D02*
X102375000Y-52625000D01*
X99700000Y-73090000D02*
X99700000Y-55300000D01*
X102375000Y-52625000D02*
X114725000Y-52625000D01*
%TD*%
%TA.AperFunction,Conductor*%
%TO.N,GND*%
G36*
X120918208Y-42021322D02*
G01*
X120948648Y-42074045D01*
X120950000Y-42089500D01*
X120950000Y-46600000D01*
X120950000Y-47650000D01*
X120950001Y-47650000D01*
X121949999Y-47650000D01*
X121950000Y-47650000D01*
X121950000Y-47439000D01*
X121970822Y-47381792D01*
X122023545Y-47351352D01*
X122039000Y-47350000D01*
X122961000Y-47350000D01*
X123018208Y-47370822D01*
X123048648Y-47423545D01*
X123050000Y-47439000D01*
X123050000Y-47650000D01*
X123050001Y-47650000D01*
X123949999Y-47650000D01*
X123950000Y-47650000D01*
X123950000Y-42089500D01*
X123970822Y-42032292D01*
X124023545Y-42001852D01*
X124039000Y-42000500D01*
X177010500Y-42000500D01*
X177067708Y-42021322D01*
X177098148Y-42074045D01*
X177099500Y-42089500D01*
X177099500Y-59091000D01*
X177078678Y-59148208D01*
X177025955Y-59178648D01*
X177010500Y-59180000D01*
X172500000Y-59180000D01*
X171400000Y-59180000D01*
X171400000Y-60080000D01*
X171611000Y-60080000D01*
X171668208Y-60100822D01*
X171698648Y-60153545D01*
X171700000Y-60169000D01*
X171700000Y-61091000D01*
X171679178Y-61148208D01*
X171626455Y-61178648D01*
X171611000Y-61180000D01*
X171400000Y-61180000D01*
X171400000Y-62080000D01*
X177010500Y-62080000D01*
X177067708Y-62100822D01*
X177098148Y-62153545D01*
X177099500Y-62169000D01*
X177099500Y-88910500D01*
X177078678Y-88967708D01*
X177025955Y-88998148D01*
X177010500Y-88999500D01*
X129289000Y-88999500D01*
X129231792Y-88978678D01*
X129201352Y-88925955D01*
X129200000Y-88910500D01*
X129200000Y-83300003D01*
X156767881Y-83300003D01*
X156788162Y-83505926D01*
X156788164Y-83505934D01*
X156848230Y-83703950D01*
X156848231Y-83703953D01*
X156848232Y-83703954D01*
X156945779Y-83886450D01*
X157077054Y-84046410D01*
X157237014Y-84177685D01*
X157419510Y-84275232D01*
X157617530Y-84335300D01*
X157617534Y-84335300D01*
X157617537Y-84335301D01*
X157823460Y-84355583D01*
X157823464Y-84355583D01*
X157823468Y-84355583D01*
X158029390Y-84335301D01*
X158029391Y-84335300D01*
X158029398Y-84335300D01*
X158227418Y-84275232D01*
X158409914Y-84177685D01*
X158569874Y-84046410D01*
X158701149Y-83886450D01*
X158798696Y-83703954D01*
X158858764Y-83505934D01*
X158858937Y-83504178D01*
X158879047Y-83300003D01*
X159307881Y-83300003D01*
X159328162Y-83505926D01*
X159328164Y-83505934D01*
X159388230Y-83703950D01*
X159388231Y-83703953D01*
X159388232Y-83703954D01*
X159485779Y-83886450D01*
X159617054Y-84046410D01*
X159777014Y-84177685D01*
X159959510Y-84275232D01*
X160157530Y-84335300D01*
X160157534Y-84335300D01*
X160157537Y-84335301D01*
X160363460Y-84355583D01*
X160363464Y-84355583D01*
X160363468Y-84355583D01*
X160569390Y-84335301D01*
X160569391Y-84335300D01*
X160569398Y-84335300D01*
X160767418Y-84275232D01*
X160949914Y-84177685D01*
X160959580Y-84169752D01*
X164392964Y-84169752D01*
X164404596Y-84228231D01*
X164436003Y-84275233D01*
X164448912Y-84294552D01*
X164448915Y-84294554D01*
X164515232Y-84338867D01*
X164572154Y-84350189D01*
X164573716Y-84350500D01*
X164573720Y-84350500D01*
X166313208Y-84350500D01*
X166313212Y-84350500D01*
X166371695Y-84338867D01*
X166438016Y-84294552D01*
X166482331Y-84228231D01*
X166493964Y-84169748D01*
X166493964Y-82430252D01*
X166482331Y-82371769D01*
X166482331Y-82371768D01*
X166438018Y-82305451D01*
X166438016Y-82305448D01*
X166438012Y-82305445D01*
X166371695Y-82261132D01*
X166313216Y-82249500D01*
X166313212Y-82249500D01*
X164573716Y-82249500D01*
X164573711Y-82249500D01*
X164515232Y-82261132D01*
X164448915Y-82305445D01*
X164448909Y-82305451D01*
X164404596Y-82371768D01*
X164392964Y-82430247D01*
X164392964Y-84169752D01*
X160959580Y-84169752D01*
X161109874Y-84046410D01*
X161241149Y-83886450D01*
X161338696Y-83703954D01*
X161398764Y-83505934D01*
X161398937Y-83504178D01*
X161419047Y-83300003D01*
X161419047Y-83299996D01*
X161398765Y-83094073D01*
X161398764Y-83094070D01*
X161398764Y-83094066D01*
X161338696Y-82896046D01*
X161241149Y-82713550D01*
X161109874Y-82553590D01*
X160949914Y-82422315D01*
X160767418Y-82324768D01*
X160767417Y-82324767D01*
X160767414Y-82324766D01*
X160569398Y-82264700D01*
X160569390Y-82264698D01*
X160363468Y-82244417D01*
X160363460Y-82244417D01*
X160157537Y-82264698D01*
X160157529Y-82264700D01*
X159959513Y-82324766D01*
X159777012Y-82422316D01*
X159617058Y-82553586D01*
X159617050Y-82553594D01*
X159485780Y-82713548D01*
X159388230Y-82896049D01*
X159328164Y-83094065D01*
X159328162Y-83094073D01*
X159307881Y-83299996D01*
X159307881Y-83300003D01*
X158879047Y-83300003D01*
X158879047Y-83299996D01*
X158858765Y-83094073D01*
X158858764Y-83094070D01*
X158858764Y-83094066D01*
X158798696Y-82896046D01*
X158701149Y-82713550D01*
X158569874Y-82553590D01*
X158409914Y-82422315D01*
X158227418Y-82324768D01*
X158227417Y-82324767D01*
X158227414Y-82324766D01*
X158029398Y-82264700D01*
X158029390Y-82264698D01*
X157823468Y-82244417D01*
X157823460Y-82244417D01*
X157617537Y-82264698D01*
X157617529Y-82264700D01*
X157419513Y-82324766D01*
X157237012Y-82422316D01*
X157077058Y-82553586D01*
X157077050Y-82553594D01*
X156945780Y-82713548D01*
X156848230Y-82896049D01*
X156788164Y-83094065D01*
X156788162Y-83094073D01*
X156767881Y-83299996D01*
X156767881Y-83300003D01*
X129200000Y-83300003D01*
X129200000Y-83225001D01*
X129200000Y-83225000D01*
X128300000Y-83225000D01*
X128300000Y-83225001D01*
X128300000Y-83436000D01*
X128279178Y-83493208D01*
X128226455Y-83523648D01*
X128211000Y-83525000D01*
X127289000Y-83525000D01*
X127231792Y-83504178D01*
X127201352Y-83451455D01*
X127200000Y-83436000D01*
X127200000Y-83225001D01*
X127200000Y-83225000D01*
X126300000Y-83225000D01*
X126300000Y-83225001D01*
X126300000Y-88910500D01*
X126279178Y-88967708D01*
X126226455Y-88998148D01*
X126211000Y-88999500D01*
X98089500Y-88999500D01*
X98032292Y-88978678D01*
X98001852Y-88925955D01*
X98000500Y-88910500D01*
X98000500Y-73118806D01*
X99370735Y-73118806D01*
X99380908Y-73156773D01*
X99382588Y-73164350D01*
X99389411Y-73203043D01*
X99390824Y-73205490D01*
X99399714Y-73226952D01*
X99400446Y-73229685D01*
X99422982Y-73261869D01*
X99427154Y-73268418D01*
X99446804Y-73302454D01*
X99476905Y-73327711D01*
X99482630Y-73332956D01*
X101586741Y-75437067D01*
X101612469Y-75492243D01*
X101602302Y-75541950D01*
X101594766Y-75556049D01*
X101534700Y-75754065D01*
X101534698Y-75754073D01*
X101514417Y-75959996D01*
X101514417Y-75960003D01*
X101534698Y-76165926D01*
X101534700Y-76165934D01*
X101594766Y-76363950D01*
X101594767Y-76363953D01*
X101594768Y-76363954D01*
X101692315Y-76546450D01*
X101823590Y-76706410D01*
X101983550Y-76837685D01*
X102166046Y-76935232D01*
X102364066Y-76995300D01*
X102364070Y-76995300D01*
X102364073Y-76995301D01*
X102569996Y-77015583D01*
X102570000Y-77015583D01*
X102570004Y-77015583D01*
X102775926Y-76995301D01*
X102775927Y-76995300D01*
X102775934Y-76995300D01*
X102973954Y-76935232D01*
X103156450Y-76837685D01*
X103316410Y-76706410D01*
X103447685Y-76546450D01*
X103545232Y-76363954D01*
X103605300Y-76165934D01*
X103625583Y-75960000D01*
X103605300Y-75754066D01*
X103545232Y-75556046D01*
X103447685Y-75373550D01*
X103316410Y-75213590D01*
X103156450Y-75082315D01*
X102973954Y-74984768D01*
X102973953Y-74984767D01*
X102973950Y-74984766D01*
X102775934Y-74924700D01*
X102775926Y-74924698D01*
X102570004Y-74904417D01*
X102569996Y-74904417D01*
X102364073Y-74924698D01*
X102364065Y-74924700D01*
X102166049Y-74984766D01*
X102151950Y-74992302D01*
X102091681Y-75000902D01*
X102047067Y-74976741D01*
X100490329Y-73420003D01*
X101514417Y-73420003D01*
X101534698Y-73625926D01*
X101534700Y-73625934D01*
X101594766Y-73823950D01*
X101594767Y-73823953D01*
X101594768Y-73823954D01*
X101692315Y-74006450D01*
X101823590Y-74166410D01*
X101983550Y-74297685D01*
X102166046Y-74395232D01*
X102364066Y-74455300D01*
X102364070Y-74455300D01*
X102364073Y-74455301D01*
X102569996Y-74475583D01*
X102570000Y-74475583D01*
X102570004Y-74475583D01*
X102775926Y-74455301D01*
X102775927Y-74455300D01*
X102775934Y-74455300D01*
X102973954Y-74395232D01*
X103156450Y-74297685D01*
X103316410Y-74166410D01*
X103447685Y-74006450D01*
X103451133Y-74000000D01*
X155394318Y-74000000D01*
X155414957Y-74156767D01*
X155475463Y-74302841D01*
X155475465Y-74302843D01*
X155571713Y-74428276D01*
X155571718Y-74428282D01*
X155571722Y-74428285D01*
X155571723Y-74428286D01*
X155697156Y-74524534D01*
X155697158Y-74524536D01*
X155843233Y-74585042D01*
X155843238Y-74585044D01*
X156000000Y-74605682D01*
X156156762Y-74585044D01*
X156302841Y-74524536D01*
X156428282Y-74428282D01*
X156524536Y-74302841D01*
X156585044Y-74156762D01*
X156605682Y-74000000D01*
X156585044Y-73843238D01*
X156577056Y-73823954D01*
X156524536Y-73697158D01*
X156524534Y-73697156D01*
X156428286Y-73571723D01*
X156428285Y-73571722D01*
X156428282Y-73571718D01*
X156428277Y-73571714D01*
X156428276Y-73571713D01*
X156302843Y-73475465D01*
X156302841Y-73475463D01*
X156156766Y-73414957D01*
X156156767Y-73414957D01*
X156156763Y-73414956D01*
X156156762Y-73414956D01*
X156000000Y-73394318D01*
X155843238Y-73414956D01*
X155843237Y-73414956D01*
X155843232Y-73414957D01*
X155697158Y-73475463D01*
X155697156Y-73475465D01*
X155571723Y-73571713D01*
X155571713Y-73571723D01*
X155475465Y-73697156D01*
X155475463Y-73697158D01*
X155414957Y-73843232D01*
X155394318Y-74000000D01*
X103451133Y-74000000D01*
X103545232Y-73823954D01*
X103605300Y-73625934D01*
X103605301Y-73625926D01*
X103625583Y-73420003D01*
X103625583Y-73419996D01*
X103605301Y-73214073D01*
X103605300Y-73214070D01*
X103605300Y-73214066D01*
X103545232Y-73016046D01*
X103447685Y-72833550D01*
X103379118Y-72750000D01*
X121994318Y-72750000D01*
X122014957Y-72906767D01*
X122075463Y-73052841D01*
X122075465Y-73052843D01*
X122171713Y-73178276D01*
X122171718Y-73178282D01*
X122171722Y-73178285D01*
X122171723Y-73178286D01*
X122297156Y-73274534D01*
X122297158Y-73274536D01*
X122443233Y-73335042D01*
X122443238Y-73335044D01*
X122600000Y-73355682D01*
X122756762Y-73335044D01*
X122774466Y-73327711D01*
X122902841Y-73274536D01*
X123028282Y-73178282D01*
X123124536Y-73052841D01*
X123177048Y-72926065D01*
X123185042Y-72906767D01*
X123185042Y-72906766D01*
X123185044Y-72906762D01*
X123205682Y-72750000D01*
X123185044Y-72593238D01*
X123163951Y-72542316D01*
X123124536Y-72447158D01*
X123124534Y-72447156D01*
X123041132Y-72338464D01*
X132844353Y-72338464D01*
X132864834Y-72480920D01*
X132924621Y-72611835D01*
X132924623Y-72611838D01*
X132978135Y-72673594D01*
X133018872Y-72720607D01*
X133139947Y-72798417D01*
X133278039Y-72838964D01*
X133278042Y-72838964D01*
X133421958Y-72838964D01*
X133421961Y-72838964D01*
X133560053Y-72798417D01*
X133681128Y-72720607D01*
X133775377Y-72611837D01*
X133835165Y-72480921D01*
X133855647Y-72338464D01*
X133835165Y-72196007D01*
X133811559Y-72144318D01*
X133775378Y-72065092D01*
X133775376Y-72065089D01*
X133681128Y-71956321D01*
X133648859Y-71935583D01*
X133560053Y-71878511D01*
X133560051Y-71878510D01*
X133560049Y-71878509D01*
X133421962Y-71837964D01*
X133421961Y-71837964D01*
X133278039Y-71837964D01*
X133278037Y-71837964D01*
X133139950Y-71878509D01*
X133018871Y-71956321D01*
X132924623Y-72065089D01*
X132924621Y-72065092D01*
X132864834Y-72196007D01*
X132844353Y-72338463D01*
X132844353Y-72338464D01*
X123041132Y-72338464D01*
X123028286Y-72321723D01*
X123028285Y-72321722D01*
X123028282Y-72321718D01*
X123028277Y-72321714D01*
X123028276Y-72321713D01*
X122902843Y-72225465D01*
X122902841Y-72225463D01*
X122756766Y-72164957D01*
X122756767Y-72164957D01*
X122756763Y-72164956D01*
X122756762Y-72164956D01*
X122600000Y-72144318D01*
X122443238Y-72164956D01*
X122443237Y-72164956D01*
X122443232Y-72164957D01*
X122297158Y-72225463D01*
X122297156Y-72225465D01*
X122171723Y-72321713D01*
X122171713Y-72321723D01*
X122075465Y-72447156D01*
X122075463Y-72447158D01*
X122014957Y-72593232D01*
X122014956Y-72593237D01*
X122014956Y-72593238D01*
X122012507Y-72611838D01*
X121994318Y-72750000D01*
X103379118Y-72750000D01*
X103316410Y-72673590D01*
X103156450Y-72542315D01*
X102973954Y-72444768D01*
X102973953Y-72444767D01*
X102973950Y-72444766D01*
X102775934Y-72384700D01*
X102775926Y-72384698D01*
X102570004Y-72364417D01*
X102569996Y-72364417D01*
X102364073Y-72384698D01*
X102364065Y-72384700D01*
X102166049Y-72444766D01*
X101983548Y-72542316D01*
X101823594Y-72673586D01*
X101823586Y-72673594D01*
X101692316Y-72833548D01*
X101594766Y-73016049D01*
X101534700Y-73214065D01*
X101534698Y-73214073D01*
X101514417Y-73419996D01*
X101514417Y-73420003D01*
X100490329Y-73420003D01*
X100051567Y-72981241D01*
X100025839Y-72926065D01*
X100025500Y-72918308D01*
X100025500Y-70880003D01*
X101514417Y-70880003D01*
X101534698Y-71085926D01*
X101534700Y-71085934D01*
X101594766Y-71283950D01*
X101594767Y-71283953D01*
X101594768Y-71283954D01*
X101692315Y-71466450D01*
X101823590Y-71626410D01*
X101983550Y-71757685D01*
X102166046Y-71855232D01*
X102364066Y-71915300D01*
X102364070Y-71915300D01*
X102364073Y-71915301D01*
X102569996Y-71935583D01*
X102570000Y-71935583D01*
X102570004Y-71935583D01*
X102775926Y-71915301D01*
X102775927Y-71915300D01*
X102775934Y-71915300D01*
X102973954Y-71855232D01*
X103156450Y-71757685D01*
X103316410Y-71626410D01*
X103447685Y-71466450D01*
X103545232Y-71283954D01*
X103605300Y-71085934D01*
X103606701Y-71071713D01*
X103625583Y-70880003D01*
X103625583Y-70879996D01*
X103622629Y-70850000D01*
X105994353Y-70850000D01*
X106014834Y-70992456D01*
X106074621Y-71123371D01*
X106074623Y-71123374D01*
X106138558Y-71197159D01*
X106168872Y-71232143D01*
X106289947Y-71309953D01*
X106428039Y-71350500D01*
X106428042Y-71350500D01*
X106571958Y-71350500D01*
X106571961Y-71350500D01*
X106710053Y-71309953D01*
X106831128Y-71232143D01*
X106925377Y-71123373D01*
X106981720Y-71000000D01*
X121994318Y-71000000D01*
X122010560Y-71123374D01*
X122014957Y-71156767D01*
X122075463Y-71302841D01*
X122075465Y-71302843D01*
X122159099Y-71411837D01*
X122171718Y-71428282D01*
X122171722Y-71428285D01*
X122171723Y-71428286D01*
X122297156Y-71524534D01*
X122297158Y-71524536D01*
X122443233Y-71585042D01*
X122443238Y-71585044D01*
X122600000Y-71605682D01*
X122756762Y-71585044D01*
X122878853Y-71534471D01*
X122939673Y-71531816D01*
X122987972Y-71568877D01*
X123001149Y-71605079D01*
X123007953Y-71656760D01*
X123007955Y-71656766D01*
X123068461Y-71802841D01*
X123068463Y-71802843D01*
X123154755Y-71915301D01*
X123164716Y-71928282D01*
X123164720Y-71928285D01*
X123164721Y-71928286D01*
X123290154Y-72024534D01*
X123290156Y-72024536D01*
X123436231Y-72085042D01*
X123436236Y-72085044D01*
X123592998Y-72105682D01*
X123749760Y-72085044D01*
X123895839Y-72024536D01*
X124021280Y-71928282D01*
X124117534Y-71802841D01*
X124178042Y-71656762D01*
X124198680Y-71500000D01*
X124178042Y-71343238D01*
X124168099Y-71319234D01*
X124117534Y-71197158D01*
X124117532Y-71197156D01*
X124066001Y-71130000D01*
X132464353Y-71130000D01*
X132484834Y-71272456D01*
X132544621Y-71403371D01*
X132544623Y-71403374D01*
X132589521Y-71455189D01*
X132638872Y-71512143D01*
X132759947Y-71589953D01*
X132898039Y-71630500D01*
X132898042Y-71630500D01*
X133041958Y-71630500D01*
X133041961Y-71630500D01*
X133180053Y-71589953D01*
X133301128Y-71512143D01*
X133395377Y-71403373D01*
X133427111Y-71333885D01*
X133469815Y-71290499D01*
X133530419Y-71284711D01*
X133580564Y-71319234D01*
X133589024Y-71333887D01*
X133624621Y-71411835D01*
X133624623Y-71411838D01*
X133701016Y-71500000D01*
X133718872Y-71520607D01*
X133839947Y-71598417D01*
X133978039Y-71638964D01*
X133978042Y-71638964D01*
X134121958Y-71638964D01*
X134121961Y-71638964D01*
X134260053Y-71598417D01*
X134381128Y-71520607D01*
X134475377Y-71411837D01*
X134535165Y-71280921D01*
X134555647Y-71138464D01*
X134553477Y-71123374D01*
X134535165Y-70996007D01*
X134475378Y-70865092D01*
X134475376Y-70865089D01*
X134381128Y-70756321D01*
X134367958Y-70747857D01*
X134260053Y-70678511D01*
X134260051Y-70678510D01*
X134260049Y-70678509D01*
X134121962Y-70637964D01*
X134121961Y-70637964D01*
X133978039Y-70637964D01*
X133978037Y-70637964D01*
X133839950Y-70678509D01*
X133718871Y-70756321D01*
X133624623Y-70865089D01*
X133624623Y-70865090D01*
X133592889Y-70934577D01*
X133550183Y-70977965D01*
X133489579Y-70983751D01*
X133439434Y-70949228D01*
X133430976Y-70934577D01*
X133395377Y-70856627D01*
X133395376Y-70856626D01*
X133395376Y-70856625D01*
X133301128Y-70747857D01*
X133222240Y-70697159D01*
X133180053Y-70670047D01*
X133180051Y-70670046D01*
X133180049Y-70670045D01*
X133041962Y-70629500D01*
X133041961Y-70629500D01*
X132898039Y-70629500D01*
X132898037Y-70629500D01*
X132759950Y-70670045D01*
X132638871Y-70747857D01*
X132544623Y-70856625D01*
X132544621Y-70856628D01*
X132484834Y-70987543D01*
X132464353Y-71129999D01*
X132464353Y-71130000D01*
X124066001Y-71130000D01*
X124021284Y-71071723D01*
X124021283Y-71071722D01*
X124021280Y-71071718D01*
X124021275Y-71071714D01*
X124021274Y-71071713D01*
X123895841Y-70975465D01*
X123895839Y-70975463D01*
X123749764Y-70914957D01*
X123749765Y-70914957D01*
X123749761Y-70914956D01*
X123749760Y-70914956D01*
X123592998Y-70894318D01*
X123436236Y-70914956D01*
X123436235Y-70914956D01*
X123436230Y-70914957D01*
X123314145Y-70965527D01*
X123253323Y-70968183D01*
X123205024Y-70931122D01*
X123191848Y-70894921D01*
X123185044Y-70843238D01*
X123145536Y-70747857D01*
X123124536Y-70697158D01*
X123124534Y-70697156D01*
X123028286Y-70571723D01*
X123028285Y-70571722D01*
X123028282Y-70571718D01*
X123028277Y-70571714D01*
X123028276Y-70571713D01*
X122902843Y-70475465D01*
X122902841Y-70475463D01*
X122756766Y-70414957D01*
X122756767Y-70414957D01*
X122756763Y-70414956D01*
X122756762Y-70414956D01*
X122600000Y-70394318D01*
X122443238Y-70414956D01*
X122443237Y-70414956D01*
X122443232Y-70414957D01*
X122297158Y-70475463D01*
X122297156Y-70475465D01*
X122171723Y-70571713D01*
X122171713Y-70571723D01*
X122075465Y-70697156D01*
X122075463Y-70697158D01*
X122014957Y-70843232D01*
X122014956Y-70843237D01*
X122014956Y-70843238D01*
X121994318Y-71000000D01*
X106981720Y-71000000D01*
X106985165Y-70992457D01*
X107005647Y-70850000D01*
X106985165Y-70707543D01*
X106980421Y-70697156D01*
X106925378Y-70576628D01*
X106925376Y-70576625D01*
X106831128Y-70467857D01*
X106710053Y-70390047D01*
X106710051Y-70390046D01*
X106710049Y-70390045D01*
X106571962Y-70349500D01*
X106571961Y-70349500D01*
X106428039Y-70349500D01*
X106428037Y-70349500D01*
X106289950Y-70390045D01*
X106168871Y-70467857D01*
X106074623Y-70576625D01*
X106074621Y-70576628D01*
X106014834Y-70707543D01*
X105994353Y-70849999D01*
X105994353Y-70850000D01*
X103622629Y-70850000D01*
X103605301Y-70674073D01*
X103605300Y-70674070D01*
X103605300Y-70674066D01*
X103545232Y-70476046D01*
X103447685Y-70293550D01*
X103316410Y-70133590D01*
X103156450Y-70002315D01*
X102973954Y-69904768D01*
X102973953Y-69904767D01*
X102973950Y-69904766D01*
X102775934Y-69844700D01*
X102775926Y-69844698D01*
X102570004Y-69824417D01*
X102569996Y-69824417D01*
X102364073Y-69844698D01*
X102364065Y-69844700D01*
X102166049Y-69904766D01*
X101983548Y-70002316D01*
X101823594Y-70133586D01*
X101823586Y-70133594D01*
X101692316Y-70293548D01*
X101594766Y-70476049D01*
X101534700Y-70674065D01*
X101534698Y-70674073D01*
X101514417Y-70879996D01*
X101514417Y-70880003D01*
X100025500Y-70880003D01*
X100025500Y-69209752D01*
X101519500Y-69209752D01*
X101531132Y-69268231D01*
X101575445Y-69334548D01*
X101575448Y-69334552D01*
X101575451Y-69334554D01*
X101641768Y-69378867D01*
X101698690Y-69390189D01*
X101700252Y-69390500D01*
X101700256Y-69390500D01*
X103439744Y-69390500D01*
X103439748Y-69390500D01*
X103498231Y-69378867D01*
X103564552Y-69334552D01*
X103608867Y-69268231D01*
X103620500Y-69209748D01*
X103620500Y-67800000D01*
X158694353Y-67800000D01*
X158714834Y-67942456D01*
X158774621Y-68073371D01*
X158774623Y-68073374D01*
X158820767Y-68126627D01*
X158868872Y-68182143D01*
X158989947Y-68259953D01*
X159128039Y-68300500D01*
X159128042Y-68300500D01*
X159271958Y-68300500D01*
X159271961Y-68300500D01*
X159386216Y-68266952D01*
X159446972Y-68270813D01*
X159491033Y-68312825D01*
X159499383Y-68365012D01*
X159494353Y-68399998D01*
X159494353Y-68400000D01*
X159514834Y-68542456D01*
X159574621Y-68673371D01*
X159574623Y-68673374D01*
X159668871Y-68782142D01*
X159668872Y-68782143D01*
X159789947Y-68859953D01*
X159928039Y-68900500D01*
X159928042Y-68900500D01*
X160071958Y-68900500D01*
X160071961Y-68900500D01*
X160210053Y-68859953D01*
X160331128Y-68782143D01*
X160425377Y-68673373D01*
X160485165Y-68542457D01*
X160505647Y-68400000D01*
X160485165Y-68257543D01*
X160450730Y-68182142D01*
X160425378Y-68126628D01*
X160425376Y-68126625D01*
X160331128Y-68017857D01*
X160264240Y-67974870D01*
X160227372Y-67926426D01*
X160230268Y-67865615D01*
X160264239Y-67825129D01*
X160331128Y-67782143D01*
X160425377Y-67673373D01*
X160485165Y-67542457D01*
X160505647Y-67400000D01*
X160496630Y-67337288D01*
X160485165Y-67257543D01*
X160425378Y-67126628D01*
X160425376Y-67126625D01*
X160331128Y-67017857D01*
X160285701Y-66988663D01*
X160210053Y-66940047D01*
X160210051Y-66940046D01*
X160210049Y-66940045D01*
X160071962Y-66899500D01*
X160071961Y-66899500D01*
X159928039Y-66899500D01*
X159928037Y-66899500D01*
X159789950Y-66940045D01*
X159668871Y-67017857D01*
X159574623Y-67126625D01*
X159574621Y-67126628D01*
X159514835Y-67257543D01*
X159513826Y-67264561D01*
X159485073Y-67318223D01*
X159428554Y-67340848D01*
X159400659Y-67337288D01*
X159271962Y-67299500D01*
X159271961Y-67299500D01*
X159128039Y-67299500D01*
X159128037Y-67299500D01*
X158989950Y-67340045D01*
X158868871Y-67417857D01*
X158774623Y-67526625D01*
X158774621Y-67526628D01*
X158714834Y-67657543D01*
X158694353Y-67799999D01*
X158694353Y-67800000D01*
X103620500Y-67800000D01*
X103620500Y-67470252D01*
X103608867Y-67411769D01*
X103608867Y-67411768D01*
X103564554Y-67345451D01*
X103564552Y-67345448D01*
X103557668Y-67340848D01*
X103498231Y-67301132D01*
X103439752Y-67289500D01*
X103439748Y-67289500D01*
X102601337Y-67289500D01*
X102544129Y-67268678D01*
X102538404Y-67263433D01*
X102326567Y-67051596D01*
X102300839Y-66996420D01*
X102300500Y-66988663D01*
X102300500Y-59480000D01*
X114325000Y-59480000D01*
X114325000Y-60330000D01*
X114486000Y-60330000D01*
X114543208Y-60350822D01*
X114573648Y-60403545D01*
X114575000Y-60419000D01*
X114575000Y-60841000D01*
X114554178Y-60898208D01*
X114501455Y-60928648D01*
X114486000Y-60930000D01*
X114325000Y-60930000D01*
X114325000Y-61780000D01*
X114325001Y-61780000D01*
X115824999Y-61780000D01*
X115825000Y-61780000D01*
X115825000Y-59480000D01*
X117575000Y-59480000D01*
X117575000Y-61780000D01*
X117575001Y-61780000D01*
X119074999Y-61780000D01*
X119075000Y-61780000D01*
X119075000Y-60930000D01*
X119074999Y-60930000D01*
X118964000Y-60930000D01*
X118906792Y-60909178D01*
X118876352Y-60856455D01*
X118875000Y-60841000D01*
X118875000Y-60419000D01*
X118895822Y-60361792D01*
X118948545Y-60331352D01*
X118964000Y-60330000D01*
X119074999Y-60330000D01*
X119075000Y-60330000D01*
X119075000Y-59480000D01*
X117575000Y-59480000D01*
X115825000Y-59480000D01*
X114325000Y-59480000D01*
X102300500Y-59480000D01*
X102300500Y-58111337D01*
X102321322Y-58054129D01*
X102326567Y-58048404D01*
X102574971Y-57800000D01*
X108894353Y-57800000D01*
X108914834Y-57942456D01*
X108974621Y-58073371D01*
X108974623Y-58073374D01*
X109068871Y-58182142D01*
X109068872Y-58182143D01*
X109189947Y-58259953D01*
X109328039Y-58300500D01*
X109328042Y-58300500D01*
X109471958Y-58300500D01*
X109471961Y-58300500D01*
X109610053Y-58259953D01*
X109731128Y-58182143D01*
X109825377Y-58073373D01*
X109885165Y-57942457D01*
X109905647Y-57800000D01*
X113494353Y-57800000D01*
X113514834Y-57942456D01*
X113574621Y-58073371D01*
X113574623Y-58073374D01*
X113668871Y-58182142D01*
X113668872Y-58182143D01*
X113789947Y-58259953D01*
X113928039Y-58300500D01*
X113928042Y-58300500D01*
X114071958Y-58300500D01*
X114071961Y-58300500D01*
X114210053Y-58259953D01*
X114331128Y-58182143D01*
X114425377Y-58073373D01*
X114485165Y-57942457D01*
X114505647Y-57800000D01*
X114485165Y-57657543D01*
X114450730Y-57582142D01*
X114425378Y-57526628D01*
X114425376Y-57526625D01*
X114331128Y-57417857D01*
X114210053Y-57340047D01*
X114210051Y-57340046D01*
X114210049Y-57340045D01*
X114071962Y-57299500D01*
X114071961Y-57299500D01*
X113928039Y-57299500D01*
X113928037Y-57299500D01*
X113789950Y-57340045D01*
X113668871Y-57417857D01*
X113574623Y-57526625D01*
X113574621Y-57526628D01*
X113514834Y-57657543D01*
X113494353Y-57799999D01*
X113494353Y-57800000D01*
X109905647Y-57800000D01*
X109885165Y-57657543D01*
X109850730Y-57582142D01*
X109825378Y-57526628D01*
X109825376Y-57526625D01*
X109731128Y-57417857D01*
X109610053Y-57340047D01*
X109610051Y-57340046D01*
X109610049Y-57340045D01*
X109471962Y-57299500D01*
X109471961Y-57299500D01*
X109328039Y-57299500D01*
X109328037Y-57299500D01*
X109189950Y-57340045D01*
X109068871Y-57417857D01*
X108974623Y-57526625D01*
X108974621Y-57526628D01*
X108914834Y-57657543D01*
X108894353Y-57799999D01*
X108894353Y-57800000D01*
X102574971Y-57800000D01*
X103448404Y-56926567D01*
X103503580Y-56900839D01*
X103511337Y-56900500D01*
X105648068Y-56900500D01*
X105705276Y-56921322D01*
X105735716Y-56974045D01*
X105729025Y-57026472D01*
X105714834Y-57057543D01*
X105694353Y-57199999D01*
X105694353Y-57200000D01*
X105714834Y-57342456D01*
X105774621Y-57473371D01*
X105774623Y-57473374D01*
X105820767Y-57526627D01*
X105868872Y-57582143D01*
X105989947Y-57659953D01*
X106128039Y-57700500D01*
X106128042Y-57700500D01*
X106271958Y-57700500D01*
X106271961Y-57700500D01*
X106410053Y-57659953D01*
X106531128Y-57582143D01*
X106625377Y-57473373D01*
X106685165Y-57342457D01*
X106705647Y-57200000D01*
X106703079Y-57182142D01*
X106685165Y-57057543D01*
X106670975Y-57026472D01*
X106666150Y-56965784D01*
X106701463Y-56916193D01*
X106751932Y-56900500D01*
X112038477Y-56900500D01*
X112095685Y-56921322D01*
X112119434Y-56952528D01*
X112174621Y-57073370D01*
X112174623Y-57073374D01*
X112268871Y-57182142D01*
X112268872Y-57182143D01*
X112389947Y-57259953D01*
X112528039Y-57300500D01*
X112528042Y-57300500D01*
X112671958Y-57300500D01*
X112671961Y-57300500D01*
X112810053Y-57259953D01*
X112931128Y-57182143D01*
X113025377Y-57073373D01*
X113085165Y-56942457D01*
X113105647Y-56800000D01*
X113085165Y-56657543D01*
X113025378Y-56526628D01*
X113025376Y-56526625D01*
X112931128Y-56417857D01*
X112913655Y-56406628D01*
X112810053Y-56340047D01*
X112810051Y-56340046D01*
X112810049Y-56340045D01*
X112671962Y-56299500D01*
X112671961Y-56299500D01*
X112528039Y-56299500D01*
X112528036Y-56299500D01*
X112516175Y-56302983D01*
X112464320Y-56300803D01*
X112464281Y-56301015D01*
X112462809Y-56300739D01*
X112458956Y-56300578D01*
X112456173Y-56299500D01*
X112445189Y-56299500D01*
X112424813Y-56297136D01*
X112414120Y-56294621D01*
X112414116Y-56294620D01*
X112385266Y-56298646D01*
X112372969Y-56299500D01*
X106624320Y-56299500D01*
X106567112Y-56278678D01*
X106536672Y-56225955D01*
X106547244Y-56166000D01*
X106557058Y-56152218D01*
X106625376Y-56073374D01*
X106625378Y-56073371D01*
X106685165Y-55942456D01*
X106705647Y-55800000D01*
X106705647Y-55799999D01*
X106685165Y-55657543D01*
X106625378Y-55526628D01*
X106625376Y-55526625D01*
X106531128Y-55417857D01*
X106516970Y-55408758D01*
X106410053Y-55340047D01*
X106410051Y-55340046D01*
X106410049Y-55340045D01*
X106271962Y-55299500D01*
X106271961Y-55299500D01*
X106128039Y-55299500D01*
X106128037Y-55299500D01*
X105989950Y-55340045D01*
X105868871Y-55417857D01*
X105774623Y-55526625D01*
X105774621Y-55526628D01*
X105714834Y-55657543D01*
X105694353Y-55799999D01*
X105694353Y-55800000D01*
X105714834Y-55942456D01*
X105774621Y-56073371D01*
X105774623Y-56073374D01*
X105842942Y-56152218D01*
X105864669Y-56209088D01*
X105844757Y-56266619D01*
X105792523Y-56297892D01*
X105775680Y-56299500D01*
X103413534Y-56299500D01*
X103400537Y-56297381D01*
X103400400Y-56298366D01*
X103392234Y-56297226D01*
X103345120Y-56299405D01*
X103341010Y-56299500D01*
X103322156Y-56299500D01*
X103322153Y-56299500D01*
X103322144Y-56299501D01*
X103321350Y-56299650D01*
X103309116Y-56301069D01*
X103280010Y-56302414D01*
X103280007Y-56302415D01*
X103269948Y-56306856D01*
X103250368Y-56312918D01*
X103239571Y-56314936D01*
X103225646Y-56323557D01*
X103214789Y-56330279D01*
X103203897Y-56336020D01*
X103177238Y-56347792D01*
X103177231Y-56347796D01*
X103169463Y-56355564D01*
X103153393Y-56368293D01*
X103144050Y-56374078D01*
X103144048Y-56374080D01*
X103126487Y-56397333D01*
X103118399Y-56406628D01*
X101832437Y-57692590D01*
X101821756Y-57700279D01*
X101822354Y-57701071D01*
X101815768Y-57706044D01*
X101783987Y-57740906D01*
X101781151Y-57743877D01*
X101767826Y-57757202D01*
X101767817Y-57757212D01*
X101767355Y-57757888D01*
X101759720Y-57767525D01*
X101740085Y-57789065D01*
X101740081Y-57789071D01*
X101736112Y-57799317D01*
X101726552Y-57817455D01*
X101720342Y-57826520D01*
X101713670Y-57854886D01*
X101710026Y-57866654D01*
X101699500Y-57893827D01*
X101699500Y-57904811D01*
X101697136Y-57925187D01*
X101694621Y-57935879D01*
X101694621Y-57935882D01*
X101698646Y-57964732D01*
X101699500Y-57977030D01*
X101699500Y-67086466D01*
X101697381Y-67099462D01*
X101698366Y-67099600D01*
X101697226Y-67107764D01*
X101699405Y-67154879D01*
X101699500Y-67158989D01*
X101699500Y-67177848D01*
X101699650Y-67178648D01*
X101701069Y-67190886D01*
X101702070Y-67212537D01*
X101683912Y-67270645D01*
X101647228Y-67298871D01*
X101641768Y-67301132D01*
X101575451Y-67345445D01*
X101575445Y-67345451D01*
X101531132Y-67411768D01*
X101519500Y-67470247D01*
X101519500Y-69209752D01*
X100025500Y-69209752D01*
X100025500Y-55471691D01*
X100046322Y-55414483D01*
X100051568Y-55408758D01*
X102483760Y-52976567D01*
X102538935Y-52950839D01*
X102546692Y-52950500D01*
X114553308Y-52950500D01*
X114610516Y-52971322D01*
X114616241Y-52976567D01*
X115668548Y-54028874D01*
X115694276Y-54084050D01*
X115694012Y-54093635D01*
X115694353Y-54093635D01*
X115694353Y-54100000D01*
X115714834Y-54242456D01*
X115774621Y-54373371D01*
X115774623Y-54373374D01*
X115868871Y-54482142D01*
X115868872Y-54482143D01*
X115989947Y-54559953D01*
X116128039Y-54600500D01*
X116128042Y-54600500D01*
X116271958Y-54600500D01*
X116271961Y-54600500D01*
X116410053Y-54559953D01*
X116531128Y-54482143D01*
X116625377Y-54373373D01*
X116685165Y-54242457D01*
X116705647Y-54100000D01*
X116685165Y-53957543D01*
X116625378Y-53826628D01*
X116625376Y-53826625D01*
X116531128Y-53717857D01*
X116410053Y-53640047D01*
X116410051Y-53640046D01*
X116410049Y-53640045D01*
X116271962Y-53599500D01*
X116271961Y-53599500D01*
X116196692Y-53599500D01*
X116139484Y-53578678D01*
X116133759Y-53573433D01*
X115360326Y-52800000D01*
X140694353Y-52800000D01*
X140714834Y-52942456D01*
X140774621Y-53073371D01*
X140774623Y-53073374D01*
X140868871Y-53182142D01*
X140868872Y-53182143D01*
X140989947Y-53259953D01*
X141128039Y-53300500D01*
X141128042Y-53300500D01*
X141271958Y-53300500D01*
X141271961Y-53300500D01*
X141410053Y-53259953D01*
X141531128Y-53182143D01*
X141625377Y-53073373D01*
X141625376Y-53073373D01*
X141629545Y-53068563D01*
X141630673Y-53069540D01*
X141673569Y-53036891D01*
X141734380Y-53039785D01*
X141769580Y-53069321D01*
X141770455Y-53068563D01*
X141774623Y-53073373D01*
X141868872Y-53182143D01*
X141989947Y-53259953D01*
X142128039Y-53300500D01*
X142128042Y-53300500D01*
X142271958Y-53300500D01*
X142271961Y-53300500D01*
X142410053Y-53259953D01*
X142531128Y-53182143D01*
X142625377Y-53073373D01*
X142627128Y-53069540D01*
X142669587Y-52976567D01*
X142685165Y-52942457D01*
X142705647Y-52800000D01*
X142685165Y-52657543D01*
X142625378Y-52526628D01*
X142625376Y-52526625D01*
X142531128Y-52417857D01*
X142506308Y-52401906D01*
X142410053Y-52340047D01*
X142410051Y-52340046D01*
X142410049Y-52340045D01*
X142271962Y-52299500D01*
X142271961Y-52299500D01*
X142128039Y-52299500D01*
X142128037Y-52299500D01*
X141989950Y-52340045D01*
X141868871Y-52417857D01*
X141770455Y-52531437D01*
X141769327Y-52530460D01*
X141726423Y-52563110D01*
X141665612Y-52560211D01*
X141630418Y-52530680D01*
X141629545Y-52531437D01*
X141531128Y-52417857D01*
X141506308Y-52401906D01*
X141410053Y-52340047D01*
X141410051Y-52340046D01*
X141410049Y-52340045D01*
X141271962Y-52299500D01*
X141271961Y-52299500D01*
X141128039Y-52299500D01*
X141128037Y-52299500D01*
X140989950Y-52340045D01*
X140868871Y-52417857D01*
X140774623Y-52526625D01*
X140774621Y-52526628D01*
X140714834Y-52657543D01*
X140694353Y-52799999D01*
X140694353Y-52800000D01*
X115360326Y-52800000D01*
X114967955Y-52407629D01*
X114962710Y-52401904D01*
X114937454Y-52371804D01*
X114903418Y-52352154D01*
X114896869Y-52347982D01*
X114864685Y-52325446D01*
X114861952Y-52324714D01*
X114840492Y-52315824D01*
X114838045Y-52314412D01*
X114838044Y-52314411D01*
X114838043Y-52314411D01*
X114799350Y-52307588D01*
X114791773Y-52305908D01*
X114753805Y-52295735D01*
X114714661Y-52299161D01*
X114706903Y-52299500D01*
X102393088Y-52299500D01*
X102385332Y-52299161D01*
X102381688Y-52298842D01*
X102346191Y-52295736D01*
X102308231Y-52305907D01*
X102300656Y-52307586D01*
X102261960Y-52314410D01*
X102261949Y-52314414D01*
X102259498Y-52315829D01*
X102238055Y-52324711D01*
X102235318Y-52325444D01*
X102203120Y-52347988D01*
X102196577Y-52352156D01*
X102162545Y-52371805D01*
X102162544Y-52371805D01*
X102137286Y-52401906D01*
X102132043Y-52407628D01*
X99482633Y-55057039D01*
X99476909Y-55062284D01*
X99446809Y-55087541D01*
X99446805Y-55087545D01*
X99427155Y-55121578D01*
X99422988Y-55128118D01*
X99400445Y-55160315D01*
X99400444Y-55160316D01*
X99399711Y-55163055D01*
X99390829Y-55184498D01*
X99389414Y-55186949D01*
X99389410Y-55186960D01*
X99382587Y-55225649D01*
X99380908Y-55233224D01*
X99370735Y-55271192D01*
X99374161Y-55310337D01*
X99374500Y-55318095D01*
X99374500Y-73071903D01*
X99374161Y-73079661D01*
X99370735Y-73118806D01*
X98000500Y-73118806D01*
X98000500Y-42089500D01*
X98021322Y-42032292D01*
X98074045Y-42001852D01*
X98089500Y-42000500D01*
X120861000Y-42000500D01*
X120918208Y-42021322D01*
G37*
%TD.AperFunction*%
%TD*%
M02*
