M48
; DRILL file {KiCad 7.0.10} date Sun Feb 25 20:28:33 2024
; FORMAT={-:-/ absolute / metric / decimal}
; #@! TF.CreationDate,2024-02-25T20:28:33-06:00
; #@! TF.GenerationSoftware,Kicad,Pcbnew,7.0.10
; #@! TF.FileFunction,MixedPlating,1,4
FMAT,2
METRIC
; #@! TA.AperFunction,Plated,PTH,ViaDrill
T1C0.300
; #@! TA.AperFunction,Plated,PTH,ComponentDrill
T2C0.300
; #@! TA.AperFunction,Plated,PTH,ViaDrill
T3C0.400
; #@! TA.AperFunction,Plated,PTH,ComponentDrill
T4C0.460
; #@! TA.AperFunction,Plated,PTH,ComponentDrill
T5C1.000
; #@! TA.AperFunction,Plated,PTH,ComponentDrill
T6C2.500
%
G90
G05
T1
X100.0Y-44.0
X100.0Y-46.0
X100.0Y-48.0
X100.0Y-50.0
X100.0Y-52.0
X100.0Y-54.0
X102.0Y-44.0
X102.0Y-50.0
X102.0Y-52.0
X102.0Y-54.0
X103.45Y-59.9
X103.45Y-61.9
X104.0Y-52.0
X104.3Y-55.8
X104.3Y-57.2
X104.45Y-60.9
X105.0Y-78.0
X105.0Y-80.0
X106.0Y-52.0
X106.5Y-70.85
X107.0Y-78.0
X107.0Y-80.0
X107.3Y-58.9
X108.0Y-44.0
X108.0Y-50.0
X108.0Y-64.0
X108.025Y-51.981
X108.1Y-58.9
X108.1Y-62.4
X108.4Y-57.9
X108.9Y-58.9
X108.9Y-62.4
X109.0Y-78.0
X109.0Y-80.0
X109.7Y-58.9
X109.7Y-62.4
X110.0Y-44.0
X110.0Y-46.0
X110.0Y-48.0
X110.0Y-50.0
X110.0Y-52.0
X110.3Y-57.55
X110.5Y-64.0
X110.7Y-58.5
X110.7Y-62.8
X111.0Y-68.0
X111.0Y-80.0
X111.0Y-82.0
X111.0Y-84.0
X111.0Y-86.0
X111.8Y-58.9
X111.8Y-62.4
X112.0Y-44.0
X112.0Y-46.0
X112.0Y-48.0
X112.7Y-58.9
X112.8Y-62.8
X113.0Y-68.0
X113.0Y-80.0
X113.0Y-82.0
X113.0Y-84.0
X113.0Y-86.0
X113.5Y-58.9
X113.6Y-62.8
X114.0Y-44.0
X114.0Y-46.0
X114.0Y-48.0
X114.3Y-58.9
X114.4Y-62.8
X115.0Y-68.0
X115.0Y-82.0
X115.0Y-84.0
X115.0Y-86.0
X115.1Y-58.9
X115.2Y-62.8
X115.5Y-64.0
X115.9Y-58.9
X116.0Y-62.8
X116.2Y-54.1
X116.7Y-58.9
X116.8Y-62.8
X117.0Y-50.0
X117.0Y-68.0
X117.0Y-82.0
X117.0Y-84.0
X117.0Y-86.0
X117.5Y-58.9
X117.6Y-62.8
X118.0Y-42.8
X118.0Y-44.4
X118.0Y-46.0
X118.0Y-64.0
X118.3Y-58.9
X118.4Y-62.8
X119.0Y-50.0
X119.0Y-54.0
X119.0Y-68.0
X119.0Y-82.0
X119.0Y-84.0
X119.0Y-86.0
X119.1Y-58.9
X119.2Y-62.8
X119.9Y-58.9
X120.0Y-62.8
X120.55Y-64.0
X120.7Y-48.2
X120.7Y-49.0
X120.7Y-49.8
X120.7Y-50.6
X120.7Y-51.4
X120.7Y-52.2
X120.7Y-53.0
X120.7Y-53.8
X120.7Y-54.6
X120.7Y-57.1
X120.7Y-57.8
X120.7Y-58.6
X120.8Y-62.8
X121.0Y-68.0
X121.0Y-82.0
X121.0Y-84.0
X121.0Y-86.0
X121.6Y-62.8
X122.25Y-82.0
X122.25Y-86.0
X122.4Y-62.8
X122.5Y-84.0
X123.0Y-68.0
X123.2Y-62.8
X123.4Y-65.3
X123.763Y-81.95
X123.763Y-83.95
X123.763Y-85.95
X124.0Y-80.0
X124.2Y-61.6
X124.3Y-48.2
X124.3Y-49.0
X124.3Y-49.8
X124.3Y-50.6
X124.3Y-51.4
X124.3Y-52.2
X124.3Y-53.0
X124.3Y-53.8
X124.3Y-54.6
X124.3Y-57.075
X124.3Y-57.8
X124.3Y-58.6
X125.0Y-61.6
X125.3Y-58.9
X125.525Y-68.0
X125.525Y-69.0
X125.525Y-70.0
X125.525Y-71.0
X125.525Y-72.0
X125.525Y-73.0
X125.525Y-74.0
X125.763Y-81.95
X125.763Y-83.95
X125.763Y-85.95
X125.8Y-61.6
X126.0Y-50.0
X126.0Y-52.0
X126.0Y-54.0
X126.0Y-57.5
X126.0Y-78.0
X126.0Y-80.0
X126.1Y-58.9
X126.9Y-58.9
X127.0Y-42.8
X127.0Y-44.4
X127.0Y-46.0
X127.25Y-79.25
X127.5Y-57.5
X127.7Y-58.9
X127.763Y-81.95
X127.763Y-83.95
X127.763Y-85.95
X128.0Y-50.0
X128.0Y-52.0
X128.0Y-54.0
X128.163Y-80.35
X128.5Y-58.9
X128.8Y-61.6
X128.963Y-80.35
X129.0Y-57.5
X129.3Y-58.9
X129.763Y-80.35
X129.763Y-81.95
X129.763Y-83.95
X129.763Y-85.95
X130.0Y-44.0
X130.0Y-46.0
X130.0Y-48.0
X130.0Y-50.0
X130.0Y-52.0
X130.0Y-54.0
X130.0Y-68.0
X130.0Y-69.0
X130.0Y-70.0
X130.0Y-71.0
X130.0Y-72.0
X130.0Y-73.0
X130.0Y-74.0
X130.1Y-58.9
X130.3Y-61.9
X130.5Y-57.5
X130.56Y-75.55
X130.563Y-80.35
X130.9Y-58.9
X130.9Y-62.4
X131.347Y-75.55
X131.35Y-80.35
X131.65Y-79.6
X131.7Y-58.9
X131.7Y-62.4
X131.763Y-81.95
X131.763Y-83.95
X131.763Y-85.95
X132.0Y-44.0
X132.0Y-46.0
X132.0Y-48.0
X132.0Y-50.0
X132.0Y-52.0
X132.0Y-54.0
X132.0Y-57.5
X132.0Y-64.0
X132.0Y-68.0
X132.0Y-70.0
X132.12Y-75.55
X132.163Y-80.35
X132.5Y-58.9
X132.6Y-62.425
X132.92Y-75.55
X132.963Y-80.35
X133.3Y-58.9
X133.5Y-57.5
X133.7Y-62.4
X133.707Y-75.55
X133.763Y-80.35
X133.763Y-81.95
X133.763Y-83.95
X133.763Y-85.95
X133.97Y-53.985
X134.0Y-44.0
X134.0Y-46.0
X134.0Y-48.0
X134.0Y-50.0
X134.0Y-52.0
X134.0Y-64.0
X134.0Y-68.0
X134.0Y-70.0
X134.1Y-58.9
X134.5Y-62.4
X134.51Y-75.55
X134.563Y-80.35
X134.9Y-58.9
X135.0Y-57.5
X135.3Y-62.4
X135.31Y-75.55
X135.363Y-80.35
X135.45Y-79.55
X135.7Y-58.9
X135.763Y-81.95
X135.763Y-83.95
X135.763Y-85.95
X136.0Y-44.0
X136.0Y-46.0
X136.0Y-48.0
X136.0Y-64.0
X136.0Y-68.0
X136.0Y-70.0
X136.15Y-80.35
X136.18Y-76.63
X136.5Y-57.5
X136.5Y-58.9
X136.55Y-62.425
X136.963Y-80.35
X137.3Y-58.9
X137.4Y-62.4
X137.763Y-80.35
X137.763Y-81.95
X137.763Y-83.95
X137.763Y-85.95
X137.8Y-52.125
X137.8Y-55.375
X137.96Y-76.13
X138.0Y-44.0
X138.0Y-46.0
X138.0Y-48.0
X138.0Y-57.5
X138.0Y-64.0
X138.0Y-68.0
X138.0Y-70.0
X138.05Y-79.48
X138.1Y-58.9
X138.15Y-72.53
X138.158Y-71.45
X138.2Y-62.4
X138.563Y-80.35
X138.9Y-58.9
X138.96Y-76.12
X139.0Y-62.4
X139.358Y-72.15
X139.363Y-80.35
X139.6Y-52.125
X139.763Y-81.95
X139.763Y-83.95
X139.763Y-85.95
X139.8Y-62.4
X140.0Y-44.0
X140.0Y-46.0
X140.0Y-48.0
X140.0Y-68.0
X140.0Y-70.0
X140.163Y-80.35
X140.4Y-79.55
X140.6Y-61.4
X140.963Y-80.35
X141.2Y-52.8
X141.75Y-80.35
X141.763Y-81.95
X141.763Y-83.95
X141.763Y-85.95
X142.0Y-44.0
X142.0Y-46.0
X142.0Y-48.0
X142.0Y-68.0
X142.2Y-52.8
X142.5Y-60.88
X142.563Y-80.35
X143.363Y-80.35
X143.763Y-81.95
X143.9Y-62.5
X144.0Y-44.0
X144.0Y-46.0
X144.0Y-48.0
X144.0Y-64.0
X144.0Y-66.0
X144.0Y-68.0
X144.0Y-84.0
X144.0Y-86.0
X144.163Y-80.35
X144.563Y-75.35
X144.6Y-61.4
X144.7Y-62.5
X144.963Y-80.35
X145.363Y-75.35
X145.5Y-62.5
X145.763Y-80.35
X145.763Y-81.95
X146.0Y-44.0
X146.0Y-46.0
X146.0Y-48.0
X146.0Y-64.0
X146.0Y-66.0
X146.0Y-68.0
X146.0Y-70.0
X146.0Y-72.0
X146.0Y-74.0
X146.0Y-84.0
X146.0Y-86.0
X146.2Y-75.35
X146.2Y-79.6
X146.3Y-62.5
X146.563Y-80.35
X146.6Y-58.7
X147.0Y-53.0
X147.0Y-55.0
X147.0Y-75.35
X147.1Y-62.5
X147.363Y-80.35
X147.763Y-81.95
X147.8Y-75.35
X147.9Y-58.7
X147.9Y-62.5
X148.0Y-44.0
X148.0Y-46.0
X148.0Y-48.0
X148.0Y-64.0
X148.0Y-66.0
X148.0Y-68.0
X148.0Y-70.0
X148.0Y-72.0
X148.0Y-74.0
X148.0Y-84.0
X148.0Y-86.0
X148.163Y-80.35
X148.6Y-75.35
X148.7Y-58.7
X148.7Y-62.5
X148.963Y-80.35
X149.0Y-53.0
X149.0Y-55.0
X149.4Y-75.35
X149.5Y-58.7
X149.5Y-61.6
X149.5Y-62.5
X149.6Y-59.7
X149.763Y-80.35
X149.763Y-81.95
X149.763Y-84.0
X149.763Y-86.0
X150.0Y-44.0
X150.0Y-46.0
X150.0Y-48.0
X150.0Y-64.0
X150.0Y-66.0
X150.0Y-68.0
X150.0Y-70.0
X150.0Y-72.0
X150.0Y-74.0
X150.2Y-75.35
X150.3Y-58.7
X150.563Y-80.35
X151.0Y-53.0
X151.0Y-55.0
X151.0Y-57.0
X151.0Y-75.35
X151.1Y-58.7
X151.4Y-80.35
X151.763Y-81.95
X151.763Y-84.0
X151.763Y-85.95
X151.8Y-75.35
X151.9Y-58.7
X152.0Y-44.0
X152.0Y-46.0
X152.0Y-48.0
X152.0Y-64.0
X152.0Y-66.0
X152.0Y-68.0
X152.0Y-70.0
X152.0Y-72.0
X152.0Y-74.0
X152.2Y-80.35
X152.6Y-75.35
X152.7Y-58.7
X153.0Y-53.0
X153.0Y-55.0
X153.0Y-57.0
X153.0Y-80.35
X153.4Y-75.35
X153.5Y-58.7
X153.8Y-80.35
X154.0Y-44.0
X154.0Y-46.0
X154.0Y-48.0
X154.0Y-64.0
X154.0Y-66.0
X154.0Y-68.0
X154.0Y-70.0
X154.0Y-72.0
X154.0Y-74.0
X154.25Y-75.35
X154.3Y-58.7
X154.6Y-80.35
X155.0Y-53.0
X155.0Y-55.0
X155.0Y-57.0
X155.05Y-75.35
X155.1Y-58.7
X155.43Y-80.35
X155.85Y-75.35
X155.9Y-58.7
X156.0Y-44.0
X156.0Y-46.0
X156.0Y-48.0
X156.0Y-64.0
X156.0Y-66.0
X156.0Y-68.0
X156.0Y-70.0
X156.0Y-72.0
X156.23Y-80.35
X156.7Y-58.7
X156.7Y-59.6
X156.7Y-61.6
X157.0Y-53.0
X157.0Y-55.0
X157.0Y-57.0
X157.03Y-80.35
X157.5Y-58.7
X157.83Y-80.35
X158.0Y-44.0
X158.0Y-46.0
X158.0Y-48.0
X158.0Y-64.0
X158.0Y-66.0
X158.0Y-68.0
X158.0Y-70.0
X158.0Y-72.0
X158.3Y-58.7
X158.6Y-62.9
X158.63Y-80.35
X158.93Y-75.35
X159.0Y-53.0
X159.0Y-55.0
X159.0Y-57.0
X159.0Y-74.0
X159.1Y-58.7
X159.4Y-62.9
X159.43Y-80.35
X159.75Y-75.35
X159.9Y-58.7
X160.0Y-44.0
X160.0Y-46.0
X160.0Y-48.0
X160.0Y-64.0
X160.0Y-66.0
X160.0Y-68.0
X160.0Y-70.0
X160.2Y-62.9
X160.23Y-80.35
X160.55Y-75.35
X161.0Y-62.9
X161.0Y-72.0
X161.0Y-74.0
X161.03Y-80.35
X161.35Y-75.35
X161.8Y-62.9
X161.83Y-80.35
X162.0Y-44.0
X162.0Y-46.0
X162.0Y-48.0
X162.0Y-65.0
X162.163Y-75.35
X162.6Y-62.9
X162.63Y-80.35
X162.963Y-75.35
X163.0Y-74.0
X163.4Y-62.9
X163.43Y-80.35
X163.763Y-75.35
X164.0Y-44.0
X164.0Y-46.0
X164.0Y-48.0
X164.0Y-65.0
X164.2Y-62.9
X164.23Y-80.35
X164.563Y-75.35
X165.0Y-62.9
X165.0Y-72.0
X165.0Y-74.0
X165.03Y-80.35
X165.363Y-75.35
X165.8Y-59.9
X165.8Y-62.9
X165.83Y-80.35
X165.99Y-58.08
X166.0Y-44.0
X166.0Y-46.0
X166.0Y-48.0
X166.0Y-65.0
X166.163Y-75.35
X166.6Y-62.9
X166.63Y-80.35
X166.963Y-75.35
X167.0Y-72.0
X167.0Y-74.0
X167.4Y-62.9
X167.763Y-75.35
X168.0Y-44.0
X168.0Y-46.0
X168.0Y-48.0
X168.0Y-61.8
X168.0Y-65.0
X168.35Y-52.95
X168.35Y-54.0
X168.563Y-75.35
X168.65Y-80.35
X168.763Y-83.95
X168.763Y-85.95
X168.8Y-61.8
X169.0Y-63.0
X169.0Y-72.0
X169.0Y-74.0
X169.363Y-75.35
X169.4Y-54.0
X169.45Y-80.35
X169.6Y-61.8
X170.0Y-44.0
X170.0Y-46.0
X170.0Y-48.0
X170.0Y-65.0
X170.163Y-75.35
X170.2Y-60.5
X170.2Y-80.35
X170.4Y-61.8
X170.763Y-81.95
X170.763Y-83.95
X170.763Y-85.95
X170.963Y-75.35
X170.963Y-80.35
X171.0Y-63.0
X171.0Y-68.0
X171.0Y-72.0
X171.0Y-74.0
X171.2Y-61.8
X171.763Y-75.35
X171.763Y-80.35
X172.0Y-44.0
X172.0Y-46.0
X172.0Y-48.0
X172.0Y-50.0
X172.0Y-61.8
X172.0Y-65.0
X172.0Y-71.0
X172.563Y-80.35
X172.65Y-75.35
X172.8Y-56.9
X172.8Y-61.8
X173.0Y-63.0
X173.0Y-67.0
X173.0Y-72.0
X173.0Y-74.0
X173.363Y-80.35
X173.45Y-75.35
X173.6Y-56.9
X173.6Y-61.8
X174.0Y-44.0
X174.0Y-46.0
X174.0Y-48.0
X174.0Y-50.0
X174.0Y-65.0
X174.0Y-69.0
X174.0Y-71.0
X174.163Y-80.35
X174.25Y-75.35
X174.4Y-56.9
X174.4Y-61.8
X174.5Y-53.1
X174.5Y-54.4
X174.963Y-80.35
X175.0Y-63.0
X175.0Y-67.0
X175.0Y-72.0
X175.0Y-74.0
X175.05Y-75.35
X175.2Y-56.9
X175.2Y-61.8
X175.763Y-80.35
X175.8Y-75.35
X176.0Y-44.0
X176.0Y-46.0
X176.0Y-48.0
X176.0Y-50.0
X176.0Y-52.0
X176.0Y-56.9
X176.0Y-61.8
X176.0Y-65.0
X176.563Y-75.35
X176.563Y-80.35
X176.8Y-56.9
X176.8Y-61.8
X177.0Y-63.0
X177.0Y-67.0
X177.0Y-72.0
X177.0Y-74.0
X177.363Y-75.35
X177.363Y-80.35
X177.6Y-56.9
X177.6Y-61.8
X178.0Y-44.0
X178.0Y-52.0
X178.0Y-65.0
X178.163Y-75.35
X178.163Y-80.35
X178.4Y-56.9
X178.4Y-61.8
X178.763Y-81.95
X178.763Y-83.95
X178.763Y-85.95
X178.963Y-75.35
X178.963Y-80.35
X179.0Y-63.0
X179.0Y-68.0
X179.0Y-70.0
X179.0Y-72.0
X179.0Y-74.0
X179.2Y-56.9
X179.2Y-61.8
X179.763Y-75.35
X179.763Y-80.35
X180.0Y-52.0
X180.0Y-56.9
X180.0Y-61.8
X180.8Y-56.9
X180.8Y-61.8
X181.0Y-67.0
X181.0Y-69.0
X181.0Y-71.0
X181.6Y-56.9
X181.6Y-61.8
X182.0Y-52.0
X183.0Y-67.0
X183.0Y-69.0
X183.0Y-71.0
X183.363Y-73.35
X183.363Y-82.15
X183.6Y-54.8
X183.6Y-63.8
X184.0Y-44.0
X184.0Y-46.0
X184.0Y-48.0
X184.0Y-50.0
X184.0Y-52.0
X184.963Y-73.35
X184.963Y-82.15
X185.0Y-67.0
X185.0Y-69.0
X185.2Y-54.8
X185.2Y-63.8
X186.0Y-44.0
X186.0Y-46.0
X186.0Y-48.0
X186.0Y-50.0
X186.0Y-52.0
X186.563Y-73.35
X186.563Y-82.15
X186.8Y-54.8
X186.8Y-63.8
T2
X110.75Y-59.525
X110.75Y-61.735
T3
X122.507Y-74.25
X122.507Y-76.0
X123.5Y-74.75
X156.95Y-73.95
T4
X118.12Y-48.14
X126.88Y-48.14
X181.49Y-54.95
X181.49Y-63.71
X181.49Y-73.37
X181.49Y-82.13
T5
X102.57Y-68.34
X102.57Y-70.88
X102.57Y-73.42
X102.57Y-75.96
X102.57Y-78.5
X155.283Y-83.3
X157.823Y-83.3
X160.363Y-83.3
X162.903Y-83.3
X165.443Y-83.3
T6
X105.0Y-47.0
X105.0Y-84.0
X175.0Y-84.0
X180.7Y-47.0
M30
