%TF.GenerationSoftware,KiCad,Pcbnew,7.0.10*%
%TF.CreationDate,2024-02-25T20:31:22-06:00*%
%TF.ProjectId,IFBoard,4946426f-6172-4642-9e6b-696361645f70,rev?*%
%TF.SameCoordinates,Original*%
%TF.FileFunction,Copper,L2,Bot*%
%TF.FilePolarity,Positive*%
%FSLAX46Y46*%
G04 Gerber Fmt 4.6, Leading zero omitted, Abs format (unit mm)*
G04 Created by KiCad (PCBNEW 7.0.10) date 2024-02-25 20:31:22*
%MOMM*%
%LPD*%
G01*
G04 APERTURE LIST*
G04 Aperture macros list*
%AMRoundRect*
0 Rectangle with rounded corners*
0 $1 Rounding radius*
0 $2 $3 $4 $5 $6 $7 $8 $9 X,Y pos of 4 corners*
0 Add a 4 corners polygon primitive as box body*
4,1,4,$2,$3,$4,$5,$6,$7,$8,$9,$2,$3,0*
0 Add four circle primitives for the rounded corners*
1,1,$1+$1,$2,$3*
1,1,$1+$1,$4,$5*
1,1,$1+$1,$6,$7*
1,1,$1+$1,$8,$9*
0 Add four rect primitives between the rounded corners*
20,1,$1+$1,$2,$3,$4,$5,0*
20,1,$1+$1,$4,$5,$6,$7,0*
20,1,$1+$1,$6,$7,$8,$9,0*
20,1,$1+$1,$8,$9,$2,$3,0*%
G04 Aperture macros list end*
%TA.AperFunction,ComponentPad*%
%ADD10R,1.700000X1.700000*%
%TD*%
%TA.AperFunction,ComponentPad*%
%ADD11O,1.700000X1.700000*%
%TD*%
%TA.AperFunction,SMDPad,CuDef*%
%ADD12RoundRect,0.155000X-0.155000X0.212500X-0.155000X-0.212500X0.155000X-0.212500X0.155000X0.212500X0*%
%TD*%
%TA.AperFunction,SMDPad,CuDef*%
%ADD13RoundRect,0.160000X0.160000X-0.197500X0.160000X0.197500X-0.160000X0.197500X-0.160000X-0.197500X0*%
%TD*%
%TA.AperFunction,SMDPad,CuDef*%
%ADD14R,0.400000X0.500000*%
%TD*%
%TA.AperFunction,SMDPad,CuDef*%
%ADD15RoundRect,0.237500X0.250000X0.237500X-0.250000X0.237500X-0.250000X-0.237500X0.250000X-0.237500X0*%
%TD*%
%TA.AperFunction,SMDPad,CuDef*%
%ADD16R,1.526000X0.650000*%
%TD*%
%TA.AperFunction,SMDPad,CuDef*%
%ADD17RoundRect,0.237500X0.300000X0.237500X-0.300000X0.237500X-0.300000X-0.237500X0.300000X-0.237500X0*%
%TD*%
%TA.AperFunction,SMDPad,CuDef*%
%ADD18RoundRect,0.155000X0.212500X0.155000X-0.212500X0.155000X-0.212500X-0.155000X0.212500X-0.155000X0*%
%TD*%
%TA.AperFunction,SMDPad,CuDef*%
%ADD19RoundRect,0.155000X0.155000X-0.212500X0.155000X0.212500X-0.155000X0.212500X-0.155000X-0.212500X0*%
%TD*%
%TA.AperFunction,SMDPad,CuDef*%
%ADD20RoundRect,0.160000X-0.160000X0.197500X-0.160000X-0.197500X0.160000X-0.197500X0.160000X0.197500X0*%
%TD*%
%TA.AperFunction,ViaPad*%
%ADD21C,0.800000*%
%TD*%
%TA.AperFunction,ViaPad*%
%ADD22C,0.600000*%
%TD*%
%TA.AperFunction,Conductor*%
%ADD23C,0.200000*%
%TD*%
G04 APERTURE END LIST*
D10*
%TO.P,J1,1,Pin_1*%
%TO.N,/IF_IN*%
X137600000Y-105325000D03*
D11*
%TO.P,J1,2,Pin_2*%
%TO.N,GND*%
X137600000Y-107865000D03*
%TO.P,J1,3,Pin_3*%
%TO.N,+3V3*%
X137600000Y-110405000D03*
%TO.P,J1,4,Pin_4*%
%TO.N,unconnected-(J1-Pin_4-Pad4)*%
X137600000Y-112945000D03*
%TO.P,J1,5,Pin_5*%
%TO.N,GND*%
X137600000Y-115485000D03*
%TD*%
D12*
%TO.P,C16,1*%
%TO.N,Net-(C16-Pad1)*%
X118000000Y-120832500D03*
%TO.P,C16,2*%
%TO.N,/IF_FILT_OUT*%
X118000000Y-121967500D03*
%TD*%
D13*
%TO.P,R10,1*%
%TO.N,Net-(IC3--IN)*%
X107000000Y-122197500D03*
%TO.P,R10,2*%
%TO.N,/IF_FILT_OUT*%
X107000000Y-121002500D03*
%TD*%
D14*
%TO.P,FB3,1,1*%
%TO.N,Net-(IC3-V+)*%
X106900000Y-115300000D03*
%TO.P,FB3,2,2*%
%TO.N,+3V3*%
X107700000Y-115300000D03*
%TD*%
D15*
%TO.P,R9,1*%
%TO.N,Net-(C16-Pad1)*%
X118012500Y-119400000D03*
%TO.P,R9,2*%
%TO.N,Net-(IC3-+IN)*%
X116187500Y-119400000D03*
%TD*%
D16*
%TO.P,IC3,1,NC_1*%
%TO.N,unconnected-(IC3-NC_1-Pad1)*%
X114112000Y-118495000D03*
%TO.P,IC3,2,-IN*%
%TO.N,Net-(IC3--IN)*%
X114112000Y-119765000D03*
%TO.P,IC3,3,+IN*%
%TO.N,Net-(IC3-+IN)*%
X114112000Y-121035000D03*
%TO.P,IC3,4,V-*%
%TO.N,GND*%
X114112000Y-122305000D03*
%TO.P,IC3,5,NC_2*%
%TO.N,unconnected-(IC3-NC_2-Pad5)*%
X108688000Y-122305000D03*
%TO.P,IC3,6,OUT*%
%TO.N,/IF_FILT_OUT*%
X108688000Y-121035000D03*
%TO.P,IC3,7,V+*%
%TO.N,Net-(IC3-V+)*%
X108688000Y-119765000D03*
%TO.P,IC3,8,NC_3*%
%TO.N,unconnected-(IC3-NC_3-Pad8)*%
X108688000Y-118495000D03*
%TD*%
D17*
%TO.P,C12,1*%
%TO.N,Net-(IC3-V+)*%
X106662500Y-118350000D03*
%TO.P,C12,2*%
%TO.N,GND*%
X104937500Y-118350000D03*
%TD*%
D18*
%TO.P,C11,1*%
%TO.N,Net-(IC3-V+)*%
X106967500Y-119700000D03*
%TO.P,C11,2*%
%TO.N,GND*%
X105832500Y-119700000D03*
%TD*%
D13*
%TO.P,R11,1*%
%TO.N,/VREF*%
X107000000Y-124647500D03*
%TO.P,R11,2*%
%TO.N,Net-(IC3--IN)*%
X107000000Y-123452500D03*
%TD*%
D17*
%TO.P,C13,1*%
%TO.N,Net-(IC3-V+)*%
X106662500Y-116700000D03*
%TO.P,C13,2*%
%TO.N,GND*%
X104937500Y-116700000D03*
%TD*%
D19*
%TO.P,C17,1*%
%TO.N,Net-(IC3-+IN)*%
X116200000Y-117967500D03*
%TO.P,C17,2*%
%TO.N,/VREF*%
X116200000Y-116832500D03*
%TD*%
D20*
%TO.P,R8,1*%
%TO.N,/LPF1OUT*%
X118000000Y-116802500D03*
%TO.P,R8,2*%
%TO.N,Net-(C16-Pad1)*%
X118000000Y-117997500D03*
%TD*%
D21*
%TO.N,GND*%
X127400000Y-126800000D03*
D22*
X104000000Y-106000000D03*
X128400000Y-119800000D03*
D21*
X123400000Y-125800000D03*
D22*
X134000000Y-126000000D03*
X102000000Y-110000000D03*
X124400000Y-125800000D03*
D21*
X125400000Y-123800000D03*
D22*
X124400000Y-119800000D03*
D21*
X128400000Y-120800000D03*
D22*
X104000000Y-108000000D03*
D21*
X127400000Y-123800000D03*
D22*
X138000000Y-124000000D03*
X102000000Y-106000000D03*
X116600000Y-109100000D03*
D21*
X125400000Y-121800000D03*
X128400000Y-118800000D03*
D22*
X104000000Y-110000000D03*
X111000000Y-114000000D03*
X132000000Y-122000000D03*
X127400000Y-125800000D03*
D21*
X129400000Y-124800000D03*
X126400000Y-126800000D03*
D22*
X121000000Y-122000000D03*
D21*
X124400000Y-118800000D03*
X127400000Y-122800000D03*
D22*
X109000000Y-116000000D03*
X106000000Y-108000000D03*
X108000000Y-108000000D03*
X108000000Y-110000000D03*
X113000000Y-110000000D03*
D21*
X123400000Y-120800000D03*
X124400000Y-124800000D03*
D22*
X121000000Y-120000000D03*
X125400000Y-119800000D03*
X106000000Y-106000000D03*
X132000000Y-124000000D03*
X121000000Y-124000000D03*
X110000000Y-106000000D03*
X112000000Y-106000000D03*
X102000000Y-112000000D03*
X127400000Y-119800000D03*
X117000000Y-124000000D03*
D21*
X125400000Y-126800000D03*
D22*
X104000000Y-112000000D03*
X110000000Y-108000000D03*
D21*
X129400000Y-119800000D03*
D22*
X115000000Y-124000000D03*
X126400000Y-124800000D03*
X138000000Y-122000000D03*
X127400000Y-120800000D03*
D21*
X129400000Y-125800000D03*
D22*
X119000000Y-124000000D03*
X126400000Y-122800000D03*
D21*
X128400000Y-124800000D03*
X123400000Y-126800000D03*
D22*
X116600000Y-109900000D03*
X111000000Y-112000000D03*
X111000000Y-116000000D03*
X113000000Y-114000000D03*
D21*
X129400000Y-126800000D03*
X123400000Y-124800000D03*
X126400000Y-118800000D03*
D22*
X106000000Y-112000000D03*
X117500000Y-109100000D03*
X126400000Y-123800000D03*
D21*
X124400000Y-126800000D03*
D22*
X136000000Y-126000000D03*
D21*
X127400000Y-121800000D03*
D22*
X134000000Y-124000000D03*
X126400000Y-121800000D03*
X126400000Y-125800000D03*
X121000000Y-126000000D03*
X109000000Y-114000000D03*
D21*
X123400000Y-118800000D03*
D22*
X132000000Y-126000000D03*
D21*
X127400000Y-118800000D03*
X125400000Y-118800000D03*
D22*
X127400000Y-124800000D03*
X102200000Y-126200000D03*
X138000000Y-126000000D03*
X134000000Y-122000000D03*
X125400000Y-124800000D03*
X136000000Y-122000000D03*
D21*
X124400000Y-120800000D03*
D22*
X105400000Y-126200000D03*
X128400000Y-125800000D03*
X113000000Y-112000000D03*
D21*
X128400000Y-126800000D03*
D22*
X111000000Y-124000000D03*
D21*
X123400000Y-119800000D03*
D22*
X106000000Y-110000000D03*
X126400000Y-120800000D03*
X113000000Y-124000000D03*
X108000000Y-106000000D03*
D21*
X125400000Y-122800000D03*
X129400000Y-118800000D03*
D22*
X126400000Y-119800000D03*
X102000000Y-108000000D03*
X125400000Y-120800000D03*
D21*
X129400000Y-120800000D03*
D22*
X136000000Y-124000000D03*
X113000000Y-116000000D03*
X125400000Y-125800000D03*
%TO.N,/VREF*%
X108660000Y-124530000D03*
X114247500Y-113578500D03*
%TO.N,/LPF1OUT*%
X115100000Y-111700000D03*
X118000000Y-115600000D03*
%TO.N,/IF_FILT_OUT*%
X103800000Y-122400000D03*
%TO.N,+3V3*%
X123800000Y-113400000D03*
%TO.N,Net-(IC2--IN)*%
X119200000Y-108900000D03*
X115800000Y-113500000D03*
%TO.N,Net-(IC3--IN)*%
X112600000Y-119600000D03*
X108800000Y-123400000D03*
%TD*%
D23*
%TO.N,/VREF*%
X108542500Y-124647500D02*
X108660000Y-124530000D01*
X116200000Y-116832500D02*
X114247500Y-114880000D01*
X114247500Y-114880000D02*
X114247500Y-113578500D01*
X107000000Y-124647500D02*
X108542500Y-124647500D01*
%TO.N,Net-(IC3-V+)*%
X106662500Y-116700000D02*
X106900000Y-116462500D01*
X106967500Y-118655000D02*
X106662500Y-118350000D01*
X106967500Y-119700000D02*
X106967500Y-118655000D01*
X106967500Y-119700000D02*
X108623000Y-119700000D01*
X108623000Y-119700000D02*
X108688000Y-119765000D01*
X106900000Y-116462500D02*
X106900000Y-115300000D01*
X106662500Y-118350000D02*
X106662500Y-116700000D01*
%TO.N,/LPF1OUT*%
X115100000Y-111700000D02*
X115100000Y-113900000D01*
X118000000Y-116802500D02*
X118000000Y-115600000D01*
X116800000Y-115600000D02*
X118000000Y-115600000D01*
X115100000Y-113900000D02*
X116800000Y-115600000D01*
%TO.N,Net-(C16-Pad1)*%
X118012500Y-120820000D02*
X118000000Y-120832500D01*
X118012500Y-119400000D02*
X118012500Y-120820000D01*
X118000000Y-117997500D02*
X118000000Y-119387500D01*
X118000000Y-119387500D02*
X118012500Y-119400000D01*
%TO.N,/IF_FILT_OUT*%
X108655500Y-121002500D02*
X108688000Y-121035000D01*
X107000000Y-121002500D02*
X105197500Y-121002500D01*
X110060000Y-121660000D02*
X117692500Y-121660000D01*
X108688000Y-121035000D02*
X109435000Y-121035000D01*
X117692500Y-121660000D02*
X118000000Y-121967500D01*
X109435000Y-121035000D02*
X110060000Y-121660000D01*
X107000000Y-121002500D02*
X108655500Y-121002500D01*
X105197500Y-121002500D02*
X103800000Y-122400000D01*
%TO.N,Net-(IC3-+IN)*%
X114112000Y-121035000D02*
X114552500Y-121035000D01*
X116200000Y-119387500D02*
X116187500Y-119400000D01*
X116200000Y-117967500D02*
X116200000Y-119387500D01*
X114552500Y-121035000D02*
X116187500Y-119400000D01*
%TO.N,+3V3*%
X123800000Y-112651471D02*
X119448529Y-108300000D01*
X119448529Y-108300000D02*
X113851471Y-108300000D01*
X134605000Y-113400000D02*
X137600000Y-110405000D01*
X107700000Y-114451471D02*
X107700000Y-115300000D01*
X123800000Y-113400000D02*
X134605000Y-113400000D01*
X113851471Y-108300000D02*
X107700000Y-114451471D01*
X123800000Y-113400000D02*
X123800000Y-112651471D01*
%TO.N,Net-(IC2--IN)*%
X119200000Y-108900000D02*
X115800000Y-112300000D01*
X115800000Y-112300000D02*
X115800000Y-113500000D01*
%TO.N,Net-(IC3--IN)*%
X113947000Y-119600000D02*
X114112000Y-119765000D01*
X107000000Y-123452500D02*
X107000000Y-122197500D01*
X108747500Y-123452500D02*
X108800000Y-123400000D01*
X107000000Y-123452500D02*
X108747500Y-123452500D01*
X112600000Y-119600000D02*
X113947000Y-119600000D01*
%TD*%
%TA.AperFunction,Conductor*%
%TO.N,GND*%
G36*
X139967708Y-103821322D02*
G01*
X139998148Y-103874045D01*
X139999500Y-103889500D01*
X139999500Y-128710500D01*
X139978678Y-128767708D01*
X139925955Y-128798148D01*
X139910500Y-128799500D01*
X100089500Y-128799500D01*
X100032292Y-128778678D01*
X100001852Y-128725955D01*
X100000500Y-128710500D01*
X100000500Y-125285000D01*
X102850000Y-125285000D01*
X102850000Y-127375000D01*
X102850001Y-127375000D01*
X104749999Y-127375000D01*
X104750000Y-127375000D01*
X104750000Y-125285000D01*
X102850000Y-125285000D01*
X100000500Y-125285000D01*
X100000500Y-122400000D01*
X103294353Y-122400000D01*
X103314834Y-122542456D01*
X103374621Y-122673371D01*
X103374623Y-122673374D01*
X103421598Y-122727586D01*
X103468872Y-122782143D01*
X103589947Y-122859953D01*
X103728039Y-122900500D01*
X103728042Y-122900500D01*
X103871958Y-122900500D01*
X103871961Y-122900500D01*
X104010053Y-122859953D01*
X104131128Y-122782143D01*
X104225377Y-122673373D01*
X104285165Y-122542457D01*
X104305647Y-122400000D01*
X104301845Y-122373560D01*
X104314312Y-122313974D01*
X104327003Y-122297966D01*
X105295904Y-121329067D01*
X105351079Y-121303339D01*
X105358836Y-121303000D01*
X106433524Y-121303000D01*
X106490732Y-121323822D01*
X106513479Y-121352909D01*
X106542551Y-121412375D01*
X106627625Y-121497449D01*
X106627627Y-121497450D01*
X106627626Y-121497450D01*
X106642146Y-121504548D01*
X106673840Y-121520042D01*
X106716091Y-121563874D01*
X106720282Y-121624609D01*
X106684453Y-121673829D01*
X106673842Y-121679955D01*
X106627628Y-121702549D01*
X106627627Y-121702549D01*
X106542549Y-121787627D01*
X106489708Y-121895714D01*
X106489707Y-121895718D01*
X106479500Y-121965781D01*
X106479500Y-122429213D01*
X106479501Y-122429225D01*
X106489708Y-122499284D01*
X106489709Y-122499286D01*
X106542551Y-122607375D01*
X106627625Y-122692449D01*
X106627627Y-122692450D01*
X106627626Y-122692450D01*
X106649588Y-122703186D01*
X106691838Y-122747017D01*
X106699500Y-122783143D01*
X106699500Y-122866856D01*
X106678678Y-122924064D01*
X106649590Y-122946812D01*
X106627627Y-122957549D01*
X106542549Y-123042627D01*
X106489708Y-123150714D01*
X106489707Y-123150718D01*
X106479500Y-123220781D01*
X106479500Y-123684213D01*
X106479501Y-123684225D01*
X106489708Y-123754284D01*
X106489709Y-123754286D01*
X106542551Y-123862375D01*
X106627625Y-123947449D01*
X106627627Y-123947450D01*
X106627626Y-123947450D01*
X106641620Y-123954291D01*
X106673840Y-123970042D01*
X106716091Y-124013874D01*
X106720282Y-124074609D01*
X106684453Y-124123829D01*
X106673842Y-124129955D01*
X106627628Y-124152549D01*
X106627627Y-124152549D01*
X106542549Y-124237627D01*
X106489708Y-124345714D01*
X106489707Y-124345718D01*
X106479500Y-124415781D01*
X106479500Y-124879213D01*
X106479501Y-124879225D01*
X106489708Y-124949284D01*
X106489709Y-124949286D01*
X106542551Y-125057375D01*
X106627625Y-125142449D01*
X106627626Y-125142449D01*
X106627627Y-125142450D01*
X106735714Y-125195291D01*
X106735718Y-125195292D01*
X106754422Y-125198016D01*
X106805785Y-125205500D01*
X107194214Y-125205499D01*
X107194215Y-125205498D01*
X107194225Y-125205498D01*
X107241447Y-125198618D01*
X107264286Y-125195291D01*
X107372375Y-125142449D01*
X107457449Y-125057375D01*
X107486519Y-124997910D01*
X107530351Y-124955661D01*
X107566476Y-124948000D01*
X108358534Y-124948000D01*
X108406650Y-124962127D01*
X108449947Y-124989953D01*
X108588039Y-125030500D01*
X108588042Y-125030500D01*
X108731958Y-125030500D01*
X108731961Y-125030500D01*
X108870053Y-124989953D01*
X108991128Y-124912143D01*
X109085377Y-124803373D01*
X109145165Y-124672457D01*
X109165647Y-124530000D01*
X109145165Y-124387543D01*
X109085378Y-124256628D01*
X109085376Y-124256625D01*
X108991128Y-124147857D01*
X108963272Y-124129955D01*
X108870053Y-124070047D01*
X108870051Y-124070046D01*
X108870049Y-124070045D01*
X108864260Y-124067401D01*
X108865278Y-124065171D01*
X108824099Y-124034853D01*
X108809745Y-123975689D01*
X108836779Y-123921141D01*
X108873122Y-123900159D01*
X109010053Y-123859953D01*
X109131128Y-123782143D01*
X109225377Y-123673373D01*
X109285165Y-123542457D01*
X109305647Y-123400000D01*
X109285165Y-123257543D01*
X109236454Y-123150882D01*
X109225378Y-123126628D01*
X109225376Y-123126625D01*
X109131126Y-123017855D01*
X109094584Y-122994371D01*
X109057715Y-122945926D01*
X109060612Y-122885115D01*
X109101919Y-122840394D01*
X109142701Y-122830500D01*
X109470744Y-122830500D01*
X109470748Y-122830500D01*
X109529231Y-122818867D01*
X109595552Y-122774552D01*
X109639867Y-122708231D01*
X109651500Y-122649748D01*
X109651500Y-121960252D01*
X109643477Y-121919916D01*
X109638275Y-121893765D01*
X109647536Y-121833594D01*
X109693308Y-121793453D01*
X109754173Y-121792125D01*
X109788498Y-121813469D01*
X109802589Y-121827560D01*
X109810277Y-121838244D01*
X109811071Y-121837646D01*
X109816040Y-121844226D01*
X109850896Y-121876002D01*
X109853867Y-121878839D01*
X109867198Y-121892170D01*
X109867202Y-121892173D01*
X109867203Y-121892174D01*
X109867873Y-121892633D01*
X109877526Y-121900279D01*
X109884964Y-121907060D01*
X109899067Y-121919916D01*
X109909313Y-121923885D01*
X109927459Y-121933450D01*
X109936519Y-121939656D01*
X109964872Y-121946324D01*
X109976647Y-121949970D01*
X110003827Y-121960500D01*
X110014811Y-121960500D01*
X110035187Y-121962864D01*
X110039483Y-121963874D01*
X110045881Y-121965379D01*
X110045882Y-121965378D01*
X110045883Y-121965379D01*
X110074734Y-121961354D01*
X110087031Y-121960500D01*
X117400500Y-121960500D01*
X117457708Y-121981322D01*
X117488148Y-122034045D01*
X117489500Y-122049500D01*
X117489500Y-122213747D01*
X117499565Y-122282834D01*
X117499566Y-122282836D01*
X117499567Y-122282840D01*
X117551676Y-122389429D01*
X117635571Y-122473324D01*
X117742160Y-122525433D01*
X117742164Y-122525433D01*
X117742165Y-122525434D01*
X117789372Y-122532311D01*
X117811258Y-122535500D01*
X117811265Y-122535500D01*
X118188735Y-122535500D01*
X118188742Y-122535500D01*
X118235954Y-122528621D01*
X118257834Y-122525434D01*
X118257834Y-122525433D01*
X118257840Y-122525433D01*
X118364429Y-122473324D01*
X118448324Y-122389429D01*
X118500433Y-122282840D01*
X118510500Y-122213742D01*
X118510500Y-121721258D01*
X118504483Y-121679957D01*
X118500434Y-121652165D01*
X118500433Y-121652163D01*
X118500433Y-121652160D01*
X118448324Y-121545571D01*
X118365684Y-121462931D01*
X118339957Y-121407757D01*
X118355713Y-121348952D01*
X118365679Y-121337073D01*
X118448324Y-121254429D01*
X118500433Y-121147840D01*
X118510500Y-121078742D01*
X118510500Y-120586258D01*
X118500433Y-120517160D01*
X118448324Y-120410571D01*
X118364429Y-120326676D01*
X118364427Y-120326675D01*
X118364426Y-120326674D01*
X118362906Y-120325931D01*
X118361846Y-120324831D01*
X118358428Y-120322391D01*
X118358881Y-120321755D01*
X118320659Y-120282097D01*
X118313000Y-120245977D01*
X118313000Y-120147017D01*
X118333822Y-120089809D01*
X118372602Y-120063013D01*
X118469475Y-120029116D01*
X118575711Y-119950711D01*
X118654116Y-119844475D01*
X118697725Y-119719849D01*
X118697726Y-119719843D01*
X118700500Y-119690263D01*
X118700500Y-119109736D01*
X118697726Y-119080156D01*
X118697725Y-119080153D01*
X118697725Y-119080151D01*
X118654116Y-118955525D01*
X118575711Y-118849289D01*
X118469475Y-118770884D01*
X118469473Y-118770883D01*
X118434420Y-118758617D01*
X118360103Y-118732612D01*
X118312984Y-118694065D01*
X118300500Y-118648608D01*
X118300500Y-118583143D01*
X118321322Y-118525935D01*
X118350412Y-118503186D01*
X118354617Y-118501129D01*
X118372375Y-118492449D01*
X118457449Y-118407375D01*
X118510291Y-118299286D01*
X118520500Y-118229215D01*
X118520499Y-117765786D01*
X118520499Y-117765785D01*
X118520498Y-117765774D01*
X118511954Y-117707133D01*
X118510291Y-117695714D01*
X118457449Y-117587625D01*
X118372375Y-117502551D01*
X118326157Y-117479956D01*
X118283908Y-117436125D01*
X118279717Y-117375390D01*
X118315547Y-117326170D01*
X118326154Y-117320045D01*
X118372375Y-117297449D01*
X118457449Y-117212375D01*
X118510291Y-117104286D01*
X118520500Y-117034215D01*
X118520499Y-116570786D01*
X118520499Y-116570785D01*
X118520498Y-116570774D01*
X118511954Y-116512133D01*
X118510291Y-116500714D01*
X118457449Y-116392625D01*
X118372375Y-116307551D01*
X118372373Y-116307550D01*
X118372372Y-116307549D01*
X118350410Y-116296812D01*
X118308161Y-116252979D01*
X118300500Y-116216856D01*
X118300500Y-116049327D01*
X118321322Y-115992119D01*
X118331028Y-115982257D01*
X118331125Y-115982144D01*
X118331128Y-115982143D01*
X118425377Y-115873373D01*
X118485165Y-115742457D01*
X118505647Y-115600000D01*
X118501297Y-115569748D01*
X118485165Y-115457543D01*
X118425378Y-115326628D01*
X118425376Y-115326625D01*
X118331128Y-115217857D01*
X118210053Y-115140047D01*
X118210051Y-115140046D01*
X118210049Y-115140045D01*
X118071962Y-115099500D01*
X118071961Y-115099500D01*
X117928039Y-115099500D01*
X117928037Y-115099500D01*
X117789950Y-115140045D01*
X117789947Y-115140047D01*
X117668872Y-115217857D01*
X117668871Y-115217857D01*
X117668871Y-115217858D01*
X117624744Y-115268783D01*
X117571545Y-115298382D01*
X117557483Y-115299500D01*
X116961337Y-115299500D01*
X116904129Y-115278678D01*
X116898404Y-115273433D01*
X115777404Y-114152433D01*
X115751676Y-114097257D01*
X115767432Y-114038452D01*
X115817302Y-114003533D01*
X115840337Y-114000500D01*
X115871958Y-114000500D01*
X115871961Y-114000500D01*
X116010053Y-113959953D01*
X116131128Y-113882143D01*
X116225377Y-113773373D01*
X116285165Y-113642457D01*
X116305647Y-113500000D01*
X116296451Y-113436043D01*
X116285165Y-113357543D01*
X116225378Y-113226628D01*
X116225375Y-113226625D01*
X116126960Y-113113046D01*
X116127996Y-113112147D01*
X116101617Y-113064730D01*
X116100500Y-113050672D01*
X116100500Y-112461335D01*
X116121322Y-112404127D01*
X116126545Y-112398425D01*
X119098403Y-109426566D01*
X119153578Y-109400839D01*
X119161335Y-109400500D01*
X119271958Y-109400500D01*
X119271961Y-109400500D01*
X119410053Y-109359953D01*
X119531128Y-109282143D01*
X119625377Y-109173373D01*
X119657262Y-109103554D01*
X119699967Y-109060167D01*
X119760571Y-109054380D01*
X119801152Y-109077594D01*
X123473433Y-112749875D01*
X123499161Y-112805051D01*
X123499500Y-112812808D01*
X123499500Y-112950672D01*
X123478678Y-113007880D01*
X123468963Y-113017751D01*
X123374624Y-113126625D01*
X123374621Y-113126628D01*
X123314834Y-113257543D01*
X123294353Y-113399999D01*
X123294353Y-113400000D01*
X123314834Y-113542456D01*
X123374621Y-113673371D01*
X123374623Y-113673374D01*
X123468870Y-113782141D01*
X123468872Y-113782143D01*
X123589947Y-113859953D01*
X123728039Y-113900500D01*
X123728042Y-113900500D01*
X123871958Y-113900500D01*
X123871961Y-113900500D01*
X124010053Y-113859953D01*
X124131128Y-113782143D01*
X124175256Y-113731217D01*
X124228455Y-113701618D01*
X124242517Y-113700500D01*
X134541466Y-113700500D01*
X134554462Y-113702618D01*
X134554600Y-113701634D01*
X134562765Y-113702773D01*
X134609880Y-113700595D01*
X134613990Y-113700500D01*
X134632842Y-113700500D01*
X134632844Y-113700500D01*
X134633628Y-113700353D01*
X134645888Y-113698929D01*
X134674992Y-113697585D01*
X134685040Y-113693147D01*
X134704634Y-113687079D01*
X134715433Y-113685061D01*
X134740214Y-113669716D01*
X134751090Y-113663983D01*
X134777765Y-113652206D01*
X134785532Y-113644438D01*
X134801611Y-113631702D01*
X134810952Y-113625919D01*
X134828511Y-113602665D01*
X134836596Y-113593373D01*
X135484966Y-112945003D01*
X136544417Y-112945003D01*
X136564698Y-113150926D01*
X136564700Y-113150934D01*
X136624766Y-113348950D01*
X136624767Y-113348953D01*
X136624768Y-113348954D01*
X136722315Y-113531450D01*
X136853590Y-113691410D01*
X137013550Y-113822685D01*
X137196046Y-113920232D01*
X137394066Y-113980300D01*
X137394070Y-113980300D01*
X137394073Y-113980301D01*
X137599996Y-114000583D01*
X137600000Y-114000583D01*
X137600004Y-114000583D01*
X137805926Y-113980301D01*
X137805927Y-113980300D01*
X137805934Y-113980300D01*
X138003954Y-113920232D01*
X138186450Y-113822685D01*
X138346410Y-113691410D01*
X138477685Y-113531450D01*
X138575232Y-113348954D01*
X138635300Y-113150934D01*
X138642417Y-113078678D01*
X138655583Y-112945003D01*
X138655583Y-112944996D01*
X138635301Y-112739073D01*
X138635300Y-112739070D01*
X138635300Y-112739066D01*
X138575232Y-112541046D01*
X138477685Y-112358550D01*
X138346410Y-112198590D01*
X138186450Y-112067315D01*
X138003954Y-111969768D01*
X138003953Y-111969767D01*
X138003950Y-111969766D01*
X137805934Y-111909700D01*
X137805926Y-111909698D01*
X137600004Y-111889417D01*
X137599996Y-111889417D01*
X137394073Y-111909698D01*
X137394065Y-111909700D01*
X137196049Y-111969766D01*
X137013548Y-112067316D01*
X136853594Y-112198586D01*
X136853586Y-112198594D01*
X136722316Y-112358548D01*
X136624766Y-112541049D01*
X136564700Y-112739065D01*
X136564698Y-112739073D01*
X136544417Y-112944996D01*
X136544417Y-112945003D01*
X135484966Y-112945003D01*
X137054029Y-111375941D01*
X137109203Y-111350214D01*
X137158914Y-111360384D01*
X137196046Y-111380232D01*
X137394066Y-111440300D01*
X137394070Y-111440300D01*
X137394073Y-111440301D01*
X137599996Y-111460583D01*
X137600000Y-111460583D01*
X137600004Y-111460583D01*
X137805926Y-111440301D01*
X137805927Y-111440300D01*
X137805934Y-111440300D01*
X138003954Y-111380232D01*
X138186450Y-111282685D01*
X138346410Y-111151410D01*
X138477685Y-110991450D01*
X138575232Y-110808954D01*
X138635300Y-110610934D01*
X138655583Y-110405000D01*
X138635300Y-110199066D01*
X138575232Y-110001046D01*
X138477685Y-109818550D01*
X138346410Y-109658590D01*
X138186450Y-109527315D01*
X138003954Y-109429768D01*
X138003953Y-109429767D01*
X138003950Y-109429766D01*
X137805934Y-109369700D01*
X137805926Y-109369698D01*
X137600004Y-109349417D01*
X137599996Y-109349417D01*
X137394073Y-109369698D01*
X137394065Y-109369700D01*
X137196049Y-109429766D01*
X137013548Y-109527316D01*
X136853594Y-109658586D01*
X136853586Y-109658594D01*
X136722316Y-109818548D01*
X136624766Y-110001049D01*
X136564700Y-110199065D01*
X136564698Y-110199073D01*
X136544417Y-110404996D01*
X136544417Y-110405003D01*
X136564698Y-110610926D01*
X136564700Y-110610934D01*
X136624766Y-110808951D01*
X136644615Y-110846086D01*
X136653218Y-110906355D01*
X136629056Y-110950971D01*
X134506597Y-113073432D01*
X134451421Y-113099161D01*
X134443664Y-113099500D01*
X124242517Y-113099500D01*
X124185309Y-113078678D01*
X124175256Y-113068783D01*
X124126960Y-113013047D01*
X124127995Y-113012150D01*
X124101616Y-112964721D01*
X124100500Y-112950672D01*
X124100500Y-112715007D01*
X124102620Y-112702013D01*
X124101634Y-112701876D01*
X124102773Y-112693709D01*
X124100595Y-112646590D01*
X124100500Y-112642480D01*
X124100500Y-112623628D01*
X124100352Y-112622838D01*
X124098929Y-112610576D01*
X124097585Y-112581479D01*
X124093146Y-112571426D01*
X124087079Y-112551837D01*
X124085061Y-112541038D01*
X124069715Y-112516254D01*
X124063977Y-112505365D01*
X124052206Y-112478706D01*
X124052204Y-112478704D01*
X124044435Y-112470934D01*
X124031701Y-112454857D01*
X124025919Y-112445519D01*
X124025917Y-112445517D01*
X124002670Y-112427962D01*
X123993371Y-112419871D01*
X119705940Y-108132440D01*
X119698254Y-108121754D01*
X119697458Y-108122356D01*
X119692489Y-108115776D01*
X119692487Y-108115772D01*
X119657623Y-108083989D01*
X119654671Y-108081170D01*
X119641326Y-108067826D01*
X119640656Y-108067367D01*
X119631001Y-108059719D01*
X119609462Y-108040084D01*
X119599212Y-108036113D01*
X119581072Y-108026551D01*
X119572011Y-108020344D01*
X119572009Y-108020343D01*
X119543645Y-108013672D01*
X119531873Y-108010026D01*
X119504702Y-107999500D01*
X119493718Y-107999500D01*
X119473342Y-107997136D01*
X119462649Y-107994621D01*
X119462645Y-107994620D01*
X119433795Y-107998646D01*
X119421498Y-107999500D01*
X113915006Y-107999500D01*
X113902009Y-107997381D01*
X113901872Y-107998366D01*
X113893706Y-107997226D01*
X113846592Y-107999405D01*
X113842482Y-107999500D01*
X113823627Y-107999500D01*
X113823624Y-107999500D01*
X113823615Y-107999501D01*
X113822821Y-107999650D01*
X113810587Y-108001069D01*
X113781480Y-108002415D01*
X113781479Y-108002415D01*
X113771422Y-108006855D01*
X113751839Y-108012919D01*
X113741038Y-108014938D01*
X113741034Y-108014940D01*
X113716256Y-108030280D01*
X113705361Y-108036023D01*
X113678708Y-108047792D01*
X113678706Y-108047793D01*
X113670935Y-108055564D01*
X113654863Y-108068294D01*
X113645521Y-108074078D01*
X113645519Y-108074080D01*
X113627958Y-108097333D01*
X113619870Y-108106628D01*
X107532437Y-114194061D01*
X107521756Y-114201750D01*
X107522354Y-114202542D01*
X107515768Y-114207515D01*
X107483987Y-114242377D01*
X107481151Y-114245348D01*
X107467826Y-114258673D01*
X107467817Y-114258683D01*
X107467355Y-114259359D01*
X107459720Y-114268996D01*
X107440085Y-114290536D01*
X107440081Y-114290542D01*
X107436112Y-114300788D01*
X107426552Y-114318926D01*
X107420342Y-114327991D01*
X107413670Y-114356357D01*
X107410026Y-114368125D01*
X107399500Y-114395298D01*
X107399500Y-114406282D01*
X107397136Y-114426658D01*
X107394621Y-114437350D01*
X107394621Y-114437353D01*
X107398646Y-114466203D01*
X107399500Y-114478501D01*
X107399500Y-114828441D01*
X107378678Y-114885649D01*
X107359946Y-114902441D01*
X107349446Y-114909457D01*
X107290312Y-114923928D01*
X107250554Y-114909458D01*
X107178231Y-114861132D01*
X107119752Y-114849500D01*
X107119748Y-114849500D01*
X106680252Y-114849500D01*
X106680247Y-114849500D01*
X106621768Y-114861132D01*
X106555451Y-114905445D01*
X106555445Y-114905451D01*
X106511132Y-114971768D01*
X106499500Y-115030247D01*
X106499500Y-115569752D01*
X106511132Y-115628231D01*
X106552770Y-115690544D01*
X106555448Y-115694552D01*
X106555451Y-115694554D01*
X106559945Y-115697557D01*
X106595944Y-115746652D01*
X106599500Y-115771558D01*
X106599500Y-115935500D01*
X106578678Y-115992708D01*
X106525955Y-116023148D01*
X106510500Y-116024500D01*
X106309737Y-116024500D01*
X106280156Y-116027273D01*
X106155526Y-116070883D01*
X106049289Y-116149289D01*
X105970883Y-116255526D01*
X105927273Y-116380156D01*
X105924500Y-116409736D01*
X105924500Y-116990263D01*
X105927273Y-117019843D01*
X105947884Y-117078747D01*
X105970884Y-117144475D01*
X106049289Y-117250711D01*
X106155525Y-117329116D01*
X106280151Y-117372725D01*
X106281306Y-117372833D01*
X106281870Y-117373100D01*
X106285447Y-117373882D01*
X106285266Y-117374709D01*
X106336322Y-117398904D01*
X106361708Y-117454238D01*
X106362000Y-117461445D01*
X106362000Y-117588554D01*
X106341178Y-117645762D01*
X106288455Y-117676202D01*
X106281320Y-117677164D01*
X106280161Y-117677272D01*
X106280156Y-117677273D01*
X106155526Y-117720883D01*
X106049289Y-117799289D01*
X105970883Y-117905526D01*
X105927273Y-118030156D01*
X105924500Y-118059736D01*
X105924500Y-118640263D01*
X105927273Y-118669843D01*
X105962628Y-118770883D01*
X105970884Y-118794475D01*
X106049289Y-118900711D01*
X106155525Y-118979116D01*
X106280151Y-119022725D01*
X106280153Y-119022725D01*
X106280156Y-119022726D01*
X106309737Y-119025500D01*
X106309744Y-119025500D01*
X106578000Y-119025500D01*
X106635208Y-119046322D01*
X106665648Y-119099045D01*
X106667000Y-119114500D01*
X106667000Y-119136755D01*
X106646178Y-119193963D01*
X106617089Y-119216711D01*
X106545575Y-119251672D01*
X106461675Y-119335572D01*
X106461674Y-119335575D01*
X106420278Y-119420252D01*
X106409566Y-119442163D01*
X106409565Y-119442165D01*
X106399500Y-119511252D01*
X106399500Y-119888747D01*
X106409565Y-119957834D01*
X106409566Y-119957836D01*
X106409567Y-119957840D01*
X106461676Y-120064429D01*
X106545571Y-120148324D01*
X106652160Y-120200433D01*
X106652164Y-120200433D01*
X106652165Y-120200434D01*
X106699372Y-120207311D01*
X106721258Y-120210500D01*
X106721265Y-120210500D01*
X107213735Y-120210500D01*
X107213742Y-120210500D01*
X107260954Y-120203621D01*
X107282834Y-120200434D01*
X107282834Y-120200433D01*
X107282840Y-120200433D01*
X107389429Y-120148324D01*
X107473324Y-120064429D01*
X107473325Y-120064425D01*
X107473327Y-120064424D01*
X107480178Y-120050411D01*
X107524010Y-120008161D01*
X107560134Y-120000500D01*
X107635500Y-120000500D01*
X107692708Y-120021322D01*
X107723148Y-120074045D01*
X107724500Y-120089500D01*
X107724500Y-120109752D01*
X107736132Y-120168231D01*
X107779915Y-120233755D01*
X107780448Y-120234552D01*
X107780451Y-120234554D01*
X107846768Y-120278867D01*
X107863007Y-120282097D01*
X107905252Y-120290500D01*
X107905256Y-120290500D01*
X109470744Y-120290500D01*
X109470748Y-120290500D01*
X109529231Y-120278867D01*
X109595552Y-120234552D01*
X109639867Y-120168231D01*
X109651500Y-120109748D01*
X109651500Y-119420252D01*
X109646665Y-119395945D01*
X109639867Y-119361768D01*
X109595554Y-119295451D01*
X109595552Y-119295448D01*
X109595548Y-119295445D01*
X109529231Y-119251132D01*
X109470752Y-119239500D01*
X109470748Y-119239500D01*
X107905252Y-119239500D01*
X107905247Y-119239500D01*
X107846768Y-119251132D01*
X107780451Y-119295445D01*
X107780445Y-119295451D01*
X107737350Y-119359947D01*
X107688254Y-119395945D01*
X107663350Y-119399500D01*
X107560134Y-119399500D01*
X107502926Y-119378678D01*
X107480178Y-119349589D01*
X107473327Y-119335575D01*
X107473324Y-119335572D01*
X107473324Y-119335571D01*
X107389429Y-119251676D01*
X107389427Y-119251675D01*
X107389424Y-119251672D01*
X107317911Y-119216711D01*
X107275661Y-119172879D01*
X107268000Y-119136755D01*
X107268000Y-118940445D01*
X107285391Y-118887595D01*
X107287622Y-118884570D01*
X107320700Y-118839752D01*
X107724500Y-118839752D01*
X107736132Y-118898231D01*
X107774416Y-118955525D01*
X107780448Y-118964552D01*
X107780451Y-118964554D01*
X107846768Y-119008867D01*
X107903690Y-119020189D01*
X107905252Y-119020500D01*
X107905256Y-119020500D01*
X109470744Y-119020500D01*
X109470748Y-119020500D01*
X109529231Y-119008867D01*
X109595552Y-118964552D01*
X109639867Y-118898231D01*
X109651499Y-118839752D01*
X113148500Y-118839752D01*
X113160132Y-118898231D01*
X113198416Y-118955525D01*
X113204448Y-118964552D01*
X113204451Y-118964554D01*
X113270768Y-119008867D01*
X113327690Y-119020189D01*
X113329252Y-119020500D01*
X113329256Y-119020500D01*
X114894744Y-119020500D01*
X114894748Y-119020500D01*
X114953231Y-119008867D01*
X115019552Y-118964552D01*
X115063867Y-118898231D01*
X115075500Y-118839748D01*
X115075500Y-118150252D01*
X115063867Y-118091769D01*
X115063867Y-118091768D01*
X115019554Y-118025451D01*
X115019552Y-118025448D01*
X115019548Y-118025445D01*
X114953231Y-117981132D01*
X114894752Y-117969500D01*
X114894748Y-117969500D01*
X113329252Y-117969500D01*
X113329247Y-117969500D01*
X113270768Y-117981132D01*
X113204451Y-118025445D01*
X113204445Y-118025451D01*
X113160132Y-118091768D01*
X113148500Y-118150247D01*
X113148500Y-118839752D01*
X109651499Y-118839752D01*
X109651500Y-118839748D01*
X109651500Y-118150252D01*
X109639867Y-118091769D01*
X109639867Y-118091768D01*
X109595554Y-118025451D01*
X109595552Y-118025448D01*
X109595548Y-118025445D01*
X109529231Y-117981132D01*
X109470752Y-117969500D01*
X109470748Y-117969500D01*
X107905252Y-117969500D01*
X107905247Y-117969500D01*
X107846768Y-117981132D01*
X107780451Y-118025445D01*
X107780445Y-118025451D01*
X107736132Y-118091768D01*
X107724500Y-118150247D01*
X107724500Y-118839752D01*
X107320700Y-118839752D01*
X107354116Y-118794475D01*
X107397725Y-118669849D01*
X107399717Y-118648608D01*
X107400500Y-118640263D01*
X107400500Y-118059736D01*
X107397726Y-118030156D01*
X107397725Y-118030153D01*
X107397725Y-118030151D01*
X107354116Y-117905525D01*
X107275711Y-117799289D01*
X107169475Y-117720884D01*
X107169473Y-117720883D01*
X107044843Y-117677273D01*
X107044838Y-117677272D01*
X107043680Y-117677164D01*
X107043115Y-117676896D01*
X107039553Y-117676118D01*
X107039733Y-117675292D01*
X106988669Y-117651085D01*
X106963291Y-117595748D01*
X106963000Y-117588554D01*
X106963000Y-117461445D01*
X106983822Y-117404237D01*
X107036545Y-117373797D01*
X107043686Y-117372834D01*
X107044849Y-117372725D01*
X107169475Y-117329116D01*
X107275711Y-117250711D01*
X107354116Y-117144475D01*
X107397725Y-117019849D01*
X107397726Y-117019843D01*
X107400500Y-116990263D01*
X107400500Y-116409736D01*
X107397726Y-116380156D01*
X107397725Y-116380153D01*
X107397725Y-116380151D01*
X107354116Y-116255525D01*
X107275711Y-116149289D01*
X107275707Y-116149286D01*
X107275705Y-116149284D01*
X107236650Y-116120460D01*
X107202985Y-116069735D01*
X107200500Y-116048851D01*
X107200500Y-115771558D01*
X107221322Y-115714350D01*
X107240050Y-115697560D01*
X107244552Y-115694552D01*
X107244552Y-115694551D01*
X107250549Y-115690544D01*
X107309684Y-115676070D01*
X107349445Y-115690542D01*
X107421766Y-115738866D01*
X107421768Y-115738866D01*
X107421769Y-115738867D01*
X107480252Y-115750500D01*
X107480256Y-115750500D01*
X107919744Y-115750500D01*
X107919748Y-115750500D01*
X107978231Y-115738867D01*
X108044552Y-115694552D01*
X108088867Y-115628231D01*
X108100500Y-115569748D01*
X108100500Y-115030252D01*
X108088867Y-114971769D01*
X108088867Y-114971768D01*
X108044554Y-114905451D01*
X108044552Y-114905448D01*
X108044548Y-114905445D01*
X108044546Y-114905443D01*
X108040049Y-114902438D01*
X108004054Y-114853340D01*
X108000500Y-114828441D01*
X108000500Y-114612808D01*
X108021322Y-114555600D01*
X108026567Y-114549875D01*
X113949875Y-108626567D01*
X114005051Y-108600839D01*
X114012808Y-108600500D01*
X118648068Y-108600500D01*
X118705276Y-108621322D01*
X118735716Y-108674045D01*
X118729025Y-108726472D01*
X118714834Y-108757543D01*
X118694353Y-108899999D01*
X118694353Y-108900003D01*
X118698153Y-108926438D01*
X118685683Y-108986027D01*
X118672992Y-109002035D01*
X115726019Y-111949008D01*
X115670843Y-111974736D01*
X115612038Y-111958980D01*
X115577119Y-111909110D01*
X115582129Y-111849103D01*
X115585165Y-111842457D01*
X115605647Y-111700000D01*
X115585165Y-111557543D01*
X115525378Y-111426628D01*
X115525376Y-111426625D01*
X115431128Y-111317857D01*
X115376396Y-111282683D01*
X115310053Y-111240047D01*
X115310051Y-111240046D01*
X115310049Y-111240045D01*
X115171962Y-111199500D01*
X115171961Y-111199500D01*
X115028039Y-111199500D01*
X115028037Y-111199500D01*
X114889950Y-111240045D01*
X114768871Y-111317857D01*
X114674623Y-111426625D01*
X114674621Y-111426628D01*
X114614834Y-111557543D01*
X114594353Y-111699999D01*
X114594353Y-111700000D01*
X114614834Y-111842456D01*
X114674621Y-111973371D01*
X114674623Y-111973374D01*
X114749163Y-112059397D01*
X114756024Y-112067316D01*
X114773041Y-112086954D01*
X114772003Y-112087853D01*
X114798382Y-112135267D01*
X114799500Y-112149327D01*
X114799500Y-113212639D01*
X114778678Y-113269847D01*
X114725955Y-113300287D01*
X114666000Y-113289715D01*
X114643238Y-113270922D01*
X114642307Y-113269847D01*
X114578628Y-113196357D01*
X114457553Y-113118547D01*
X114457551Y-113118546D01*
X114457549Y-113118545D01*
X114319462Y-113078000D01*
X114319461Y-113078000D01*
X114175539Y-113078000D01*
X114175537Y-113078000D01*
X114037450Y-113118545D01*
X113916371Y-113196357D01*
X113822123Y-113305125D01*
X113822121Y-113305128D01*
X113762334Y-113436043D01*
X113741853Y-113578499D01*
X113741853Y-113578500D01*
X113762334Y-113720956D01*
X113822121Y-113851871D01*
X113822123Y-113851874D01*
X113920541Y-113965454D01*
X113919503Y-113966353D01*
X113945882Y-114013767D01*
X113947000Y-114027827D01*
X113947000Y-114816466D01*
X113944881Y-114829462D01*
X113945866Y-114829600D01*
X113944726Y-114837764D01*
X113946905Y-114884879D01*
X113947000Y-114888989D01*
X113947000Y-114907848D01*
X113947150Y-114908648D01*
X113948569Y-114920885D01*
X113949915Y-114949993D01*
X113949915Y-114949994D01*
X113954353Y-114960046D01*
X113960419Y-114979632D01*
X113962438Y-114990432D01*
X113977774Y-115015201D01*
X113983520Y-115026101D01*
X113995294Y-115052765D01*
X113995295Y-115052766D01*
X114003064Y-115060536D01*
X114015796Y-115076611D01*
X114021577Y-115085947D01*
X114021581Y-115085952D01*
X114044828Y-115103507D01*
X114054127Y-115111598D01*
X115663433Y-116720904D01*
X115689161Y-116776080D01*
X115689500Y-116783837D01*
X115689500Y-117078747D01*
X115699565Y-117147834D01*
X115699566Y-117147836D01*
X115699567Y-117147840D01*
X115751676Y-117254429D01*
X115834315Y-117337068D01*
X115860043Y-117392243D01*
X115844287Y-117451048D01*
X115834320Y-117462926D01*
X115751676Y-117545571D01*
X115751675Y-117545572D01*
X115699566Y-117652163D01*
X115699565Y-117652165D01*
X115689500Y-117721252D01*
X115689500Y-118213747D01*
X115699565Y-118282834D01*
X115699566Y-118282836D01*
X115699567Y-118282840D01*
X115751676Y-118389429D01*
X115835571Y-118473324D01*
X115849586Y-118480175D01*
X115891838Y-118524006D01*
X115899500Y-118560133D01*
X115899500Y-118648608D01*
X115878678Y-118705816D01*
X115839896Y-118732612D01*
X115785792Y-118751544D01*
X115730526Y-118770883D01*
X115624289Y-118849289D01*
X115545883Y-118955526D01*
X115502273Y-119080156D01*
X115499500Y-119109736D01*
X115499500Y-119626163D01*
X115478678Y-119683371D01*
X115473433Y-119689096D01*
X115227433Y-119935096D01*
X115172257Y-119960824D01*
X115113452Y-119945068D01*
X115078533Y-119895198D01*
X115075500Y-119872163D01*
X115075500Y-119420255D01*
X115075499Y-119420247D01*
X115063867Y-119361768D01*
X115019554Y-119295451D01*
X115019552Y-119295448D01*
X115019548Y-119295445D01*
X114953231Y-119251132D01*
X114894752Y-119239500D01*
X114894748Y-119239500D01*
X113329252Y-119239500D01*
X113329247Y-119239500D01*
X113270766Y-119251133D01*
X113220831Y-119284500D01*
X113171385Y-119299500D01*
X113042517Y-119299500D01*
X112985309Y-119278678D01*
X112975256Y-119268783D01*
X112959961Y-119251132D01*
X112931128Y-119217857D01*
X112810053Y-119140047D01*
X112810051Y-119140046D01*
X112810049Y-119140045D01*
X112671962Y-119099500D01*
X112671961Y-119099500D01*
X112528039Y-119099500D01*
X112528037Y-119099500D01*
X112389950Y-119140045D01*
X112268871Y-119217857D01*
X112174623Y-119326625D01*
X112174621Y-119326628D01*
X112114834Y-119457543D01*
X112094353Y-119599999D01*
X112094353Y-119600000D01*
X112114834Y-119742456D01*
X112174621Y-119873371D01*
X112174623Y-119873374D01*
X112241635Y-119950710D01*
X112268872Y-119982143D01*
X112389947Y-120059953D01*
X112389949Y-120059953D01*
X112389950Y-120059954D01*
X112405174Y-120064424D01*
X112528039Y-120100500D01*
X112528042Y-120100500D01*
X112671958Y-120100500D01*
X112671961Y-120100500D01*
X112810053Y-120059953D01*
X112931128Y-119982143D01*
X112966836Y-119940933D01*
X112975256Y-119931217D01*
X113028455Y-119901618D01*
X113042517Y-119900500D01*
X113059500Y-119900500D01*
X113116708Y-119921322D01*
X113147148Y-119974045D01*
X113148500Y-119989500D01*
X113148500Y-120109752D01*
X113160132Y-120168231D01*
X113203915Y-120233755D01*
X113204448Y-120234552D01*
X113204451Y-120234554D01*
X113270768Y-120278867D01*
X113287007Y-120282097D01*
X113329252Y-120290500D01*
X114657163Y-120290500D01*
X114714371Y-120311322D01*
X114744811Y-120364045D01*
X114734239Y-120424000D01*
X114720096Y-120442433D01*
X114679096Y-120483433D01*
X114623920Y-120509161D01*
X114616163Y-120509500D01*
X113329247Y-120509500D01*
X113270768Y-120521132D01*
X113204451Y-120565445D01*
X113204445Y-120565451D01*
X113160132Y-120631768D01*
X113148500Y-120690247D01*
X113148500Y-121270500D01*
X113127678Y-121327708D01*
X113074955Y-121358148D01*
X113059500Y-121359500D01*
X110221337Y-121359500D01*
X110164129Y-121338678D01*
X110158405Y-121333433D01*
X109692413Y-120867442D01*
X109684725Y-120856753D01*
X109683929Y-120857355D01*
X109673989Y-120844192D01*
X109675670Y-120842922D01*
X109652290Y-120798277D01*
X109651500Y-120786443D01*
X109651500Y-120690255D01*
X109651499Y-120690247D01*
X109639867Y-120631768D01*
X109595554Y-120565451D01*
X109595552Y-120565448D01*
X109595548Y-120565445D01*
X109529231Y-120521132D01*
X109470752Y-120509500D01*
X109470748Y-120509500D01*
X107905252Y-120509500D01*
X107905247Y-120509500D01*
X107846768Y-120521132D01*
X107780451Y-120565445D01*
X107780445Y-120565451D01*
X107736131Y-120631769D01*
X107732778Y-120639867D01*
X107731074Y-120639161D01*
X107704825Y-120682413D01*
X107649122Y-120702000D01*
X107566476Y-120702000D01*
X107509268Y-120681178D01*
X107486519Y-120652089D01*
X107480199Y-120639161D01*
X107457449Y-120592625D01*
X107372375Y-120507551D01*
X107372373Y-120507550D01*
X107372372Y-120507549D01*
X107264285Y-120454708D01*
X107264281Y-120454707D01*
X107207276Y-120446402D01*
X107194215Y-120444500D01*
X107194213Y-120444500D01*
X106805786Y-120444500D01*
X106805774Y-120444501D01*
X106735715Y-120454708D01*
X106627626Y-120507550D01*
X106542550Y-120592626D01*
X106527211Y-120624001D01*
X106523415Y-120631769D01*
X106513481Y-120652089D01*
X106469649Y-120694339D01*
X106433524Y-120702000D01*
X105261034Y-120702000D01*
X105248037Y-120699881D01*
X105247900Y-120700866D01*
X105239734Y-120699726D01*
X105192620Y-120701905D01*
X105188510Y-120702000D01*
X105169656Y-120702000D01*
X105169653Y-120702000D01*
X105169644Y-120702001D01*
X105168850Y-120702150D01*
X105156616Y-120703569D01*
X105127507Y-120704915D01*
X105127504Y-120704915D01*
X105117446Y-120709356D01*
X105097867Y-120715419D01*
X105087067Y-120717438D01*
X105087064Y-120717439D01*
X105062295Y-120732775D01*
X105051398Y-120738519D01*
X105024737Y-120750292D01*
X105024731Y-120750295D01*
X105016961Y-120758066D01*
X105000886Y-120770799D01*
X104991547Y-120776581D01*
X104973990Y-120799829D01*
X104965902Y-120809123D01*
X103901594Y-121873432D01*
X103846418Y-121899161D01*
X103838661Y-121899500D01*
X103728037Y-121899500D01*
X103589950Y-121940045D01*
X103468871Y-122017857D01*
X103374623Y-122126625D01*
X103374621Y-122126628D01*
X103314834Y-122257543D01*
X103294353Y-122399999D01*
X103294353Y-122400000D01*
X100000500Y-122400000D01*
X100000500Y-106194752D01*
X136549500Y-106194752D01*
X136561132Y-106253231D01*
X136605445Y-106319548D01*
X136605448Y-106319552D01*
X136605451Y-106319554D01*
X136671768Y-106363867D01*
X136728690Y-106375189D01*
X136730252Y-106375500D01*
X136730256Y-106375500D01*
X138469744Y-106375500D01*
X138469748Y-106375500D01*
X138528231Y-106363867D01*
X138594552Y-106319552D01*
X138638867Y-106253231D01*
X138650500Y-106194748D01*
X138650500Y-104455252D01*
X138638867Y-104396769D01*
X138638867Y-104396768D01*
X138594554Y-104330451D01*
X138594552Y-104330448D01*
X138594548Y-104330445D01*
X138528231Y-104286132D01*
X138469752Y-104274500D01*
X138469748Y-104274500D01*
X136730252Y-104274500D01*
X136730247Y-104274500D01*
X136671768Y-104286132D01*
X136605451Y-104330445D01*
X136605445Y-104330451D01*
X136561132Y-104396768D01*
X136549500Y-104455247D01*
X136549500Y-106194752D01*
X100000500Y-106194752D01*
X100000500Y-103889500D01*
X100021322Y-103832292D01*
X100074045Y-103801852D01*
X100089500Y-103800500D01*
X139910500Y-103800500D01*
X139967708Y-103821322D01*
G37*
%TD.AperFunction*%
%TD*%
M02*
