%TF.GenerationSoftware,KiCad,Pcbnew,7.0.10*%
%TF.CreationDate,2024-02-25T20:31:22-06:00*%
%TF.ProjectId,IFBoard,4946426f-6172-4642-9e6b-696361645f70,rev?*%
%TF.SameCoordinates,Original*%
%TF.FileFunction,Legend,Bot*%
%TF.FilePolarity,Positive*%
%FSLAX46Y46*%
G04 Gerber Fmt 4.6, Leading zero omitted, Abs format (unit mm)*
G04 Created by KiCad (PCBNEW 7.0.10) date 2024-02-25 20:31:22*
%MOMM*%
%LPD*%
G01*
G04 APERTURE LIST*
%ADD10C,0.150000*%
%ADD11C,0.120000*%
%ADD12C,0.050000*%
%ADD13C,0.200000*%
G04 APERTURE END LIST*
D10*
X117112628Y-121014285D02*
X117141200Y-120985713D01*
X117141200Y-120985713D02*
X117169771Y-120899999D01*
X117169771Y-120899999D02*
X117169771Y-120842856D01*
X117169771Y-120842856D02*
X117141200Y-120757142D01*
X117141200Y-120757142D02*
X117084057Y-120699999D01*
X117084057Y-120699999D02*
X117026914Y-120671428D01*
X117026914Y-120671428D02*
X116912628Y-120642856D01*
X116912628Y-120642856D02*
X116826914Y-120642856D01*
X116826914Y-120642856D02*
X116712628Y-120671428D01*
X116712628Y-120671428D02*
X116655485Y-120699999D01*
X116655485Y-120699999D02*
X116598342Y-120757142D01*
X116598342Y-120757142D02*
X116569771Y-120842856D01*
X116569771Y-120842856D02*
X116569771Y-120899999D01*
X116569771Y-120899999D02*
X116598342Y-120985713D01*
X116598342Y-120985713D02*
X116626914Y-121014285D01*
X117169771Y-121585713D02*
X117169771Y-121242856D01*
X117169771Y-121414285D02*
X116569771Y-121414285D01*
X116569771Y-121414285D02*
X116655485Y-121357142D01*
X116655485Y-121357142D02*
X116712628Y-121299999D01*
X116712628Y-121299999D02*
X116741200Y-121242856D01*
X116569771Y-122100000D02*
X116569771Y-121985714D01*
X116569771Y-121985714D02*
X116598342Y-121928571D01*
X116598342Y-121928571D02*
X116626914Y-121900000D01*
X116626914Y-121900000D02*
X116712628Y-121842857D01*
X116712628Y-121842857D02*
X116826914Y-121814285D01*
X116826914Y-121814285D02*
X117055485Y-121814285D01*
X117055485Y-121814285D02*
X117112628Y-121842857D01*
X117112628Y-121842857D02*
X117141200Y-121871428D01*
X117141200Y-121871428D02*
X117169771Y-121928571D01*
X117169771Y-121928571D02*
X117169771Y-122042857D01*
X117169771Y-122042857D02*
X117141200Y-122100000D01*
X117141200Y-122100000D02*
X117112628Y-122128571D01*
X117112628Y-122128571D02*
X117055485Y-122157142D01*
X117055485Y-122157142D02*
X116912628Y-122157142D01*
X116912628Y-122157142D02*
X116855485Y-122128571D01*
X116855485Y-122128571D02*
X116826914Y-122100000D01*
X116826914Y-122100000D02*
X116798342Y-122042857D01*
X116798342Y-122042857D02*
X116798342Y-121928571D01*
X116798342Y-121928571D02*
X116826914Y-121871428D01*
X116826914Y-121871428D02*
X116855485Y-121842857D01*
X116855485Y-121842857D02*
X116912628Y-121814285D01*
X106219771Y-121214285D02*
X105934057Y-121014285D01*
X106219771Y-120871428D02*
X105619771Y-120871428D01*
X105619771Y-120871428D02*
X105619771Y-121099999D01*
X105619771Y-121099999D02*
X105648342Y-121157142D01*
X105648342Y-121157142D02*
X105676914Y-121185713D01*
X105676914Y-121185713D02*
X105734057Y-121214285D01*
X105734057Y-121214285D02*
X105819771Y-121214285D01*
X105819771Y-121214285D02*
X105876914Y-121185713D01*
X105876914Y-121185713D02*
X105905485Y-121157142D01*
X105905485Y-121157142D02*
X105934057Y-121099999D01*
X105934057Y-121099999D02*
X105934057Y-120871428D01*
X106219771Y-121785713D02*
X106219771Y-121442856D01*
X106219771Y-121614285D02*
X105619771Y-121614285D01*
X105619771Y-121614285D02*
X105705485Y-121557142D01*
X105705485Y-121557142D02*
X105762628Y-121499999D01*
X105762628Y-121499999D02*
X105791200Y-121442856D01*
X105619771Y-122157142D02*
X105619771Y-122214285D01*
X105619771Y-122214285D02*
X105648342Y-122271428D01*
X105648342Y-122271428D02*
X105676914Y-122300000D01*
X105676914Y-122300000D02*
X105734057Y-122328571D01*
X105734057Y-122328571D02*
X105848342Y-122357142D01*
X105848342Y-122357142D02*
X105991200Y-122357142D01*
X105991200Y-122357142D02*
X106105485Y-122328571D01*
X106105485Y-122328571D02*
X106162628Y-122300000D01*
X106162628Y-122300000D02*
X106191200Y-122271428D01*
X106191200Y-122271428D02*
X106219771Y-122214285D01*
X106219771Y-122214285D02*
X106219771Y-122157142D01*
X106219771Y-122157142D02*
X106191200Y-122100000D01*
X106191200Y-122100000D02*
X106162628Y-122071428D01*
X106162628Y-122071428D02*
X106105485Y-122042857D01*
X106105485Y-122042857D02*
X105991200Y-122014285D01*
X105991200Y-122014285D02*
X105848342Y-122014285D01*
X105848342Y-122014285D02*
X105734057Y-122042857D01*
X105734057Y-122042857D02*
X105676914Y-122071428D01*
X105676914Y-122071428D02*
X105648342Y-122100000D01*
X105648342Y-122100000D02*
X105619771Y-122157142D01*
X107799999Y-114255485D02*
X107999999Y-114255485D01*
X107999999Y-114569771D02*
X107999999Y-113969771D01*
X107999999Y-113969771D02*
X107714285Y-113969771D01*
X107285713Y-114255485D02*
X107199999Y-114284057D01*
X107199999Y-114284057D02*
X107171428Y-114312628D01*
X107171428Y-114312628D02*
X107142856Y-114369771D01*
X107142856Y-114369771D02*
X107142856Y-114455485D01*
X107142856Y-114455485D02*
X107171428Y-114512628D01*
X107171428Y-114512628D02*
X107199999Y-114541200D01*
X107199999Y-114541200D02*
X107257142Y-114569771D01*
X107257142Y-114569771D02*
X107485713Y-114569771D01*
X107485713Y-114569771D02*
X107485713Y-113969771D01*
X107485713Y-113969771D02*
X107285713Y-113969771D01*
X107285713Y-113969771D02*
X107228571Y-113998342D01*
X107228571Y-113998342D02*
X107199999Y-114026914D01*
X107199999Y-114026914D02*
X107171428Y-114084057D01*
X107171428Y-114084057D02*
X107171428Y-114141200D01*
X107171428Y-114141200D02*
X107199999Y-114198342D01*
X107199999Y-114198342D02*
X107228571Y-114226914D01*
X107228571Y-114226914D02*
X107285713Y-114255485D01*
X107285713Y-114255485D02*
X107485713Y-114255485D01*
X106942856Y-113969771D02*
X106571428Y-113969771D01*
X106571428Y-113969771D02*
X106771428Y-114198342D01*
X106771428Y-114198342D02*
X106685713Y-114198342D01*
X106685713Y-114198342D02*
X106628571Y-114226914D01*
X106628571Y-114226914D02*
X106599999Y-114255485D01*
X106599999Y-114255485D02*
X106571428Y-114312628D01*
X106571428Y-114312628D02*
X106571428Y-114455485D01*
X106571428Y-114455485D02*
X106599999Y-114512628D01*
X106599999Y-114512628D02*
X106628571Y-114541200D01*
X106628571Y-114541200D02*
X106685713Y-114569771D01*
X106685713Y-114569771D02*
X106857142Y-114569771D01*
X106857142Y-114569771D02*
X106914285Y-114541200D01*
X106914285Y-114541200D02*
X106942856Y-114512628D01*
X119499999Y-119669771D02*
X119699999Y-119384057D01*
X119842856Y-119669771D02*
X119842856Y-119069771D01*
X119842856Y-119069771D02*
X119614285Y-119069771D01*
X119614285Y-119069771D02*
X119557142Y-119098342D01*
X119557142Y-119098342D02*
X119528571Y-119126914D01*
X119528571Y-119126914D02*
X119499999Y-119184057D01*
X119499999Y-119184057D02*
X119499999Y-119269771D01*
X119499999Y-119269771D02*
X119528571Y-119326914D01*
X119528571Y-119326914D02*
X119557142Y-119355485D01*
X119557142Y-119355485D02*
X119614285Y-119384057D01*
X119614285Y-119384057D02*
X119842856Y-119384057D01*
X119214285Y-119669771D02*
X119099999Y-119669771D01*
X119099999Y-119669771D02*
X119042856Y-119641200D01*
X119042856Y-119641200D02*
X119014285Y-119612628D01*
X119014285Y-119612628D02*
X118957142Y-119526914D01*
X118957142Y-119526914D02*
X118928571Y-119412628D01*
X118928571Y-119412628D02*
X118928571Y-119184057D01*
X118928571Y-119184057D02*
X118957142Y-119126914D01*
X118957142Y-119126914D02*
X118985714Y-119098342D01*
X118985714Y-119098342D02*
X119042856Y-119069771D01*
X119042856Y-119069771D02*
X119157142Y-119069771D01*
X119157142Y-119069771D02*
X119214285Y-119098342D01*
X119214285Y-119098342D02*
X119242856Y-119126914D01*
X119242856Y-119126914D02*
X119271428Y-119184057D01*
X119271428Y-119184057D02*
X119271428Y-119326914D01*
X119271428Y-119326914D02*
X119242856Y-119384057D01*
X119242856Y-119384057D02*
X119214285Y-119412628D01*
X119214285Y-119412628D02*
X119157142Y-119441200D01*
X119157142Y-119441200D02*
X119042856Y-119441200D01*
X119042856Y-119441200D02*
X118985714Y-119412628D01*
X118985714Y-119412628D02*
X118957142Y-119384057D01*
X118957142Y-119384057D02*
X118928571Y-119326914D01*
X111985713Y-120669771D02*
X111985713Y-120069771D01*
X111357142Y-120612628D02*
X111385714Y-120641200D01*
X111385714Y-120641200D02*
X111471428Y-120669771D01*
X111471428Y-120669771D02*
X111528571Y-120669771D01*
X111528571Y-120669771D02*
X111614285Y-120641200D01*
X111614285Y-120641200D02*
X111671428Y-120584057D01*
X111671428Y-120584057D02*
X111699999Y-120526914D01*
X111699999Y-120526914D02*
X111728571Y-120412628D01*
X111728571Y-120412628D02*
X111728571Y-120326914D01*
X111728571Y-120326914D02*
X111699999Y-120212628D01*
X111699999Y-120212628D02*
X111671428Y-120155485D01*
X111671428Y-120155485D02*
X111614285Y-120098342D01*
X111614285Y-120098342D02*
X111528571Y-120069771D01*
X111528571Y-120069771D02*
X111471428Y-120069771D01*
X111471428Y-120069771D02*
X111385714Y-120098342D01*
X111385714Y-120098342D02*
X111357142Y-120126914D01*
X111157142Y-120069771D02*
X110785714Y-120069771D01*
X110785714Y-120069771D02*
X110985714Y-120298342D01*
X110985714Y-120298342D02*
X110899999Y-120298342D01*
X110899999Y-120298342D02*
X110842857Y-120326914D01*
X110842857Y-120326914D02*
X110814285Y-120355485D01*
X110814285Y-120355485D02*
X110785714Y-120412628D01*
X110785714Y-120412628D02*
X110785714Y-120555485D01*
X110785714Y-120555485D02*
X110814285Y-120612628D01*
X110814285Y-120612628D02*
X110842857Y-120641200D01*
X110842857Y-120641200D02*
X110899999Y-120669771D01*
X110899999Y-120669771D02*
X111071428Y-120669771D01*
X111071428Y-120669771D02*
X111128571Y-120641200D01*
X111128571Y-120641200D02*
X111157142Y-120612628D01*
X103585714Y-118562628D02*
X103614286Y-118591200D01*
X103614286Y-118591200D02*
X103700000Y-118619771D01*
X103700000Y-118619771D02*
X103757143Y-118619771D01*
X103757143Y-118619771D02*
X103842857Y-118591200D01*
X103842857Y-118591200D02*
X103900000Y-118534057D01*
X103900000Y-118534057D02*
X103928571Y-118476914D01*
X103928571Y-118476914D02*
X103957143Y-118362628D01*
X103957143Y-118362628D02*
X103957143Y-118276914D01*
X103957143Y-118276914D02*
X103928571Y-118162628D01*
X103928571Y-118162628D02*
X103900000Y-118105485D01*
X103900000Y-118105485D02*
X103842857Y-118048342D01*
X103842857Y-118048342D02*
X103757143Y-118019771D01*
X103757143Y-118019771D02*
X103700000Y-118019771D01*
X103700000Y-118019771D02*
X103614286Y-118048342D01*
X103614286Y-118048342D02*
X103585714Y-118076914D01*
X103014286Y-118619771D02*
X103357143Y-118619771D01*
X103185714Y-118619771D02*
X103185714Y-118019771D01*
X103185714Y-118019771D02*
X103242857Y-118105485D01*
X103242857Y-118105485D02*
X103300000Y-118162628D01*
X103300000Y-118162628D02*
X103357143Y-118191200D01*
X102785714Y-118076914D02*
X102757142Y-118048342D01*
X102757142Y-118048342D02*
X102700000Y-118019771D01*
X102700000Y-118019771D02*
X102557142Y-118019771D01*
X102557142Y-118019771D02*
X102500000Y-118048342D01*
X102500000Y-118048342D02*
X102471428Y-118076914D01*
X102471428Y-118076914D02*
X102442857Y-118134057D01*
X102442857Y-118134057D02*
X102442857Y-118191200D01*
X102442857Y-118191200D02*
X102471428Y-118276914D01*
X102471428Y-118276914D02*
X102814285Y-118619771D01*
X102814285Y-118619771D02*
X102442857Y-118619771D01*
X104835714Y-119912628D02*
X104864286Y-119941200D01*
X104864286Y-119941200D02*
X104950000Y-119969771D01*
X104950000Y-119969771D02*
X105007143Y-119969771D01*
X105007143Y-119969771D02*
X105092857Y-119941200D01*
X105092857Y-119941200D02*
X105150000Y-119884057D01*
X105150000Y-119884057D02*
X105178571Y-119826914D01*
X105178571Y-119826914D02*
X105207143Y-119712628D01*
X105207143Y-119712628D02*
X105207143Y-119626914D01*
X105207143Y-119626914D02*
X105178571Y-119512628D01*
X105178571Y-119512628D02*
X105150000Y-119455485D01*
X105150000Y-119455485D02*
X105092857Y-119398342D01*
X105092857Y-119398342D02*
X105007143Y-119369771D01*
X105007143Y-119369771D02*
X104950000Y-119369771D01*
X104950000Y-119369771D02*
X104864286Y-119398342D01*
X104864286Y-119398342D02*
X104835714Y-119426914D01*
X104264286Y-119969771D02*
X104607143Y-119969771D01*
X104435714Y-119969771D02*
X104435714Y-119369771D01*
X104435714Y-119369771D02*
X104492857Y-119455485D01*
X104492857Y-119455485D02*
X104550000Y-119512628D01*
X104550000Y-119512628D02*
X104607143Y-119541200D01*
X103692857Y-119969771D02*
X104035714Y-119969771D01*
X103864285Y-119969771D02*
X103864285Y-119369771D01*
X103864285Y-119369771D02*
X103921428Y-119455485D01*
X103921428Y-119455485D02*
X103978571Y-119512628D01*
X103978571Y-119512628D02*
X104035714Y-119541200D01*
X106219771Y-123664285D02*
X105934057Y-123464285D01*
X106219771Y-123321428D02*
X105619771Y-123321428D01*
X105619771Y-123321428D02*
X105619771Y-123549999D01*
X105619771Y-123549999D02*
X105648342Y-123607142D01*
X105648342Y-123607142D02*
X105676914Y-123635713D01*
X105676914Y-123635713D02*
X105734057Y-123664285D01*
X105734057Y-123664285D02*
X105819771Y-123664285D01*
X105819771Y-123664285D02*
X105876914Y-123635713D01*
X105876914Y-123635713D02*
X105905485Y-123607142D01*
X105905485Y-123607142D02*
X105934057Y-123549999D01*
X105934057Y-123549999D02*
X105934057Y-123321428D01*
X106219771Y-124235713D02*
X106219771Y-123892856D01*
X106219771Y-124064285D02*
X105619771Y-124064285D01*
X105619771Y-124064285D02*
X105705485Y-124007142D01*
X105705485Y-124007142D02*
X105762628Y-123949999D01*
X105762628Y-123949999D02*
X105791200Y-123892856D01*
X106219771Y-124807142D02*
X106219771Y-124464285D01*
X106219771Y-124635714D02*
X105619771Y-124635714D01*
X105619771Y-124635714D02*
X105705485Y-124578571D01*
X105705485Y-124578571D02*
X105762628Y-124521428D01*
X105762628Y-124521428D02*
X105791200Y-124464285D01*
X103585714Y-116912628D02*
X103614286Y-116941200D01*
X103614286Y-116941200D02*
X103700000Y-116969771D01*
X103700000Y-116969771D02*
X103757143Y-116969771D01*
X103757143Y-116969771D02*
X103842857Y-116941200D01*
X103842857Y-116941200D02*
X103900000Y-116884057D01*
X103900000Y-116884057D02*
X103928571Y-116826914D01*
X103928571Y-116826914D02*
X103957143Y-116712628D01*
X103957143Y-116712628D02*
X103957143Y-116626914D01*
X103957143Y-116626914D02*
X103928571Y-116512628D01*
X103928571Y-116512628D02*
X103900000Y-116455485D01*
X103900000Y-116455485D02*
X103842857Y-116398342D01*
X103842857Y-116398342D02*
X103757143Y-116369771D01*
X103757143Y-116369771D02*
X103700000Y-116369771D01*
X103700000Y-116369771D02*
X103614286Y-116398342D01*
X103614286Y-116398342D02*
X103585714Y-116426914D01*
X103014286Y-116969771D02*
X103357143Y-116969771D01*
X103185714Y-116969771D02*
X103185714Y-116369771D01*
X103185714Y-116369771D02*
X103242857Y-116455485D01*
X103242857Y-116455485D02*
X103300000Y-116512628D01*
X103300000Y-116512628D02*
X103357143Y-116541200D01*
X102814285Y-116369771D02*
X102442857Y-116369771D01*
X102442857Y-116369771D02*
X102642857Y-116598342D01*
X102642857Y-116598342D02*
X102557142Y-116598342D01*
X102557142Y-116598342D02*
X102500000Y-116626914D01*
X102500000Y-116626914D02*
X102471428Y-116655485D01*
X102471428Y-116655485D02*
X102442857Y-116712628D01*
X102442857Y-116712628D02*
X102442857Y-116855485D01*
X102442857Y-116855485D02*
X102471428Y-116912628D01*
X102471428Y-116912628D02*
X102500000Y-116941200D01*
X102500000Y-116941200D02*
X102557142Y-116969771D01*
X102557142Y-116969771D02*
X102728571Y-116969771D01*
X102728571Y-116969771D02*
X102785714Y-116941200D01*
X102785714Y-116941200D02*
X102814285Y-116912628D01*
X115412628Y-117014285D02*
X115441200Y-116985713D01*
X115441200Y-116985713D02*
X115469771Y-116899999D01*
X115469771Y-116899999D02*
X115469771Y-116842856D01*
X115469771Y-116842856D02*
X115441200Y-116757142D01*
X115441200Y-116757142D02*
X115384057Y-116699999D01*
X115384057Y-116699999D02*
X115326914Y-116671428D01*
X115326914Y-116671428D02*
X115212628Y-116642856D01*
X115212628Y-116642856D02*
X115126914Y-116642856D01*
X115126914Y-116642856D02*
X115012628Y-116671428D01*
X115012628Y-116671428D02*
X114955485Y-116699999D01*
X114955485Y-116699999D02*
X114898342Y-116757142D01*
X114898342Y-116757142D02*
X114869771Y-116842856D01*
X114869771Y-116842856D02*
X114869771Y-116899999D01*
X114869771Y-116899999D02*
X114898342Y-116985713D01*
X114898342Y-116985713D02*
X114926914Y-117014285D01*
X115469771Y-117585713D02*
X115469771Y-117242856D01*
X115469771Y-117414285D02*
X114869771Y-117414285D01*
X114869771Y-117414285D02*
X114955485Y-117357142D01*
X114955485Y-117357142D02*
X115012628Y-117299999D01*
X115012628Y-117299999D02*
X115041200Y-117242856D01*
X114869771Y-117785714D02*
X114869771Y-118185714D01*
X114869771Y-118185714D02*
X115469771Y-117928571D01*
X119269771Y-117402500D02*
X118984057Y-117202500D01*
X119269771Y-117059643D02*
X118669771Y-117059643D01*
X118669771Y-117059643D02*
X118669771Y-117288214D01*
X118669771Y-117288214D02*
X118698342Y-117345357D01*
X118698342Y-117345357D02*
X118726914Y-117373928D01*
X118726914Y-117373928D02*
X118784057Y-117402500D01*
X118784057Y-117402500D02*
X118869771Y-117402500D01*
X118869771Y-117402500D02*
X118926914Y-117373928D01*
X118926914Y-117373928D02*
X118955485Y-117345357D01*
X118955485Y-117345357D02*
X118984057Y-117288214D01*
X118984057Y-117288214D02*
X118984057Y-117059643D01*
X118926914Y-117745357D02*
X118898342Y-117688214D01*
X118898342Y-117688214D02*
X118869771Y-117659643D01*
X118869771Y-117659643D02*
X118812628Y-117631071D01*
X118812628Y-117631071D02*
X118784057Y-117631071D01*
X118784057Y-117631071D02*
X118726914Y-117659643D01*
X118726914Y-117659643D02*
X118698342Y-117688214D01*
X118698342Y-117688214D02*
X118669771Y-117745357D01*
X118669771Y-117745357D02*
X118669771Y-117859643D01*
X118669771Y-117859643D02*
X118698342Y-117916786D01*
X118698342Y-117916786D02*
X118726914Y-117945357D01*
X118726914Y-117945357D02*
X118784057Y-117973928D01*
X118784057Y-117973928D02*
X118812628Y-117973928D01*
X118812628Y-117973928D02*
X118869771Y-117945357D01*
X118869771Y-117945357D02*
X118898342Y-117916786D01*
X118898342Y-117916786D02*
X118926914Y-117859643D01*
X118926914Y-117859643D02*
X118926914Y-117745357D01*
X118926914Y-117745357D02*
X118955485Y-117688214D01*
X118955485Y-117688214D02*
X118984057Y-117659643D01*
X118984057Y-117659643D02*
X119041200Y-117631071D01*
X119041200Y-117631071D02*
X119155485Y-117631071D01*
X119155485Y-117631071D02*
X119212628Y-117659643D01*
X119212628Y-117659643D02*
X119241200Y-117688214D01*
X119241200Y-117688214D02*
X119269771Y-117745357D01*
X119269771Y-117745357D02*
X119269771Y-117859643D01*
X119269771Y-117859643D02*
X119241200Y-117916786D01*
X119241200Y-117916786D02*
X119212628Y-117945357D01*
X119212628Y-117945357D02*
X119155485Y-117973928D01*
X119155485Y-117973928D02*
X119041200Y-117973928D01*
X119041200Y-117973928D02*
X118984057Y-117945357D01*
X118984057Y-117945357D02*
X118955485Y-117916786D01*
X118955485Y-117916786D02*
X118926914Y-117859643D01*
D11*
%TO.C,C16*%
X118360000Y-121284165D02*
X118360000Y-121515835D01*
X117640000Y-121284165D02*
X117640000Y-121515835D01*
%TO.C,R10*%
X106620000Y-121767621D02*
X106620000Y-121432379D01*
X107380000Y-121767621D02*
X107380000Y-121432379D01*
D12*
%TO.C,FB3*%
X107300000Y-115450000D02*
X107300000Y-115150000D01*
D11*
%TO.C,R9*%
X117354724Y-119922500D02*
X116845276Y-119922500D01*
X117354724Y-118877500D02*
X116845276Y-118877500D01*
D13*
%TO.C,IC3*%
X114875000Y-117820000D02*
X113350000Y-117820000D01*
X113000000Y-122851000D02*
X113000000Y-117949000D01*
X113000000Y-117949000D02*
X109800000Y-117949000D01*
X109800000Y-122851000D02*
X113000000Y-122851000D01*
X109800000Y-117949000D02*
X109800000Y-122851000D01*
D11*
%TO.C,C12*%
X105946267Y-118860000D02*
X105653733Y-118860000D01*
X105946267Y-117840000D02*
X105653733Y-117840000D01*
%TO.C,C11*%
X106515835Y-120060000D02*
X106284165Y-120060000D01*
X106515835Y-119340000D02*
X106284165Y-119340000D01*
%TO.C,R11*%
X106620000Y-124217621D02*
X106620000Y-123882379D01*
X107380000Y-124217621D02*
X107380000Y-123882379D01*
%TO.C,C13*%
X105946267Y-117210000D02*
X105653733Y-117210000D01*
X105946267Y-116190000D02*
X105653733Y-116190000D01*
%TO.C,C17*%
X115840000Y-117515835D02*
X115840000Y-117284165D01*
X116560000Y-117515835D02*
X116560000Y-117284165D01*
%TO.C,R8*%
X118380000Y-117232379D02*
X118380000Y-117567621D01*
X117620000Y-117232379D02*
X117620000Y-117567621D01*
%TD*%
M02*
