%TF.GenerationSoftware,KiCad,Pcbnew,7.0.10*%
%TF.CreationDate,2024-02-25T20:31:22-06:00*%
%TF.ProjectId,IFBoard,4946426f-6172-4642-9e6b-696361645f70,rev?*%
%TF.SameCoordinates,Original*%
%TF.FileFunction,Copper,L1,Top*%
%TF.FilePolarity,Positive*%
%FSLAX46Y46*%
G04 Gerber Fmt 4.6, Leading zero omitted, Abs format (unit mm)*
G04 Created by KiCad (PCBNEW 7.0.10) date 2024-02-25 20:31:22*
%MOMM*%
%LPD*%
G01*
G04 APERTURE LIST*
G04 Aperture macros list*
%AMRoundRect*
0 Rectangle with rounded corners*
0 $1 Rounding radius*
0 $2 $3 $4 $5 $6 $7 $8 $9 X,Y pos of 4 corners*
0 Add a 4 corners polygon primitive as box body*
4,1,4,$2,$3,$4,$5,$6,$7,$8,$9,$2,$3,0*
0 Add four circle primitives for the rounded corners*
1,1,$1+$1,$2,$3*
1,1,$1+$1,$4,$5*
1,1,$1+$1,$6,$7*
1,1,$1+$1,$8,$9*
0 Add four rect primitives between the rounded corners*
20,1,$1+$1,$2,$3,$4,$5,0*
20,1,$1+$1,$4,$5,$6,$7,0*
20,1,$1+$1,$6,$7,$8,$9,0*
20,1,$1+$1,$8,$9,$2,$3,0*%
G04 Aperture macros list end*
%TA.AperFunction,SMDPad,CuDef*%
%ADD10R,0.400000X0.500000*%
%TD*%
%TA.AperFunction,SMDPad,CuDef*%
%ADD11R,1.473200X0.558800*%
%TD*%
%TA.AperFunction,SMDPad,CuDef*%
%ADD12RoundRect,0.237500X-0.237500X0.300000X-0.237500X-0.300000X0.237500X-0.300000X0.237500X0.300000X0*%
%TD*%
%TA.AperFunction,SMDPad,CuDef*%
%ADD13RoundRect,0.155000X-0.155000X0.212500X-0.155000X-0.212500X0.155000X-0.212500X0.155000X0.212500X0*%
%TD*%
%TA.AperFunction,SMDPad,CuDef*%
%ADD14RoundRect,0.237500X0.250000X0.237500X-0.250000X0.237500X-0.250000X-0.237500X0.250000X-0.237500X0*%
%TD*%
%TA.AperFunction,SMDPad,CuDef*%
%ADD15RoundRect,0.160000X0.197500X0.160000X-0.197500X0.160000X-0.197500X-0.160000X0.197500X-0.160000X0*%
%TD*%
%TA.AperFunction,SMDPad,CuDef*%
%ADD16RoundRect,0.237500X-0.237500X0.250000X-0.237500X-0.250000X0.237500X-0.250000X0.237500X0.250000X0*%
%TD*%
%TA.AperFunction,ComponentPad*%
%ADD17R,1.700000X1.700000*%
%TD*%
%TA.AperFunction,ComponentPad*%
%ADD18O,1.700000X1.700000*%
%TD*%
%TA.AperFunction,SMDPad,CuDef*%
%ADD19RoundRect,0.237500X0.237500X-0.300000X0.237500X0.300000X-0.237500X0.300000X-0.237500X-0.300000X0*%
%TD*%
%TA.AperFunction,SMDPad,CuDef*%
%ADD20RoundRect,0.250000X-0.250000X0.275000X-0.250000X-0.275000X0.250000X-0.275000X0.250000X0.275000X0*%
%TD*%
%TA.AperFunction,SMDPad,CuDef*%
%ADD21RoundRect,0.250000X-0.275000X0.850000X-0.275000X-0.850000X0.275000X-0.850000X0.275000X0.850000X0*%
%TD*%
%TA.AperFunction,SMDPad,CuDef*%
%ADD22R,0.650000X1.526000*%
%TD*%
%TA.AperFunction,ViaPad*%
%ADD23C,0.800000*%
%TD*%
%TA.AperFunction,ViaPad*%
%ADD24C,0.600000*%
%TD*%
%TA.AperFunction,Conductor*%
%ADD25C,0.200000*%
%TD*%
G04 APERTURE END LIST*
D10*
%TO.P,FB1,1,1*%
%TO.N,Net-(IC1-+VS)*%
X134100000Y-110400000D03*
%TO.P,FB1,2,2*%
%TO.N,+3V3*%
X134900000Y-110400000D03*
%TD*%
D11*
%TO.P,IC1,1,VOUT*%
%TO.N,/VREF*%
X128606200Y-112110200D03*
%TO.P,IC1,2,-VS*%
%TO.N,GND*%
X128606200Y-113050000D03*
%TO.P,IC1,3,+IN*%
%TO.N,Net-(IC1-+IN)*%
X128606200Y-113989800D03*
%TO.P,IC1,4,-IN*%
%TO.N,Net-(IC1--IN)*%
X130993800Y-113989800D03*
%TO.P,IC1,5,+VS*%
%TO.N,Net-(IC1-+VS)*%
X130993800Y-112110200D03*
%TD*%
D12*
%TO.P,C10,1*%
%TO.N,Net-(IC2-V+)*%
X120595000Y-114794500D03*
%TO.P,C10,2*%
%TO.N,GND*%
X120595000Y-116519500D03*
%TD*%
D13*
%TO.P,C14,1*%
%TO.N,Net-(IC2-+IN)*%
X122030000Y-109356500D03*
%TO.P,C14,2*%
%TO.N,/VREF*%
X122030000Y-110491500D03*
%TD*%
D14*
%TO.P,R5,1*%
%TO.N,Net-(C15-Pad1)*%
X119760000Y-105324000D03*
%TO.P,R5,2*%
%TO.N,Net-(IC2-+IN)*%
X117935000Y-105324000D03*
%TD*%
D13*
%TO.P,C5,1*%
%TO.N,Net-(IC1-+VS)*%
X132750000Y-111982500D03*
%TO.P,C5,2*%
%TO.N,GND*%
X132750000Y-113117500D03*
%TD*%
%TO.P,C7,1*%
%TO.N,/VREF*%
X125250000Y-111582500D03*
%TO.P,C7,2*%
%TO.N,GND*%
X125250000Y-112717500D03*
%TD*%
D15*
%TO.P,R3,1*%
%TO.N,Net-(IC1--IN)*%
X131247500Y-115350000D03*
%TO.P,R3,2*%
%TO.N,/VREF*%
X130052500Y-115350000D03*
%TD*%
%TO.P,R7,1*%
%TO.N,Net-(IC2--IN)*%
X115442500Y-114612000D03*
%TO.P,R7,2*%
%TO.N,/VREF*%
X114247500Y-114612000D03*
%TD*%
D16*
%TO.P,R1,1*%
%TO.N,Net-(IC1-+IN)*%
X134500000Y-117687500D03*
%TO.P,R1,2*%
%TO.N,GND*%
X134500000Y-119512500D03*
%TD*%
D13*
%TO.P,C15,1*%
%TO.N,Net-(C15-Pad1)*%
X115130000Y-109556500D03*
%TO.P,C15,2*%
%TO.N,/LPF1OUT*%
X115130000Y-110691500D03*
%TD*%
D17*
%TO.P,J1,1,Pin_1*%
%TO.N,/IF_IN*%
X137600000Y-105325000D03*
D18*
%TO.P,J1,2,Pin_2*%
%TO.N,GND*%
X137600000Y-107865000D03*
%TO.P,J1,3,Pin_3*%
%TO.N,+3V3*%
X137600000Y-110405000D03*
%TO.P,J1,4,Pin_4*%
%TO.N,unconnected-(J1-Pin_4-Pad4)*%
X137600000Y-112945000D03*
%TO.P,J1,5,Pin_5*%
%TO.N,GND*%
X137600000Y-115485000D03*
%TD*%
D13*
%TO.P,C2,1*%
%TO.N,Net-(IC1-+IN)*%
X131450000Y-118056786D03*
%TO.P,C2,2*%
%TO.N,GND*%
X131450000Y-119191786D03*
%TD*%
D12*
%TO.P,C9,1*%
%TO.N,Net-(IC2-V+)*%
X122295000Y-114799500D03*
%TO.P,C9,2*%
%TO.N,GND*%
X122295000Y-116524500D03*
%TD*%
D16*
%TO.P,R2,1*%
%TO.N,+3V3*%
X134500000Y-114137500D03*
%TO.P,R2,2*%
%TO.N,Net-(IC1-+IN)*%
X134500000Y-115962500D03*
%TD*%
D19*
%TO.P,C3,1*%
%TO.N,Net-(IC1-+VS)*%
X132750000Y-110412500D03*
%TO.P,C3,2*%
%TO.N,GND*%
X132750000Y-108687500D03*
%TD*%
%TO.P,C4,1*%
%TO.N,Net-(IC1-+VS)*%
X131000000Y-110412500D03*
%TO.P,C4,2*%
%TO.N,GND*%
X131000000Y-108687500D03*
%TD*%
D20*
%TO.P,J2,1,In*%
%TO.N,/IF_FILT_OUT*%
X103800000Y-124750000D03*
D21*
%TO.P,J2,2,Ext*%
%TO.N,GND*%
X105275000Y-126275000D03*
X102325000Y-126275000D03*
%TD*%
D15*
%TO.P,R6,1*%
%TO.N,/LPF1OUT*%
X117942500Y-114612000D03*
%TO.P,R6,2*%
%TO.N,Net-(IC2--IN)*%
X116747500Y-114612000D03*
%TD*%
D13*
%TO.P,C8,1*%
%TO.N,Net-(IC2-V+)*%
X119245000Y-114539500D03*
%TO.P,C8,2*%
%TO.N,GND*%
X119245000Y-115674500D03*
%TD*%
D14*
%TO.P,R4,1*%
%TO.N,/IF_IN*%
X123210000Y-105324000D03*
%TO.P,R4,2*%
%TO.N,Net-(C15-Pad1)*%
X121385000Y-105324000D03*
%TD*%
D22*
%TO.P,IC2,1,NC_1*%
%TO.N,unconnected-(IC2-NC_1-Pad1)*%
X120500000Y-107400000D03*
%TO.P,IC2,2,-IN*%
%TO.N,Net-(IC2--IN)*%
X119230000Y-107400000D03*
%TO.P,IC2,3,+IN*%
%TO.N,Net-(IC2-+IN)*%
X117960000Y-107400000D03*
%TO.P,IC2,4,V-*%
%TO.N,GND*%
X116690000Y-107400000D03*
%TO.P,IC2,5,NC_2*%
%TO.N,unconnected-(IC2-NC_2-Pad5)*%
X116690000Y-112824000D03*
%TO.P,IC2,6,OUT*%
%TO.N,/LPF1OUT*%
X117960000Y-112824000D03*
%TO.P,IC2,7,V+*%
%TO.N,Net-(IC2-V+)*%
X119230000Y-112824000D03*
%TO.P,IC2,8,NC_3*%
%TO.N,unconnected-(IC2-NC_3-Pad8)*%
X120500000Y-112824000D03*
%TD*%
D12*
%TO.P,C1,1*%
%TO.N,Net-(IC1-+IN)*%
X132850000Y-117761786D03*
%TO.P,C1,2*%
%TO.N,GND*%
X132850000Y-119486786D03*
%TD*%
D10*
%TO.P,FB2,1,1*%
%TO.N,Net-(IC2-V+)*%
X121995000Y-113362000D03*
%TO.P,FB2,2,2*%
%TO.N,+3V3*%
X122795000Y-113362000D03*
%TD*%
D12*
%TO.P,C6,1*%
%TO.N,/VREF*%
X126650000Y-111837500D03*
%TO.P,C6,2*%
%TO.N,GND*%
X126650000Y-113562500D03*
%TD*%
D23*
%TO.N,GND*%
X127400000Y-126800000D03*
D24*
X104000000Y-106000000D03*
X128400000Y-119800000D03*
D23*
X123400000Y-125800000D03*
D24*
X134000000Y-126000000D03*
X102000000Y-110000000D03*
X124400000Y-125800000D03*
D23*
X125400000Y-123800000D03*
D24*
X124400000Y-119800000D03*
D23*
X128400000Y-120800000D03*
D24*
X104000000Y-108000000D03*
D23*
X127400000Y-123800000D03*
D24*
X138000000Y-124000000D03*
X102000000Y-106000000D03*
X116600000Y-109100000D03*
D23*
X125400000Y-121800000D03*
X128400000Y-118800000D03*
D24*
X104000000Y-110000000D03*
X111000000Y-114000000D03*
X132000000Y-122000000D03*
X127400000Y-125800000D03*
D23*
X129400000Y-124800000D03*
X126400000Y-126800000D03*
D24*
X121000000Y-122000000D03*
D23*
X124400000Y-118800000D03*
X127400000Y-122800000D03*
D24*
X109000000Y-116000000D03*
X106000000Y-108000000D03*
X108000000Y-108000000D03*
X108000000Y-110000000D03*
X113000000Y-110000000D03*
D23*
X123400000Y-120800000D03*
X124400000Y-124800000D03*
D24*
X121000000Y-120000000D03*
X125400000Y-119800000D03*
X106000000Y-106000000D03*
X132000000Y-124000000D03*
X121000000Y-124000000D03*
X110000000Y-106000000D03*
X112000000Y-106000000D03*
X102000000Y-112000000D03*
X127400000Y-119800000D03*
X117000000Y-124000000D03*
D23*
X125400000Y-126800000D03*
D24*
X104000000Y-112000000D03*
X110000000Y-108000000D03*
D23*
X129400000Y-119800000D03*
D24*
X115000000Y-124000000D03*
X126400000Y-124800000D03*
X138000000Y-122000000D03*
X127400000Y-120800000D03*
D23*
X129400000Y-125800000D03*
D24*
X119000000Y-124000000D03*
X126400000Y-122800000D03*
D23*
X128400000Y-124800000D03*
X123400000Y-126800000D03*
D24*
X116600000Y-109900000D03*
X111000000Y-112000000D03*
X111000000Y-116000000D03*
X113000000Y-114000000D03*
D23*
X129400000Y-126800000D03*
X123400000Y-124800000D03*
X126400000Y-118800000D03*
D24*
X106000000Y-112000000D03*
X117500000Y-109100000D03*
X126400000Y-123800000D03*
D23*
X124400000Y-126800000D03*
D24*
X136000000Y-126000000D03*
D23*
X127400000Y-121800000D03*
D24*
X134000000Y-124000000D03*
X126400000Y-121800000D03*
X126400000Y-125800000D03*
X121000000Y-126000000D03*
X109000000Y-114000000D03*
D23*
X123400000Y-118800000D03*
D24*
X132000000Y-126000000D03*
D23*
X127400000Y-118800000D03*
X125400000Y-118800000D03*
D24*
X127400000Y-124800000D03*
X102200000Y-126200000D03*
X138000000Y-126000000D03*
X134000000Y-122000000D03*
X125400000Y-124800000D03*
X136000000Y-122000000D03*
D23*
X124400000Y-120800000D03*
D24*
X105400000Y-126200000D03*
X128400000Y-125800000D03*
X113000000Y-112000000D03*
D23*
X128400000Y-126800000D03*
D24*
X111000000Y-124000000D03*
D23*
X123400000Y-119800000D03*
D24*
X106000000Y-110000000D03*
X126400000Y-120800000D03*
X113000000Y-124000000D03*
X108000000Y-106000000D03*
D23*
X125400000Y-122800000D03*
X129400000Y-118800000D03*
D24*
X126400000Y-119800000D03*
X102000000Y-108000000D03*
X125400000Y-120800000D03*
D23*
X129400000Y-120800000D03*
D24*
X136000000Y-124000000D03*
X113000000Y-116000000D03*
X125400000Y-125800000D03*
%TO.N,/VREF*%
X108660000Y-124530000D03*
X114247500Y-113578500D03*
%TO.N,/LPF1OUT*%
X115100000Y-111700000D03*
X118000000Y-115600000D03*
%TO.N,/IF_FILT_OUT*%
X103800000Y-122400000D03*
%TO.N,+3V3*%
X123800000Y-113400000D03*
%TO.N,Net-(IC2--IN)*%
X119200000Y-108900000D03*
X115800000Y-113500000D03*
%TO.N,Net-(IC3--IN)*%
X112600000Y-119600000D03*
X108800000Y-123400000D03*
%TD*%
D25*
%TO.N,Net-(IC1-+IN)*%
X131819286Y-117687500D02*
X131450000Y-118056786D01*
X128606200Y-115212986D02*
X131450000Y-118056786D01*
X134500000Y-115962500D02*
X134500000Y-117687500D01*
X128606200Y-113989800D02*
X128606200Y-115212986D01*
X134500000Y-117687500D02*
X131819286Y-117687500D01*
%TO.N,Net-(IC1-+VS)*%
X131012500Y-110400000D02*
X131000000Y-110412500D01*
X130993800Y-112110200D02*
X132622300Y-112110200D01*
X134100000Y-110400000D02*
X131012500Y-110400000D01*
X132750000Y-110412500D02*
X132750000Y-111982500D01*
X132622300Y-112110200D02*
X132750000Y-111982500D01*
%TO.N,/VREF*%
X129800000Y-115097500D02*
X130052500Y-115350000D01*
X125250000Y-111582500D02*
X126395000Y-111582500D01*
X114247500Y-114612000D02*
X114247500Y-113578500D01*
X126912500Y-112100000D02*
X128596000Y-112100000D01*
X122030000Y-110491500D02*
X124159000Y-110491500D01*
X108660000Y-124530000D02*
X114247500Y-118942500D01*
X126395000Y-111582500D02*
X126650000Y-111837500D01*
X128596000Y-112100000D02*
X128606200Y-112110200D01*
X124159000Y-110491500D02*
X125250000Y-111582500D01*
X129800000Y-112367400D02*
X129800000Y-115097500D01*
X114247500Y-118942500D02*
X114247500Y-114612000D01*
X129542800Y-112110200D02*
X129800000Y-112367400D01*
X126650000Y-111837500D02*
X126912500Y-112100000D01*
X128606200Y-112110200D02*
X129542800Y-112110200D01*
X114247500Y-113578500D02*
X117334500Y-110491500D01*
X117334500Y-110491500D02*
X122030000Y-110491500D01*
%TO.N,Net-(IC2-+IN)*%
X118951471Y-109500000D02*
X117960000Y-108508529D01*
X122030000Y-109356500D02*
X121886500Y-109500000D01*
X117960000Y-108508529D02*
X117960000Y-107400000D01*
X117935000Y-107375000D02*
X117960000Y-107400000D01*
X117935000Y-105324000D02*
X117935000Y-107375000D01*
X121886500Y-109500000D02*
X118951471Y-109500000D01*
%TO.N,Net-(C15-Pad1)*%
X121385000Y-105324000D02*
X119760000Y-105324000D01*
X115130000Y-109556500D02*
X115130000Y-106874778D01*
X117455778Y-104549000D02*
X118985000Y-104549000D01*
X115130000Y-106874778D02*
X117455778Y-104549000D01*
X118985000Y-104549000D02*
X119760000Y-105324000D01*
%TO.N,/LPF1OUT*%
X118000000Y-114669500D02*
X117942500Y-114612000D01*
X115130000Y-111670000D02*
X115100000Y-111700000D01*
X117942500Y-112841500D02*
X117960000Y-112824000D01*
X118000000Y-115600000D02*
X118000000Y-114669500D01*
X115130000Y-110691500D02*
X115130000Y-111670000D01*
X117942500Y-114612000D02*
X117942500Y-112841500D01*
%TO.N,/IF_FILT_OUT*%
X103800000Y-122400000D02*
X103800000Y-124750000D01*
%TO.N,+3V3*%
X134900000Y-113737500D02*
X134900000Y-110400000D01*
X122795000Y-113362000D02*
X123762000Y-113362000D01*
X134500000Y-114137500D02*
X134900000Y-113737500D01*
X134905000Y-110405000D02*
X134900000Y-110400000D01*
X123762000Y-113362000D02*
X123800000Y-113400000D01*
X137600000Y-110405000D02*
X134905000Y-110405000D01*
%TO.N,Net-(IC1--IN)*%
X130993800Y-113989800D02*
X130993800Y-115096300D01*
X130993800Y-115096300D02*
X131247500Y-115350000D01*
%TO.N,Net-(IC2--IN)*%
X119230000Y-108870000D02*
X119200000Y-108900000D01*
X119230000Y-107400000D02*
X119230000Y-108870000D01*
X115800000Y-113500000D02*
X115800000Y-113664500D01*
X115800000Y-113664500D02*
X116747500Y-114612000D01*
X116747500Y-114612000D02*
X115442500Y-114612000D01*
X115500000Y-114554500D02*
X115442500Y-114612000D01*
%TO.N,Net-(IC3--IN)*%
X108800000Y-123400000D02*
X112600000Y-119600000D01*
%TO.N,/IF_IN*%
X123211000Y-105325000D02*
X123210000Y-105324000D01*
X137600000Y-105325000D02*
X123211000Y-105325000D01*
%TD*%
%TA.AperFunction,Conductor*%
%TO.N,Net-(IC2-V+)*%
G36*
X122362708Y-113020822D02*
G01*
X122393148Y-113073545D01*
X122394500Y-113089000D01*
X122394500Y-113631749D01*
X122398290Y-113650800D01*
X122400000Y-113668164D01*
X122400000Y-114100000D01*
X122811000Y-114100000D01*
X122868208Y-114120822D01*
X122898648Y-114173545D01*
X122900000Y-114189000D01*
X122900000Y-115411000D01*
X122879178Y-115468208D01*
X122826455Y-115498648D01*
X122811000Y-115500000D01*
X120089000Y-115500000D01*
X120031792Y-115479178D01*
X120001352Y-115426455D01*
X120000000Y-115411000D01*
X120000000Y-115100001D01*
X120000000Y-115100000D01*
X119999999Y-115100000D01*
X118989000Y-115100000D01*
X118931792Y-115079178D01*
X118901352Y-115026455D01*
X118900000Y-115011000D01*
X118900000Y-113489000D01*
X118920822Y-113431792D01*
X118973545Y-113401352D01*
X118989000Y-113400000D01*
X119885500Y-113400000D01*
X119942708Y-113420822D01*
X119973148Y-113473545D01*
X119974500Y-113489000D01*
X119974500Y-113606752D01*
X119986132Y-113665231D01*
X120030445Y-113731548D01*
X120030448Y-113731552D01*
X120030451Y-113731554D01*
X120096768Y-113775867D01*
X120153690Y-113787189D01*
X120155252Y-113787500D01*
X120155256Y-113787500D01*
X120844744Y-113787500D01*
X120844748Y-113787500D01*
X120903231Y-113775867D01*
X120969552Y-113731552D01*
X121013867Y-113665231D01*
X121025500Y-113606748D01*
X121025500Y-113489000D01*
X121046322Y-113431792D01*
X121099045Y-113401352D01*
X121114500Y-113400000D01*
X121599999Y-113400000D01*
X121600000Y-113400000D01*
X121600000Y-113089000D01*
X121620822Y-113031792D01*
X121673545Y-113001352D01*
X121689000Y-113000000D01*
X122305500Y-113000000D01*
X122362708Y-113020822D01*
G37*
%TD.AperFunction*%
%TD*%
%TA.AperFunction,Conductor*%
%TO.N,GND*%
G36*
X117209048Y-105324710D02*
G01*
X117243967Y-105374580D01*
X117247000Y-105397615D01*
X117247000Y-105614263D01*
X117249773Y-105643843D01*
X117249774Y-105643848D01*
X117249775Y-105643849D01*
X117293384Y-105768475D01*
X117371789Y-105874711D01*
X117478025Y-105953116D01*
X117574896Y-105987013D01*
X117622015Y-106025559D01*
X117634500Y-106071017D01*
X117634500Y-106359630D01*
X117613678Y-106416838D01*
X117562866Y-106446919D01*
X117556770Y-106448131D01*
X117556769Y-106448131D01*
X117490451Y-106492445D01*
X117490445Y-106492451D01*
X117446132Y-106558768D01*
X117434500Y-106617247D01*
X117434500Y-108182752D01*
X117446132Y-108241231D01*
X117490445Y-108307548D01*
X117490448Y-108307552D01*
X117490451Y-108307554D01*
X117556768Y-108351867D01*
X117577045Y-108355900D01*
X117587753Y-108358030D01*
X117639800Y-108389612D01*
X117659370Y-108447260D01*
X117657498Y-108458008D01*
X117658366Y-108458129D01*
X117657226Y-108466293D01*
X117659405Y-108513408D01*
X117659500Y-108517518D01*
X117659500Y-108536377D01*
X117659650Y-108537177D01*
X117661069Y-108549414D01*
X117662415Y-108578522D01*
X117662415Y-108578523D01*
X117666853Y-108588575D01*
X117672919Y-108608161D01*
X117674938Y-108618961D01*
X117690274Y-108643730D01*
X117696020Y-108654630D01*
X117707794Y-108681294D01*
X117707795Y-108681295D01*
X117715564Y-108689065D01*
X117728296Y-108705140D01*
X117734077Y-108714476D01*
X117734081Y-108714481D01*
X117757328Y-108732036D01*
X117766627Y-108740127D01*
X118694060Y-109667560D01*
X118701748Y-109678244D01*
X118702542Y-109677646D01*
X118707511Y-109684226D01*
X118742367Y-109716002D01*
X118745338Y-109718839D01*
X118758669Y-109732170D01*
X118758673Y-109732173D01*
X118758674Y-109732174D01*
X118759344Y-109732633D01*
X118768997Y-109740279D01*
X118790538Y-109759916D01*
X118800784Y-109763885D01*
X118818929Y-109773449D01*
X118826198Y-109778429D01*
X118827990Y-109779656D01*
X118827993Y-109779658D01*
X118856353Y-109786328D01*
X118868124Y-109789973D01*
X118895298Y-109800500D01*
X118906282Y-109800500D01*
X118926658Y-109802864D01*
X118929940Y-109803635D01*
X118937352Y-109805379D01*
X118937353Y-109805378D01*
X118937354Y-109805379D01*
X118966205Y-109801354D01*
X118978502Y-109800500D01*
X121566881Y-109800500D01*
X121624089Y-109821322D01*
X121629814Y-109826567D01*
X121664314Y-109861067D01*
X121690042Y-109916243D01*
X121674286Y-109975048D01*
X121664314Y-109986932D01*
X121581676Y-110069570D01*
X121568782Y-110095945D01*
X121546711Y-110141090D01*
X121502881Y-110183339D01*
X121466756Y-110191000D01*
X117398034Y-110191000D01*
X117385037Y-110188881D01*
X117384900Y-110189866D01*
X117376734Y-110188726D01*
X117329620Y-110190905D01*
X117325510Y-110191000D01*
X117306656Y-110191000D01*
X117306653Y-110191000D01*
X117306644Y-110191001D01*
X117305850Y-110191150D01*
X117293616Y-110192569D01*
X117264510Y-110193914D01*
X117264507Y-110193915D01*
X117254448Y-110198356D01*
X117234868Y-110204418D01*
X117224071Y-110206436D01*
X117215337Y-110211844D01*
X117199289Y-110221779D01*
X117188397Y-110227520D01*
X117161738Y-110239292D01*
X117161731Y-110239296D01*
X117153963Y-110247064D01*
X117137893Y-110259793D01*
X117128550Y-110265578D01*
X117128548Y-110265580D01*
X117110987Y-110288833D01*
X117102899Y-110298128D01*
X115743360Y-111657667D01*
X115688184Y-111683395D01*
X115629379Y-111667639D01*
X115594460Y-111617769D01*
X115592333Y-111607400D01*
X115585600Y-111560572D01*
X115585165Y-111557543D01*
X115545104Y-111469822D01*
X115525378Y-111426628D01*
X115525376Y-111426625D01*
X115452357Y-111342357D01*
X115430630Y-111285487D01*
X115450542Y-111227956D01*
X115480529Y-111204119D01*
X115494429Y-111197324D01*
X115578324Y-111113429D01*
X115630433Y-111006840D01*
X115640500Y-110937742D01*
X115640500Y-110445258D01*
X115630433Y-110376160D01*
X115578324Y-110269571D01*
X115495684Y-110186931D01*
X115469957Y-110131757D01*
X115485713Y-110072952D01*
X115495679Y-110061073D01*
X115578324Y-109978429D01*
X115630433Y-109871840D01*
X115640500Y-109802742D01*
X115640500Y-109310258D01*
X115630433Y-109241160D01*
X115578324Y-109134571D01*
X115494429Y-109050676D01*
X115480408Y-109043821D01*
X115438160Y-108999988D01*
X115430500Y-108963866D01*
X115430500Y-107036115D01*
X115451322Y-106978907D01*
X115456567Y-106973182D01*
X117095067Y-105334682D01*
X117150243Y-105308954D01*
X117209048Y-105324710D01*
G37*
%TD.AperFunction*%
%TA.AperFunction,Conductor*%
G36*
X139967708Y-103821322D02*
G01*
X139998148Y-103874045D01*
X139999500Y-103889500D01*
X139999500Y-128710500D01*
X139978678Y-128767708D01*
X139925955Y-128798148D01*
X139910500Y-128799500D01*
X100089500Y-128799500D01*
X100032292Y-128778678D01*
X100001852Y-128725955D01*
X100000500Y-128710500D01*
X100000500Y-127375000D01*
X102850000Y-127375000D01*
X102850001Y-127375000D01*
X104749999Y-127375000D01*
X104750000Y-127375000D01*
X104750000Y-125285000D01*
X104749999Y-125285000D01*
X104561739Y-125285000D01*
X104504531Y-125264178D01*
X104474091Y-125211455D01*
X104477732Y-125166607D01*
X104497646Y-125109699D01*
X104500500Y-125079266D01*
X104500500Y-124530000D01*
X108154353Y-124530000D01*
X108174834Y-124672456D01*
X108234621Y-124803371D01*
X108234623Y-124803374D01*
X108328871Y-124912142D01*
X108328872Y-124912143D01*
X108449947Y-124989953D01*
X108588039Y-125030500D01*
X108588042Y-125030500D01*
X108731958Y-125030500D01*
X108731961Y-125030500D01*
X108870053Y-124989953D01*
X108991128Y-124912143D01*
X109085377Y-124803373D01*
X109145165Y-124672457D01*
X109165647Y-124530000D01*
X109161845Y-124503562D01*
X109174312Y-124443975D01*
X109187002Y-124427967D01*
X114415059Y-119199910D01*
X114425749Y-119192226D01*
X114425146Y-119191428D01*
X114431729Y-119186457D01*
X114433978Y-119183989D01*
X114463523Y-119151579D01*
X114466319Y-119148650D01*
X114479674Y-119135297D01*
X114480129Y-119134632D01*
X114487785Y-119124966D01*
X114507415Y-119103434D01*
X114507414Y-119103434D01*
X114507416Y-119103433D01*
X114511386Y-119093184D01*
X114520950Y-119075039D01*
X114527156Y-119065981D01*
X114533825Y-119037622D01*
X114537468Y-119025854D01*
X114548000Y-118998673D01*
X114548000Y-118987688D01*
X114550364Y-118967311D01*
X114552879Y-118956619D01*
X114548853Y-118927757D01*
X114548000Y-118915462D01*
X114548000Y-115178476D01*
X114568822Y-115121268D01*
X114597909Y-115098520D01*
X114657375Y-115069449D01*
X114742449Y-114984375D01*
X114765042Y-114938159D01*
X114808873Y-114895909D01*
X114869608Y-114891717D01*
X114918828Y-114927546D01*
X114924955Y-114938157D01*
X114947549Y-114984372D01*
X114947550Y-114984373D01*
X114947551Y-114984375D01*
X115032625Y-115069449D01*
X115032626Y-115069449D01*
X115032627Y-115069450D01*
X115140714Y-115122291D01*
X115140718Y-115122292D01*
X115159422Y-115125016D01*
X115210785Y-115132500D01*
X115674214Y-115132499D01*
X115674215Y-115132498D01*
X115674225Y-115132498D01*
X115721447Y-115125618D01*
X115744286Y-115122291D01*
X115852375Y-115069449D01*
X115937449Y-114984375D01*
X115946521Y-114965819D01*
X115948188Y-114962410D01*
X115992021Y-114920161D01*
X116028144Y-114912500D01*
X116161856Y-114912500D01*
X116219064Y-114933322D01*
X116241812Y-114962410D01*
X116252549Y-114984372D01*
X116252550Y-114984373D01*
X116252551Y-114984375D01*
X116337625Y-115069449D01*
X116337626Y-115069449D01*
X116337627Y-115069450D01*
X116445714Y-115122291D01*
X116445718Y-115122292D01*
X116464422Y-115125016D01*
X116515785Y-115132500D01*
X116979214Y-115132499D01*
X116979215Y-115132498D01*
X116979225Y-115132498D01*
X117026447Y-115125618D01*
X117049286Y-115122291D01*
X117157375Y-115069449D01*
X117242449Y-114984375D01*
X117265042Y-114938159D01*
X117308873Y-114895909D01*
X117369608Y-114891717D01*
X117418828Y-114927546D01*
X117424955Y-114938157D01*
X117447549Y-114984372D01*
X117447550Y-114984373D01*
X117447551Y-114984375D01*
X117532625Y-115069449D01*
X117614730Y-115109588D01*
X117656979Y-115153419D01*
X117661170Y-115214154D01*
X117642903Y-115247826D01*
X117574621Y-115326629D01*
X117514834Y-115457543D01*
X117494353Y-115599999D01*
X117494353Y-115600000D01*
X117514834Y-115742456D01*
X117574621Y-115873371D01*
X117574623Y-115873374D01*
X117655972Y-115967256D01*
X117668872Y-115982143D01*
X117789947Y-116059953D01*
X117928039Y-116100500D01*
X117928042Y-116100500D01*
X118071958Y-116100500D01*
X118071961Y-116100500D01*
X118210053Y-116059953D01*
X118331128Y-115982143D01*
X118425377Y-115873373D01*
X118485165Y-115742457D01*
X118505647Y-115600000D01*
X118497626Y-115544215D01*
X118485165Y-115457543D01*
X118425378Y-115326628D01*
X118425375Y-115326625D01*
X118425112Y-115326322D01*
X118380209Y-115274500D01*
X118326960Y-115213046D01*
X118327996Y-115212147D01*
X118301617Y-115164730D01*
X118300500Y-115150672D01*
X118300500Y-115150365D01*
X118321322Y-115093157D01*
X118350415Y-115070406D01*
X118352375Y-115069449D01*
X118410816Y-115011008D01*
X118694500Y-115011008D01*
X118695281Y-115028908D01*
X118696632Y-115044355D01*
X118696635Y-115044367D01*
X118723383Y-115129206D01*
X118753823Y-115181929D01*
X118784680Y-115222665D01*
X118784684Y-115222668D01*
X118812804Y-115240830D01*
X118861507Y-115272285D01*
X118861510Y-115272286D01*
X118861512Y-115272287D01*
X118890891Y-115282980D01*
X118918715Y-115293107D01*
X118989000Y-115305500D01*
X119705500Y-115305500D01*
X119762708Y-115326322D01*
X119793148Y-115379045D01*
X119794500Y-115394500D01*
X119794500Y-115411009D01*
X119795281Y-115428908D01*
X119796632Y-115444355D01*
X119796635Y-115444367D01*
X119823383Y-115529206D01*
X119853823Y-115581929D01*
X119884680Y-115622665D01*
X119884684Y-115622668D01*
X119942089Y-115659744D01*
X119961507Y-115672285D01*
X120018715Y-115693107D01*
X120089000Y-115705500D01*
X120089002Y-115705500D01*
X122811008Y-115705500D01*
X122826919Y-115704804D01*
X122828909Y-115704718D01*
X122833409Y-115704324D01*
X122844355Y-115703367D01*
X122844356Y-115703366D01*
X122844364Y-115703366D01*
X122929206Y-115676616D01*
X122981929Y-115646176D01*
X123022666Y-115615319D01*
X123072285Y-115538493D01*
X123093107Y-115481285D01*
X123105500Y-115411000D01*
X123105500Y-114189000D01*
X123104718Y-114171091D01*
X123103366Y-114155636D01*
X123076616Y-114070794D01*
X123076616Y-114070793D01*
X123046176Y-114018070D01*
X123015319Y-113977334D01*
X123015315Y-113977331D01*
X123004609Y-113970416D01*
X122967851Y-113921887D01*
X122970886Y-113861083D01*
X123012296Y-113816456D01*
X123035533Y-113808365D01*
X123073231Y-113800867D01*
X123139552Y-113756552D01*
X123175968Y-113702053D01*
X123225064Y-113666055D01*
X123249968Y-113662500D01*
X123324557Y-113662500D01*
X123381765Y-113683322D01*
X123391816Y-113693215D01*
X123468872Y-113782143D01*
X123589947Y-113859953D01*
X123728039Y-113900500D01*
X123728042Y-113900500D01*
X123871958Y-113900500D01*
X123871961Y-113900500D01*
X124010053Y-113859953D01*
X124131128Y-113782143D01*
X124225377Y-113673373D01*
X124285165Y-113542457D01*
X124305647Y-113400000D01*
X124292006Y-113305127D01*
X124285165Y-113257543D01*
X124225378Y-113126628D01*
X124225376Y-113126625D01*
X124131128Y-113017857D01*
X124102564Y-112999500D01*
X124010053Y-112940047D01*
X124010051Y-112940046D01*
X124010049Y-112940045D01*
X123871962Y-112899500D01*
X123871961Y-112899500D01*
X123728039Y-112899500D01*
X123728037Y-112899500D01*
X123589950Y-112940045D01*
X123468870Y-113017858D01*
X123457670Y-113030784D01*
X123404470Y-113060382D01*
X123390410Y-113061500D01*
X123249968Y-113061500D01*
X123192760Y-113040678D01*
X123175968Y-113021947D01*
X123139554Y-112967451D01*
X123139552Y-112967448D01*
X123139548Y-112967445D01*
X123073231Y-112923132D01*
X123014752Y-112911500D01*
X123014748Y-112911500D01*
X122579934Y-112911500D01*
X122522726Y-112890678D01*
X122511623Y-112879008D01*
X122509820Y-112877336D01*
X122509819Y-112877334D01*
X122509816Y-112877332D01*
X122509815Y-112877331D01*
X122433000Y-112827719D01*
X122432987Y-112827712D01*
X122375795Y-112806896D01*
X122375785Y-112806893D01*
X122305503Y-112794500D01*
X122305500Y-112794500D01*
X121689000Y-112794500D01*
X121688992Y-112794500D01*
X121671091Y-112795281D01*
X121655644Y-112796632D01*
X121655632Y-112796635D01*
X121570793Y-112823383D01*
X121518070Y-112853823D01*
X121477334Y-112884680D01*
X121477331Y-112884684D01*
X121427719Y-112961499D01*
X121427712Y-112961512D01*
X121406896Y-113018704D01*
X121406893Y-113018714D01*
X121394500Y-113088996D01*
X121394500Y-113105500D01*
X121373678Y-113162708D01*
X121320955Y-113193148D01*
X121305500Y-113194500D01*
X121114500Y-113194500D01*
X121057292Y-113173678D01*
X121026852Y-113120955D01*
X121025500Y-113105500D01*
X121025500Y-112041255D01*
X121025499Y-112041247D01*
X121013867Y-111982768D01*
X120969554Y-111916451D01*
X120969552Y-111916448D01*
X120969548Y-111916445D01*
X120903231Y-111872132D01*
X120844752Y-111860500D01*
X120844748Y-111860500D01*
X120155252Y-111860500D01*
X120155247Y-111860500D01*
X120096768Y-111872132D01*
X120030451Y-111916445D01*
X120030445Y-111916451D01*
X119986132Y-111982768D01*
X119974500Y-112041247D01*
X119974500Y-113105500D01*
X119953678Y-113162708D01*
X119900955Y-113193148D01*
X119885500Y-113194500D01*
X119844500Y-113194500D01*
X119787292Y-113173678D01*
X119756852Y-113120955D01*
X119755500Y-113105500D01*
X119755500Y-112041255D01*
X119755499Y-112041247D01*
X119743867Y-111982768D01*
X119699554Y-111916451D01*
X119699552Y-111916448D01*
X119699548Y-111916445D01*
X119633231Y-111872132D01*
X119574752Y-111860500D01*
X119574748Y-111860500D01*
X118885252Y-111860500D01*
X118885247Y-111860500D01*
X118826768Y-111872132D01*
X118760451Y-111916445D01*
X118760445Y-111916451D01*
X118716132Y-111982768D01*
X118704500Y-112041247D01*
X118704500Y-113424499D01*
X118703148Y-113439954D01*
X118694500Y-113488996D01*
X118694500Y-115011008D01*
X118410816Y-115011008D01*
X118437449Y-114984375D01*
X118490291Y-114876286D01*
X118500500Y-114806215D01*
X118500499Y-114417786D01*
X118500499Y-114417785D01*
X118500498Y-114417774D01*
X118491954Y-114359133D01*
X118490291Y-114347714D01*
X118437449Y-114239625D01*
X118352375Y-114154551D01*
X118352373Y-114154550D01*
X118352372Y-114154549D01*
X118292910Y-114125479D01*
X118250661Y-114081647D01*
X118243000Y-114045523D01*
X118243000Y-113872823D01*
X118263822Y-113815615D01*
X118314637Y-113785533D01*
X118363231Y-113775867D01*
X118366966Y-113773371D01*
X118429552Y-113731552D01*
X118473867Y-113665231D01*
X118485500Y-113606748D01*
X118485500Y-112041252D01*
X118485189Y-112039690D01*
X118473867Y-111982768D01*
X118429554Y-111916451D01*
X118429552Y-111916448D01*
X118429548Y-111916445D01*
X118363231Y-111872132D01*
X118304752Y-111860500D01*
X118304748Y-111860500D01*
X117615252Y-111860500D01*
X117615247Y-111860500D01*
X117556768Y-111872132D01*
X117490451Y-111916445D01*
X117490445Y-111916451D01*
X117446132Y-111982768D01*
X117434500Y-112041247D01*
X117434500Y-113606752D01*
X117446132Y-113665231D01*
X117484571Y-113722757D01*
X117490448Y-113731552D01*
X117490451Y-113731554D01*
X117556768Y-113775867D01*
X117570362Y-113778571D01*
X117622409Y-113810153D01*
X117642000Y-113865861D01*
X117642000Y-114045523D01*
X117621178Y-114102731D01*
X117592090Y-114125479D01*
X117532627Y-114154549D01*
X117447547Y-114239629D01*
X117424956Y-114285841D01*
X117381124Y-114328091D01*
X117320389Y-114332281D01*
X117271170Y-114296452D01*
X117265044Y-114285841D01*
X117242452Y-114239629D01*
X117242449Y-114239626D01*
X117242449Y-114239625D01*
X117157375Y-114154551D01*
X117157373Y-114154550D01*
X117157372Y-114154549D01*
X117049285Y-114101708D01*
X117049281Y-114101707D01*
X116979218Y-114091500D01*
X116979215Y-114091500D01*
X116688837Y-114091500D01*
X116631629Y-114070678D01*
X116625905Y-114065433D01*
X116574239Y-114013767D01*
X116499903Y-113939432D01*
X116474175Y-113884257D01*
X116489931Y-113825452D01*
X116539801Y-113790533D01*
X116562836Y-113787500D01*
X117034744Y-113787500D01*
X117034748Y-113787500D01*
X117093231Y-113775867D01*
X117159552Y-113731552D01*
X117203867Y-113665231D01*
X117215500Y-113606748D01*
X117215500Y-112041252D01*
X117215189Y-112039690D01*
X117203867Y-111982768D01*
X117159554Y-111916451D01*
X117159552Y-111916448D01*
X117159548Y-111916445D01*
X117093231Y-111872132D01*
X117034752Y-111860500D01*
X117034748Y-111860500D01*
X116605337Y-111860500D01*
X116548129Y-111839678D01*
X116517689Y-111786955D01*
X116528261Y-111727000D01*
X116542404Y-111708567D01*
X117432904Y-110818067D01*
X117488080Y-110792339D01*
X117495837Y-110792000D01*
X121466756Y-110792000D01*
X121523964Y-110812822D01*
X121546711Y-110841909D01*
X121581676Y-110913429D01*
X121665571Y-110997324D01*
X121772160Y-111049433D01*
X121772164Y-111049433D01*
X121772165Y-111049434D01*
X121819372Y-111056311D01*
X121841258Y-111059500D01*
X121841265Y-111059500D01*
X122218735Y-111059500D01*
X122218742Y-111059500D01*
X122265954Y-111052621D01*
X122287834Y-111049434D01*
X122287834Y-111049433D01*
X122287840Y-111049433D01*
X122394429Y-110997324D01*
X122478324Y-110913429D01*
X122513288Y-110841909D01*
X122557119Y-110799661D01*
X122593244Y-110792000D01*
X123997663Y-110792000D01*
X124054871Y-110812822D01*
X124060596Y-110818067D01*
X124713433Y-111470904D01*
X124739161Y-111526080D01*
X124739500Y-111533837D01*
X124739500Y-111828747D01*
X124749565Y-111897834D01*
X124749566Y-111897836D01*
X124749567Y-111897840D01*
X124801676Y-112004429D01*
X124885571Y-112088324D01*
X124992160Y-112140433D01*
X124992164Y-112140433D01*
X124992165Y-112140434D01*
X125039372Y-112147311D01*
X125061258Y-112150500D01*
X125061265Y-112150500D01*
X125438735Y-112150500D01*
X125438742Y-112150500D01*
X125485954Y-112143621D01*
X125507834Y-112140434D01*
X125507834Y-112140433D01*
X125507840Y-112140433D01*
X125614429Y-112088324D01*
X125698324Y-112004429D01*
X125733288Y-111932909D01*
X125777119Y-111890661D01*
X125813244Y-111883000D01*
X125885500Y-111883000D01*
X125942708Y-111903822D01*
X125973148Y-111956545D01*
X125974500Y-111972000D01*
X125974500Y-112190263D01*
X125977273Y-112219843D01*
X125977274Y-112219848D01*
X125977275Y-112219849D01*
X125983767Y-112238402D01*
X126004565Y-112297840D01*
X126020884Y-112344475D01*
X126099289Y-112450711D01*
X126205525Y-112529116D01*
X126330151Y-112572725D01*
X126330153Y-112572725D01*
X126330156Y-112572726D01*
X126359737Y-112575500D01*
X126359744Y-112575500D01*
X126940263Y-112575500D01*
X126969843Y-112572726D01*
X126969844Y-112572725D01*
X126969849Y-112572725D01*
X127094475Y-112529116D01*
X127200711Y-112450711D01*
X127211089Y-112436648D01*
X127261814Y-112402985D01*
X127282698Y-112400500D01*
X127594299Y-112400500D01*
X127651507Y-112421322D01*
X127674863Y-112460774D01*
X127677378Y-112459733D01*
X127680731Y-112467830D01*
X127721683Y-112529116D01*
X127725048Y-112534152D01*
X127725051Y-112534154D01*
X127791368Y-112578467D01*
X127848290Y-112589789D01*
X127849852Y-112590100D01*
X127849856Y-112590100D01*
X129362544Y-112590100D01*
X129362548Y-112590100D01*
X129393137Y-112584015D01*
X129453307Y-112593276D01*
X129493448Y-112639047D01*
X129499500Y-112671305D01*
X129499500Y-113428694D01*
X129478678Y-113485902D01*
X129425955Y-113516342D01*
X129393138Y-113515984D01*
X129362554Y-113509901D01*
X129362552Y-113509900D01*
X129362548Y-113509900D01*
X127849852Y-113509900D01*
X127849847Y-113509900D01*
X127791368Y-113521532D01*
X127725051Y-113565845D01*
X127725045Y-113565851D01*
X127680732Y-113632168D01*
X127669100Y-113690647D01*
X127669100Y-114288952D01*
X127680732Y-114347431D01*
X127725045Y-114413748D01*
X127725048Y-114413752D01*
X127725051Y-114413754D01*
X127791368Y-114458067D01*
X127848290Y-114469389D01*
X127849852Y-114469700D01*
X128216700Y-114469700D01*
X128273908Y-114490522D01*
X128304348Y-114543245D01*
X128305700Y-114558700D01*
X128305700Y-115149452D01*
X128303581Y-115162448D01*
X128304566Y-115162586D01*
X128303426Y-115170750D01*
X128305605Y-115217865D01*
X128305700Y-115221975D01*
X128305700Y-115240834D01*
X128305850Y-115241634D01*
X128307269Y-115253871D01*
X128308615Y-115282979D01*
X128308615Y-115282980D01*
X128313053Y-115293032D01*
X128319119Y-115312618D01*
X128321138Y-115323418D01*
X128336474Y-115348187D01*
X128342220Y-115359087D01*
X128353994Y-115385751D01*
X128353995Y-115385752D01*
X128361764Y-115393522D01*
X128374496Y-115409597D01*
X128380277Y-115418933D01*
X128380281Y-115418938D01*
X128403528Y-115436493D01*
X128412827Y-115444584D01*
X130913433Y-117945190D01*
X130939161Y-118000366D01*
X130939500Y-118008123D01*
X130939500Y-118303033D01*
X130949565Y-118372120D01*
X130949566Y-118372122D01*
X130949567Y-118372126D01*
X131001676Y-118478715D01*
X131085571Y-118562610D01*
X131192160Y-118614719D01*
X131192164Y-118614719D01*
X131192165Y-118614720D01*
X131239372Y-118621597D01*
X131261258Y-118624786D01*
X131261265Y-118624786D01*
X131638735Y-118624786D01*
X131638742Y-118624786D01*
X131685954Y-118617907D01*
X131707834Y-118614720D01*
X131707834Y-118614719D01*
X131707840Y-118614719D01*
X131814429Y-118562610D01*
X131898324Y-118478715D01*
X131950433Y-118372126D01*
X131960500Y-118303028D01*
X131960500Y-118077000D01*
X131981322Y-118019792D01*
X132034045Y-117989352D01*
X132049500Y-117988000D01*
X132085500Y-117988000D01*
X132142708Y-118008822D01*
X132173148Y-118061545D01*
X132174500Y-118077000D01*
X132174500Y-118114549D01*
X132177273Y-118144129D01*
X132214567Y-118250710D01*
X132220884Y-118268761D01*
X132299289Y-118374997D01*
X132405525Y-118453402D01*
X132530151Y-118497011D01*
X132530153Y-118497011D01*
X132530156Y-118497012D01*
X132559737Y-118499786D01*
X132559744Y-118499786D01*
X133140263Y-118499786D01*
X133169843Y-118497012D01*
X133169844Y-118497011D01*
X133169849Y-118497011D01*
X133294475Y-118453402D01*
X133400711Y-118374997D01*
X133479116Y-118268761D01*
X133522725Y-118144135D01*
X133522726Y-118144129D01*
X133525500Y-118114549D01*
X133525500Y-118077000D01*
X133546322Y-118019792D01*
X133599045Y-117989352D01*
X133614500Y-117988000D01*
X133752982Y-117988000D01*
X133810190Y-118008822D01*
X133836986Y-118047603D01*
X133870884Y-118144475D01*
X133949289Y-118250711D01*
X134055525Y-118329116D01*
X134180151Y-118372725D01*
X134180153Y-118372725D01*
X134180156Y-118372726D01*
X134209737Y-118375500D01*
X134209744Y-118375500D01*
X134790263Y-118375500D01*
X134819843Y-118372726D01*
X134819844Y-118372725D01*
X134819849Y-118372725D01*
X134944475Y-118329116D01*
X135050711Y-118250711D01*
X135129116Y-118144475D01*
X135172725Y-118019849D01*
X135172726Y-118019843D01*
X135175500Y-117990263D01*
X135175500Y-117384736D01*
X135172726Y-117355156D01*
X135172725Y-117355153D01*
X135172725Y-117355151D01*
X135129116Y-117230525D01*
X135050711Y-117124289D01*
X134944475Y-117045884D01*
X134944472Y-117045883D01*
X134944471Y-117045882D01*
X134860104Y-117016360D01*
X134812984Y-116977812D01*
X134800500Y-116932355D01*
X134800500Y-116717644D01*
X134821322Y-116660436D01*
X134860103Y-116633639D01*
X134944475Y-116604116D01*
X135050711Y-116525711D01*
X135129116Y-116419475D01*
X135172725Y-116294849D01*
X135172726Y-116294843D01*
X135175500Y-116265263D01*
X135175500Y-115659736D01*
X135172726Y-115630156D01*
X135172725Y-115630153D01*
X135172725Y-115630151D01*
X135129116Y-115505525D01*
X135050711Y-115399289D01*
X134944475Y-115320884D01*
X134944473Y-115320883D01*
X134819843Y-115277273D01*
X134790263Y-115274500D01*
X134790256Y-115274500D01*
X134209744Y-115274500D01*
X134209737Y-115274500D01*
X134180156Y-115277273D01*
X134055526Y-115320883D01*
X133949289Y-115399289D01*
X133870883Y-115505526D01*
X133827273Y-115630156D01*
X133824500Y-115659736D01*
X133824500Y-116265263D01*
X133827273Y-116294843D01*
X133827274Y-116294848D01*
X133827275Y-116294849D01*
X133870884Y-116419475D01*
X133949289Y-116525711D01*
X134055525Y-116604116D01*
X134139896Y-116633639D01*
X134187015Y-116672187D01*
X134199500Y-116717644D01*
X134199500Y-116932355D01*
X134178678Y-116989563D01*
X134139896Y-117016360D01*
X134055529Y-117045882D01*
X134055528Y-117045882D01*
X134055525Y-117045883D01*
X134055525Y-117045884D01*
X133949289Y-117124289D01*
X133870883Y-117230526D01*
X133853926Y-117278985D01*
X133836986Y-117327396D01*
X133798439Y-117374516D01*
X133752982Y-117387000D01*
X133588520Y-117387000D01*
X133531312Y-117366178D01*
X133504515Y-117327396D01*
X133479116Y-117254811D01*
X133400711Y-117148575D01*
X133294475Y-117070170D01*
X133294473Y-117070169D01*
X133169843Y-117026559D01*
X133140263Y-117023786D01*
X133140256Y-117023786D01*
X132559744Y-117023786D01*
X132559737Y-117023786D01*
X132530156Y-117026559D01*
X132405526Y-117070169D01*
X132299289Y-117148575D01*
X132220883Y-117254812D01*
X132206743Y-117295220D01*
X132195485Y-117327396D01*
X132156937Y-117374516D01*
X132111480Y-117387000D01*
X131882820Y-117387000D01*
X131869823Y-117384881D01*
X131869686Y-117385866D01*
X131861520Y-117384726D01*
X131814406Y-117386905D01*
X131810296Y-117387000D01*
X131791442Y-117387000D01*
X131791439Y-117387000D01*
X131791430Y-117387001D01*
X131790636Y-117387150D01*
X131778402Y-117388569D01*
X131749296Y-117389914D01*
X131749293Y-117389915D01*
X131739234Y-117394356D01*
X131719654Y-117400418D01*
X131708857Y-117402436D01*
X131694932Y-117411057D01*
X131684075Y-117417779D01*
X131673183Y-117423520D01*
X131646524Y-117435292D01*
X131646517Y-117435296D01*
X131638748Y-117443065D01*
X131622680Y-117455793D01*
X131613335Y-117461580D01*
X131608972Y-117465558D01*
X131552667Y-117488711D01*
X131549013Y-117488786D01*
X131343837Y-117488786D01*
X131286629Y-117467964D01*
X131280904Y-117462719D01*
X129840617Y-116022432D01*
X129814889Y-115967256D01*
X129830645Y-115908451D01*
X129880515Y-115873532D01*
X129903543Y-115870499D01*
X130284214Y-115870499D01*
X130284225Y-115870498D01*
X130331447Y-115863618D01*
X130354286Y-115860291D01*
X130462375Y-115807449D01*
X130547449Y-115722375D01*
X130570042Y-115676159D01*
X130613873Y-115633909D01*
X130674608Y-115629717D01*
X130723828Y-115665546D01*
X130729955Y-115676157D01*
X130752549Y-115722372D01*
X130752550Y-115722373D01*
X130752551Y-115722375D01*
X130837625Y-115807449D01*
X130837626Y-115807449D01*
X130837627Y-115807450D01*
X130945714Y-115860291D01*
X130945718Y-115860292D01*
X130964422Y-115863016D01*
X131015785Y-115870500D01*
X131479214Y-115870499D01*
X131479215Y-115870498D01*
X131479225Y-115870498D01*
X131526447Y-115863618D01*
X131549286Y-115860291D01*
X131657375Y-115807449D01*
X131742449Y-115722375D01*
X131795291Y-115614286D01*
X131797373Y-115600000D01*
X131800005Y-115581929D01*
X131805500Y-115544215D01*
X131805499Y-115155786D01*
X131805498Y-115155778D01*
X131805498Y-115155774D01*
X131795291Y-115085715D01*
X131787807Y-115070405D01*
X131742449Y-114977625D01*
X131657375Y-114892551D01*
X131657373Y-114892550D01*
X131657372Y-114892549D01*
X131549285Y-114839708D01*
X131549281Y-114839707D01*
X131479218Y-114829500D01*
X131479215Y-114829500D01*
X131383300Y-114829500D01*
X131326092Y-114808678D01*
X131295652Y-114755955D01*
X131294300Y-114740500D01*
X131294300Y-114558700D01*
X131315122Y-114501492D01*
X131367845Y-114471052D01*
X131383300Y-114469700D01*
X131750144Y-114469700D01*
X131750148Y-114469700D01*
X131808631Y-114458067D01*
X131874952Y-114413752D01*
X131919267Y-114347431D01*
X131930900Y-114288948D01*
X131930900Y-113690652D01*
X131926007Y-113666055D01*
X131919267Y-113632168D01*
X131874954Y-113565851D01*
X131874952Y-113565848D01*
X131854322Y-113552063D01*
X131808631Y-113521532D01*
X131750152Y-113509900D01*
X131750148Y-113509900D01*
X130237452Y-113509900D01*
X130237448Y-113509900D01*
X130237445Y-113509901D01*
X130206862Y-113515984D01*
X130146691Y-113506722D01*
X130106551Y-113460950D01*
X130100500Y-113428694D01*
X130100500Y-112671305D01*
X130121322Y-112614097D01*
X130174045Y-112583657D01*
X130206860Y-112584014D01*
X130237452Y-112590100D01*
X130237456Y-112590100D01*
X131750144Y-112590100D01*
X131750148Y-112590100D01*
X131808631Y-112578467D01*
X131874952Y-112534152D01*
X131919267Y-112467831D01*
X131919267Y-112467830D01*
X131920175Y-112465640D01*
X131922230Y-112463397D01*
X131924138Y-112460542D01*
X131924577Y-112460835D01*
X131961305Y-112420756D01*
X132002400Y-112410700D01*
X132271081Y-112410700D01*
X132328289Y-112431522D01*
X132334013Y-112436767D01*
X132360644Y-112463397D01*
X132385571Y-112488324D01*
X132492160Y-112540433D01*
X132492164Y-112540433D01*
X132492165Y-112540434D01*
X132539372Y-112547311D01*
X132561258Y-112550500D01*
X132561265Y-112550500D01*
X132938735Y-112550500D01*
X132938742Y-112550500D01*
X132985954Y-112543621D01*
X133007834Y-112540434D01*
X133007834Y-112540433D01*
X133007840Y-112540433D01*
X133114429Y-112488324D01*
X133198324Y-112404429D01*
X133250433Y-112297840D01*
X133260500Y-112228742D01*
X133260500Y-111736258D01*
X133255217Y-111699999D01*
X133250434Y-111667165D01*
X133250433Y-111667163D01*
X133250433Y-111667160D01*
X133198324Y-111560571D01*
X133114429Y-111476676D01*
X133100408Y-111469821D01*
X133058160Y-111425988D01*
X133050500Y-111389866D01*
X133050500Y-111217644D01*
X133071322Y-111160436D01*
X133110103Y-111133639D01*
X133194475Y-111104116D01*
X133300711Y-111025711D01*
X133379116Y-110919475D01*
X133422725Y-110794849D01*
X133422754Y-110794548D01*
X133424006Y-110781192D01*
X133450077Y-110726178D01*
X133505411Y-110700792D01*
X133512617Y-110700500D01*
X133645032Y-110700500D01*
X133702240Y-110721322D01*
X133719032Y-110740053D01*
X133753969Y-110792339D01*
X133755448Y-110794552D01*
X133755451Y-110794554D01*
X133821768Y-110838867D01*
X133860917Y-110846654D01*
X133880252Y-110850500D01*
X133880256Y-110850500D01*
X134319744Y-110850500D01*
X134319748Y-110850500D01*
X134378231Y-110838867D01*
X134444552Y-110794552D01*
X134444552Y-110794551D01*
X134450553Y-110790542D01*
X134509688Y-110776071D01*
X134549446Y-110790542D01*
X134559946Y-110797558D01*
X134595945Y-110846654D01*
X134599500Y-110871558D01*
X134599500Y-113360500D01*
X134578678Y-113417708D01*
X134525955Y-113448148D01*
X134510500Y-113449500D01*
X134209737Y-113449500D01*
X134180156Y-113452273D01*
X134055526Y-113495883D01*
X133949289Y-113574289D01*
X133870883Y-113680526D01*
X133827273Y-113805156D01*
X133824500Y-113834736D01*
X133824500Y-114440263D01*
X133827273Y-114469843D01*
X133858365Y-114558700D01*
X133870884Y-114594475D01*
X133949289Y-114700711D01*
X134055525Y-114779116D01*
X134180151Y-114822725D01*
X134180153Y-114822725D01*
X134180156Y-114822726D01*
X134209737Y-114825500D01*
X134209744Y-114825500D01*
X134790263Y-114825500D01*
X134819843Y-114822726D01*
X134819844Y-114822725D01*
X134819849Y-114822725D01*
X134944475Y-114779116D01*
X135050711Y-114700711D01*
X135129116Y-114594475D01*
X135172725Y-114469849D01*
X135172739Y-114469700D01*
X135175500Y-114440263D01*
X135175500Y-113888976D01*
X135177864Y-113868601D01*
X135181799Y-113851871D01*
X135186325Y-113832622D01*
X135189968Y-113820854D01*
X135200500Y-113793673D01*
X135200500Y-113782688D01*
X135202864Y-113762311D01*
X135204218Y-113756554D01*
X135205379Y-113751619D01*
X135201353Y-113722757D01*
X135200500Y-113710462D01*
X135200500Y-112945003D01*
X136544417Y-112945003D01*
X136564698Y-113150926D01*
X136564700Y-113150934D01*
X136624766Y-113348950D01*
X136624767Y-113348953D01*
X136624768Y-113348954D01*
X136722315Y-113531450D01*
X136853590Y-113691410D01*
X137013550Y-113822685D01*
X137196046Y-113920232D01*
X137394066Y-113980300D01*
X137394070Y-113980300D01*
X137394073Y-113980301D01*
X137599996Y-114000583D01*
X137600000Y-114000583D01*
X137600004Y-114000583D01*
X137805926Y-113980301D01*
X137805927Y-113980300D01*
X137805934Y-113980300D01*
X138003954Y-113920232D01*
X138186450Y-113822685D01*
X138346410Y-113691410D01*
X138477685Y-113531450D01*
X138575232Y-113348954D01*
X138635300Y-113150934D01*
X138641400Y-113089000D01*
X138655583Y-112945003D01*
X138655583Y-112944996D01*
X138635301Y-112739073D01*
X138635300Y-112739070D01*
X138635300Y-112739066D01*
X138575232Y-112541046D01*
X138477685Y-112358550D01*
X138346410Y-112198590D01*
X138186450Y-112067315D01*
X138003954Y-111969768D01*
X138003953Y-111969767D01*
X138003950Y-111969766D01*
X137805934Y-111909700D01*
X137805926Y-111909698D01*
X137600004Y-111889417D01*
X137599996Y-111889417D01*
X137394073Y-111909698D01*
X137394065Y-111909700D01*
X137196049Y-111969766D01*
X137013548Y-112067316D01*
X136853594Y-112198586D01*
X136853586Y-112198594D01*
X136722316Y-112358548D01*
X136624766Y-112541049D01*
X136564700Y-112739065D01*
X136564698Y-112739073D01*
X136544417Y-112944996D01*
X136544417Y-112945003D01*
X135200500Y-112945003D01*
X135200500Y-110871558D01*
X135221322Y-110814350D01*
X135240055Y-110797557D01*
X135240919Y-110796978D01*
X135244552Y-110794552D01*
X135246257Y-110792000D01*
X135277627Y-110745054D01*
X135326723Y-110709055D01*
X135351627Y-110705500D01*
X136527379Y-110705500D01*
X136584587Y-110726322D01*
X136612547Y-110768666D01*
X136624126Y-110806840D01*
X136624768Y-110808954D01*
X136722315Y-110991450D01*
X136853590Y-111151410D01*
X137013550Y-111282685D01*
X137196046Y-111380232D01*
X137394066Y-111440300D01*
X137394070Y-111440300D01*
X137394073Y-111440301D01*
X137599996Y-111460583D01*
X137600000Y-111460583D01*
X137600004Y-111460583D01*
X137805926Y-111440301D01*
X137805927Y-111440300D01*
X137805934Y-111440300D01*
X138003954Y-111380232D01*
X138186450Y-111282685D01*
X138346410Y-111151410D01*
X138477685Y-110991450D01*
X138575232Y-110808954D01*
X138635300Y-110610934D01*
X138651618Y-110445258D01*
X138655583Y-110405003D01*
X138655583Y-110404996D01*
X138635301Y-110199073D01*
X138635300Y-110199070D01*
X138635300Y-110199066D01*
X138575232Y-110001046D01*
X138477685Y-109818550D01*
X138346410Y-109658590D01*
X138186450Y-109527315D01*
X138003954Y-109429768D01*
X138003953Y-109429767D01*
X138003950Y-109429766D01*
X137805934Y-109369700D01*
X137805926Y-109369698D01*
X137600004Y-109349417D01*
X137599996Y-109349417D01*
X137394073Y-109369698D01*
X137394065Y-109369700D01*
X137196049Y-109429766D01*
X137013548Y-109527316D01*
X136853594Y-109658586D01*
X136853586Y-109658594D01*
X136722316Y-109818548D01*
X136722315Y-109818550D01*
X136675826Y-109905525D01*
X136624766Y-110001050D01*
X136612547Y-110041334D01*
X136576016Y-110090035D01*
X136527379Y-110104500D01*
X135358308Y-110104500D01*
X135301100Y-110083678D01*
X135284310Y-110064950D01*
X135244552Y-110005448D01*
X135244548Y-110005445D01*
X135178231Y-109961132D01*
X135119752Y-109949500D01*
X135119748Y-109949500D01*
X134680252Y-109949500D01*
X134680247Y-109949500D01*
X134621768Y-109961132D01*
X134549446Y-110009458D01*
X134490311Y-110023928D01*
X134450554Y-110009458D01*
X134378231Y-109961132D01*
X134319752Y-109949500D01*
X134319748Y-109949500D01*
X133880252Y-109949500D01*
X133880247Y-109949500D01*
X133821768Y-109961132D01*
X133755451Y-110005445D01*
X133755445Y-110005451D01*
X133719032Y-110059947D01*
X133669936Y-110095945D01*
X133645032Y-110099500D01*
X133509531Y-110099500D01*
X133452323Y-110078678D01*
X133425797Y-110034813D01*
X133424513Y-110035263D01*
X133422725Y-110030154D01*
X133422725Y-110030151D01*
X133379116Y-109905525D01*
X133300711Y-109799289D01*
X133194475Y-109720884D01*
X133194473Y-109720883D01*
X133089719Y-109684228D01*
X133069849Y-109677275D01*
X133069848Y-109677274D01*
X133069843Y-109677273D01*
X133040263Y-109674500D01*
X133040256Y-109674500D01*
X132459744Y-109674500D01*
X132459737Y-109674500D01*
X132430156Y-109677273D01*
X132305526Y-109720883D01*
X132199289Y-109799289D01*
X132120883Y-109905526D01*
X132105496Y-109949500D01*
X132077275Y-110030151D01*
X132077274Y-110030153D01*
X132075487Y-110035263D01*
X132074080Y-110034770D01*
X132044865Y-110080942D01*
X131990469Y-110099500D01*
X131759531Y-110099500D01*
X131702323Y-110078678D01*
X131675797Y-110034813D01*
X131674513Y-110035263D01*
X131672725Y-110030154D01*
X131672725Y-110030151D01*
X131629116Y-109905525D01*
X131550711Y-109799289D01*
X131444475Y-109720884D01*
X131444473Y-109720883D01*
X131339719Y-109684228D01*
X131319849Y-109677275D01*
X131319848Y-109677274D01*
X131319843Y-109677273D01*
X131290263Y-109674500D01*
X131290256Y-109674500D01*
X130709744Y-109674500D01*
X130709737Y-109674500D01*
X130680156Y-109677273D01*
X130555526Y-109720883D01*
X130449289Y-109799289D01*
X130370883Y-109905526D01*
X130327273Y-110030156D01*
X130324500Y-110059736D01*
X130324500Y-110765263D01*
X130327273Y-110794843D01*
X130368767Y-110913427D01*
X130370884Y-110919475D01*
X130449289Y-111025711D01*
X130555525Y-111104116D01*
X130680151Y-111147725D01*
X130680153Y-111147725D01*
X130680156Y-111147726D01*
X130709737Y-111150500D01*
X130709744Y-111150500D01*
X131290263Y-111150500D01*
X131319843Y-111147726D01*
X131319844Y-111147725D01*
X131319849Y-111147725D01*
X131444475Y-111104116D01*
X131550711Y-111025711D01*
X131629116Y-110919475D01*
X131672725Y-110794849D01*
X131672754Y-110794548D01*
X131674006Y-110781192D01*
X131700077Y-110726178D01*
X131755411Y-110700792D01*
X131762617Y-110700500D01*
X131987383Y-110700500D01*
X132044591Y-110721322D01*
X132075031Y-110774045D01*
X132075994Y-110781192D01*
X132077273Y-110794843D01*
X132118767Y-110913427D01*
X132120884Y-110919475D01*
X132199289Y-111025711D01*
X132305525Y-111104116D01*
X132389896Y-111133639D01*
X132437015Y-111172187D01*
X132449500Y-111217644D01*
X132449500Y-111389866D01*
X132428678Y-111447074D01*
X132399591Y-111469821D01*
X132395891Y-111471630D01*
X132385572Y-111476675D01*
X132301675Y-111560572D01*
X132278782Y-111607400D01*
X132261901Y-111641932D01*
X132249566Y-111667163D01*
X132249565Y-111667164D01*
X132244782Y-111700000D01*
X132239897Y-111733531D01*
X132211047Y-111787139D01*
X132154487Y-111809660D01*
X132151828Y-111809700D01*
X132002400Y-111809700D01*
X131945192Y-111788878D01*
X131920175Y-111754760D01*
X131919267Y-111752568D01*
X131874954Y-111686251D01*
X131874952Y-111686248D01*
X131874948Y-111686245D01*
X131808631Y-111641932D01*
X131750152Y-111630300D01*
X131750148Y-111630300D01*
X130237452Y-111630300D01*
X130237447Y-111630300D01*
X130178968Y-111641932D01*
X130112651Y-111686245D01*
X130112645Y-111686251D01*
X130068332Y-111752568D01*
X130056700Y-111811047D01*
X130056700Y-111984263D01*
X130035878Y-112041471D01*
X129983155Y-112071911D01*
X129923200Y-112061339D01*
X129904767Y-112047196D01*
X129800211Y-111942640D01*
X129792525Y-111931954D01*
X129791729Y-111932556D01*
X129786760Y-111925976D01*
X129786758Y-111925972D01*
X129751894Y-111894189D01*
X129748942Y-111891370D01*
X129735597Y-111878026D01*
X129734927Y-111877567D01*
X129725272Y-111869919D01*
X129703733Y-111850284D01*
X129693483Y-111846313D01*
X129675343Y-111836751D01*
X129666282Y-111830544D01*
X129666280Y-111830543D01*
X129637916Y-111823872D01*
X129626144Y-111820226D01*
X129591283Y-111806721D01*
X129591789Y-111805412D01*
X129546667Y-111778733D01*
X129533208Y-111756290D01*
X129531667Y-111752572D01*
X129531667Y-111752569D01*
X129487352Y-111686248D01*
X129487348Y-111686245D01*
X129421031Y-111641932D01*
X129362552Y-111630300D01*
X129362548Y-111630300D01*
X127849852Y-111630300D01*
X127849847Y-111630300D01*
X127791368Y-111641932D01*
X127725051Y-111686245D01*
X127725045Y-111686251D01*
X127675862Y-111759858D01*
X127672259Y-111757450D01*
X127642818Y-111789497D01*
X127601825Y-111799500D01*
X127414500Y-111799500D01*
X127357292Y-111778678D01*
X127326852Y-111725955D01*
X127325500Y-111710500D01*
X127325500Y-111484736D01*
X127322726Y-111455156D01*
X127322725Y-111455153D01*
X127322725Y-111455151D01*
X127279116Y-111330525D01*
X127200711Y-111224289D01*
X127094475Y-111145884D01*
X127094473Y-111145883D01*
X126969843Y-111102273D01*
X126940263Y-111099500D01*
X126940256Y-111099500D01*
X126359744Y-111099500D01*
X126359737Y-111099500D01*
X126330156Y-111102273D01*
X126205526Y-111145883D01*
X126099289Y-111224289D01*
X126099285Y-111224293D01*
X126083376Y-111245850D01*
X126032652Y-111279515D01*
X126011767Y-111282000D01*
X125813244Y-111282000D01*
X125756036Y-111261178D01*
X125733288Y-111232090D01*
X125698324Y-111160571D01*
X125614429Y-111076676D01*
X125507840Y-111024567D01*
X125507837Y-111024566D01*
X125507836Y-111024566D01*
X125507834Y-111024565D01*
X125438747Y-111014500D01*
X125438742Y-111014500D01*
X125143837Y-111014500D01*
X125086629Y-110993678D01*
X125080904Y-110988433D01*
X124416411Y-110323940D01*
X124408725Y-110313254D01*
X124407929Y-110313856D01*
X124402960Y-110307276D01*
X124402958Y-110307272D01*
X124368094Y-110275489D01*
X124365142Y-110272670D01*
X124351797Y-110259326D01*
X124351127Y-110258867D01*
X124341472Y-110251219D01*
X124319933Y-110231584D01*
X124309683Y-110227613D01*
X124291543Y-110218051D01*
X124282482Y-110211844D01*
X124282480Y-110211843D01*
X124254116Y-110205172D01*
X124242344Y-110201526D01*
X124215173Y-110191000D01*
X124204189Y-110191000D01*
X124183813Y-110188636D01*
X124173120Y-110186121D01*
X124173116Y-110186120D01*
X124144266Y-110190146D01*
X124131969Y-110191000D01*
X122593244Y-110191000D01*
X122536036Y-110170178D01*
X122513288Y-110141090D01*
X122478324Y-110069571D01*
X122395684Y-109986931D01*
X122369957Y-109931757D01*
X122385713Y-109872952D01*
X122395679Y-109861073D01*
X122478324Y-109778429D01*
X122530433Y-109671840D01*
X122540500Y-109602742D01*
X122540500Y-109110258D01*
X122535149Y-109073528D01*
X122530434Y-109041165D01*
X122530433Y-109041163D01*
X122530433Y-109041160D01*
X122478324Y-108934571D01*
X122394429Y-108850676D01*
X122287840Y-108798567D01*
X122287837Y-108798566D01*
X122287836Y-108798566D01*
X122287834Y-108798565D01*
X122218747Y-108788500D01*
X122218742Y-108788500D01*
X121841258Y-108788500D01*
X121841252Y-108788500D01*
X121772165Y-108798565D01*
X121772163Y-108798566D01*
X121772161Y-108798566D01*
X121772160Y-108798567D01*
X121721292Y-108823435D01*
X121665572Y-108850675D01*
X121581675Y-108934572D01*
X121529566Y-109041163D01*
X121529565Y-109041165D01*
X121519500Y-109110252D01*
X121519500Y-109110500D01*
X121519478Y-109110558D01*
X121519267Y-109113477D01*
X121518438Y-109113416D01*
X121498678Y-109167708D01*
X121445955Y-109198148D01*
X121430500Y-109199500D01*
X119751932Y-109199500D01*
X119694724Y-109178678D01*
X119664284Y-109125955D01*
X119670975Y-109073528D01*
X119681412Y-109050675D01*
X119685165Y-109042457D01*
X119705647Y-108900000D01*
X119685165Y-108757543D01*
X119657262Y-108696445D01*
X119625378Y-108626628D01*
X119625375Y-108626625D01*
X119552238Y-108542219D01*
X119530511Y-108485349D01*
X119530500Y-108483937D01*
X119530500Y-108445342D01*
X119551322Y-108388134D01*
X119602137Y-108358052D01*
X119633231Y-108351867D01*
X119642523Y-108345658D01*
X119699552Y-108307552D01*
X119743867Y-108241231D01*
X119755499Y-108182752D01*
X119974500Y-108182752D01*
X119986132Y-108241231D01*
X120030445Y-108307548D01*
X120030448Y-108307552D01*
X120030451Y-108307554D01*
X120096768Y-108351867D01*
X120127752Y-108358030D01*
X120155252Y-108363500D01*
X120155256Y-108363500D01*
X120844744Y-108363500D01*
X120844748Y-108363500D01*
X120903231Y-108351867D01*
X120969552Y-108307552D01*
X121013867Y-108241231D01*
X121025500Y-108182748D01*
X121025500Y-106617252D01*
X121013867Y-106558769D01*
X121013867Y-106558768D01*
X120969554Y-106492451D01*
X120969552Y-106492448D01*
X120969548Y-106492445D01*
X120903231Y-106448132D01*
X120844752Y-106436500D01*
X120844748Y-106436500D01*
X120155252Y-106436500D01*
X120155247Y-106436500D01*
X120096768Y-106448132D01*
X120030451Y-106492445D01*
X120030445Y-106492451D01*
X119986132Y-106558768D01*
X119974500Y-106617247D01*
X119974500Y-108182752D01*
X119755499Y-108182752D01*
X119755500Y-108182748D01*
X119755500Y-106617252D01*
X119743867Y-106558769D01*
X119743867Y-106558768D01*
X119699554Y-106492451D01*
X119699552Y-106492448D01*
X119699548Y-106492445D01*
X119633231Y-106448132D01*
X119574752Y-106436500D01*
X119574748Y-106436500D01*
X118885252Y-106436500D01*
X118885247Y-106436500D01*
X118826768Y-106448132D01*
X118760451Y-106492445D01*
X118760445Y-106492451D01*
X118716132Y-106558768D01*
X118704500Y-106617247D01*
X118704500Y-108182752D01*
X118716132Y-108241231D01*
X118760445Y-108307548D01*
X118760448Y-108307552D01*
X118760451Y-108307554D01*
X118826766Y-108351866D01*
X118826768Y-108351866D01*
X118826769Y-108351867D01*
X118839983Y-108354495D01*
X118892029Y-108386075D01*
X118911600Y-108443723D01*
X118889537Y-108500464D01*
X118870748Y-108516650D01*
X118868875Y-108517853D01*
X118868870Y-108517858D01*
X118774624Y-108626625D01*
X118774623Y-108626627D01*
X118742737Y-108696445D01*
X118700030Y-108739833D01*
X118639426Y-108745619D01*
X118598847Y-108722405D01*
X118359034Y-108482592D01*
X118333306Y-108427416D01*
X118349062Y-108368611D01*
X118372519Y-108345660D01*
X118429552Y-108307552D01*
X118473867Y-108241231D01*
X118485500Y-108182748D01*
X118485500Y-106617252D01*
X118473867Y-106558769D01*
X118473867Y-106558768D01*
X118429554Y-106492451D01*
X118429552Y-106492448D01*
X118429548Y-106492445D01*
X118363231Y-106448132D01*
X118307137Y-106436975D01*
X118255090Y-106405392D01*
X118235500Y-106349685D01*
X118235500Y-106071017D01*
X118256322Y-106013809D01*
X118295102Y-105987013D01*
X118391975Y-105953116D01*
X118498211Y-105874711D01*
X118576616Y-105768475D01*
X118620225Y-105643849D01*
X118621946Y-105625500D01*
X118623000Y-105614263D01*
X118623000Y-105033736D01*
X118620226Y-105004156D01*
X118620225Y-105004153D01*
X118620225Y-105004151D01*
X118607538Y-104967894D01*
X118608298Y-104907019D01*
X118648009Y-104860875D01*
X118691544Y-104849500D01*
X118823663Y-104849500D01*
X118880871Y-104870322D01*
X118886596Y-104875567D01*
X119045933Y-105034904D01*
X119071661Y-105090080D01*
X119072000Y-105097837D01*
X119072000Y-105614263D01*
X119074773Y-105643843D01*
X119074774Y-105643848D01*
X119074775Y-105643849D01*
X119118384Y-105768475D01*
X119196789Y-105874711D01*
X119303025Y-105953116D01*
X119427651Y-105996725D01*
X119427653Y-105996725D01*
X119427656Y-105996726D01*
X119457237Y-105999500D01*
X119457244Y-105999500D01*
X120062763Y-105999500D01*
X120092343Y-105996726D01*
X120092344Y-105996725D01*
X120092349Y-105996725D01*
X120216975Y-105953116D01*
X120323211Y-105874711D01*
X120401616Y-105768475D01*
X120431139Y-105684103D01*
X120469687Y-105636985D01*
X120515144Y-105624500D01*
X120629856Y-105624500D01*
X120687064Y-105645322D01*
X120713860Y-105684103D01*
X120743384Y-105768475D01*
X120821789Y-105874711D01*
X120928025Y-105953116D01*
X121052651Y-105996725D01*
X121052653Y-105996725D01*
X121052656Y-105996726D01*
X121082237Y-105999500D01*
X121082244Y-105999500D01*
X121687763Y-105999500D01*
X121717343Y-105996726D01*
X121717344Y-105996725D01*
X121717349Y-105996725D01*
X121841975Y-105953116D01*
X121948211Y-105874711D01*
X122026616Y-105768475D01*
X122070225Y-105643849D01*
X122071946Y-105625500D01*
X122073000Y-105614263D01*
X122522000Y-105614263D01*
X122524773Y-105643843D01*
X122524774Y-105643848D01*
X122524775Y-105643849D01*
X122568384Y-105768475D01*
X122646789Y-105874711D01*
X122753025Y-105953116D01*
X122877651Y-105996725D01*
X122877653Y-105996725D01*
X122877656Y-105996726D01*
X122907237Y-105999500D01*
X122907244Y-105999500D01*
X123512763Y-105999500D01*
X123542343Y-105996726D01*
X123542344Y-105996725D01*
X123542349Y-105996725D01*
X123666975Y-105953116D01*
X123773211Y-105874711D01*
X123851616Y-105768475D01*
X123880789Y-105685103D01*
X123919336Y-105637985D01*
X123964794Y-105625500D01*
X136460500Y-105625500D01*
X136517708Y-105646322D01*
X136548148Y-105699045D01*
X136549500Y-105714500D01*
X136549500Y-106194752D01*
X136561132Y-106253231D01*
X136605445Y-106319548D01*
X136605448Y-106319552D01*
X136605451Y-106319554D01*
X136671768Y-106363867D01*
X136728690Y-106375189D01*
X136730252Y-106375500D01*
X136730256Y-106375500D01*
X138469744Y-106375500D01*
X138469748Y-106375500D01*
X138528231Y-106363867D01*
X138594552Y-106319552D01*
X138638867Y-106253231D01*
X138650500Y-106194748D01*
X138650500Y-104455252D01*
X138638867Y-104396769D01*
X138638867Y-104396768D01*
X138594554Y-104330451D01*
X138594552Y-104330448D01*
X138583527Y-104323081D01*
X138528231Y-104286132D01*
X138469752Y-104274500D01*
X138469748Y-104274500D01*
X136730252Y-104274500D01*
X136730247Y-104274500D01*
X136671768Y-104286132D01*
X136605451Y-104330445D01*
X136605445Y-104330451D01*
X136561132Y-104396768D01*
X136549500Y-104455247D01*
X136549500Y-104935500D01*
X136528678Y-104992708D01*
X136475955Y-105023148D01*
X136460500Y-105024500D01*
X123965494Y-105024500D01*
X123908286Y-105003678D01*
X123881489Y-104964896D01*
X123851616Y-104879525D01*
X123773211Y-104773289D01*
X123666975Y-104694884D01*
X123666973Y-104694883D01*
X123542343Y-104651273D01*
X123512763Y-104648500D01*
X123512756Y-104648500D01*
X122907244Y-104648500D01*
X122907237Y-104648500D01*
X122877656Y-104651273D01*
X122753026Y-104694883D01*
X122646789Y-104773289D01*
X122568383Y-104879526D01*
X122524773Y-105004156D01*
X122522000Y-105033736D01*
X122522000Y-105614263D01*
X122073000Y-105614263D01*
X122073000Y-105033736D01*
X122070226Y-105004156D01*
X122070225Y-105004153D01*
X122070225Y-105004151D01*
X122026616Y-104879525D01*
X121948211Y-104773289D01*
X121841975Y-104694884D01*
X121841973Y-104694883D01*
X121717343Y-104651273D01*
X121687763Y-104648500D01*
X121687756Y-104648500D01*
X121082244Y-104648500D01*
X121082237Y-104648500D01*
X121052656Y-104651273D01*
X120928026Y-104694883D01*
X120821789Y-104773289D01*
X120743383Y-104879526D01*
X120733763Y-104907019D01*
X120713860Y-104963896D01*
X120675313Y-105011015D01*
X120629856Y-105023500D01*
X120515144Y-105023500D01*
X120457936Y-105002678D01*
X120431139Y-104963896D01*
X120401616Y-104879525D01*
X120323211Y-104773289D01*
X120216975Y-104694884D01*
X120216973Y-104694883D01*
X120092343Y-104651273D01*
X120062763Y-104648500D01*
X120062756Y-104648500D01*
X119546337Y-104648500D01*
X119489129Y-104627678D01*
X119483404Y-104622433D01*
X119242411Y-104381440D01*
X119234725Y-104370754D01*
X119233929Y-104371356D01*
X119228960Y-104364776D01*
X119228958Y-104364772D01*
X119194094Y-104332989D01*
X119191142Y-104330170D01*
X119177797Y-104316826D01*
X119177127Y-104316367D01*
X119167472Y-104308719D01*
X119145933Y-104289084D01*
X119135683Y-104285113D01*
X119117543Y-104275551D01*
X119108482Y-104269344D01*
X119108480Y-104269343D01*
X119080116Y-104262672D01*
X119068344Y-104259026D01*
X119041173Y-104248500D01*
X119030189Y-104248500D01*
X119009813Y-104246136D01*
X118999120Y-104243621D01*
X118999116Y-104243620D01*
X118970266Y-104247646D01*
X118957969Y-104248500D01*
X117519313Y-104248500D01*
X117506316Y-104246381D01*
X117506179Y-104247366D01*
X117498013Y-104246226D01*
X117450899Y-104248405D01*
X117446789Y-104248500D01*
X117427934Y-104248500D01*
X117427931Y-104248500D01*
X117427922Y-104248501D01*
X117427128Y-104248650D01*
X117414894Y-104250069D01*
X117385787Y-104251415D01*
X117385786Y-104251415D01*
X117375729Y-104255855D01*
X117356146Y-104261919D01*
X117345345Y-104263938D01*
X117345341Y-104263940D01*
X117320563Y-104279280D01*
X117309668Y-104285023D01*
X117283015Y-104296792D01*
X117283013Y-104296793D01*
X117275242Y-104304564D01*
X117259170Y-104317294D01*
X117249828Y-104323078D01*
X117249826Y-104323080D01*
X117232265Y-104346333D01*
X117224177Y-104355628D01*
X114962437Y-106617368D01*
X114951756Y-106625057D01*
X114952354Y-106625849D01*
X114945768Y-106630822D01*
X114913987Y-106665684D01*
X114911151Y-106668655D01*
X114897826Y-106681980D01*
X114897817Y-106681990D01*
X114897355Y-106682666D01*
X114889720Y-106692303D01*
X114870085Y-106713843D01*
X114870081Y-106713849D01*
X114866112Y-106724095D01*
X114856552Y-106742233D01*
X114850342Y-106751298D01*
X114843670Y-106779664D01*
X114840026Y-106791432D01*
X114829500Y-106818605D01*
X114829500Y-106829589D01*
X114827136Y-106849965D01*
X114824621Y-106860657D01*
X114824621Y-106860660D01*
X114828646Y-106889510D01*
X114829500Y-106901808D01*
X114829500Y-108963866D01*
X114808678Y-109021074D01*
X114779591Y-109043822D01*
X114765572Y-109050675D01*
X114681675Y-109134572D01*
X114629566Y-109241163D01*
X114629565Y-109241165D01*
X114619500Y-109310252D01*
X114619500Y-109802747D01*
X114629565Y-109871834D01*
X114629566Y-109871836D01*
X114629567Y-109871840D01*
X114681676Y-109978429D01*
X114764315Y-110061068D01*
X114790043Y-110116243D01*
X114774287Y-110175048D01*
X114764320Y-110186926D01*
X114719663Y-110231584D01*
X114681675Y-110269572D01*
X114629566Y-110376163D01*
X114629565Y-110376165D01*
X114619500Y-110445252D01*
X114619500Y-110937747D01*
X114629565Y-111006834D01*
X114629566Y-111006836D01*
X114629567Y-111006840D01*
X114681676Y-111113429D01*
X114764703Y-111196456D01*
X114790431Y-111251631D01*
X114774675Y-111310436D01*
X114769032Y-111317670D01*
X114674624Y-111426625D01*
X114674621Y-111426628D01*
X114614834Y-111557543D01*
X114594353Y-111699999D01*
X114594353Y-111700000D01*
X114614834Y-111842456D01*
X114674621Y-111973371D01*
X114674623Y-111973374D01*
X114756024Y-112067316D01*
X114768872Y-112082143D01*
X114889947Y-112159953D01*
X114889949Y-112159953D01*
X114889950Y-112159954D01*
X114913296Y-112166808D01*
X115017450Y-112197390D01*
X115066474Y-112233485D01*
X115080828Y-112292649D01*
X115055309Y-112345717D01*
X114349095Y-113051932D01*
X114293919Y-113077661D01*
X114286162Y-113078000D01*
X114175537Y-113078000D01*
X114037450Y-113118545D01*
X113916371Y-113196357D01*
X113822123Y-113305125D01*
X113822121Y-113305128D01*
X113762334Y-113436043D01*
X113741853Y-113578499D01*
X113741853Y-113578500D01*
X113762334Y-113720956D01*
X113822121Y-113851871D01*
X113822123Y-113851874D01*
X113920541Y-113965454D01*
X113919503Y-113966353D01*
X113945882Y-114013767D01*
X113947000Y-114027827D01*
X113947000Y-114045523D01*
X113926178Y-114102731D01*
X113897090Y-114125479D01*
X113837627Y-114154549D01*
X113752549Y-114239627D01*
X113699708Y-114347714D01*
X113699707Y-114347718D01*
X113689500Y-114417781D01*
X113689500Y-114806213D01*
X113689501Y-114806225D01*
X113699708Y-114876284D01*
X113699709Y-114876286D01*
X113752551Y-114984375D01*
X113837625Y-115069449D01*
X113897089Y-115098519D01*
X113939339Y-115142351D01*
X113947000Y-115178476D01*
X113947000Y-118781163D01*
X113926178Y-118838371D01*
X113920933Y-118844095D01*
X113238833Y-119526194D01*
X113183659Y-119551922D01*
X113124854Y-119536166D01*
X113089935Y-119486296D01*
X113087808Y-119475926D01*
X113085165Y-119457543D01*
X113025378Y-119326628D01*
X113025376Y-119326625D01*
X112931128Y-119217857D01*
X112810053Y-119140047D01*
X112810051Y-119140046D01*
X112810049Y-119140045D01*
X112671962Y-119099500D01*
X112671961Y-119099500D01*
X112528039Y-119099500D01*
X112528037Y-119099500D01*
X112389950Y-119140045D01*
X112268871Y-119217857D01*
X112174623Y-119326625D01*
X112174621Y-119326628D01*
X112114834Y-119457543D01*
X112094353Y-119599999D01*
X112094353Y-119600003D01*
X112098153Y-119626438D01*
X112085683Y-119686027D01*
X112072992Y-119702034D01*
X108901595Y-122873432D01*
X108846419Y-122899161D01*
X108838662Y-122899500D01*
X108728037Y-122899500D01*
X108589950Y-122940045D01*
X108468871Y-123017857D01*
X108374623Y-123126625D01*
X108374621Y-123126628D01*
X108314834Y-123257543D01*
X108294353Y-123399999D01*
X108294353Y-123400000D01*
X108314834Y-123542456D01*
X108374621Y-123673371D01*
X108374623Y-123673374D01*
X108468871Y-123782142D01*
X108468872Y-123782143D01*
X108589947Y-123859953D01*
X108589949Y-123859953D01*
X108589950Y-123859954D01*
X108595740Y-123862599D01*
X108594720Y-123864831D01*
X108635890Y-123895130D01*
X108650256Y-123954291D01*
X108623234Y-124008844D01*
X108586876Y-124029841D01*
X108449949Y-124070045D01*
X108328871Y-124147857D01*
X108234623Y-124256625D01*
X108234621Y-124256628D01*
X108174834Y-124387543D01*
X108154353Y-124529999D01*
X108154353Y-124530000D01*
X104500500Y-124530000D01*
X104500500Y-124420734D01*
X104497646Y-124390301D01*
X104452793Y-124262118D01*
X104372150Y-124152850D01*
X104262882Y-124072207D01*
X104160104Y-124036243D01*
X104112984Y-123997695D01*
X104100500Y-123952238D01*
X104100500Y-122849327D01*
X104121322Y-122792119D01*
X104131028Y-122782257D01*
X104131125Y-122782144D01*
X104131128Y-122782143D01*
X104225377Y-122673373D01*
X104285165Y-122542457D01*
X104305647Y-122400000D01*
X104285165Y-122257543D01*
X104225378Y-122126628D01*
X104225376Y-122126625D01*
X104131128Y-122017857D01*
X104010053Y-121940047D01*
X104010051Y-121940046D01*
X104010049Y-121940045D01*
X103871962Y-121899500D01*
X103871961Y-121899500D01*
X103728039Y-121899500D01*
X103728037Y-121899500D01*
X103589950Y-121940045D01*
X103468871Y-122017857D01*
X103374623Y-122126625D01*
X103374621Y-122126628D01*
X103314834Y-122257543D01*
X103294353Y-122399999D01*
X103294353Y-122400000D01*
X103314834Y-122542456D01*
X103374621Y-122673371D01*
X103374623Y-122673374D01*
X103473041Y-122786954D01*
X103472003Y-122787853D01*
X103498382Y-122835267D01*
X103499500Y-122849327D01*
X103499500Y-123952238D01*
X103478678Y-124009446D01*
X103439895Y-124036244D01*
X103337118Y-124072207D01*
X103337116Y-124072208D01*
X103227854Y-124152846D01*
X103227846Y-124152854D01*
X103147208Y-124262116D01*
X103147206Y-124262119D01*
X103102354Y-124390300D01*
X103102352Y-124390310D01*
X103099500Y-124420734D01*
X103099500Y-125079265D01*
X103102352Y-125109689D01*
X103102353Y-125109696D01*
X103102353Y-125109698D01*
X103102354Y-125109699D01*
X103122266Y-125166607D01*
X103121508Y-125227480D01*
X103081797Y-125273625D01*
X103038261Y-125285000D01*
X102850000Y-125285000D01*
X102850000Y-127375000D01*
X100000500Y-127375000D01*
X100000500Y-103889500D01*
X100021322Y-103832292D01*
X100074045Y-103801852D01*
X100089500Y-103800500D01*
X139910500Y-103800500D01*
X139967708Y-103821322D01*
G37*
%TD.AperFunction*%
%TD*%
M02*
