M48
; DRILL file {KiCad 7.0.10} date Mon Apr  1 00:35:10 2024
; FORMAT={-:-/ absolute / metric / decimal}
; #@! TF.CreationDate,2024-04-01T00:35:10-05:00
; #@! TF.GenerationSoftware,Kicad,Pcbnew,7.0.10
; #@! TF.FileFunction,MixedPlating,1,4
FMAT,2
METRIC
; #@! TA.AperFunction,Plated,PTH,ViaDrill
T1C0.300
; #@! TA.AperFunction,Plated,PTH,ComponentDrill
T2C0.300
; #@! TA.AperFunction,Plated,PTH,ViaDrill
T3C0.400
; #@! TA.AperFunction,Plated,PTH,ComponentDrill
T4C0.460
; #@! TA.AperFunction,Plated,PTH,ComponentDrill
T5C1.000
; #@! TA.AperFunction,Plated,PTH,ComponentDrill
T6C2.500
%
G90
G05
T1
X100.0Y-44.0
X100.0Y-46.0
X100.0Y-48.0
X100.0Y-50.0
X100.0Y-52.0
X100.0Y-54.0
X100.8Y-55.8
X100.8Y-57.8
X100.8Y-59.8
X100.8Y-61.4
X100.8Y-63.4
X102.0Y-44.0
X102.0Y-50.0
X102.0Y-52.0
X102.0Y-54.0
X104.0Y-52.0
X105.0Y-78.0
X105.0Y-80.0
X106.0Y-52.0
X106.2Y-55.8
X106.2Y-57.2
X106.5Y-70.85
X107.0Y-78.0
X107.0Y-80.0
X108.0Y-44.0
X108.0Y-50.0
X108.025Y-51.981
X109.0Y-78.0
X109.0Y-80.0
X109.4Y-57.8
X109.6Y-59.8
X109.6Y-61.8
X110.0Y-44.0
X110.0Y-46.0
X110.0Y-48.0
X110.0Y-50.0
X110.0Y-52.0
X110.6Y-60.8
X111.0Y-68.0
X111.0Y-80.0
X111.0Y-82.0
X111.0Y-84.0
X111.0Y-86.0
X112.0Y-44.0
X112.0Y-46.0
X112.0Y-48.0
X112.6Y-56.8
X113.0Y-68.0
X113.0Y-80.0
X113.0Y-82.0
X113.0Y-84.0
X113.0Y-86.0
X113.2Y-58.8
X113.2Y-62.4
X114.0Y-44.0
X114.0Y-46.0
X114.0Y-48.0
X114.0Y-57.8
X114.0Y-58.8
X114.0Y-62.4
X114.8Y-58.8
X114.8Y-62.4
X115.0Y-68.0
X115.0Y-82.0
X115.0Y-84.0
X115.0Y-86.0
X115.6Y-58.8
X115.6Y-62.4
X116.2Y-54.1
X117.0Y-50.0
X117.0Y-68.0
X117.0Y-82.0
X117.0Y-84.0
X117.0Y-86.0
X117.4Y-58.8
X117.4Y-62.4
X118.0Y-42.8
X118.0Y-44.4
X118.0Y-46.0
X118.2Y-58.8
X118.2Y-62.4
X119.0Y-50.0
X119.0Y-54.0
X119.0Y-58.8
X119.0Y-62.4
X119.0Y-68.0
X119.0Y-82.0
X119.0Y-84.0
X119.0Y-86.0
X119.8Y-58.8
X119.8Y-62.4
X120.6Y-62.4
X120.7Y-48.2
X120.7Y-49.0
X120.7Y-49.8
X120.7Y-50.6
X120.7Y-51.4
X120.7Y-52.2
X120.7Y-53.0
X120.7Y-53.8
X120.7Y-54.6
X120.7Y-55.5
X120.7Y-56.3
X120.7Y-57.1
X120.7Y-57.8
X120.7Y-58.6
X121.0Y-68.0
X121.0Y-80.0
X121.0Y-82.0
X121.4Y-62.4
X122.2Y-62.4
X122.3Y-63.5
X123.0Y-62.4
X123.0Y-68.0
X123.0Y-80.0
X123.2Y-86.4
X123.2Y-88.0
X124.2Y-61.6
X124.3Y-48.2
X124.3Y-49.0
X124.3Y-49.8
X124.3Y-50.6
X124.3Y-51.4
X124.3Y-52.2
X124.3Y-53.0
X124.3Y-53.8
X124.3Y-54.6
X124.3Y-55.5
X124.3Y-56.3
X124.3Y-57.075
X124.3Y-57.8
X124.3Y-58.6
X125.0Y-61.6
X125.0Y-67.8
X125.0Y-68.6
X125.0Y-69.4
X125.0Y-70.2
X125.0Y-74.2
X125.0Y-75.0
X125.0Y-75.8
X125.0Y-76.6
X125.0Y-77.4
X125.0Y-78.2
X125.0Y-79.0
X125.0Y-79.8
X125.0Y-80.6
X125.0Y-81.4
X125.3Y-58.9
X125.8Y-61.6
X125.8Y-73.4
X126.0Y-50.0
X126.0Y-52.0
X126.0Y-54.0
X126.0Y-55.8
X126.0Y-57.5
X126.1Y-58.9
X126.9Y-58.9
X127.0Y-42.8
X127.0Y-44.4
X127.0Y-46.0
X127.5Y-55.8
X127.5Y-57.5
X127.7Y-58.9
X128.0Y-50.0
X128.0Y-52.0
X128.0Y-54.0
X128.5Y-58.9
X128.8Y-61.6
X129.0Y-55.8
X129.0Y-57.5
X129.3Y-58.9
X129.6Y-64.8
X129.6Y-67.6
X129.6Y-68.4
X129.6Y-79.2
X130.0Y-44.0
X130.0Y-46.0
X130.0Y-48.0
X130.0Y-50.0
X130.0Y-52.0
X130.0Y-54.0
X130.0Y-63.0
X130.0Y-64.0
X130.1Y-58.9
X130.3Y-61.9
X130.4Y-77.4
X130.4Y-78.2
X130.4Y-79.0
X130.4Y-79.8
X130.4Y-80.6
X130.4Y-81.4
X130.5Y-55.8
X130.5Y-57.5
X130.9Y-58.9
X130.9Y-62.4
X131.7Y-58.9
X131.7Y-62.4
X132.0Y-44.0
X132.0Y-46.0
X132.0Y-48.0
X132.0Y-50.0
X132.0Y-52.0
X132.0Y-54.0
X132.0Y-55.8
X132.0Y-57.5
X132.0Y-80.0
X132.025Y-64.0
X132.2Y-68.0
X132.4Y-86.4
X132.4Y-88.0
X132.5Y-58.9
X132.6Y-62.425
X132.97Y-71.13
X133.3Y-58.9
X133.35Y-72.338
X133.5Y-57.5
X133.7Y-62.4
X133.97Y-53.985
X134.0Y-44.0
X134.0Y-46.0
X134.0Y-48.0
X134.0Y-50.0
X134.0Y-52.0
X134.0Y-55.8
X134.0Y-78.0
X134.0Y-80.0
X134.0Y-82.0
X134.025Y-64.0
X134.05Y-71.138
X134.1Y-58.9
X134.2Y-68.0
X134.5Y-62.4
X134.9Y-58.9
X135.0Y-57.5
X135.3Y-62.4
X135.7Y-58.9
X136.0Y-44.0
X136.0Y-46.0
X136.0Y-48.0
X136.0Y-50.0
X136.0Y-52.0
X136.0Y-54.0
X136.0Y-55.8
X136.0Y-78.0
X136.0Y-80.0
X136.0Y-82.0
X136.0Y-86.0
X136.0Y-88.0
X136.025Y-64.0
X136.2Y-68.0
X136.5Y-57.5
X136.5Y-58.9
X136.55Y-62.425
X137.3Y-58.9
X137.4Y-62.4
X137.8Y-52.0
X137.8Y-55.375
X138.0Y-44.0
X138.0Y-46.0
X138.0Y-48.0
X138.0Y-50.0
X138.0Y-57.5
X138.0Y-64.0
X138.0Y-68.0
X138.0Y-72.0
X138.0Y-74.0
X138.0Y-76.0
X138.0Y-78.0
X138.0Y-80.0
X138.0Y-82.0
X138.0Y-86.0
X138.0Y-88.0
X138.1Y-58.9
X138.2Y-62.4
X138.9Y-58.9
X139.0Y-62.4
X139.6Y-52.0
X139.8Y-62.4
X140.0Y-44.0
X140.0Y-46.0
X140.0Y-48.0
X140.0Y-50.0
X140.0Y-68.0
X140.0Y-72.0
X140.0Y-74.0
X140.0Y-76.0
X140.0Y-78.0
X140.0Y-80.0
X140.0Y-82.0
X140.0Y-86.0
X140.0Y-88.0
X140.6Y-61.4
X141.2Y-52.8
X142.0Y-44.0
X142.0Y-46.0
X142.0Y-48.0
X142.0Y-50.0
X142.0Y-68.0
X142.0Y-72.0
X142.0Y-74.0
X142.0Y-76.0
X142.0Y-78.0
X142.0Y-80.0
X142.0Y-82.0
X142.0Y-86.0
X142.0Y-88.0
X142.2Y-52.8
X142.5Y-60.88
X143.9Y-62.5
X144.0Y-44.0
X144.0Y-46.0
X144.0Y-48.0
X144.0Y-50.0
X144.0Y-64.0
X144.0Y-68.0
X144.0Y-72.0
X144.0Y-74.0
X144.0Y-76.0
X144.0Y-78.0
X144.0Y-80.0
X144.0Y-82.0
X144.0Y-86.0
X144.0Y-88.0
X144.6Y-61.4
X144.7Y-62.5
X145.5Y-62.5
X146.0Y-44.0
X146.0Y-46.0
X146.0Y-48.0
X146.0Y-50.0
X146.0Y-52.0
X146.0Y-64.0
X146.0Y-66.0
X146.0Y-68.0
X146.0Y-72.0
X146.0Y-74.0
X146.0Y-76.0
X146.0Y-78.0
X146.0Y-80.0
X146.0Y-82.0
X146.0Y-86.0
X146.0Y-88.0
X146.3Y-62.5
X146.6Y-58.7
X147.1Y-62.5
X147.9Y-58.7
X147.9Y-62.5
X148.0Y-44.0
X148.0Y-46.0
X148.0Y-48.0
X148.0Y-50.0
X148.0Y-52.0
X148.0Y-54.0
X148.0Y-64.0
X148.0Y-66.0
X148.0Y-68.0
X148.0Y-72.0
X148.0Y-74.0
X148.0Y-76.0
X148.0Y-78.0
X148.0Y-80.0
X148.0Y-82.0
X148.0Y-86.0
X148.0Y-88.0
X148.7Y-58.7
X148.7Y-62.5
X149.5Y-58.7
X149.5Y-61.6
X149.5Y-62.5
X149.6Y-59.7
X150.0Y-44.0
X150.0Y-46.0
X150.0Y-48.0
X150.0Y-50.0
X150.0Y-52.0
X150.0Y-54.0
X150.0Y-64.0
X150.0Y-66.0
X150.0Y-68.0
X150.0Y-72.0
X150.0Y-74.0
X150.0Y-76.0
X150.0Y-78.0
X150.0Y-80.0
X150.0Y-82.0
X150.0Y-86.0
X150.0Y-88.0
X150.3Y-58.7
X151.1Y-58.7
X151.9Y-58.7
X152.0Y-44.0
X152.0Y-46.0
X152.0Y-48.0
X152.0Y-50.0
X152.0Y-52.0
X152.0Y-54.0
X152.0Y-55.8
X152.0Y-57.4
X152.0Y-64.0
X152.0Y-66.0
X152.0Y-68.0
X152.0Y-72.0
X152.0Y-74.0
X152.0Y-76.0
X152.0Y-78.0
X152.0Y-80.0
X152.0Y-82.0
X152.0Y-86.0
X152.0Y-88.0
X152.7Y-58.7
X153.5Y-58.7
X154.0Y-44.0
X154.0Y-46.0
X154.0Y-48.0
X154.0Y-50.0
X154.0Y-52.0
X154.0Y-54.0
X154.0Y-55.8
X154.0Y-57.4
X154.0Y-64.0
X154.0Y-66.0
X154.0Y-68.0
X154.0Y-72.0
X154.0Y-74.0
X154.0Y-76.0
X154.0Y-78.0
X154.0Y-80.0
X154.3Y-58.7
X155.1Y-58.7
X155.9Y-58.7
X156.0Y-44.0
X156.0Y-46.0
X156.0Y-48.0
X156.0Y-50.0
X156.0Y-52.0
X156.0Y-54.0
X156.0Y-55.8
X156.0Y-57.4
X156.0Y-64.0
X156.0Y-66.0
X156.0Y-68.0
X156.0Y-72.0
X156.0Y-76.0
X156.0Y-78.0
X156.0Y-80.0
X156.7Y-58.7
X156.7Y-59.6
X156.7Y-61.6
X157.5Y-58.2
X158.0Y-44.0
X158.0Y-46.0
X158.0Y-48.0
X158.0Y-50.0
X158.0Y-52.0
X158.0Y-54.0
X158.0Y-55.8
X158.0Y-78.0
X158.0Y-80.0
X158.3Y-58.2
X158.8Y-63.0
X158.8Y-64.4
X159.1Y-58.2
X159.2Y-67.8
X159.9Y-58.2
X160.0Y-44.0
X160.0Y-46.0
X160.0Y-48.0
X160.0Y-50.0
X160.0Y-52.0
X160.0Y-54.0
X160.0Y-55.8
X160.0Y-67.4
X160.0Y-68.4
X160.0Y-80.0
X161.2Y-69.4
X162.0Y-44.0
X162.0Y-46.0
X162.0Y-48.0
X162.0Y-50.0
X162.0Y-52.0
X162.0Y-54.0
X162.0Y-55.8
X162.0Y-76.8
X162.6Y-58.8
X163.0Y-78.0
X163.2Y-69.4
X163.8Y-62.6
X164.0Y-44.0
X164.0Y-46.0
X164.0Y-48.0
X164.0Y-50.0
X164.0Y-52.0
X164.0Y-54.0
X164.0Y-55.8
X164.0Y-76.8
X165.0Y-78.0
X165.2Y-69.4
X165.6Y-58.2
X166.0Y-44.0
X166.0Y-46.0
X166.0Y-48.0
X166.0Y-50.0
X166.0Y-52.0
X166.0Y-54.0
X166.0Y-55.8
X166.0Y-76.8
X166.4Y-58.2
X166.6Y-61.6
X167.0Y-78.0
X167.2Y-58.2
X167.2Y-69.4
X167.6Y-63.0
X168.0Y-44.0
X168.0Y-46.0
X168.0Y-48.0
X168.0Y-50.0
X168.0Y-52.0
X168.0Y-54.0
X168.0Y-55.8
X168.0Y-58.2
X168.0Y-76.8
X168.0Y-84.0
X168.0Y-85.95
X168.0Y-88.0
X168.2Y-64.2
X168.2Y-66.2
X168.2Y-68.0
X168.4Y-63.0
X169.0Y-78.0
X169.0Y-80.0
X169.2Y-63.0
X169.2Y-69.4
X169.8Y-64.2
X169.8Y-66.2
X170.0Y-63.0
X170.0Y-76.8
X170.0Y-88.0
X170.2Y-68.0
X171.2Y-69.4
X172.2Y-68.0
X172.6Y-56.2
X172.8Y-65.0
X173.2Y-69.4
X174.0Y-68.0
X174.6Y-56.2
X174.8Y-65.0
X175.0Y-69.4
T2
X116.725Y-59.525
X116.725Y-61.735
T3
X122.6Y-71.0
X122.6Y-72.75
X123.593Y-71.5
X156.0Y-74.0
T4
X118.12Y-48.14
X123.37Y-82.76
X126.88Y-48.14
X132.13Y-82.76
X170.92Y-56.25
X170.92Y-65.01
T5
X102.57Y-68.34
X102.57Y-70.88
X102.57Y-73.42
X102.57Y-75.96
X102.57Y-78.5
X155.283Y-83.3
X157.823Y-83.3
X160.363Y-83.3
X162.903Y-83.3
X165.443Y-83.3
T6
X105.0Y-47.0
X105.0Y-84.0
X172.8Y-47.0
X172.8Y-84.0
M30
